<svg xmlns="http://www.w3.org/2000/svg" width="50" height="47.47" viewBox="0 0 50 47.47">
  <g id="_x32_5_x2C__bar_chart_x2C__Analytics_x2C__stats_x2C__graph_x2C__statistics" transform="translate(-18.833 -30.834)">
    <g id="XMLID_1_" transform="translate(18.833 30.834)">
      <g id="XMLID_12_" transform="translate(2.384 28.027)">
        <g id="XMLID_265_">
          <path id="XMLID_854_" d="M48.784,312.133H42.238a.791.791,0,0,1-.791-.791V297.512a.791.791,0,0,1,.791-.791h6.546a.791.791,0,0,1,.791.791v13.831A.791.791,0,0,1,48.784,312.133Zm-5.755-1.581h4.965V298.3H43.028Z" transform="translate(-41.447 -296.721)" fill="#523dbf"/>
        </g>
      </g>
      <g id="XMLID_11_" transform="translate(14.752 15.675)">
        <g id="XMLID_262_">
          <path id="XMLID_849_" d="M166.119,207.3h-6.546a.791.791,0,0,1-.791-.791V180.327a.791.791,0,0,1,.791-.791h6.546a.791.791,0,0,1,.791.791v26.184A.791.791,0,0,1,166.119,207.3Zm-5.755-1.581h4.965v-24.6h-4.965Z" transform="translate(-158.782 -179.536)" fill="#523dbf"/>
        </g>
      </g>
      <g id="XMLID_10_" transform="translate(27.121 26.704)">
        <g id="XMLID_259_">
          <path id="XMLID_844_" d="M283.454,300.9h-6.546a.79.79,0,0,1-.791-.791V284.956a.79.79,0,0,1,.791-.791h6.546a.79.79,0,0,1,.791.791V300.11A.791.791,0,0,1,283.454,300.9ZM277.7,299.32h4.965V285.746H277.7Z" transform="translate(-276.117 -284.165)" fill="#523dbf"/>
        </g>
      </g>
      <g id="XMLID_9_" transform="translate(39.489 20.969)">
        <g id="XMLID_256_">
          <path id="XMLID_839_" d="M400.79,252.229h-6.546a.79.79,0,0,1-.791-.791v-20.89a.791.791,0,0,1,.791-.791h6.546a.791.791,0,0,1,.791.791v20.89A.791.791,0,0,1,400.79,252.229Zm-5.755-1.581H400V231.339h-4.965Z" transform="translate(-393.453 -229.758)" fill="#523dbf"/>
        </g>
      </g>
      <g id="XMLID_8_" transform="translate(1.881 12.56)">
        <g id="XMLID_253_">
          <path id="XMLID_834_" d="M41.243,159.117a4.566,4.566,0,1,1,4.567-4.567A4.572,4.572,0,0,1,41.243,159.117Zm0-7.551a2.985,2.985,0,1,0,2.985,2.985A2.989,2.989,0,0,0,41.243,151.566Z" transform="translate(-36.676 -149.985)" fill="#523dbf"/>
        </g>
      </g>
      <g id="XMLID_7_" transform="translate(14.249 0)">
        <g id="XMLID_250_">
          <path id="XMLID_829_" d="M158.578,39.966a4.566,4.566,0,1,1,4.567-4.566A4.572,4.572,0,0,1,158.578,39.966Zm0-7.551a2.985,2.985,0,1,0,2.985,2.985A2.988,2.988,0,0,0,158.578,32.415Z" transform="translate(-154.012 -30.834)" fill="#523dbf"/>
        </g>
      </g>
      <g id="XMLID_6_" transform="translate(26.618 11.233)">
        <g id="XMLID_247_">
          <path id="XMLID_824_" d="M275.913,146.533a4.566,4.566,0,1,1,4.566-4.566A4.572,4.572,0,0,1,275.913,146.533Zm0-7.551a2.985,2.985,0,1,0,2.985,2.985A2.988,2.988,0,0,0,275.913,138.981Z" transform="translate(-271.347 -137.4)" fill="#523dbf"/>
        </g>
      </g>
      <g id="XMLID_5_" transform="translate(38.986 5.521)">
        <g id="XMLID_244_">
          <path id="XMLID_819_" d="M393.248,92.343a4.566,4.566,0,1,1,4.567-4.567A4.572,4.572,0,0,1,393.248,92.343Zm0-7.551a2.985,2.985,0,1,0,2.985,2.985A2.988,2.988,0,0,0,393.248,84.791Z" transform="translate(-388.682 -83.21)" fill="#523dbf"/>
        </g>
      </g>
      <g id="XMLID_4_" transform="translate(9.035 7.146)">
        <g id="XMLID_243_">
          <path id="XMLID_742_" d="M104.771,105.733a.791.791,0,0,1,.007-1.118l5.837-5.759a.791.791,0,0,1,1.111,1.125l-5.837,5.759A.79.79,0,0,1,104.771,105.733Z" transform="translate(-104.543 -98.629)" fill="#523dbf"/>
        </g>
      </g>
      <g id="XMLID_3_" transform="translate(21.434 6.862)">
        <g id="XMLID_242_">
          <path id="XMLID_741_" d="M228.315,102.7,222.424,97.3a.791.791,0,1,1,1.068-1.166l5.891,5.392a.791.791,0,1,1-1.068,1.166Z" transform="translate(-222.167 -95.93)" fill="#523dbf"/>
        </g>
      </g>
      <g id="XMLID_2_" transform="translate(34.111 11.241)">
        <g id="XMLID_241_">
          <path id="XMLID_212_" d="M342.513,140.772a.79.79,0,0,1,.365-1.057l4.439-2.158a.791.791,0,1,1,.691,1.422l-4.439,2.158A.791.791,0,0,1,342.513,140.772Z" transform="translate(-342.433 -137.477)" fill="#523dbf"/>
        </g>
      </g>
      <g id="XMLID_13_" transform="translate(0 41.859)">
        <g id="XMLID_238_">
          <path id="XMLID_805_" d="M68.042,433.545H19.624a.791.791,0,0,1-.791-.791v-4.03a.791.791,0,0,1,.791-.791H68.042a.79.79,0,0,1,.791.791v4.03A.791.791,0,0,1,68.042,433.545Zm-47.628-1.581H67.252v-2.449H20.414Z" transform="translate(-18.833 -427.934)" fill="#523dbf"/>
        </g>
      </g>
      <g id="XMLID_14_" transform="translate(2.384 32.244)">
        <g id="XMLID_237_">
          <path id="XMLID_802_" d="M48.784,338.3H42.238a.791.791,0,1,1,0-1.581h6.546a.791.791,0,1,1,0,1.581Z" transform="translate(-41.447 -336.721)" fill="#523dbf"/>
        </g>
      </g>
      <g id="XMLID_15_" transform="translate(14.752 19.891)">
        <g id="XMLID_236_">
          <path id="XMLID_799_" d="M166.119,221.117h-6.546a.791.791,0,1,1,0-1.581h6.546a.791.791,0,0,1,0,1.581Z" transform="translate(-158.782 -219.536)" fill="#523dbf"/>
        </g>
      </g>
      <g id="XMLID_16_" transform="translate(27.121 30.92)">
        <g id="XMLID_235_">
          <path id="XMLID_796_" d="M283.454,325.746h-6.546a.791.791,0,1,1,0-1.581h6.546a.791.791,0,1,1,0,1.581Z" transform="translate(-276.117 -324.165)" fill="#523dbf"/>
        </g>
      </g>
      <g id="XMLID_17_" transform="translate(39.489 25.185)">
        <g id="XMLID_220_">
          <path id="XMLID_793_" d="M400.79,271.339h-6.546a.791.791,0,0,1,0-1.581h6.546a.791.791,0,0,1,0,1.581Z" transform="translate(-393.453 -269.758)" fill="#523dbf"/>
        </g>
      </g>
    </g>
  </g>
</svg>
