<svg xmlns="http://www.w3.org/2000/svg" width="50" height="49.566" viewBox="0 0 50 49.566">
  <g id="_x32_2_x2C__data_mining_x2C__digging_x2C__information_x2C__data_x2C__coal" transform="translate(-31.5 -33.451)">
    <g id="XMLID_32_" transform="translate(31.5 33.451)">
      <g id="XMLID_34_" transform="translate(14.139 41.371)">
        <g id="XMLID_306_">
          <path id="XMLID_829_" d="M179.356,406.634H159.305a.835.835,0,1,1,0-1.67h20.051a.835.835,0,1,1,0,1.67Z" transform="translate(-158.47 -404.964)" fill="#523dbf"/>
        </g>
      </g>
      <g id="XMLID_33_" transform="translate(3.899 21.454)">
        <g id="XMLID_305_">
          <path id="XMLID_744_" d="M68.948,240.642l-2.424-13.548a.836.836,0,0,1,.822-.982h40.532a.835.835,0,0,1,.816,1.012l-2.922,13.458a.835.835,0,1,1-1.632-.354l2.7-12.446h-38.5l2.248,12.566a.835.835,0,0,1-1.644.294Z" transform="translate(-66.511 -226.112)" fill="#523dbf"/>
        </g>
      </g>
      <g id="XMLID_31_" transform="translate(1.156 34.867)">
        <g id="XMLID_302_" transform="translate(0 0)">
          <path id="XMLID_821_" d="M49.211,361.211a7.327,7.327,0,1,1,7.327-7.327A7.335,7.335,0,0,1,49.211,361.211Zm0-12.983a5.656,5.656,0,1,0,5.656,5.656A5.663,5.663,0,0,0,49.211,348.228Z" transform="translate(-41.884 -346.558)" fill="#523dbf"/>
        </g>
      </g>
      <g id="XMLID_30_" transform="translate(4.891 38.602)">
        <g id="XMLID_299_">
          <path id="XMLID_816_" d="M79.014,387.279a3.592,3.592,0,1,1,3.592-3.592A3.6,3.6,0,0,1,79.014,387.279Zm0-5.513a1.921,1.921,0,1,0,1.921,1.921A1.924,1.924,0,0,0,79.014,381.766Z" transform="translate(-75.422 -380.095)" fill="#523dbf"/>
        </g>
      </g>
      <g id="XMLID_29_" transform="translate(34.19 34.913)">
        <g id="XMLID_296_" transform="translate(0 0)">
          <path id="XMLID_811_" d="M345.854,361.619a7.327,7.327,0,1,1,7.327-7.327A7.335,7.335,0,0,1,345.854,361.619Zm0-12.983a5.656,5.656,0,1,0,5.656,5.656A5.663,5.663,0,0,0,345.854,348.636Z" transform="translate(-338.527 -346.966)" fill="#523dbf"/>
        </g>
      </g>
      <g id="XMLID_28_" transform="translate(37.925 38.647)">
        <g id="XMLID_293_" transform="translate(0 0)">
          <path id="XMLID_806_" d="M375.657,387.689a3.592,3.592,0,1,1,3.592-3.592A3.6,3.6,0,0,1,375.657,387.689Zm0-5.513a1.921,1.921,0,1,0,1.921,1.921A1.924,1.924,0,0,0,375.657,382.175Z" transform="translate(-372.065 -380.505)" fill="#523dbf"/>
        </g>
      </g>
      <g id="XMLID_27_" transform="translate(0 14.675)">
        <g id="XMLID_290_">
          <path id="XMLID_801_" d="M80.665,173.679H32.335a.835.835,0,0,1-.835-.835v-6.78a.835.835,0,0,1,.835-.835h48.33a.835.835,0,0,1,.835.835v6.78A.835.835,0,0,1,80.665,173.679Zm-47.494-1.67H79.83V166.9H33.17Z" transform="translate(-31.5 -165.229)" fill="#523dbf"/>
        </g>
      </g>
      <g id="XMLID_36_" transform="translate(4.838 0)">
        <g id="XMLID_287_">
          <path id="XMLID_796_" d="M114.821,49.8H76.081a.835.835,0,0,1-.8-.593,7.875,7.875,0,0,1,9.125-9.994,13.471,13.471,0,0,1,22.088,0,7.875,7.875,0,0,1,9.126,9.994A.835.835,0,0,1,114.821,49.8Zm-38.089-1.67H114.17a6.2,6.2,0,0,0-7.812-7.164.836.836,0,0,1-.937-.355,11.8,11.8,0,0,0-19.938,0,.835.835,0,0,1-.937.355,6.2,6.2,0,0,0-7.812,7.164Z" transform="translate(-74.944 -33.451)" fill="#523dbf"/>
        </g>
      </g>
      <g id="XMLID_35_" transform="translate(4.891 27)">
        <g id="XMLID_286_">
          <path id="XMLID_793_" d="M114.577,277.584H76.257a.835.835,0,1,1,0-1.67h38.319a.835.835,0,1,1,0,1.67Z" transform="translate(-75.422 -275.914)" fill="#523dbf"/>
        </g>
      </g>
    </g>
  </g>
</svg>
