<svg xmlns="http://www.w3.org/2000/svg" width="16" height="12.8" viewBox="0 0 16 12.8">
  <path id="robot-solid" d="M8,0a.8.8,0,0,1,.8.8V2.4h3a1.8,1.8,0,0,1,1.8,1.8V11a1.8,1.8,0,0,1-1.8,1.8H4.2A1.8,1.8,0,0,1,2.4,11V4.2A1.8,1.8,0,0,1,4.2,2.4h3V.8A.8.8,0,0,1,8,0ZM5.2,9.6a.4.4,0,1,0,0,.8H6a.4.4,0,1,0,0-.8Zm2.4,0a.4.4,0,0,0,0,.8h.8a.4.4,0,0,0,0-.8Zm2.4,0a.4.4,0,0,0,0,.8h.8a.4.4,0,0,0,0-.8ZM6.6,6.4a1,1,0,1,0-1,1A1,1,0,0,0,6.6,6.4Zm3.8,1a1,1,0,1,0-1-1A1,1,0,0,0,10.4,7.4ZM1.2,5.6h.4v4.8H1.2A1.2,1.2,0,0,1,0,9.2V6.8A1.2,1.2,0,0,1,1.2,5.6Zm13.6,0A1.2,1.2,0,0,1,16,6.8V9.2a1.2,1.2,0,0,1-1.2,1.2h-.4V5.6Z" fill="#523dbf"/>
</svg>
