<svg id="Grupo_1114806" data-name="Grupo 1114806" xmlns="http://www.w3.org/2000/svg" width="122.486" height="122.486" viewBox="0 0 122.486 122.486">
  <g id="Rectángulo_402033" data-name="Rectángulo 402033" transform="translate(0)" fill="#fe9ab8" stroke="#fff" stroke-width="3">
    <rect width="122.486" height="122.486" rx="8" stroke="none"/>
    <rect x="1.5" y="1.5" width="119.486" height="119.486" rx="6.5" fill="none"/>
  </g>
  <g id="Page-1" transform="translate(34.243 31.244)">
    <g id="_042---Robot-Brain" data-name="042---Robot-Brain" transform="translate(0 -1)">
      <g id="Icons_copy" transform="translate(9 2)">
        <rect id="Rectangle" width="28" height="17" rx="3" transform="translate(4 41)" fill="#ffdf00"/>
        <path id="Path" d="M29,41H26a3,3,0,0,1,3,3V55a3,3,0,0,1-3,3h3a3,3,0,0,0,3-3V44A3,3,0,0,0,29,41Z" fill="#fec108" fill-rule="evenodd"/>
        <circle id="Oval" cx="2.5" cy="2.5" r="2.5" transform="translate(8 45)" fill="#02a9f4"/>
        <circle id="Oval-2" data-name="Oval" cx="2.5" cy="2.5" r="2.5" transform="translate(23 45)" fill="#02a9f4"/>
        <path id="Path-2" data-name="Path" d="M4,44,.553,45.724A1,1,0,0,0,0,46.618v5.764a1,1,0,0,0,.553.894L4,55" fill="#fec108" fill-rule="evenodd"/>
        <path id="Path-3" data-name="Path" d="M32,44l3.447,1.724a1,1,0,0,1,.553.894v5.764a1,1,0,0,1-.553.894L32,55" fill="#fec108" fill-rule="evenodd"/>
        <path id="Path-4" data-name="Path" d="M8.14,18.91A4.141,4.141,0,0,1,5.2,17.7" fill="#ef314c" fill-rule="evenodd"/>
        <path id="Path-5" data-name="Path" d="M18,2.37v24.5a4.135,4.135,0,0,1-7.95,1.59,3.5,3.5,0,0,1-3.11-5.11A3.173,3.173,0,0,1,5.2,17.7a4.155,4.155,0,0,1,.21-6.04A3.809,3.809,0,0,1,8.94,6.83a2.859,2.859,0,0,1,1.4-4.29h.01C18-3.07,18,2.37,18,2.37Z" fill="#ef314c" fill-rule="evenodd"/>
        <path id="Path-6" data-name="Path" d="M14.074.375a2.691,2.691,0,0,1,.926,2v24.5a4.123,4.123,0,0,1-2.633,3.838A4.084,4.084,0,0,0,13.86,31,4.133,4.133,0,0,0,18,26.87V2.37s0-3.479-3.926-2Z" fill="#bb193b" fill-rule="evenodd"/>
        <path id="Path-7" data-name="Path" d="M32,20.18a3.177,3.177,0,0,1-2.94,3.17,3.5,3.5,0,0,1-3.11,5.11A4.135,4.135,0,0,1,18,26.87V2.37s0-5.44,7.65.17h.01a2.859,2.859,0,0,1,1.4,4.29,3.809,3.809,0,0,1,3.53,4.83,4.155,4.155,0,0,1,.21,6.04A3.154,3.154,0,0,1,32,20.18Z" fill="#ef314c" fill-rule="evenodd"/>
        <path id="Path-8" data-name="Path" d="M30.8,17.7a4.155,4.155,0,0,0-.21-6.04,3.809,3.809,0,0,0-3.53-4.83,2.859,2.859,0,0,0-1.4-4.29h-.01C21.781-.3,19.871-.307,18.926.375A16.335,16.335,0,0,1,22.65,2.54h.01a2.859,2.859,0,0,1,1.4,4.29,3.809,3.809,0,0,1,3.53,4.83,4.155,4.155,0,0,1,.21,6.04,3.173,3.173,0,0,1-1.74,5.65,3.5,3.5,0,0,1-3.11,5.11,4.139,4.139,0,0,1-2.317,2.248A4.107,4.107,0,0,0,25.95,28.46a3.5,3.5,0,0,0,3.11-5.11A3.173,3.173,0,0,0,30.8,17.7Z" fill="#bb193b" fill-rule="evenodd"/>
        <circle id="Oval-3" data-name="Oval" cx="2" cy="2" r="2" transform="translate(16 33)" fill="#ef314c"/>
      </g>
      <g id="Icons">
        <path id="Path-9" data-name="Path" d="M30.2,53.4a4,4,0,0,1-6.4,0,1,1,0,0,0-1.6,1.2,6,6,0,0,0,9.6,0,1,1,0,1,0-1.6-1.2Z" fill-rule="evenodd"/>
        <path id="Shape" d="M19.5,46A3.5,3.5,0,1,0,23,49.5,3.5,3.5,0,0,0,19.5,46Zm0,5A1.5,1.5,0,1,1,21,49.5,1.5,1.5,0,0,1,19.5,51Z"/>
        <path id="Shape-2" data-name="Shape" d="M34.5,46A3.5,3.5,0,1,0,38,49.5,3.5,3.5,0,0,0,34.5,46Zm0,5A1.5,1.5,0,1,1,36,49.5,1.5,1.5,0,0,1,34.5,51Z"/>
        <path id="Path-10" data-name="Path" d="M23.172,14.537a3.225,3.225,0,0,1-4.54-.11,1,1,0,1,0-1.481,1.345,5.154,5.154,0,0,0,2.16,1.41,1.864,1.864,0,0,1-.8.671,1,1,0,0,0,.394,1.918.975.975,0,0,0,.393-.081,3.854,3.854,0,0,0,2.122-2.279,5.077,5.077,0,0,0,3.17-1.46,1,1,0,1,0-1.415-1.414Z" fill-rule="evenodd"/>
        <path id="Path-11" data-name="Path" d="M24,20a5.734,5.734,0,0,0-.589.031,4.123,4.123,0,0,0-3.545,2.708,4.32,4.32,0,0,0,1.046,4.5A2.512,2.512,0,0,1,21.655,29a1,1,0,0,0,2,0,4.5,4.5,0,0,0-1.316-3.161,2.337,2.337,0,0,1-.59-2.426,2.137,2.137,0,0,1,1.874-1.394c.123-.012.249-.019.377-.019a1,1,0,0,0,0-2Z" fill-rule="evenodd"/>
        <path id="Path-12" data-name="Path" d="M30.208,20.033A5.632,5.632,0,0,0,29.622,20a1,1,0,1,0,0,2c.128,0,.254.007.375.019a2.137,2.137,0,0,1,1.876,1.394,2.337,2.337,0,0,1-.59,2.426A4.5,4.5,0,0,0,29.967,29a1,1,0,0,0,2,0,2.512,2.512,0,0,1,.743-1.761,4.318,4.318,0,0,0,1.046-4.5,4.124,4.124,0,0,0-3.548-2.706Z" fill-rule="evenodd"/>
        <path id="Path-13" data-name="Path" d="M29.413,15.951a5.077,5.077,0,0,0,3.17,1.46,3.538,3.538,0,0,0,2.515,2.36,1,1,0,0,0,.394-1.918,1.864,1.864,0,0,1-.8-.671,5.154,5.154,0,0,0,2.16-1.41,1,1,0,0,0-1.481-1.345,3.225,3.225,0,0,1-4.54.11,1,1,0,1,0-1.415,1.414Z" fill-rule="evenodd"/>
        <path id="Shape-3" data-name="Shape" d="M50,9H39.033a4.8,4.8,0,0,0-1.6-.909,3.8,3.8,0,0,0-2.287-4.422c-3.324-2.418-5.76-3.187-7.438-2.336A2.749,2.749,0,0,0,27,1.865a2.749,2.749,0,0,0-.713-.532c-1.679-.851-4.115-.082-7.441,2.338a3.793,3.793,0,0,0-2.284,4.42,4.8,4.8,0,0,0-1.6.909H4a4,4,0,0,0-4,4V51a4,4,0,0,0,4,4h4.1a1.98,1.98,0,0,0,1,1.171l2.961,1.48A4,4,0,0,0,16,61H38a4,4,0,0,0,3.934-3.349l2.96-1.48A1.978,1.978,0,0,0,45.9,55H50a4,4,0,0,0,4-4V13a4,4,0,0,0-4-4ZM46,24a2,2,0,0,1,2,2V46a2,2,0,0,1-2,2h-.1a1.98,1.98,0,0,0-1-1.171l-2.961-1.48A4,4,0,0,0,38,42H28V39.816a3,3,0,1,0-2,0V42H16a4,4,0,0,0-3.934,3.349l-2.96,1.48a1.978,1.978,0,0,0-1,1.171H8a2,2,0,0,1-2-2V26a2,2,0,0,1,2-2h4.42a4.214,4.214,0,0,0,2.215,2.065A4.5,4.5,0,0,0,18.4,31.41a5.117,5.117,0,0,0,8.6.472,5.117,5.117,0,0,0,8.6-.472,4.5,4.5,0,0,0,3.767-5.345A4.214,4.214,0,0,0,41.58,24ZM27,38a1,1,0,1,1,1-1A1,1,0,0,1,27,38ZM28.624,3.113c.254-.126,1.12-.343,3.159.763A3.841,3.841,0,0,0,30.167,5.62a1,1,0,0,0,1.818.832,1.859,1.859,0,0,1,3.442,1.4,4.8,4.8,0,0,0-3.962,2.922,1,1,0,1,0,1.844.774,2.818,2.818,0,0,1,5.418,1.087,2.869,2.869,0,0,1-.1.759,1.129,1.129,0,0,0,.306,1.017,3.137,3.137,0,0,1-2.065,5.5,1,1,0,0,0,0,2,5.1,5.1,0,0,0,2.815-.843A2.158,2.158,0,0,1,40,22.184a2.184,2.184,0,0,1-2.014,2.171,1,1,0,0,0-.809,1.467,2.414,2.414,0,0,1,.278,1.134,2.5,2.5,0,0,1-2.5,2.5,1,1,0,0,0-.923.615A3.136,3.136,0,0,1,28,28.865V13.911A.91.91,0,0,1,28.909,13a1,1,0,0,0,0-2,2.86,2.86,0,0,0-.909.16V4.374c0-.01.033-.968.624-1.261Zm-3.248,0c.591.293.624,1.251.624,1.252V7.979a2.888,2.888,0,0,0-.909-.16,1,1,0,1,0,0,2,.911.911,0,0,1,.909.91V28.865a3.136,3.136,0,0,1-6.032,1.206,1,1,0,0,0-.923-.615,2.5,2.5,0,0,1-2.5-2.5,2.414,2.414,0,0,1,.278-1.134,1,1,0,0,0-.809-1.467,2.16,2.16,0,0,1-1.694-3.286,5.106,5.106,0,0,0,2.816.842,1,1,0,0,0,0-2,3.137,3.137,0,0,1-2.065-5.5,1.089,1.089,0,0,0,.306-1.017,2.869,2.869,0,0,1-.1-.759A2.818,2.818,0,0,1,20.7,11.548a1,1,0,1,0,1.844-.774,4.8,4.8,0,0,0-3.962-2.922,1.86,1.86,0,0,1,3.442-1.4,1,1,0,0,0,1.818-.832,3.849,3.849,0,0,0-1.615-1.744c2.034-1.106,2.9-.889,3.154-.763ZM2,51V13a2,2,0,0,1,2-2h9.579a4.53,4.53,0,0,0-.252,2.334,5.123,5.123,0,0,0-.453,6.3A4.133,4.133,0,0,0,12.021,22H8a4,4,0,0,0-4,4V46a4,4,0,0,0,4,4v3H4a2,2,0,0,1-2-2Zm8-2.382,2-1v7.764l-2-1ZM40,57a2,2,0,0,1-2,2H16a2,2,0,0,1-2-2V46a2,2,0,0,1,2-2H38a2,2,0,0,1,2,2Zm4-2.618-2,1V47.618l2,1ZM52,51a2,2,0,0,1-2,2H46V50a4,4,0,0,0,4-4V26a4,4,0,0,0-4-4H41.979a4.133,4.133,0,0,0-.853-2.364,5.123,5.123,0,0,0-.453-6.3A4.53,4.53,0,0,0,40.421,11H50a2,2,0,0,1,2,2Z"/>
      </g>
    </g>
  </g>
</svg>
