<svg xmlns="http://www.w3.org/2000/svg" width="50" height="50" viewBox="0 0 50 50">
  <g id="Grupo_1115730" data-name="Grupo 1115730" transform="translate(-1.5 -1.5)">
    <g id="Grupo_1115729" data-name="Grupo 1115729" transform="translate(1.5 1.5)">
      <path id="Trazado_928132" data-name="Trazado 928132" d="M44.816,30.092a4.31,4.31,0,1,0,0-7.185l-6.752-6.752L44.816,9.4a4.307,4.307,0,1,0-1.85-4.455H30.723a4.31,4.31,0,0,0-8.446,0H10.033A4.32,4.32,0,1,0,8.184,9.4l6.752,6.752L8.184,22.908a4.31,4.31,0,1,0,0,7.185l6.752,6.752L8.184,43.6a4.307,4.307,0,1,0,1.85,4.454H22.277a4.31,4.31,0,0,0,8.446,0H42.966a4.32,4.32,0,1,0,1.85-4.455l-6.752-6.752Zm2.373-6.179A2.586,2.586,0,1,1,44.6,26.5,2.589,2.589,0,0,1,47.19,23.914Zm-3.592.213a4.282,4.282,0,0,0,0,4.747l-6.752,6.752L31.316,30.1a5.919,5.919,0,0,0,0-7.194l5.529-5.529ZM28.873,43.6a4.282,4.282,0,0,0-4.747,0l-6.752-6.752L22.9,31.316a5.919,5.919,0,0,0,7.194,0l5.529,5.529L28.873,43.6ZM26.5,22.19a4.31,4.31,0,1,1-4.31,4.31,4.314,4.314,0,0,1,4.31-4.31Zm9.937-7.661a.862.862,0,1,0-1.219,1.219l.407.407L30.1,21.684a5.919,5.919,0,0,0-7.194,0l-5.529-5.529L24.127,9.4a4.282,4.282,0,0,0,4.747,0l1.482,1.482a.862.862,0,1,0,1.219-1.219L30.092,8.184a4.282,4.282,0,0,0,.631-1.511H42.966A4.282,4.282,0,0,0,43.6,8.184l-6.752,6.752-.407-.407ZM47.19,3.224A2.586,2.586,0,1,1,44.6,5.81,2.589,2.589,0,0,1,47.19,3.224Zm-20.69,0A2.586,2.586,0,1,1,23.914,5.81,2.589,2.589,0,0,1,26.5,3.224ZM3.224,5.81A2.586,2.586,0,1,1,5.81,8.4,2.589,2.589,0,0,1,3.224,5.81ZM9.4,8.184a4.281,4.281,0,0,0,.631-1.511H22.277a4.281,4.281,0,0,0,.631,1.511l-6.752,6.752L9.4,8.184ZM3.224,26.5A2.586,2.586,0,1,1,5.81,29.086,2.589,2.589,0,0,1,3.224,26.5ZM9.4,28.873a4.281,4.281,0,0,0,0-4.747l6.752-6.752L21.684,22.9a5.919,5.919,0,0,0,0,7.194l-5.529,5.529Zm13.5,15.943a4.281,4.281,0,0,0-.631,1.511H10.033A4.281,4.281,0,0,0,9.4,44.816l6.752-6.752,6.752,6.752Zm-17.1,4.96A2.586,2.586,0,1,1,8.4,47.19,2.589,2.589,0,0,1,5.81,49.776Zm20.69,0a2.586,2.586,0,1,1,2.586-2.586A2.589,2.589,0,0,1,26.5,49.776ZM49.776,47.19A2.586,2.586,0,1,1,47.19,44.6,2.589,2.589,0,0,1,49.776,47.19ZM43.6,44.816a4.282,4.282,0,0,0-.631,1.511H30.723a4.282,4.282,0,0,0-.631-1.511l6.752-6.752Z" transform="translate(-1.5 -1.5)" fill="#523dbf"/>
      <circle id="Elipse_14689" data-name="Elipse 14689" cx="0.5" cy="0.5" r="0.5" transform="translate(31.5 10.5)" fill="#523dbf"/>
    </g>
    <path id="Trazado_928133" data-name="Trazado 928133" d="M17,16.5a.5.5,0,0,1-.5-.5.5.5,0,0,0-.5-.5.5.5,0,0,1,0-1A1.5,1.5,0,0,1,17.5,16,.5.5,0,0,1,17,16.5Z" transform="translate(10.889 10.111)" fill="#523dbf"/>
  </g>
</svg>
