<svg xmlns="http://www.w3.org/2000/svg" width="32" height="31.985" viewBox="0 0 32 31.985">
  <g id="_021---Cyber-Security" data-name="021---Cyber-Security" transform="translate(-0.985 0)">
    <path id="Shape" d="M24.6,29.727H29.93a1.6,1.6,0,0,0,1.6-1.6v-4.8a1.6,1.6,0,0,0-1.6-1.6V20.665a2.665,2.665,0,0,0-5.331,0v1.066a1.6,1.6,0,0,0-1.6,1.6v4.8A1.6,1.6,0,0,0,24.6,29.727Zm1.066-9.062a1.6,1.6,0,1,1,3.2,0v1.066h-3.2Zm-1.6,2.665A.533.533,0,0,1,24.6,22.8H29.93a.533.533,0,0,1,.533.533v4.8a.533.533,0,0,1-.533.533H24.6a.533.533,0,0,1-.533-.533Z" transform="translate(-10.28 -8.405)" fill="#360742"/>
    <path id="Shape-2" data-name="Shape" d="M29.066,32.095v.1a.533.533,0,0,0,1.066,0v-.1a1.6,1.6,0,1,0-1.066,0ZM29.6,30.06a.533.533,0,1,1-.533.533.533.533,0,0,1,.533-.533Z" transform="translate(-12.614 -13.535)" fill="#360742"/>
    <path id="Shape-3" data-name="Shape" d="M14,22.062A9.062,9.062,0,1,0,23.062,13,9.062,9.062,0,0,0,14,22.062Zm9.062-8a8,8,0,1,1-8,8A8,8,0,0,1,23.062,14.066Z" transform="translate(-6.077 -6.07)" fill="#360742"/>
    <path id="Shape-4" data-name="Shape" d="M44.93,47.793a2.132,2.132,0,0,0-2.057,1.6H39.066V46.17a11.141,11.141,0,0,0,3.2-2.268.533.533,0,1,0-.761-.746,10.108,10.108,0,0,1-3.165,2.188.524.524,0,0,0-.189.128c-.006.006-.009.015-.015.022a.527.527,0,0,0-.093.147.51.51,0,0,0-.021.1.493.493,0,0,0-.021.093v3.556a1.066,1.066,0,0,0,1.066,1.066h3.807a2.129,2.129,0,1,0,2.057-2.665Zm0,3.2A1.066,1.066,0,1,1,46,49.925,1.066,1.066,0,0,1,44.93,50.991Z" transform="translate(-17.284 -20.073)" fill="#360742"/>
    <path id="Shape-5" data-name="Shape" d="M5.182,37.264H7.758l.013,0a.512.512,0,0,0,.155-.031A.534.534,0,0,0,8,37.2c.006,0,.013,0,.019-.008s.015-.015.023-.021a.5.5,0,0,0,.127-.112l.018-.026a.523.523,0,0,0,.077-.16.127.127,0,0,1,0-.024.508.508,0,0,0,.025-.119.456.456,0,0,0-.012-.06.042.042,0,0,0,0-.021.518.518,0,0,0-.06-.178l0-.009a10.041,10.041,0,0,1-1.152-3.038.533.533,0,0,0-1.045.213A11.112,11.112,0,0,0,6.867,36.2H5.182a2.132,2.132,0,1,0,0,1.066ZM3.125,37.8a1.066,1.066,0,1,1,1.066-1.066A1.066,1.066,0,0,1,3.125,37.8Z" transform="translate(0 -15.408)" fill="#360742"/>
    <path id="Shape-6" data-name="Shape" d="M1,16.731a2.128,2.128,0,0,0,4.189.533h2.59a.546.546,0,0,0,.154-.031A.48.48,0,0,0,8,17.205a.467.467,0,0,0,.08-.053A.5.5,0,0,0,8.2,17.03c.007-.01.016-.018.022-.028a10.111,10.111,0,0,1,2.7-3.042.533.533,0,0,0-.64-.853A11.177,11.177,0,0,0,7.468,16.2H5.189A2.128,2.128,0,0,0,1,16.731Zm3.2,0a1.066,1.066,0,1,1-.312-.754,1.066,1.066,0,0,1,.312.754Z" transform="translate(-0.007 -6.07)" fill="#360742"/>
    <path id="Shape-7" data-name="Shape" d="M52.475,34.6a2.132,2.132,0,0,0-2.057,1.6H48.733a11.073,11.073,0,0,0,.853-2.559.533.533,0,0,0-1.045-.213,10.038,10.038,0,0,1-1.151,3.038v.007a.516.516,0,0,0-.062.182.029.029,0,0,1,0,.017.582.582,0,0,0-.013.06.525.525,0,0,0,.025.123.037.037,0,0,0,0,.021.511.511,0,0,0,.078.16c.005.008.01.016.015.023a.519.519,0,0,0,.128.113c.009.006.014.015.023.02a.193.193,0,0,0,.019.008.5.5,0,0,0,.074.03.533.533,0,0,0,.154.031l.013,0h2.576A2.129,2.129,0,1,0,52.475,34.6Zm0,3.2a1.066,1.066,0,1,1,1.066-1.066A1.066,1.066,0,0,1,52.475,37.8Z" transform="translate(-21.631 -15.409)" fill="#360742"/>
    <path id="Shape-8" data-name="Shape" d="M16.055,45.375v-.009a.541.541,0,0,0-.018-.088.554.554,0,0,0-.022-.107.524.524,0,0,0-.092-.144c-.007-.008-.01-.018-.017-.025a.526.526,0,0,0-.189-.128,10.213,10.213,0,0,1-3.628-2.694.533.533,0,1,0-.81.693,11.28,11.28,0,0,0,3.709,2.835v3.215H11.182a2.132,2.132,0,1,0,0,1.066h3.807a1.066,1.066,0,0,0,1.066-1.066ZM9.125,50.52a1.066,1.066,0,1,1,1.066-1.066A1.066,1.066,0,0,1,9.125,50.52Z" transform="translate(-2.802 -19.603)" fill="#360742"/>
    <path id="Path" d="M30.68,48.608a10.288,10.288,0,0,1-4.051,0,.533.533,0,1,0-.213,1.044,11.236,11.236,0,0,0,1.706.2v4.291a.533.533,0,1,0,1.066,0V49.85a11.228,11.228,0,0,0,1.706-.2.533.533,0,0,0-.213-1.044Z" transform="translate(-11.669 -22.691)" fill="#360742"/>
    <path id="Shape-9" data-name="Shape" d="M14.989,1.6H11.182a2.132,2.132,0,1,0,0,1.066h3.807V6.222A.535.535,0,0,0,15,6.285a.53.53,0,0,0,.042.16.5.5,0,0,0,.087.13.477.477,0,0,0,.058.053.549.549,0,0,0,.084.057.556.556,0,0,0,.077.035.545.545,0,0,0,.117.023.455.455,0,0,0,.053.011.527.527,0,0,0,.22-.053,10.112,10.112,0,0,1,2.02-.634.533.533,0,1,0-.213-1.045,11.1,11.1,0,0,0-1.493.416V2.665A1.066,1.066,0,0,0,14.989,1.6ZM9.125,3.2a1.066,1.066,0,1,1,.754-.312,1.066,1.066,0,0,1-.754.312Z" transform="translate(-2.802 0)" fill="#360742"/>
    <path id="Shape-10" data-name="Shape" d="M42.873,2.665a2.132,2.132,0,1,0,0-1.066H39.066A1.066,1.066,0,0,0,38,2.665V6.22a.493.493,0,0,0,.019.093.51.51,0,0,0,.021.1.527.527,0,0,0,.093.147c.006.007.009.016.015.022a.523.523,0,0,0,.189.128A10.107,10.107,0,0,1,41.5,8.9a.533.533,0,1,0,.763-.743,11.141,11.141,0,0,0-3.2-2.268V2.665Zm2.057-1.6a1.066,1.066,0,1,1-1.066,1.066A1.066,1.066,0,0,1,44.93,1.066Z" transform="translate(-17.284 0)" fill="#360742"/>
    <path id="Path-2" data-name="Path" d="M30.533,0A.533.533,0,0,0,30,.533v4.8a.533.533,0,0,0,.533.533,10.208,10.208,0,0,1,2.026.2.52.52,0,0,0,.107.011.533.533,0,0,0,.107-1.055,11.227,11.227,0,0,0-1.706-.2V.533A.533.533,0,0,0,30.533,0Z" transform="translate(-13.548 0)" fill="#360742"/>
    <path id="Shape-11" data-name="Shape" d="M50.419,18.665a2.132,2.132,0,1,0,0-1.066H47.843c-.01,0-.018.005-.028.005a.494.494,0,0,0-.091.019.512.512,0,0,0-.126.043.017.017,0,0,0-.014.005.128.128,0,0,1-.023.02.519.519,0,0,0-.128.113c-.006.007-.01.015-.015.023a.511.511,0,0,0-.078.16.037.037,0,0,1,0,.021.526.526,0,0,0-.025.124.581.581,0,0,0,.012.061.1.1,0,0,0,0,.017.517.517,0,0,0,.062.182V18.4a10.122,10.122,0,0,1,1.357,5.064.533.533,0,0,0,.533.533h4.8a.533.533,0,1,0,0-1.066H49.792a11.189,11.189,0,0,0-1.066-4.265Zm2.057-1.6a1.066,1.066,0,1,1-1.066,1.066A1.066,1.066,0,0,1,52.475,17.066Z" transform="translate(-21.631 -7.471)" fill="#360742"/>
    <path id="Path-3" data-name="Path" d="M1.533,27.143h4.8a.533.533,0,0,0,.533-.533,10.123,10.123,0,0,1,.506-3.171.533.533,0,1,0-1.013-.333,11.164,11.164,0,0,0-.538,2.971H1.533a.533.533,0,1,0,0,1.066Z" transform="translate(-0.007 -10.618)" fill="#360742"/>
  </g>
</svg>
