<svg xmlns="http://www.w3.org/2000/svg" width="59" height="59" viewBox="0 0 59 59">
  <g id="Grupo_1114824" data-name="Grupo 1114824" transform="translate(-615.015 -3470)">
    <rect id="Rectángulo_411561" data-name="Rectángulo 411561" width="59" height="59" transform="translate(615.015 3470)" fill="#523dbf"/>
    <path id="Trazado_917507" data-name="Trazado 917507" d="M24.89,6.687V21.055h2.062a.679.679,0,0,1,0,1.358H24.89V36.782h2.062a.679.679,0,0,1,0,1.358H24.21a.679.679,0,0,1-.679-.679V22.414H21.625a.679.679,0,1,1,0-1.358h1.906V6.008a.679.679,0,0,1,.679-.679h2.741a.679.679,0,1,1,0,1.358ZM43.469,36.292v5.4a1.779,1.779,0,0,1-1.777,1.777H31.217a1.779,1.779,0,0,1-1.777-1.777V33.231a1.779,1.779,0,0,1,1.777-1.777H34.43a1.907,1.907,0,0,1,1.668.962l1.214,2.1h4.38a1.779,1.779,0,0,1,1.777,1.777ZM30.8,33.231v1.284h4.945L34.922,33.1a.542.542,0,0,0-.492-.284H31.216a.419.419,0,0,0-.419.419ZM42.11,36.292a.419.419,0,0,0-.419-.419H30.8v5.818a.419.419,0,0,0,.419.419H41.692a.419.419,0,0,0,.419-.419v-5.4ZM43.469,4.838v5.4a1.779,1.779,0,0,1-1.777,1.777H31.217a1.779,1.779,0,0,1-1.777-1.777V1.777A1.779,1.779,0,0,1,31.217,0H34.43A1.907,1.907,0,0,1,36.1.962l1.214,2.1h4.38a1.779,1.779,0,0,1,1.777,1.777ZM30.8,1.777V3.061h4.945l-.821-1.419a.542.542,0,0,0-.492-.284H31.216a.419.419,0,0,0-.419.419ZM42.11,4.838a.419.419,0,0,0-.419-.419H30.8v5.818a.419.419,0,0,0,.419.419H41.692a.419.419,0,0,0,.419-.419v-5.4Zm1.358,15.727v5.4a1.779,1.779,0,0,1-1.777,1.777H31.217a1.779,1.779,0,0,1-1.777-1.777V17.5a1.779,1.779,0,0,1,1.777-1.777H34.43a1.907,1.907,0,0,1,1.668.962l1.214,2.1h4.38a1.779,1.779,0,0,1,1.777,1.777ZM30.8,17.5v1.284h4.945l-.821-1.419a.542.542,0,0,0-.492-.284H31.216A.419.419,0,0,0,30.8,17.5ZM42.11,20.565a.419.419,0,0,0-.419-.419H30.8v5.818a.419.419,0,0,0,.419.419H41.692a.419.419,0,0,0,.419-.419v-5.4Zm-22.973-9.2V32.155c0,1.226-1.1,2.158-3.273,2.772a24.236,24.236,0,0,1-6.3.731,24.24,24.24,0,0,1-6.3-.731C1.1,34.314,0,33.381,0,32.155V11.364H0C0,9.031,4.814,7.811,9.569,7.811S19.137,9.031,19.138,11.363Zm-17.779,0h0c0,.479,1.2,1.25,3.473,1.739a26.176,26.176,0,0,0,4.738.405,26.18,26.18,0,0,0,4.737-.4c2.271-.489,3.473-1.26,3.473-1.739h0c0-.745-2.9-2.195-8.21-2.195s-8.21,1.45-8.21,2.195ZM17.779,32.155v-3.2a8,8,0,0,1-1.914.778,24.236,24.236,0,0,1-6.3.731,24.24,24.24,0,0,1-6.3-.731,8,8,0,0,1-1.914-.778v3.2c0,.505.875,1.067,2.283,1.464a23.208,23.208,0,0,0,5.927.68,23.21,23.21,0,0,0,5.927-.68c1.408-.4,2.283-.959,2.283-1.464Zm0-5.2v-3.2a8,8,0,0,1-1.914.778,24.235,24.235,0,0,1-6.3.731,24.24,24.24,0,0,1-6.3-.731,8,8,0,0,1-1.914-.778v3.2c0,.505.875,1.067,2.283,1.464a23.207,23.207,0,0,0,5.927.68,23.21,23.21,0,0,0,5.927-.68c1.408-.4,2.283-.959,2.283-1.464Zm0-5.2v-3.2a8,8,0,0,1-1.914.778,24.235,24.235,0,0,1-6.3.731,24.24,24.24,0,0,1-6.3-.731,8,8,0,0,1-1.914-.778v3.2c0,.505.875,1.067,2.283,1.464a23.212,23.212,0,0,0,5.927.68,23.211,23.211,0,0,0,5.927-.68C16.9,22.826,17.779,22.265,17.779,21.759Zm0-5.2v-3.2a8,8,0,0,1-1.914.778c-.456.129-.955.241-1.486.337a24.992,24.992,0,0,1-4.81.445,24.987,24.987,0,0,1-4.81-.445c-.531-.1-1.03-.208-1.486-.337a8,8,0,0,1-1.914-.778v3.2c0,.505.875,1.067,2.283,1.464a23.212,23.212,0,0,0,5.927.68,23.211,23.211,0,0,0,5.927-.68C16.9,17.628,17.779,17.067,17.779,16.561Z" transform="translate(622.865 3477.682)" fill="#fe9ab8"/>
  </g>
</svg>
