<svg xmlns="http://www.w3.org/2000/svg" width="120" height="120" viewBox="0 0 120 120">
  <g id="Grupo_1114777" data-name="Grupo 1114777" transform="translate(-1236.5 -460)">
    <g id="Elipse_12108" data-name="Elipse 12108" transform="translate(1241.5 465)" fill="#fe9ab8" stroke="rgba(255,255,255,0.4)" stroke-width="5">
      <circle cx="55" cy="55" r="55" stroke="none"/>
      <circle cx="55" cy="55" r="57.5" fill="none"/>
    </g>
    <g id="Grupo_1114369" data-name="Grupo 1114369" transform="translate(1258.358 481.53)">
      <path id="Trazado_919030" data-name="Trazado 919030" d="M20.621,47.777A7.051,7.051,0,1,0,18.268,34.09C10.834,36.787,12.795,47.752,20.621,47.777Zm-4.177-9.02a4.668,4.668,0,1,1,.815,5.021,4.627,4.627,0,0,1-.815-5.021Z" transform="translate(2.155 6.832)" fill="#360742"/>
      <path id="Trazado_919031" data-name="Trazado 919031" d="M9.282,51.192a11.6,11.6,0,0,0,.732,2.077L7.61,56.1a2.438,2.438,0,0,0,.273,3.435l5.429,4.591a2.428,2.428,0,0,0,3.417-.265l2.458-2.829a12.656,12.656,0,0,0,2.15.389l1.244,3.5a2.446,2.446,0,0,0,2.284,1.6,11.212,11.212,0,0,0,2.537-.755l2.546,4.4a2.109,2.109,0,0,0,2.859.753l2.155-1.239a11.41,11.41,0,0,0,1.081.615v2.477a2.106,2.106,0,0,0,2.1,2.1h5.181a2.106,2.106,0,0,0,2.1-2.1V70.3a11.413,11.413,0,0,0,1.081-.615l2.158,1.241a2.112,2.112,0,0,0,2.861-.763l2.586-4.468a2.1,2.1,0,0,0-.759-2.876L51.2,61.58a10.4,10.4,0,0,0,0-1.221l1.482-.857a1.869,1.869,0,0,0,1.759,1.255H58.3a1.875,1.875,0,0,0,1.873-1.872v-1.65c.174-.094.34-.191.493-.287l1.441.826a1.892,1.892,0,0,0,2.561-.677l1.911-3.315a1.87,1.87,0,0,0,.205-1.422c-.156-.993-1.581-1.5-2.314-1.971.009-.194.009-.373,0-.569.734-.476,2.154-.971,2.313-1.971a1.858,1.858,0,0,0-.195-1.4l-1.932-3.35a1.888,1.888,0,0,0-2.548-.661l-1.444.828q-.232-.145-.493-.287V41.323A1.875,1.875,0,0,0,58.3,39.45H55.633C71.655,27.768,63.4,2.115,43.461,2.066,27.283,1.86,17.132,20.622,26.145,34.037a12.561,12.561,0,0,0-1.909-.334l-1.244-3.5a2.461,2.461,0,0,0-3.108-1.47l-6.726,2.4a2.4,2.4,0,0,0-1.39,1.242,2.432,2.432,0,0,0-.1,1.86l1.233,3.5a11.584,11.584,0,0,0-1.425,1.681l-3.669-.669A2.435,2.435,0,0,0,4.978,40.7l-1.3,7a2.442,2.442,0,0,0,1.951,2.837Zm40.559,7.144a2.391,2.391,0,0,0-1.053,2.628,2.422,2.422,0,0,0,1.026,2.624l2.036,1.166L49.6,68.648l-2.074-1.192c-1.217-.734-2.25.18-3.328.739-1.628.712-1.124,2.872-1.195,4.25H38.475V70.085c.085-1.347-1.318-1.945-2.285-2.506-1.414-1.1-3.079.439-4.312,1.069L29.733,64.94l2.7-.961a2.462,2.462,0,0,0,1.47-3.107l-1.233-3.488A12.223,12.223,0,0,0,34.1,55.7c.144.02,3.568.662,3.728.673a5.45,5.45,0,0,0,2.911,10.037c7.712-.32,6.934-11.59-.725-10.818a3.768,3.768,0,0,0,.748-2.057,4.765,4.765,0,0,0,4.123.586,2.368,2.368,0,0,0,2.651.342l2.056-1.183c.358.628,1.929,3.327,2.26,3.891Zm-9.1-.382a3.013,3.013,0,1,1-3.013,3.013,3.013,3.013,0,0,1,3.013-3.013ZM36.164,42.2a1.222,1.222,0,0,1,1.216-1.216H49.542A1.218,1.218,0,0,1,50.758,42.2v2.432a1.218,1.218,0,0,1-1.216,1.216H37.38a1.218,1.218,0,0,1-1.216-1.216Zm7.3-15.81A3.649,3.649,0,1,1,47.11,22.74a3.648,3.648,0,0,1-3.649,3.649Zm2.432,21.891V49.5a2.432,2.432,0,1,1-4.865,0V48.279ZM58.8,45c.834.507,1.829,1.156,2.779.538l1.262-.724L64.2,47.17l-1.244.713a2.076,2.076,0,0,0-.911,2.22,2.083,2.083,0,0,0,.915,2.223l1.24.711-1.357,2.354-1.257-.721c-.93-.607-1.935.009-2.763.525-1.267.533-1.1,2.013-1.083,3.129H55V56.89c.047-1.071-.878-1.618-1.707-2.057l-1.761-3.047a2.1,2.1,0,0,0-2.866-.779l-.754.434a7.133,7.133,0,0,0,.412-3.162h1.216a3.652,3.652,0,0,0,3.648-3.648c-.005-.194.023-2.637-.033-2.755.032.02,4.545,0,4.581.007-.013,1.1-.179,2.6,1.061,3.119ZM43.461,4.5c19.3.241,25.213,25.973,8.014,34.619a3.616,3.616,0,0,0-1.933-.567H44.677V28.7c7.064-1.531,6.082-11.924-1.216-12.039-7.3.115-8.279,10.509-1.216,12.039V38.55H37.38a3.616,3.616,0,0,0-1.938.569C18.213,30.5,24.2,4.717,43.461,4.5ZM7.367,41.145l3.671.669a2.465,2.465,0,0,0,2.43-1.007c.839-1.13,2.392-2.284,1.733-3.893l-1.235-3.482,6.739-2.4,1.239,3.486A2.413,2.413,0,0,0,24,36.11c1.226.091,2.584.822,3.707.039a20.814,20.814,0,0,0,6.214,4.939,14.858,14.858,0,0,0-.192,3.544,3.652,3.652,0,0,0,3.648,3.648H38.6a8.538,8.538,0,0,0,.2,2.521l-.591,3.178-3.669-.668a2.453,2.453,0,0,0-2.424,1c-.881,1.187-2.4,2.261-1.74,3.9l1.236,3.48-6.74,2.4L23.63,60.61A2.461,2.461,0,0,0,21.55,59c-1.393-.158-3.2-.934-4.235.443l-2.427,2.831-5.428-4.6,2.4-2.824a2.945,2.945,0,0,0,.031-3.424c-.264-1.16-.852-2.438-2.166-2.62l-3.657-.672Z" transform="translate(0)" fill="#360742"/>
      <path id="Trazado_919032" data-name="Trazado 919032" d="M44,42.214a3.649,3.649,0,1,0,3.649-3.649A3.648,3.648,0,0,0,44,42.214Zm4.865,0A1.216,1.216,0,1,1,47.645,41a1.216,1.216,0,0,1,1.216,1.216Z" transform="translate(8.724 7.89)" fill="#360742"/>
      <path id="Trazado_919033" data-name="Trazado 919033" d="M60.248,18.066H56.6a1.216,1.216,0,1,0,0,2.433h3.648a1.216,1.216,0,1,0,0-2.433Z" transform="translate(11.185 3.459)" fill="#360742"/>
      <path id="Trazado_919034" data-name="Trazado 919034" d="M55.39,13.88c.107.108,3.64-1.272,3.844-1.322a1.216,1.216,0,1,0-.833-2.285l-3.428,1.248a1.22,1.22,0,0,0,.416,2.359Z" transform="translate(10.927 1.758)" fill="#360742"/>
      <path id="Trazado_919035" data-name="Trazado 919035" d="M54.977,27.265c.215.055,3.728,1.428,3.844,1.322a1.22,1.22,0,0,0,.416-2.359L55.809,24.98a1.216,1.216,0,1,0-.833,2.285Z" transform="translate(10.924 4.937)" fill="#360742"/>
    </g>
  </g>
</svg>
