<svg id="Grupo_1114792" data-name="Grupo 1114792" xmlns="http://www.w3.org/2000/svg" width="122.487" height="122.487" viewBox="0 0 122.487 122.487">
  <g id="Rectángulo_402033" data-name="Rectángulo 402033" transform="translate(0)" fill="#fe9ab8" stroke="#fff" stroke-width="3">
    <rect width="122.486" height="122.486" rx="8" stroke="none"/>
    <rect x="1.5" y="1.5" width="119.486" height="119.486" rx="6.5" fill="none"/>
  </g>
  <g id="Page-1" transform="translate(30.319 30.243)">
    <g id="_021---Artificial-Learning-Options" data-name="021---Artificial-Learning-Options">
      <g id="Icons_copy" transform="translate(1 1)">
        <path id="Path" d="M23.99,5.414l1.835-3.385A2,2,0,0,1,27.583.983h4.834a2,2,0,0,1,1.758,1.046L36.01,5.414l7.125,2.951,3.691-1.1a2,2,0,0,1,1.983.5l3.418,3.418a2,2,0,0,1,.5,1.983l-1.1,3.691,2.951,7.125,3.385,1.835a2,2,0,0,1,1.046,1.758v4.834a2,2,0,0,1-1.046,1.758L54.586,36.01l-2.951,7.125,1.1,3.691a2,2,0,0,1-.5,1.983l-3.418,3.418a2,2,0,0,1-1.983.5l-3.691-1.1L36.01,54.586l-1.835,3.385a2,2,0,0,1-1.758,1.046H27.583a2,2,0,0,1-1.758-1.046L23.99,54.586l-7.125-2.951-3.691,1.1a2,2,0,0,1-1.983-.5L7.773,48.809a2,2,0,0,1-.5-1.983l1.1-3.691L5.414,36.01,2.029,34.175A2,2,0,0,1,.983,32.417V27.583a2,2,0,0,1,1.046-1.758L5.414,23.99l2.951-7.125-1.1-3.691a2,2,0,0,1,.5-1.983l3.418-3.418a2,2,0,0,1,1.983-.5l3.691,1.1Z" fill="#9e9e9e" fill-rule="evenodd"/>
        <g id="Grupo_1115726" data-name="Grupo 1115726">
          <path id="Path-2" data-name="Path" d="M31.175,2.029,33.01,5.414l7.125,2.951,1.748-.519L36.01,5.414,34.175,2.029A2,2,0,0,0,32.417.983h-3a2,2,0,0,1,1.758,1.046Z" fill="#707070" fill-rule="evenodd"/>
          <path id="Path-3" data-name="Path" d="M57.971,25.825,54.586,23.99l-2.951-7.125,1.1-3.691a2,2,0,0,0-.5-1.983L48.809,7.773a2,2,0,0,0-1.983-.5l-1.207.358a1.766,1.766,0,0,1,.19.145l3.418,3.418a2,2,0,0,1,.5,1.983l-1.1,3.691,2.951,7.125,3.385,1.835a2,2,0,0,1,1.046,1.758V32.42a2,2,0,0,1-1.046,1.758L51.586,36.01l-2.951,7.125,1.1,3.691a2,2,0,0,1-.5,1.983l-3.418,3.418a1.766,1.766,0,0,1-.19.145l1.207.358a2,2,0,0,0,1.983-.5l3.418-3.418a2,2,0,0,0,.5-1.983l-1.1-3.691,2.951-7.125,3.385-1.835a2,2,0,0,0,1.046-1.758V27.583a2,2,0,0,0-1.046-1.758Z" fill="#707070" fill-rule="evenodd"/>
          <path id="Path-4" data-name="Path" d="M40.135,51.635,33.01,54.586l-1.835,3.385a2,2,0,0,1-1.758,1.046h3a2,2,0,0,0,1.758-1.046l1.835-3.385,5.873-2.432Z" fill="#707070" fill-rule="evenodd"/>
        </g>
        <circle id="Oval" cx="20" cy="20" r="20" transform="translate(10 10)" fill="#607d8b"/>
        <path id="Path-5" data-name="Path" d="M30,10c-.506,0-1,.039-1.5.076a19.979,19.979,0,0,1,0,39.848c.5.037.994.076,1.5.076a20,20,0,0,0,0-40Z" fill="#37474f" fill-rule="evenodd"/>
        <path id="Path-6" data-name="Path" d="M30,16.37v24.5a4.135,4.135,0,0,1-7.95,1.59,3.5,3.5,0,0,1-3.11-5.11A3.173,3.173,0,0,1,17.2,31.7a4.155,4.155,0,0,1,.21-6.04,3.809,3.809,0,0,1,3.53-4.83,2.859,2.859,0,0,1,1.4-4.29h.01C30,10.93,30,16.37,30,16.37Z" fill="#ef314c" fill-rule="evenodd"/>
        <path id="Path-7" data-name="Path" d="M26.074,14.375a2.691,2.691,0,0,1,.926,2v24.5a4.123,4.123,0,0,1-2.633,3.838A4.084,4.084,0,0,0,25.86,45,4.133,4.133,0,0,0,30,40.87V16.37s0-3.479-3.926-1.995Z" fill="#bb193b" fill-rule="evenodd"/>
        <path id="Path-8" data-name="Path" d="M44,34.18a3.177,3.177,0,0,1-2.94,3.17,3.5,3.5,0,0,1-3.11,5.11A4.135,4.135,0,0,1,30,40.87V16.37s0-5.44,7.65.17h.01a2.859,2.859,0,0,1,1.4,4.29,3.809,3.809,0,0,1,3.53,4.83,4.155,4.155,0,0,1,.21,6.04A3.154,3.154,0,0,1,44,34.18Z" fill="#ef314c" fill-rule="evenodd"/>
        <path id="Path-9" data-name="Path" d="M42.8,31.7a4.155,4.155,0,0,0-.21-6.04,3.809,3.809,0,0,0-3.53-4.83,2.859,2.859,0,0,0-1.4-4.29h-.01c-3.869-2.837-5.779-2.847-6.724-2.165A16.335,16.335,0,0,1,34.65,16.54h.01a2.859,2.859,0,0,1,1.4,4.29,3.809,3.809,0,0,1,3.53,4.83,4.155,4.155,0,0,1,.21,6.04,3.173,3.173,0,0,1-1.74,5.65,3.5,3.5,0,0,1-3.11,5.11,4.139,4.139,0,0,1-2.317,2.248A4.107,4.107,0,0,0,37.95,42.46a3.5,3.5,0,0,0,3.11-5.11A3.173,3.173,0,0,0,42.8,31.7Z" fill="#bb193b" fill-rule="evenodd"/>
      </g>
      <g id="Icons">
        <path id="Shape" d="M59.447,25.946,56.375,24.28l-2.681-6.47.995-3.352a3,3,0,0,0-.755-2.975L50.517,8.066a3,3,0,0,0-2.975-.755l-3.352,1L37.72,5.625,36.054,2.553A3,3,0,0,0,33.417.983H28.583a3,3,0,0,0-2.637,1.57L24.28,5.625,17.81,8.306l-3.352-1a3,3,0,0,0-2.975.755L8.066,11.483a3,3,0,0,0-.755,2.975l1,3.352L5.625,24.28,2.553,25.946a3,3,0,0,0-1.57,2.637v4.834a3,3,0,0,0,1.57,2.637L5.625,37.72l2.681,6.47-1,3.352a3,3,0,0,0,.755,2.975l3.417,3.417a3,3,0,0,0,2.975.755l3.352-.995,6.47,2.681,1.666,3.072a3,3,0,0,0,2.637,1.57h4.834a3,3,0,0,0,2.637-1.57l1.666-3.072,6.47-2.681,3.352.995a3,3,0,0,0,2.975-.755l3.417-3.417a3,3,0,0,0,.755-2.975l-.995-3.352,2.681-6.47,3.072-1.666a3,3,0,0,0,1.57-2.637V28.583A3,3,0,0,0,59.447,25.946Zm-.43,7.471a1,1,0,0,1-.523.879L55.11,36.131a1,1,0,0,0-.447.5l-2.952,7.125a1,1,0,0,0-.035.668l1.1,3.69a1,1,0,0,1-.252.993L49.1,52.52a1,1,0,0,1-.992.252l-3.691-1.1a1,1,0,0,0-.668.035l-7.125,2.952a1,1,0,0,0-.5.447L34.3,58.494a1,1,0,0,1-.878.523H28.583a1,1,0,0,1-.879-.523L25.869,55.11a1,1,0,0,0-.5-.447l-7.125-2.952a1,1,0,0,0-.383-.076.987.987,0,0,0-.285.041l-3.69,1.1a1,1,0,0,1-.993-.252L9.48,49.1a1,1,0,0,1-.252-.992l1.1-3.691a1,1,0,0,0-.035-.668L7.337,36.627a1,1,0,0,0-.447-.5L3.506,34.3a1,1,0,0,1-.523-.878V28.583a1,1,0,0,1,.523-.879L6.89,25.869a1,1,0,0,0,.447-.5l2.952-7.125a1,1,0,0,0,.035-.668l-1.1-3.69A1,1,0,0,1,9.48,12.9L12.9,9.48a1,1,0,0,1,.992-.252l3.691,1.1a1,1,0,0,0,.668-.035l7.125-2.952a1,1,0,0,0,.5-.447L27.712,3.51a1,1,0,0,1,.878-.523h4.834a1,1,0,0,1,.879.523l1.828,3.38a1,1,0,0,0,.5.447l7.125,2.952a1,1,0,0,0,.668.035l3.69-1.1a1,1,0,0,1,.993.252L52.52,12.9a1,1,0,0,1,.252.992l-1.1,3.691a1,1,0,0,0,.035.668l2.952,7.125a1,1,0,0,0,.447.5l3.384,1.836a1,1,0,0,1,.523.878Z"/>
        <path id="Shape-2" data-name="Shape" d="M31,10A21,21,0,1,0,52,31,21,21,0,0,0,31,10Zm0,40A19,19,0,1,1,50,31,19,19,0,0,1,31,50Z"/>
        <path id="Path-10" data-name="Path" d="M25.417,30.411a5.078,5.078,0,0,0,3.169-1.459,1,1,0,0,0-1.414-1.414,3.227,3.227,0,0,1-4.54-.11,1,1,0,0,0-1.481,1.344,5.154,5.154,0,0,0,2.16,1.41,1.864,1.864,0,0,1-.8.67,1,1,0,1,0,.786,1.839,3.858,3.858,0,0,0,2.12-2.28Z" fill-rule="evenodd"/>
        <path id="Path-11" data-name="Path" d="M39.371,30.852a1.859,1.859,0,0,1-.8-.67,5.151,5.151,0,0,0,2.159-1.41,1,1,0,1,0-1.48-1.344,3.228,3.228,0,0,1-4.541.11,1,1,0,0,0-1.414,1.414,5.08,5.08,0,0,0,3.169,1.459,3.861,3.861,0,0,0,2.122,2.28,1,1,0,0,0,.787-1.839Z" fill-rule="evenodd"/>
        <path id="Path-12" data-name="Path" d="M28,33a5.436,5.436,0,0,0-.589.032,4.122,4.122,0,0,0-3.545,2.708,4.321,4.321,0,0,0,1.046,4.5A2.514,2.514,0,0,1,25.655,42a1,1,0,0,0,2,0,4.5,4.5,0,0,0-1.316-3.16,2.338,2.338,0,0,1-.59-2.426,2.137,2.137,0,0,1,1.877-1.394A3.533,3.533,0,0,1,28,35a1,1,0,0,0,0-2Z" fill-rule="evenodd"/>
        <path id="Path-13" data-name="Path" d="M34.212,33.033a5.455,5.455,0,0,0-.59-.032,1,1,0,0,0,0,2,3.564,3.564,0,0,1,.375.02,2.137,2.137,0,0,1,1.876,1.394,2.337,2.337,0,0,1-.59,2.426A4.5,4.5,0,0,0,33.967,42a1,1,0,0,0,2,0,2.514,2.514,0,0,1,.743-1.76,4.319,4.319,0,0,0,1.046-4.5,4.121,4.121,0,0,0-3.544-2.707Z" fill-rule="evenodd"/>
        <path id="Shape-3" data-name="Shape" d="M41.438,21.092a3.8,3.8,0,0,0-2.289-4.425c-3.323-2.417-5.756-3.183-7.436-2.334a2.769,2.769,0,0,0-.713.531,2.769,2.769,0,0,0-.713-.531c-1.678-.85-4.116-.082-7.443,2.339a3.8,3.8,0,0,0-2.282,4.42,4.76,4.76,0,0,0-3.235,5.242,5.123,5.123,0,0,0-.453,6.3A4.147,4.147,0,0,0,16,35.184a4.2,4.2,0,0,0,2.635,3.881A4.5,4.5,0,0,0,22.4,44.41a5.119,5.119,0,0,0,8.6.472,5.119,5.119,0,0,0,8.6-.472,4.5,4.5,0,0,0,3.766-5.345A4.2,4.2,0,0,0,46,35.184a4.154,4.154,0,0,0-.873-2.548,5.125,5.125,0,0,0-.454-6.3,4.76,4.76,0,0,0-3.235-5.242ZM26.864,45a3.129,3.129,0,0,1-2.9-1.93,1,1,0,0,0-.923-.615,2.5,2.5,0,0,1-2.5-2.5,2.418,2.418,0,0,1,.277-1.133,1,1,0,0,0-.808-1.468A2.184,2.184,0,0,1,18,35.184a2.151,2.151,0,0,1,.321-1.115,5.109,5.109,0,0,0,2.815.842,1,1,0,1,0,0-2,3.136,3.136,0,0,1-2.065-5.5,1.092,1.092,0,0,0,.306-1.017,2.882,2.882,0,0,1-.1-.76,2.818,2.818,0,0,1,5.418-1.087,1,1,0,1,0,1.844-.774,4.8,4.8,0,0,0-3.961-2.921,1.86,1.86,0,0,1,3.441-1.4,1,1,0,0,0,1.818-.832,3.844,3.844,0,0,0-1.616-1.745c2.039-1.106,2.9-.889,3.159-.763.591.293.624,1.251.624,1.252V20.98a2.86,2.86,0,0,0-.909-.16,1,1,0,0,0,0,2,.91.91,0,0,1,.909.909V41.865A3.139,3.139,0,0,1,26.864,45Zm15.122-7.646a1,1,0,0,0-.808,1.468,2.418,2.418,0,0,1,.277,1.133,2.5,2.5,0,0,1-2.5,2.5,1,1,0,0,0-.923.615A3.137,3.137,0,0,1,32,41.865V26.911a.911.911,0,0,1,.909-.91,1,1,0,0,0,0-2,2.888,2.888,0,0,0-.909.16V17.374c0-.01.033-.968.624-1.261.254-.126,1.12-.343,3.159.763a3.844,3.844,0,0,0-1.616,1.745,1,1,0,1,0,1.818.832,1.891,1.891,0,0,1,2.328-.974,1.828,1.828,0,0,1,1.113,2.377,4.8,4.8,0,0,0-3.961,2.921,1,1,0,0,0,1.844.774,2.818,2.818,0,0,1,5.418,1.087,2.882,2.882,0,0,1-.1.76,1.126,1.126,0,0,0,.306,1.017,3.134,3.134,0,0,1-2.065,5.5,1,1,0,0,0,0,2,5.1,5.1,0,0,0,2.815-.843A2.158,2.158,0,0,1,44,35.184a2.184,2.184,0,0,1-2.014,2.171Z"/>
      </g>
    </g>
  </g>
</svg>
