<svg xmlns="http://www.w3.org/2000/svg" width="32" height="32.001" viewBox="0 0 32 32.001">
  <g id="Grupo_1114388" data-name="Grupo 1114388" transform="translate(-0.004)">
    <path id="Trazado_919102" data-name="Trazado 919102" d="M5.523,87.737l3.469-3.469a1.2,1.2,0,0,0,0-1.7l-.776-.776a1.2,1.2,0,0,0-1.576-.106,9.671,9.671,0,0,1,4.5-6.069.814.814,0,0,0,.168-1.277h0l0,0a2.445,2.445,0,0,1-.667-1.229.814.814,0,0,0-1.205-.542,13.134,13.134,0,0,0-6.414,9.419l-.19-.19a1.2,1.2,0,0,0-1.7,0l-.776.776a1.2,1.2,0,0,0,0,1.7l3.469,3.469a1.2,1.2,0,0,0,1.7,0Zm-4.5-4.132a.263.263,0,0,1,0-.372l.776-.776a.263.263,0,0,1,.372,0l.88.88a.469.469,0,0,0,.8-.3,12.189,12.189,0,0,1,5.913-9.578,3.378,3.378,0,0,0,.778,1.427,10.593,10.593,0,0,0-5.057,8.1.469.469,0,0,0,.8.373l.9-.9a.263.263,0,0,1,.372,0l.776.776a.263.263,0,0,1,0,.372L4.86,87.074a.263.263,0,0,1-.372,0Z" transform="translate(0 -67.927)" fill="#360742"/>
    <path id="Trazado_919103" data-name="Trazado 919103" d="M338.505,193.262l-3.469-3.469a1.2,1.2,0,0,0-1.7,0l-3.469,3.469a1.2,1.2,0,0,0,0,1.7l.776.776a1.2,1.2,0,0,0,1.576.106,9.674,9.674,0,0,1-4.5,6.07.814.814,0,0,0-.163,1.282,2.443,2.443,0,0,1,.667,1.228.822.822,0,0,0,.467.581.814.814,0,0,0,.738-.04,13.277,13.277,0,0,0,4.349-4.083.469.469,0,0,0-.779-.521,12.339,12.339,0,0,1-3.9,3.708,3.38,3.38,0,0,0-.778-1.425,10.6,10.6,0,0,0,5.057-8.1.469.469,0,0,0-.8-.373l-.9.9a.263.263,0,0,1-.372,0l-.776-.776a.263.263,0,0,1,0-.372L334,190.456a.263.263,0,0,1,.372,0l3.469,3.469a.263.263,0,0,1,0,.372l-.776.776a.263.263,0,0,1-.372,0l-.88-.88a.469.469,0,0,0-.8.3,12.076,12.076,0,0,1-1.043,4.113.469.469,0,0,0,.854.386,13.008,13.008,0,0,0,1.014-3.443l.19.19a1.2,1.2,0,0,0,1.7,0l.776-.776A1.2,1.2,0,0,0,338.505,193.262Z" transform="translate(-306.852 -177.601)" fill="#360742"/>
    <path id="Trazado_919104" data-name="Trazado 919104" d="M84.263,329.878a1.2,1.2,0,0,0-1.7,0l-.776.776a1.2,1.2,0,0,0-.106,1.577,9.674,9.674,0,0,1-6.07-4.5.814.814,0,0,0-1.281-.164,2.444,2.444,0,0,1-1.229.667.822.822,0,0,0-.582.467.814.814,0,0,0,.04.738,13.135,13.135,0,0,0,9.419,6.414l-.19.19a1.2,1.2,0,0,0,0,1.7l.776.776a1.2,1.2,0,0,0,1.7,0l3.469-3.469a1.2,1.2,0,0,0,0-1.7Zm2.806,4.5L83.6,337.851a.263.263,0,0,1-.372,0l-.776-.776a.263.263,0,0,1,0-.372l.88-.88a.469.469,0,0,0-.3-.8,12.189,12.189,0,0,1-9.578-5.913,3.38,3.38,0,0,0,1.426-.777,10.6,10.6,0,0,0,8.1,5.057.469.469,0,0,0,.373-.8l-.9-.9a.263.263,0,0,1,0-.372l.776-.776a.263.263,0,0,1,.372,0l3.469,3.469A.264.264,0,0,1,87.07,334.382Z" transform="translate(-67.918 -306.864)" fill="#360742"/>
    <path id="Trazado_919105" data-name="Trazado 919105" d="M190.6,6.333a.469.469,0,1,0,.663-.663l-.815-.815a.263.263,0,0,1,0-.372l3.469-3.469a.263.263,0,0,1,.372,0l.776.776a.263.263,0,0,1,0,.372l-.88.88a.469.469,0,0,0,.3.8,12.186,12.186,0,0,1,9.577,5.913,3.383,3.383,0,0,0-1.426.778,10.594,10.594,0,0,0-8.1-5.057.469.469,0,0,0-.373.8l.9.9a.263.263,0,0,1,0,.372l-.776.776a.263.263,0,0,1-.372,0L192.74,7.143a.469.469,0,0,0-.663.663l1.182,1.182a1.2,1.2,0,0,0,1.7,0l.776-.776a1.2,1.2,0,0,0,.106-1.576,9.672,9.672,0,0,1,6.07,4.5.814.814,0,0,0,1.282.163,2.447,2.447,0,0,1,1.228-.668.822.822,0,0,0,.581-.468.814.814,0,0,0-.04-.737,13.133,13.133,0,0,0-9.418-6.413l.19-.19a1.2,1.2,0,0,0,0-1.7l-.776-.776a1.2,1.2,0,0,0-1.7,0L189.79,3.821a1.2,1.2,0,0,0,0,1.7Z" transform="translate(-177.594 0)" fill="#360742"/>
    <path id="Trazado_919106" data-name="Trazado 919106" d="M169.683,175.086a5.395,5.395,0,1,0,5.395-5.395,5.4,5.4,0,0,0-5.395,5.395Zm9.852,0a4.457,4.457,0,1,1-4.457-4.457A4.462,4.462,0,0,1,179.535,175.086Z" transform="translate(-159.073 -159.085)" fill="#360742"/>
    <path id="Trazado_919107" data-name="Trazado 919107" d="M198.726,202.309a3.592,3.592,0,0,0,2.349,3.363.469.469,0,0,0,.322-.88,2.643,2.643,0,1,1,1.769.016.469.469,0,1,0,.305.886,3.58,3.58,0,1,0-4.746-3.384Z" transform="translate(-186.301 -186.308)" fill="#360742"/>
    <path id="Trazado_919108" data-name="Trazado 919108" d="M235.576,237.382a.469.469,0,0,0-.663,0l-1.076,1.076-.222-.222a.469.469,0,0,0-.663.663l.553.553a.469.469,0,0,0,.663,0l1.407-1.407A.469.469,0,0,0,235.576,237.382Z" transform="translate(-218.26 -222.416)" fill="#360742"/>
  </g>
</svg>
