<svg id="Grupo_1114813" data-name="Grupo 1114813" xmlns="http://www.w3.org/2000/svg" width="122.486" height="122.486" viewBox="0 0 122.486 122.486">
  <g id="Rectángulo_402033" data-name="Rectángulo 402033" transform="translate(0)" fill="#fe9ab8" stroke="#fff" stroke-width="3">
    <rect width="122.486" height="122.486" rx="8" stroke="none"/>
    <rect x="1.5" y="1.5" width="119.486" height="119.486" rx="6.5" fill="none"/>
  </g>
  <g id="Page-1" transform="translate(31.243 31.243)">
    <g id="_005---Coding-Thinking" data-name="005---Coding-Thinking" transform="translate(0 -1)">
      <g id="Icons_copy" transform="translate(1 2)">
        <rect id="Rectangle" width="58" height="4" rx="2" transform="translate(31) rotate(90)" fill="#02a9f4"/>
        <path id="Path" d="M54,37.23a5.217,5.217,0,0,1-4.83,5.2,5.606,5.606,0,0,1,.65,2.64,5.744,5.744,0,0,1-5.75,5.75A6.8,6.8,0,0,1,31,48.2V7.95S31-.81,43.23,8c.11.07.22.16.34.24l.01.01a4.7,4.7,0,0,1,2.31,7.03,6.271,6.271,0,0,1,6.02,6.27,6.2,6.2,0,0,1-.23,1.68,6.8,6.8,0,0,1,.34,9.91A5.2,5.2,0,0,1,54,37.23Z" fill="#ef314c" fill-rule="evenodd"/>
        <path id="Path-2" data-name="Path" d="M52.02,33.14a6.8,6.8,0,0,0-.34-9.91,6.2,6.2,0,0,0,.23-1.68,6.271,6.271,0,0,0-6.02-6.27,4.7,4.7,0,0,0-2.31-7.03l-.01-.01c-.12-.08-.23-.17-.34-.24-5.284-3.806-8.282-4.33-9.986-3.7A21.929,21.929,0,0,1,40.23,8c.11.07.22.16.34.24l.01.01a4.7,4.7,0,0,1,2.31,7.03,6.271,6.271,0,0,1,6.02,6.27,6.2,6.2,0,0,1-.23,1.68,6.8,6.8,0,0,1,.34,9.91,5.214,5.214,0,0,1-2.85,9.29,5.606,5.606,0,0,1,.65,2.64,5.744,5.744,0,0,1-5.75,5.75,6.823,6.823,0,0,1-4.8,4,6.771,6.771,0,0,0,7.8-4,5.744,5.744,0,0,0,5.75-5.75,5.606,5.606,0,0,0-.65-2.64,5.214,5.214,0,0,0,2.85-9.29Z" fill="#bb193b" fill-rule="evenodd"/>
        <path id="Path-3" data-name="Path" d="M3,4H27V54H3a3,3,0,0,1-3-3V7A3,3,0,0,1,3,4Z" fill="#f5f5f5" fill-rule="evenodd"/>
        <path id="Rectangle-2" data-name="Rectangle" d="M24,4h3V54H24Z" fill="#cfd8dc" fill-rule="evenodd"/>
        <g id="Grupo_1115728" data-name="Grupo 1115728">
          <circle id="Oval" cx="2" cy="2" r="2" transform="translate(49)" fill="#ffdf00"/>
          <circle id="Oval-2" data-name="Oval" cx="2" cy="2" r="2" transform="translate(54 5)" fill="#ffdf00"/>
          <circle id="Oval-3" data-name="Oval" cx="2" cy="2" r="2" transform="translate(49 54)" fill="#ffdf00"/>
          <circle id="Oval-4" data-name="Oval" cx="2" cy="2" r="2" transform="translate(54 49)" fill="#ffdf00"/>
        </g>
      </g>
      <g id="Icons">
        <path id="Path-4" data-name="Path" d="M41.932,28.818a5.763,5.763,0,0,1-4.1-1.7,1,1,0,0,0-1.414,1.414,7.738,7.738,0,0,0,5.239,2.27,5.737,5.737,0,0,0,4.873,4.161,1.015,1.015,0,0,0,.11.006,1,1,0,0,0,.107-1.994A3.718,3.718,0,0,1,43.7,30.607a7.8,7.8,0,0,0,6.024-7.584,1,1,0,0,0-2,0,5.8,5.8,0,0,1-5.792,5.8Z" fill-rule="evenodd"/>
        <path id="Path-5" data-name="Path" d="M45.537,44.592c0-.046.008-.091.008-.137a7.28,7.28,0,0,0-7.272-7.273,1,1,0,0,0,0,2,5.278,5.278,0,0,1,5.272,5.273,5.176,5.176,0,0,1-.065.776,7.275,7.275,0,0,0-4.116,6.542,1,1,0,0,0,2,0A5.278,5.278,0,0,1,46.636,46.5a1,1,0,0,0,0-2A7.253,7.253,0,0,0,45.537,44.592Z" fill-rule="evenodd"/>
        <path id="Shape" d="M55,15a3,3,0,0,0,3-3v-.184a3,3,0,1,0-2,0V12a1,1,0,0,1-1,1H48.428a5.709,5.709,0,0,0-1.1-2H50a3,3,0,0,0,3-3V6.816a3,3,0,1,0-2,0V8a1,1,0,0,1-1,1H44.556c-5.012-3.56-8.648-4.7-11.094-3.454A4,4,0,0,0,33,5.823V4a3,3,0,0,0-6,0V5H4A4,4,0,0,0,0,9V53a4,4,0,0,0,4,4H27v1a3,3,0,0,0,6,0V55.4a7.78,7.78,0,0,0,12.719-1.613A6.673,6.673,0,0,0,48.275,53H50a1,1,0,0,1,1,1v1.184a3,3,0,1,0,2,0V54a3,3,0,0,0-2.491-2.948A6.732,6.732,0,0,0,51.535,49H55a1,1,0,0,1,1,1v.184a3,3,0,1,0,2,0V50a3,3,0,0,0-3-3H51.814a6.733,6.733,0,0,0-.263-1.809A6.252,6.252,0,0,0,56,39.227a6.167,6.167,0,0,0-1.6-4.157,7.763,7.763,0,0,0-.629-10.176,7.164,7.164,0,0,0-5.4-8.4A5.746,5.746,0,0,0,48.657,15Zm2-7a1,1,0,1,1-1,1A1,1,0,0,1,57,8ZM52,3a1,1,0,1,1-1,1A1,1,0,0,1,52,3Zm0,56a1,1,0,1,1,1-1A1,1,0,0,1,52,59Zm5-5a1,1,0,1,1,1-1A1,1,0,0,1,57,54ZM4,55a2,2,0,0,1-2-2V9A2,2,0,0,1,4,7H27V55Zm27,3a1,1,0,0,1-2,0V4a1,1,0,0,1,2,0ZM51.909,23.545a5.36,5.36,0,0,1-.194,1.418,1.13,1.13,0,0,0,.306,1.018A5.791,5.791,0,0,1,48.2,36.136a1,1,0,0,0,0,2A7.756,7.756,0,0,0,52.982,36.5,4.18,4.18,0,0,1,54,39.227a4.235,4.235,0,0,1-3.9,4.21,1,1,0,0,0-.81,1.467,4.606,4.606,0,0,1,.531,2.164,4.755,4.755,0,0,1-4.75,4.75,1,1,0,0,0-.922.615A5.8,5.8,0,1,1,38.8,44.409a1,1,0,0,0,0-2,7.771,7.771,0,0,0-5.8,2.6V25.636A2.138,2.138,0,0,1,35.136,23.5a1,1,0,0,0,0-2A4.1,4.1,0,0,0,33,22.112V9.959c0-.019.035-1.963,1.375-2.633.838-.42,2.782-.608,6.888,1.893a5.713,5.713,0,0,0-3.99,5.44,1,1,0,1,0,2,0A3.7,3.7,0,1,1,46.3,16.29a7.275,7.275,0,0,0-6.939,7.255,1,1,0,0,0,2,0,5.273,5.273,0,0,1,10.545,0Z"/>
        <path id="Path-6" data-name="Path" d="M5.6,9.2a1,1,0,1,0-1.2,1.6L7.333,13,4.4,15.2a1,1,0,1,0,1.2,1.6l4-3a1,1,0,0,0,0-1.6Z" fill-rule="evenodd"/>
        <path id="Path-7" data-name="Path" d="M13,17h4a1,1,0,0,0,0-2H13a1,1,0,0,0,0,2Z" fill-rule="evenodd"/>
        <path id="Path-8" data-name="Path" d="M8,21H5a1,1,0,0,0,0,2H8a1,1,0,0,0,0-2Z" fill-rule="evenodd"/>
        <path id="Path-9" data-name="Path" d="M8,25H5a1,1,0,0,0,0,2H8a1,1,0,0,0,0-2Z" fill-rule="evenodd"/>
        <path id="Path-10" data-name="Path" d="M8,29H5a1,1,0,0,0,0,2H8a1,1,0,0,0,0-2Z" fill-rule="evenodd"/>
        <path id="Path-11" data-name="Path" d="M8,33H5a1,1,0,0,0,0,2H8a1,1,0,0,0,0-2Z" fill-rule="evenodd"/>
        <path id="Path-12" data-name="Path" d="M8,37H5a1,1,0,0,0,0,2H8a1,1,0,0,0,0-2Z" fill-rule="evenodd"/>
        <path id="Path-13" data-name="Path" d="M8,41H5a1,1,0,0,0,0,2H8a1,1,0,0,0,0-2Z" fill-rule="evenodd"/>
        <path id="Path-14" data-name="Path" d="M8,45H5a1,1,0,0,0,0,2H8a1,1,0,0,0,0-2Z" fill-rule="evenodd"/>
        <path id="Path-15" data-name="Path" d="M8,49H5a1,1,0,0,0,0,2H8a1,1,0,0,0,0-2Z" fill-rule="evenodd"/>
        <path id="Path-16" data-name="Path" d="M24,21H12a1,1,0,0,0,0,2H24a1,1,0,0,0,0-2Z" fill-rule="evenodd"/>
        <path id="Path-17" data-name="Path" d="M22,27a1,1,0,0,0,0-2H14a1,1,0,0,0,0,2Z" fill-rule="evenodd"/>
        <path id="Path-18" data-name="Path" d="M24,29H12a1,1,0,0,0,0,2H24a1,1,0,0,0,0-2Z" fill-rule="evenodd"/>
        <path id="Path-19" data-name="Path" d="M22,35a1,1,0,0,0,0-2H14a1,1,0,0,0,0,2Z" fill-rule="evenodd"/>
        <path id="Path-20" data-name="Path" d="M24,37H12a1,1,0,0,0,0,2H24a1,1,0,0,0,0-2Z" fill-rule="evenodd"/>
        <path id="Path-21" data-name="Path" d="M22,43a1,1,0,0,0,0-2H14a1,1,0,0,0,0,2Z" fill-rule="evenodd"/>
        <path id="Path-22" data-name="Path" d="M24,45H12a1,1,0,0,0,0,2H24a1,1,0,0,0,0-2Z" fill-rule="evenodd"/>
        <path id="Path-23" data-name="Path" d="M22,49H14a1,1,0,0,0,0,2h8a1,1,0,0,0,0-2Z" fill-rule="evenodd"/>
      </g>
    </g>
  </g>
</svg>
