<svg xmlns="http://www.w3.org/2000/svg" width="1028" height="427" viewBox="0 0 1028 427">
  <g id="Grupo_1116222" data-name="Grupo 1116222" transform="translate(-286.684 -1325.019)">
    <rect id="Rectángulo_411630" data-name="Rectángulo 411630" width="1028" height="427" rx="20" transform="translate(1314.684 1752.019) rotate(180)" fill="#dcd8f2"/>
    <path id="Trazado_928128" data-name="Trazado 928128" d="M-1649.841-10248.506v252.946h254.994" transform="translate(2175.341 11610)" fill="none" stroke="#360742" stroke-linecap="round" stroke-width="3"/>
    <path id="Trazado_929852" data-name="Trazado 929852" d="M10.677,9.452a6.2,6.2,0,0,1-.813,3.538,2.891,2.891,0,0,1-2.542,1.157A2.912,2.912,0,0,1,4.8,13.015a5.882,5.882,0,0,1-.85-3.38V7.826a6.059,6.059,0,0,1,.813-3.494A2.914,2.914,0,0,1,7.307,3.189a2.94,2.94,0,0,1,2.534,1.1,5.847,5.847,0,0,1,.835,3.4ZM9.322,7.6A4.965,4.965,0,0,0,8.838,5.09,1.664,1.664,0,0,0,7.307,4.3a1.642,1.642,0,0,0-1.516.784A4.848,4.848,0,0,0,5.3,7.5V9.664a5.045,5.045,0,0,0,.5,2.552,1.661,1.661,0,0,0,1.52.824,1.638,1.638,0,0,0,1.49-.776,4.862,4.862,0,0,0,.509-2.446Zm3.259,5.691a.849.849,0,0,1,.209-.586.8.8,0,0,1,.626-.234.819.819,0,0,1,.634.234.831.831,0,0,1,.216.586.786.786,0,0,1-.216.564.834.834,0,0,1-.634.227.753.753,0,0,1-.835-.791Zm9.5-2.871H23.56v1.106H22.08V14H20.718V11.524H15.862v-.8l4.775-7.39H22.08Zm-4.68,0h3.318V5.189l-.161.293ZM10.677,53.452a6.2,6.2,0,0,1-.813,3.538,2.891,2.891,0,0,1-2.542,1.157A2.912,2.912,0,0,1,4.8,57.015a5.882,5.882,0,0,1-.85-3.38V51.826a6.059,6.059,0,0,1,.813-3.494,2.914,2.914,0,0,1,2.549-1.143,2.94,2.94,0,0,1,2.534,1.1,5.847,5.847,0,0,1,.835,3.4ZM9.322,51.6a4.965,4.965,0,0,0-.483-2.509A1.664,1.664,0,0,0,7.307,48.3a1.642,1.642,0,0,0-1.516.784A4.848,4.848,0,0,0,5.3,51.5v2.168a5.045,5.045,0,0,0,.5,2.552,1.661,1.661,0,0,0,1.52.824,1.638,1.638,0,0,0,1.49-.776,4.862,4.862,0,0,0,.509-2.446Zm3.259,5.691a.849.849,0,0,1,.209-.586.8.8,0,0,1,.626-.234.819.819,0,0,1,.634.234.831.831,0,0,1,.216.586.786.786,0,0,1-.216.564.834.834,0,0,1-.634.227.753.753,0,0,1-.835-.791ZM23.347,58H16.36v-.974l3.691-4.1a8.77,8.77,0,0,0,1.132-1.512,2.524,2.524,0,0,0,.311-1.2,1.913,1.913,0,0,0-.505-1.37,1.767,1.767,0,0,0-1.348-.535,2.093,2.093,0,0,0-1.571.575,2.2,2.2,0,0,0-.56,1.6H16.155A3.145,3.145,0,0,1,17.1,48.1a3.516,3.516,0,0,1,2.538-.908,3.379,3.379,0,0,1,2.351.78,2.661,2.661,0,0,1,.864,2.076q0,1.575-2.007,3.75l-2.856,3.1h5.354ZM16.862,97.452a6.2,6.2,0,0,1-.813,3.538,2.891,2.891,0,0,1-2.542,1.157,2.912,2.912,0,0,1-2.527-1.132,5.882,5.882,0,0,1-.85-3.38V95.826a6.059,6.059,0,0,1,.813-3.494,2.914,2.914,0,0,1,2.549-1.143,2.94,2.94,0,0,1,2.534,1.1,5.847,5.847,0,0,1,.835,3.4ZM15.507,95.6a4.965,4.965,0,0,0-.483-2.509,1.664,1.664,0,0,0-1.531-.787,1.642,1.642,0,0,0-1.516.784,4.848,4.848,0,0,0-.491,2.41v2.168a5.045,5.045,0,0,0,.5,2.552,1.661,1.661,0,0,0,1.52.824,1.638,1.638,0,0,0,1.49-.776,4.862,4.862,0,0,0,.509-2.446ZM4.879,142.023H1.305v-1.106H4.879Zm7.866-.571a6.2,6.2,0,0,1-.813,3.538,2.891,2.891,0,0,1-2.542,1.157,2.912,2.912,0,0,1-2.527-1.132,5.882,5.882,0,0,1-.85-3.38v-1.809a6.059,6.059,0,0,1,.813-3.494,2.914,2.914,0,0,1,2.549-1.143,2.94,2.94,0,0,1,2.534,1.1,5.847,5.847,0,0,1,.835,3.4ZM11.391,139.6a4.965,4.965,0,0,0-.483-2.509,1.664,1.664,0,0,0-1.531-.787,1.642,1.642,0,0,0-1.516.784,4.848,4.848,0,0,0-.491,2.41v2.168a5.045,5.045,0,0,0,.5,2.552,1.661,1.661,0,0,0,1.52.824,1.638,1.638,0,0,0,1.49-.776,4.862,4.862,0,0,0,.509-2.446Zm3.259,5.691a.849.849,0,0,1,.209-.586.8.8,0,0,1,.626-.234.819.819,0,0,1,.634.234.831.831,0,0,1,.216.586.786.786,0,0,1-.216.564.834.834,0,0,1-.634.227.753.753,0,0,1-.835-.791Zm10.767.71H18.429v-.974l3.691-4.1a8.77,8.77,0,0,0,1.132-1.512,2.524,2.524,0,0,0,.311-1.2,1.913,1.913,0,0,0-.505-1.37,1.767,1.767,0,0,0-1.348-.535,2.093,2.093,0,0,0-1.571.575,2.2,2.2,0,0,0-.56,1.6H18.224a3.145,3.145,0,0,1,.948-2.38,3.516,3.516,0,0,1,2.538-.908,3.379,3.379,0,0,1,2.351.78,2.661,2.661,0,0,1,.864,2.076q0,1.575-2.007,3.75l-2.856,3.1h5.354ZM4.879,186.023H1.305v-1.106H4.879Zm7.866-.571a6.2,6.2,0,0,1-.813,3.538,2.891,2.891,0,0,1-2.542,1.157,2.912,2.912,0,0,1-2.527-1.132,5.882,5.882,0,0,1-.85-3.38v-1.809a6.059,6.059,0,0,1,.813-3.494,2.914,2.914,0,0,1,2.549-1.143,2.94,2.94,0,0,1,2.534,1.1,5.847,5.847,0,0,1,.835,3.4ZM11.391,183.6a4.965,4.965,0,0,0-.483-2.509,1.664,1.664,0,0,0-1.531-.787,1.642,1.642,0,0,0-1.516.784,4.848,4.848,0,0,0-.491,2.41v2.168a5.045,5.045,0,0,0,.5,2.552,1.661,1.661,0,0,0,1.52.824,1.638,1.638,0,0,0,1.49-.776,4.862,4.862,0,0,0,.509-2.446Zm3.259,5.691a.849.849,0,0,1,.209-.586.8.8,0,0,1,.626-.234.819.819,0,0,1,.634.234.831.831,0,0,1,.216.586.786.786,0,0,1-.216.564.834.834,0,0,1-.634.227.753.753,0,0,1-.835-.791Zm9.5-2.871h1.479v1.106H24.149V190H22.787v-2.476H17.931v-.8l4.775-7.39h1.443Zm-4.68,0h3.318v-5.229l-.161.293Zm-14.59,43.6H1.305v-1.106H4.879Zm7.866-.571a6.2,6.2,0,0,1-.813,3.538,2.891,2.891,0,0,1-2.542,1.157,2.912,2.912,0,0,1-2.527-1.132,5.882,5.882,0,0,1-.85-3.38v-1.809a6.059,6.059,0,0,1,.813-3.494,2.914,2.914,0,0,1,2.549-1.143,2.94,2.94,0,0,1,2.534,1.1,5.847,5.847,0,0,1,.835,3.4ZM11.391,227.6a4.965,4.965,0,0,0-.483-2.509,1.664,1.664,0,0,0-1.531-.787,1.642,1.642,0,0,0-1.516.784,4.848,4.848,0,0,0-.491,2.41v2.168a5.045,5.045,0,0,0,.5,2.552,1.661,1.661,0,0,0,1.52.824,1.638,1.638,0,0,0,1.49-.776,4.862,4.862,0,0,0,.509-2.446Zm3.259,5.691a.849.849,0,0,1,.209-.586.8.8,0,0,1,.626-.234.819.819,0,0,1,.634.234.831.831,0,0,1,.216.586.786.786,0,0,1-.216.564.834.834,0,0,1-.634.227.753.753,0,0,1-.835-.791Zm9.1-9.961v1.15H23.5a3.568,3.568,0,0,0-2.52.938,3.9,3.9,0,0,0-1.084,2.556,2.892,2.892,0,0,1,2.3-.967,2.765,2.765,0,0,1,2.223.981,4.3,4.3,0,0,1-.066,5.171,3.089,3.089,0,0,1-2.406.989,3.044,3.044,0,0,1-2.483-1.176,4.659,4.659,0,0,1-.952-3.029v-.52a7.02,7.02,0,0,1,1.256-4.5,4.613,4.613,0,0,1,3.739-1.593Zm-1.78,4.8a2.277,2.277,0,0,0-2.095,1.465v.5a3.5,3.5,0,0,0,.593,2.124,1.778,1.778,0,0,0,1.479.806,1.723,1.723,0,0,0,1.439-.674,3.236,3.236,0,0,0-.007-3.541A1.7,1.7,0,0,0,21.967,228.133Z" transform="translate(492 1370)" fill="#12263f"/>
    <path id="Trazado_929850" data-name="Trazado 929850" d="M18.1,10.023H14.521V8.917H18.1Zm7.416-.571a6.2,6.2,0,0,1-.813,3.538,2.891,2.891,0,0,1-2.542,1.157,2.912,2.912,0,0,1-2.527-1.132,5.882,5.882,0,0,1-.85-3.38V7.826a6.059,6.059,0,0,1,.813-3.494,2.914,2.914,0,0,1,2.549-1.143,2.94,2.94,0,0,1,2.534,1.1,5.847,5.847,0,0,1,.835,3.4ZM24.157,7.6a4.965,4.965,0,0,0-.483-2.509A1.664,1.664,0,0,0,22.143,4.3a1.642,1.642,0,0,0-1.516.784,4.848,4.848,0,0,0-.491,2.41V9.664a5.045,5.045,0,0,0,.5,2.552,1.661,1.661,0,0,0,1.52.824,1.638,1.638,0,0,0,1.49-.776,4.862,4.862,0,0,0,.509-2.446Zm2.809,5.691a.849.849,0,0,1,.209-.586.8.8,0,0,1,.626-.234.819.819,0,0,1,.634.234.831.831,0,0,1,.216.586.786.786,0,0,1-.216.564.834.834,0,0,1-.634.227.753.753,0,0,1-.835-.791Zm3.952-4.636.542-5.317h5.464V4.588H32.61L32.288,7.5a3.441,3.441,0,0,1,1.78-.461A2.942,2.942,0,0,1,36.382,8a3.775,3.775,0,0,1,.857,2.6,3.643,3.643,0,0,1-.89,2.6,3.243,3.243,0,0,1-2.487.948,3.371,3.371,0,0,1-2.307-.784,3.128,3.128,0,0,1-1.018-2.168h1.282a2.152,2.152,0,0,0,.652,1.381,2.027,2.027,0,0,0,1.392.465,1.828,1.828,0,0,0,1.483-.645,2.694,2.694,0,0,0,.538-1.78A2.473,2.473,0,0,0,35.3,8.9a1.981,1.981,0,0,0-1.549-.648,2.234,2.234,0,0,0-1.392.388L32,8.932Zm20.1,1.37H47.443V8.917h3.574Zm7.416-.571a6.2,6.2,0,0,1-.813,3.538,3.378,3.378,0,0,1-5.068.026,5.882,5.882,0,0,1-.85-3.38V7.826a6.059,6.059,0,0,1,.813-3.494,3.439,3.439,0,0,1,5.083-.04,5.847,5.847,0,0,1,.835,3.4ZM57.079,7.6A4.965,4.965,0,0,0,56.6,5.09,1.664,1.664,0,0,0,55.065,4.3a1.642,1.642,0,0,0-1.516.784,4.848,4.848,0,0,0-.491,2.41V9.664a5.045,5.045,0,0,0,.5,2.552,1.661,1.661,0,0,0,1.52.824,1.638,1.638,0,0,0,1.49-.776,4.862,4.862,0,0,0,.509-2.446Zm2.809,5.691A.849.849,0,0,1,60.1,12.7a.8.8,0,0,1,.626-.234.819.819,0,0,1,.634.234.831.831,0,0,1,.216.586.786.786,0,0,1-.216.564.834.834,0,0,1-.634.227.753.753,0,0,1-.835-.791Zm9.05-2.871h1.479v1.106H68.938V14H67.575V11.524H62.719v-.8l4.775-7.39h1.443Zm-4.68,0h3.318V5.189l-.161.293Zm19.682-.4H80.365V8.917h3.574Zm7.416-.571a6.2,6.2,0,0,1-.813,3.538,3.378,3.378,0,0,1-5.068.026,5.882,5.882,0,0,1-.85-3.38V7.826a6.059,6.059,0,0,1,.813-3.494,3.439,3.439,0,0,1,5.083-.04,5.847,5.847,0,0,1,.835,3.4ZM90,7.6a4.965,4.965,0,0,0-.483-2.509A1.664,1.664,0,0,0,87.986,4.3a1.642,1.642,0,0,0-1.516.784,4.848,4.848,0,0,0-.491,2.41V9.664a5.045,5.045,0,0,0,.5,2.552,1.661,1.661,0,0,0,1.52.824,1.638,1.638,0,0,0,1.49-.776A4.862,4.862,0,0,0,90,9.818ZM92.81,13.29a.849.849,0,0,1,.209-.586.8.8,0,0,1,.626-.234.819.819,0,0,1,.634.234.831.831,0,0,1,.216.586.786.786,0,0,1-.216.564.834.834,0,0,1-.634.227.753.753,0,0,1-.835-.791Zm5.3-5.281h1.018a2.238,2.238,0,0,0,1.509-.505,1.688,1.688,0,0,0,.549-1.326A1.654,1.654,0,0,0,99.318,4.3a1.943,1.943,0,0,0-1.4.5,1.756,1.756,0,0,0-.524,1.329H96.037a2.72,2.72,0,0,1,.927-2.106,3.375,3.375,0,0,1,2.355-.839,3.335,3.335,0,0,1,2.366.8,2.884,2.884,0,0,1,.857,2.219,2.341,2.341,0,0,1-.45,1.348,2.72,2.72,0,0,1-1.227.974,2.621,2.621,0,0,1,1.359.923,2.563,2.563,0,0,1,.48,1.575,2.909,2.909,0,0,1-.937,2.278,3.511,3.511,0,0,1-2.439.842,3.6,3.6,0,0,1-2.443-.813,2.7,2.7,0,0,1-.941-2.146H97.3a1.743,1.743,0,0,0,.549,1.348,2.089,2.089,0,0,0,1.472.505,2.05,2.05,0,0,0,1.5-.513,1.976,1.976,0,0,0,.52-1.472,1.793,1.793,0,0,0-.571-1.428,2.489,2.489,0,0,0-1.648-.513H98.109Zm18.752,2.014h-3.574V8.917h3.574Zm7.416-.571a6.2,6.2,0,0,1-.813,3.538,3.378,3.378,0,0,1-5.068.026,5.882,5.882,0,0,1-.85-3.38V7.826a6.059,6.059,0,0,1,.813-3.494,3.439,3.439,0,0,1,5.083-.04,5.847,5.847,0,0,1,.835,3.4ZM122.922,7.6a4.965,4.965,0,0,0-.483-2.509,1.664,1.664,0,0,0-1.531-.787,1.642,1.642,0,0,0-1.516.784A4.848,4.848,0,0,0,118.9,7.5V9.664a5.045,5.045,0,0,0,.5,2.552,1.661,1.661,0,0,0,1.52.824,1.638,1.638,0,0,0,1.49-.776,4.862,4.862,0,0,0,.509-2.446Zm2.809,5.691a.849.849,0,0,1,.209-.586.8.8,0,0,1,.626-.234.819.819,0,0,1,.634.234.831.831,0,0,1,.216.586.786.786,0,0,1-.216.564.834.834,0,0,1-.634.227.753.753,0,0,1-.835-.791Zm10.317.71h-6.987v-.974l3.691-4.1a8.77,8.77,0,0,0,1.132-1.512,2.524,2.524,0,0,0,.311-1.2,1.913,1.913,0,0,0-.505-1.37,1.767,1.767,0,0,0-1.348-.535,2.093,2.093,0,0,0-1.571.575,2.2,2.2,0,0,0-.56,1.6h-1.355A3.145,3.145,0,0,1,129.8,4.1a3.516,3.516,0,0,1,2.538-.908,3.379,3.379,0,0,1,2.351.78,2.661,2.661,0,0,1,.864,2.076q0,1.575-2.007,3.75l-2.856,3.1h5.354Zm13.735-3.977h-3.574V8.917h3.574Zm7.416-.571a6.2,6.2,0,0,1-.813,3.538,3.378,3.378,0,0,1-5.068.026,5.882,5.882,0,0,1-.85-3.38V7.826a6.059,6.059,0,0,1,.813-3.494,3.439,3.439,0,0,1,5.083-.04,5.847,5.847,0,0,1,.835,3.4ZM155.844,7.6a4.965,4.965,0,0,0-.483-2.509A1.664,1.664,0,0,0,153.83,4.3a1.642,1.642,0,0,0-1.516.784,4.848,4.848,0,0,0-.491,2.41V9.664a5.045,5.045,0,0,0,.5,2.552,1.661,1.661,0,0,0,1.52.824,1.638,1.638,0,0,0,1.49-.776,4.862,4.862,0,0,0,.509-2.446Zm2.809,5.691a.849.849,0,0,1,.209-.586.8.8,0,0,1,.626-.234.819.819,0,0,1,.634.234.831.831,0,0,1,.216.586.786.786,0,0,1-.216.564.834.834,0,0,1-.634.227.753.753,0,0,1-.835-.791Zm7.782.71h-1.362V4.969l-2.732,1V4.742l3.882-1.458h.212Zm20-4.548a6.2,6.2,0,0,1-.813,3.538,3.378,3.378,0,0,1-5.068.026,5.882,5.882,0,0,1-.85-3.38V7.826a6.059,6.059,0,0,1,.813-3.494,3.439,3.439,0,0,1,5.083-.04,5.847,5.847,0,0,1,.835,3.4ZM185.078,7.6a4.965,4.965,0,0,0-.483-2.509,1.664,1.664,0,0,0-1.531-.787,1.642,1.642,0,0,0-1.516.784,4.848,4.848,0,0,0-.491,2.41V9.664a5.045,5.045,0,0,0,.5,2.552,1.661,1.661,0,0,0,1.52.824,1.638,1.638,0,0,0,1.49-.776,4.862,4.862,0,0,0,.509-2.446ZM204.2,9.452a6.2,6.2,0,0,1-.813,3.538,3.378,3.378,0,0,1-5.068.026,5.882,5.882,0,0,1-.85-3.38V7.826a6.059,6.059,0,0,1,.813-3.494,3.439,3.439,0,0,1,5.083-.04,5.847,5.847,0,0,1,.835,3.4ZM202.841,7.6a4.965,4.965,0,0,0-.483-2.509,1.664,1.664,0,0,0-1.531-.787,1.642,1.642,0,0,0-1.516.784,4.848,4.848,0,0,0-.491,2.41V9.664a5.045,5.045,0,0,0,.5,2.552,1.661,1.661,0,0,0,1.52.824,1.638,1.638,0,0,0,1.49-.776,4.862,4.862,0,0,0,.509-2.446Zm2.809,5.691a.849.849,0,0,1,.209-.586.8.8,0,0,1,.626-.234.819.819,0,0,1,.634.234.831.831,0,0,1,.216.586.786.786,0,0,1-.216.564.834.834,0,0,1-.634.227.753.753,0,0,1-.835-.791Zm7.782.71H212.07V4.969l-2.732,1V4.742l3.882-1.458h.212Zm20-4.548a6.2,6.2,0,0,1-.813,3.538,3.378,3.378,0,0,1-5.068.026,5.882,5.882,0,0,1-.85-3.38V7.826a6.059,6.059,0,0,1,.813-3.494,3.439,3.439,0,0,1,5.083-.04,5.847,5.847,0,0,1,.835,3.4ZM232.074,7.6a4.965,4.965,0,0,0-.483-2.509A1.664,1.664,0,0,0,230.06,4.3a1.642,1.642,0,0,0-1.516.784,4.848,4.848,0,0,0-.491,2.41V9.664a5.045,5.045,0,0,0,.5,2.552,1.661,1.661,0,0,0,1.52.824,1.638,1.638,0,0,0,1.49-.776,4.862,4.862,0,0,0,.509-2.446Zm2.809,5.691a.849.849,0,0,1,.209-.586.8.8,0,0,1,.626-.234.819.819,0,0,1,.634.234.831.831,0,0,1,.216.586.786.786,0,0,1-.216.564.834.834,0,0,1-.634.227.753.753,0,0,1-.835-.791ZM245.2,14h-6.987v-.974l3.691-4.1a8.77,8.77,0,0,0,1.132-1.512,2.524,2.524,0,0,0,.311-1.2,1.913,1.913,0,0,0-.505-1.37,1.767,1.767,0,0,0-1.348-.535,2.093,2.093,0,0,0-1.571.575,2.2,2.2,0,0,0-.56,1.6h-1.355a3.145,3.145,0,0,1,.948-2.38,3.516,3.516,0,0,1,2.538-.908,3.379,3.379,0,0,1,2.351.78,2.661,2.661,0,0,1,.864,2.076q0,1.575-2.007,3.75l-2.856,3.1H245.2Z" transform="translate(523 1626)" fill="#12263f"/>
    <path id="Trazado_928129" data-name="Trazado 928129" d="M-1587.947-11392s3.491-41.725,32.405-70.639,61.371-10.118,83.253-44.5,11.722-102.372,63.3-138.32" transform="translate(2175 13008)" fill="none" stroke="#523dbf" stroke-linecap="round" stroke-width="4"/>
    <rect id="Rectángulo_413121" data-name="Rectángulo 413121" width="7" height="4" transform="translate(554.5 1613.5) rotate(-90)" fill="#360742"/>
    <rect id="Rectángulo_413122" data-name="Rectángulo 413122" width="7" height="4" transform="translate(612.5 1613.5) rotate(-90)" fill="#360742"/>
    <rect id="Rectángulo_413124" data-name="Rectángulo 413124" width="7" height="4" transform="translate(670.5 1613.5) rotate(-90)" fill="#360742"/>
    <rect id="Rectángulo_413126" data-name="Rectángulo 413126" width="7" height="4" transform="translate(728.5 1613.5) rotate(-90)" fill="#360742"/>
    <g id="Grupo_1115712" data-name="Grupo 1115712" transform="translate(2175 13008)">
      <rect id="Rectángulo_413114" data-name="Rectángulo 413114" width="7" height="4" transform="translate(-1648 -11630)" fill="#360742"/>
      <rect id="Rectángulo_413117" data-name="Rectángulo 413117" width="7" height="4" transform="translate(-1648 -11542)" fill="#360742"/>
      <rect id="Rectángulo_413119" data-name="Rectángulo 413119" width="7" height="4" transform="translate(-1648 -11454)" fill="#360742"/>
      <rect id="Rectángulo_413115" data-name="Rectángulo 413115" width="7" height="4" transform="translate(-1648 -11586)" fill="#360742"/>
      <rect id="Rectángulo_413116" data-name="Rectángulo 413116" width="7" height="4" transform="translate(-1648 -11498)" fill="#360742"/>
      <rect id="Rectángulo_413118" data-name="Rectángulo 413118" width="7" height="4" transform="translate(-1648 -11410)" fill="#360742"/>
    </g>
    <rect id="Rectángulo_413120" data-name="Rectángulo 413120" width="7" height="4" transform="translate(583.5 1613.5) rotate(-90)" fill="#360742"/>
    <rect id="Rectángulo_413123" data-name="Rectángulo 413123" width="7" height="4" transform="translate(641.5 1613.5) rotate(-90)" fill="#360742"/>
    <rect id="Rectángulo_413125" data-name="Rectángulo 413125" width="7" height="4" transform="translate(699.5 1613.5) rotate(-90)" fill="#360742"/>
    <rect id="Rectángulo_413127" data-name="Rectángulo 413127" width="7" height="4" transform="translate(757.5 1613.5) rotate(-90)" fill="#360742"/>
    <circle id="Elipse_14514" data-name="Elipse 14514" cx="7.5" cy="7.5" r="7.5" transform="translate(577 1564)" fill="#87cb5b"/>
    <circle id="Elipse_14515" data-name="Elipse 14515" cx="7.5" cy="7.5" r="7.5" transform="translate(544 1534)" fill="#87cb5b"/>
    <circle id="Elipse_14516" data-name="Elipse 14516" cx="7.5" cy="7.5" r="7.5" transform="translate(584 1532)" fill="#87cb5b"/>
    <circle id="Elipse_14517" data-name="Elipse 14517" cx="7.5" cy="7.5" r="7.5" transform="translate(597 1504)" fill="#87cb5b"/>
    <circle id="Elipse_14518" data-name="Elipse 14518" cx="7.5" cy="7.5" r="7.5" transform="translate(545 1447)" fill="#87cb5b"/>
    <circle id="Elipse_14519" data-name="Elipse 14519" cx="7.5" cy="7.5" r="7.5" transform="translate(563 1472)" fill="#87cb5b"/>
    <circle id="Elipse_14520" data-name="Elipse 14520" cx="7.5" cy="7.5" r="7.5" transform="translate(597 1472)" fill="#87cb5b"/>
    <circle id="Elipse_14521" data-name="Elipse 14521" cx="7.5" cy="7.5" r="7.5" transform="translate(618 1463)" fill="#87cb5b"/>
    <circle id="Elipse_14522" data-name="Elipse 14522" cx="7.5" cy="7.5" r="7.5" transform="translate(638 1478)" fill="#87cb5b"/>
    <circle id="Elipse_14523" data-name="Elipse 14523" cx="7.5" cy="7.5" r="7.5" transform="translate(641 1456)" fill="#87cb5b"/>
    <circle id="Elipse_14524" data-name="Elipse 14524" cx="7.5" cy="7.5" r="7.5" transform="translate(609 1440)" fill="#87cb5b"/>
    <circle id="Elipse_14525" data-name="Elipse 14525" cx="7.5" cy="7.5" r="7.5" transform="translate(597 1406)" fill="#87cb5b"/>
    <circle id="Elipse_14526" data-name="Elipse 14526" cx="7.5" cy="7.5" r="7.5" transform="translate(577 1426)" fill="#87cb5b"/>
    <circle id="Elipse_14527" data-name="Elipse 14527" cx="7.5" cy="7.5" r="7.5" transform="translate(570 1390)" fill="#87cb5b"/>
    <circle id="Elipse_14528" data-name="Elipse 14528" cx="7.5" cy="7.5" r="7.5" transform="translate(626 1421)" fill="#87cb5b"/>
    <circle id="Elipse_14529" data-name="Elipse 14529" cx="7.5" cy="7.5" r="7.5" transform="translate(662 1414)" fill="#87cb5b"/>
    <circle id="Elipse_14530" data-name="Elipse 14530" cx="7.5" cy="7.5" r="7.5" transform="translate(656 1387)" fill="#87cb5b"/>
    <circle id="Elipse_14531" data-name="Elipse 14531" cx="7.5" cy="7.5" r="7.5" transform="translate(685 1389)" fill="#87cb5b"/>
    <circle id="Elipse_14532" data-name="Elipse 14532" cx="7.5" cy="7.5" r="7.5" transform="translate(692 1407)" fill="#87cb5b"/>
    <circle id="Elipse_14533" data-name="Elipse 14533" cx="7.5" cy="7.5" r="7.5" transform="translate(686 1463)" fill="#87cb5b"/>
    <circle id="Elipse_14535" data-name="Elipse 14535" cx="7.5" cy="7.5" r="7.5" transform="translate(669 1441)" fill="#23dbd6"/>
    <circle id="Elipse_14544" data-name="Elipse 14544" cx="7.5" cy="7.5" r="7.5" transform="translate(766 1376)" fill="#23dbd6"/>
    <circle id="Elipse_14545" data-name="Elipse 14545" cx="7.5" cy="7.5" r="7.5" transform="translate(746 1386)" fill="#23dbd6"/>
    <circle id="Elipse_14546" data-name="Elipse 14546" cx="7.5" cy="7.5" r="7.5" transform="translate(745 1419)" fill="#23dbd6"/>
    <circle id="Elipse_14547" data-name="Elipse 14547" cx="7.5" cy="7.5" r="7.5" transform="translate(738 1443)" fill="#23dbd6"/>
    <circle id="Elipse_14548" data-name="Elipse 14548" cx="7.5" cy="7.5" r="7.5" transform="translate(761 1436)" fill="#23dbd6"/>
    <circle id="Elipse_14549" data-name="Elipse 14549" cx="7.5" cy="7.5" r="7.5" transform="translate(760 1458)" fill="#23dbd6"/>
    <circle id="Elipse_14550" data-name="Elipse 14550" cx="7.5" cy="7.5" r="7.5" transform="translate(744 1488)" fill="#23dbd6"/>
    <circle id="Elipse_14551" data-name="Elipse 14551" cx="7.5" cy="7.5" r="7.5" transform="translate(761 1508)" fill="#23dbd6"/>
    <circle id="Elipse_14552" data-name="Elipse 14552" cx="7.5" cy="7.5" r="7.5" transform="translate(751 1540)" fill="#23dbd6"/>
    <circle id="Elipse_14553" data-name="Elipse 14553" cx="7.5" cy="7.5" r="7.5" transform="translate(731 1516)" fill="#23dbd6"/>
    <circle id="Elipse_14554" data-name="Elipse 14554" cx="7.5" cy="7.5" r="7.5" transform="translate(710 1499)" fill="#23dbd6"/>
    <circle id="Elipse_14555" data-name="Elipse 14555" cx="7.5" cy="7.5" r="7.5" transform="translate(708 1522)" fill="#23dbd6"/>
    <circle id="Elipse_14556" data-name="Elipse 14556" cx="7.5" cy="7.5" r="7.5" transform="translate(723 1539)" fill="#23dbd6"/>
    <circle id="Elipse_14557" data-name="Elipse 14557" cx="7.5" cy="7.5" r="7.5" transform="translate(730 1563)" fill="#23dbd6"/>
    <circle id="Elipse_14558" data-name="Elipse 14558" cx="7.5" cy="7.5" r="7.5" transform="translate(702 1554)" fill="#23dbd6"/>
    <circle id="Elipse_14559" data-name="Elipse 14559" cx="7.5" cy="7.5" r="7.5" transform="translate(669 1530)" fill="#23dbd6"/>
    <circle id="Elipse_14560" data-name="Elipse 14560" cx="7.5" cy="7.5" r="7.5" transform="translate(658 1548)" fill="#23dbd6"/>
    <circle id="Elipse_14561" data-name="Elipse 14561" cx="7.5" cy="7.5" r="7.5" transform="translate(675 1565)" fill="#23dbd6"/>
    <circle id="Elipse_14562" data-name="Elipse 14562" cx="7.5" cy="7.5" r="7.5" transform="translate(690 1583)" fill="#23dbd6"/>
    <circle id="Elipse_14563" data-name="Elipse 14563" cx="7.5" cy="7.5" r="7.5" transform="translate(662 1587)" fill="#23dbd6"/>
    <circle id="Elipse_14564" data-name="Elipse 14564" cx="7.5" cy="7.5" r="7.5" transform="translate(632 1586)" fill="#23dbd6"/>
    <circle id="Elipse_14536" data-name="Elipse 14536" cx="7.5" cy="7.5" r="7.5" transform="translate(630 1393)" fill="#23dbd6"/>
    <circle id="Elipse_14537" data-name="Elipse 14537" cx="7.5" cy="7.5" r="7.5" transform="translate(584 1452)" fill="#23dbd6"/>
    <circle id="Elipse_14538" data-name="Elipse 14538" cx="7.5" cy="7.5" r="7.5" transform="translate(544 1498)" fill="#23dbd6"/>
    <circle id="Elipse_14539" data-name="Elipse 14539" cx="7.5" cy="7.5" r="7.5" transform="translate(663 1489)" fill="#23dbd6"/>
    <circle id="Elipse_14534" data-name="Elipse 14534" cx="7.5" cy="7.5" r="7.5" transform="translate(647 1570)" fill="#87cb5b"/>
    <circle id="Elipse_14540" data-name="Elipse 14540" cx="7.5" cy="7.5" r="7.5" transform="translate(753 1578)" fill="#87cb5b"/>
    <circle id="Elipse_14541" data-name="Elipse 14541" cx="7.5" cy="7.5" r="7.5" transform="translate(768 1486)" fill="#87cb5b"/>
    <circle id="Elipse_14542" data-name="Elipse 14542" cx="7.5" cy="7.5" r="7.5" transform="translate(729 1471)" fill="#87cb5b"/>
    <circle id="Elipse_14543" data-name="Elipse 14543" cx="7.5" cy="7.5" r="7.5" transform="translate(766 1411)" fill="#87cb5b"/>
    <path id="Trazado_929849" data-name="Trazado 929849" d="M14.442,14H7.455v-.974l3.691-4.1a8.77,8.77,0,0,0,1.132-1.512,2.524,2.524,0,0,0,.311-1.2,1.913,1.913,0,0,0-.505-1.37A1.767,1.767,0,0,0,10.736,4.3a2.093,2.093,0,0,0-1.571.575,2.2,2.2,0,0,0-.56,1.6H7.25A3.145,3.145,0,0,1,8.2,4.1a3.516,3.516,0,0,1,2.538-.908,3.379,3.379,0,0,1,2.351.78,2.661,2.661,0,0,1,.864,2.076q0,1.575-2.007,3.75l-2.856,3.1h5.354Zm7.823-4.548a6.2,6.2,0,0,1-.813,3.538,2.891,2.891,0,0,1-2.542,1.157,2.912,2.912,0,0,1-2.527-1.132,5.882,5.882,0,0,1-.85-3.38V7.826a6.059,6.059,0,0,1,.813-3.494A2.914,2.914,0,0,1,18.9,3.189a2.94,2.94,0,0,1,2.534,1.1,5.847,5.847,0,0,1,.835,3.4ZM20.91,7.6a4.965,4.965,0,0,0-.483-2.509A1.664,1.664,0,0,0,18.9,4.3a1.642,1.642,0,0,0-1.516.784,4.848,4.848,0,0,0-.491,2.41V9.664a5.045,5.045,0,0,0,.5,2.552,1.661,1.661,0,0,0,1.52.824,1.638,1.638,0,0,0,1.49-.776,4.862,4.862,0,0,0,.509-2.446Zm18.415.41h1.018A2.238,2.238,0,0,0,41.851,7.5,1.688,1.688,0,0,0,42.4,6.178,1.654,1.654,0,0,0,40.533,4.3a1.943,1.943,0,0,0-1.4.5,1.756,1.756,0,0,0-.524,1.329H37.252a2.72,2.72,0,0,1,.927-2.106,3.375,3.375,0,0,1,2.355-.839,3.335,3.335,0,0,1,2.366.8,2.884,2.884,0,0,1,.857,2.219,2.341,2.341,0,0,1-.45,1.348,2.72,2.72,0,0,1-1.227.974,2.621,2.621,0,0,1,1.359.923,2.563,2.563,0,0,1,.48,1.575,2.909,2.909,0,0,1-.937,2.278,3.511,3.511,0,0,1-2.439.842,3.6,3.6,0,0,1-2.443-.813,2.7,2.7,0,0,1-.941-2.146h1.362a1.743,1.743,0,0,0,.549,1.348,2.089,2.089,0,0,0,1.472.505,2.05,2.05,0,0,0,1.5-.513,1.976,1.976,0,0,0,.52-1.472,1.793,1.793,0,0,0-.571-1.428,2.489,2.489,0,0,0-1.648-.513H39.325Zm12.84,1.443a6.2,6.2,0,0,1-.813,3.538,3.378,3.378,0,0,1-5.068.026,5.882,5.882,0,0,1-.85-3.38V7.826a6.059,6.059,0,0,1,.813-3.494,3.439,3.439,0,0,1,5.083-.04,5.847,5.847,0,0,1,.835,3.4ZM50.809,7.6a4.965,4.965,0,0,0-.483-2.509A1.664,1.664,0,0,0,48.8,4.3a1.642,1.642,0,0,0-1.516.784,4.848,4.848,0,0,0-.491,2.41V9.664a5.045,5.045,0,0,0,.5,2.552,1.661,1.661,0,0,0,1.52.824,1.638,1.638,0,0,0,1.49-.776,4.862,4.862,0,0,0,.509-2.446Zm22.165,2.82h1.479v1.106H72.974V14H71.611V11.524H66.756v-.8l4.775-7.39h1.443Zm-4.68,0h3.318V5.189l-.161.293Zm13.77-.967a6.2,6.2,0,0,1-.813,3.538,3.378,3.378,0,0,1-5.068.026,5.882,5.882,0,0,1-.85-3.38V7.826a6.059,6.059,0,0,1,.813-3.494,3.439,3.439,0,0,1,5.083-.04,5.847,5.847,0,0,1,.835,3.4ZM80.708,7.6a4.965,4.965,0,0,0-.483-2.509A1.664,1.664,0,0,0,78.694,4.3a1.642,1.642,0,0,0-1.516.784,4.848,4.848,0,0,0-.491,2.41V9.664a5.045,5.045,0,0,0,.5,2.552,1.661,1.661,0,0,0,1.52.824,1.638,1.638,0,0,0,1.49-.776,4.862,4.862,0,0,0,.509-2.446ZM97.775,8.653l.542-5.317h5.464V4.588H99.467L99.145,7.5a3.441,3.441,0,0,1,1.78-.461A2.942,2.942,0,0,1,103.239,8a3.775,3.775,0,0,1,.857,2.6,3.643,3.643,0,0,1-.89,2.6,3.243,3.243,0,0,1-2.487.948,3.371,3.371,0,0,1-2.307-.784,3.128,3.128,0,0,1-1.018-2.168h1.282a2.152,2.152,0,0,0,.652,1.381,2.027,2.027,0,0,0,1.392.465A1.828,1.828,0,0,0,102.2,12.4a2.694,2.694,0,0,0,.538-1.78,2.473,2.473,0,0,0-.582-1.718,1.981,1.981,0,0,0-1.549-.648,2.234,2.234,0,0,0-1.392.388l-.359.293Zm14.187.8a6.2,6.2,0,0,1-.813,3.538,3.378,3.378,0,0,1-5.068.026,5.882,5.882,0,0,1-.85-3.38V7.826a6.059,6.059,0,0,1,.813-3.494,3.439,3.439,0,0,1,5.083-.04,5.847,5.847,0,0,1,.835,3.4ZM110.608,7.6a4.965,4.965,0,0,0-.483-2.509,1.664,1.664,0,0,0-1.531-.787,1.642,1.642,0,0,0-1.516.784,4.848,4.848,0,0,0-.491,2.41V9.664a5.045,5.045,0,0,0,.5,2.552,1.661,1.661,0,0,0,1.52.824,1.638,1.638,0,0,0,1.49-.776,4.862,4.862,0,0,0,.509-2.446Zm21.762-4.27v1.15h-.249a3.568,3.568,0,0,0-2.52.938,3.9,3.9,0,0,0-1.084,2.556,2.892,2.892,0,0,1,2.3-.967,2.765,2.765,0,0,1,2.223.981,3.786,3.786,0,0,1,.831,2.534,3.774,3.774,0,0,1-.9,2.637,3.089,3.089,0,0,1-2.406.989,3.044,3.044,0,0,1-2.483-1.176,4.659,4.659,0,0,1-.952-3.029v-.52a7.02,7.02,0,0,1,1.256-4.5,4.613,4.613,0,0,1,3.739-1.593Zm-1.78,4.8A2.277,2.277,0,0,0,128.495,9.6v.5a3.5,3.5,0,0,0,.593,2.124,1.778,1.778,0,0,0,1.479.806,1.723,1.723,0,0,0,1.439-.674,2.8,2.8,0,0,0,.524-1.765A2.8,2.8,0,0,0,132,8.811,1.7,1.7,0,0,0,130.59,8.133Zm11.272,1.318a6.2,6.2,0,0,1-.813,3.538,3.378,3.378,0,0,1-5.068.026,5.882,5.882,0,0,1-.85-3.38V7.826a6.059,6.059,0,0,1,.813-3.494,3.439,3.439,0,0,1,5.083-.04,5.847,5.847,0,0,1,.835,3.4ZM140.507,7.6a4.965,4.965,0,0,0-.483-2.509,1.664,1.664,0,0,0-1.531-.787,1.642,1.642,0,0,0-1.516.784,4.848,4.848,0,0,0-.491,2.41V9.664a5.045,5.045,0,0,0,.5,2.552,1.661,1.661,0,0,0,1.52.824,1.638,1.638,0,0,0,1.49-.776,4.862,4.862,0,0,0,.509-2.446Zm23.329-3.5L159.419,14H158l4.4-9.551h-5.771V3.336h7.207Zm7.925,5.354a6.2,6.2,0,0,1-.813,3.538,3.378,3.378,0,0,1-5.068.026,5.882,5.882,0,0,1-.85-3.38V7.826a6.059,6.059,0,0,1,.813-3.494,3.439,3.439,0,0,1,5.083-.04,5.847,5.847,0,0,1,.835,3.4ZM170.406,7.6a4.965,4.965,0,0,0-.483-2.509,1.664,1.664,0,0,0-1.531-.787,1.642,1.642,0,0,0-1.516.784,4.848,4.848,0,0,0-.491,2.41V9.664a5.045,5.045,0,0,0,.5,2.552,1.661,1.661,0,0,0,1.52.824,1.638,1.638,0,0,0,1.49-.776,4.862,4.862,0,0,0,.509-2.446Zm22.912-1.479A2.476,2.476,0,0,1,192.9,7.54a2.865,2.865,0,0,1-1.139.974,3.056,3.056,0,0,1,1.322,1.047,2.636,2.636,0,0,1,.487,1.56,2.787,2.787,0,0,1-.934,2.2,4.094,4.094,0,0,1-4.922,0,2.8,2.8,0,0,1-.927-2.2,2.714,2.714,0,0,1,.472-1.56,2.94,2.94,0,0,1,1.307-1.055,2.8,2.8,0,0,1-1.121-.974,2.512,2.512,0,0,1-.41-1.414A2.757,2.757,0,0,1,187.9,3.98a3.67,3.67,0,0,1,4.552,0A2.751,2.751,0,0,1,193.318,6.119Zm-1.106,4.973a1.965,1.965,0,0,0-.568-1.458,2.013,2.013,0,0,0-1.483-.564,1.907,1.907,0,0,0-2.021,2.021,1.893,1.893,0,0,0,.538,1.428,2.405,2.405,0,0,0,2.992,0A1.888,1.888,0,0,0,192.212,11.092ZM190.176,4.3a1.748,1.748,0,0,0-1.293.494,1.816,1.816,0,0,0-.494,1.344,1.807,1.807,0,0,0,.487,1.315,1.935,1.935,0,0,0,2.6,0,1.807,1.807,0,0,0,.487-1.315,1.808,1.808,0,0,0-.505-1.326A1.724,1.724,0,0,0,190.176,4.3ZM201.66,9.452a6.2,6.2,0,0,1-.813,3.538,3.378,3.378,0,0,1-5.068.026,5.882,5.882,0,0,1-.85-3.38V7.826a6.059,6.059,0,0,1,.813-3.494,3.439,3.439,0,0,1,5.083-.04,5.847,5.847,0,0,1,.835,3.4ZM200.305,7.6a4.965,4.965,0,0,0-.483-2.509,1.664,1.664,0,0,0-1.531-.787,1.642,1.642,0,0,0-1.516.784,4.848,4.848,0,0,0-.491,2.41V9.664a5.045,5.045,0,0,0,.5,2.552,1.661,1.661,0,0,0,1.52.824,1.638,1.638,0,0,0,1.49-.776,4.862,4.862,0,0,0,.509-2.446Zm21.637,1.714a3.315,3.315,0,0,1-1.014.813,2.752,2.752,0,0,1-1.293.308,2.841,2.841,0,0,1-1.608-.454A2.952,2.952,0,0,1,216.969,8.7a4.357,4.357,0,0,1-.374-1.82A4.439,4.439,0,0,1,217,4.955a2.986,2.986,0,0,1,1.154-1.311,3.289,3.289,0,0,1,1.743-.454,2.978,2.978,0,0,1,2.494,1.183A5.159,5.159,0,0,1,223.3,7.6v.4a6.894,6.894,0,0,1-1.23,4.545,4.727,4.727,0,0,1-3.713,1.469H218.1v-1.15h.286a3.73,3.73,0,0,0,2.578-.873A3.748,3.748,0,0,0,221.942,9.313Zm-2.087,0a2.092,2.092,0,0,0,1.256-.417,2.461,2.461,0,0,0,.839-1.033V7.32a3.729,3.729,0,0,0-.579-2.168,1.769,1.769,0,0,0-2.9-.15,2.825,2.825,0,0,0-.542,1.805,2.94,2.94,0,0,0,.524,1.8A1.658,1.658,0,0,0,219.855,9.313Zm11.7.139a6.2,6.2,0,0,1-.813,3.538,3.378,3.378,0,0,1-5.068.026,5.882,5.882,0,0,1-.85-3.38V7.826a6.059,6.059,0,0,1,.813-3.494,3.439,3.439,0,0,1,5.083-.04,5.847,5.847,0,0,1,.835,3.4ZM230.2,7.6a4.965,4.965,0,0,0-.483-2.509A1.664,1.664,0,0,0,228.19,4.3a1.642,1.642,0,0,0-1.516.784,4.848,4.848,0,0,0-.491,2.41V9.664a5.045,5.045,0,0,0,.5,2.552,1.661,1.661,0,0,0,1.52.824,1.638,1.638,0,0,0,1.49-.776,4.862,4.862,0,0,0,.509-2.446ZM251.1,14H249.74V4.969l-2.732,1V4.742l3.882-1.458h.212Zm10.357-4.548a6.2,6.2,0,0,1-.813,3.538,3.378,3.378,0,0,1-5.068.026,5.882,5.882,0,0,1-.85-3.38V7.826a6.059,6.059,0,0,1,.813-3.494,3.439,3.439,0,0,1,5.083-.04,5.847,5.847,0,0,1,.835,3.4ZM260.1,7.6a4.965,4.965,0,0,0-.483-2.509A1.664,1.664,0,0,0,258.09,4.3a1.642,1.642,0,0,0-1.516.784,4.848,4.848,0,0,0-.491,2.41V9.664a5.045,5.045,0,0,0,.5,2.552,1.661,1.661,0,0,0,1.52.824,1.638,1.638,0,0,0,1.49-.776,4.862,4.862,0,0,0,.509-2.446Zm9.478,1.853a6.2,6.2,0,0,1-.813,3.538,3.378,3.378,0,0,1-5.068.026,5.882,5.882,0,0,1-.85-3.38V7.826a6.059,6.059,0,0,1,.813-3.494,3.439,3.439,0,0,1,5.083-.04,5.847,5.847,0,0,1,.835,3.4ZM268.227,7.6a4.965,4.965,0,0,0-.483-2.509,1.664,1.664,0,0,0-1.531-.787,1.642,1.642,0,0,0-1.516.784,4.848,4.848,0,0,0-.491,2.41V9.664a5.045,5.045,0,0,0,.5,2.552,1.661,1.661,0,0,0,1.52.824,1.638,1.638,0,0,0,1.49-.776,4.862,4.862,0,0,0,.509-2.446Z" transform="translate(831 1626)" fill="#12263f"/>
    <path id="Trazado_929851" data-name="Trazado 929851" d="M6.205,14H4.843V4.969l-2.732,1V4.742L5.993,3.285h.212ZM16.862,9.452a6.2,6.2,0,0,1-.813,3.538,2.891,2.891,0,0,1-2.542,1.157,2.912,2.912,0,0,1-2.527-1.132,5.882,5.882,0,0,1-.85-3.38V7.826a6.059,6.059,0,0,1,.813-3.494,2.914,2.914,0,0,1,2.549-1.143,2.94,2.94,0,0,1,2.534,1.1,5.847,5.847,0,0,1,.835,3.4ZM15.507,7.6a4.965,4.965,0,0,0-.483-2.509A1.664,1.664,0,0,0,13.493,4.3a1.642,1.642,0,0,0-1.516.784,4.848,4.848,0,0,0-.491,2.41V9.664a5.045,5.045,0,0,0,.5,2.552,1.661,1.661,0,0,0,1.52.824A1.638,1.638,0,0,0,15,12.264a4.862,4.862,0,0,0,.509-2.446Zm9.778,1.853a6.2,6.2,0,0,1-.813,3.538,2.891,2.891,0,0,1-2.542,1.157A2.912,2.912,0,0,1,19.4,13.015a5.882,5.882,0,0,1-.85-3.38V7.826a6.059,6.059,0,0,1,.813-3.494,2.914,2.914,0,0,1,2.549-1.143,2.94,2.94,0,0,1,2.534,1.1,5.847,5.847,0,0,1,.835,3.4ZM23.93,7.6a4.965,4.965,0,0,0-.483-2.509A1.664,1.664,0,0,0,21.916,4.3a1.642,1.642,0,0,0-1.516.784,4.848,4.848,0,0,0-.491,2.41V9.664a5.045,5.045,0,0,0,.5,2.552,1.661,1.661,0,0,0,1.52.824,1.638,1.638,0,0,0,1.49-.776,4.862,4.862,0,0,0,.509-2.446Zm-11.5,42.521a2.476,2.476,0,0,1-.421,1.421,2.865,2.865,0,0,1-1.139.974,3.056,3.056,0,0,1,1.322,1.047,2.636,2.636,0,0,1,.487,1.56,2.787,2.787,0,0,1-.934,2.2,3.588,3.588,0,0,1-2.457.82,3.572,3.572,0,0,1-2.465-.824,2.8,2.8,0,0,1-.927-2.2,2.714,2.714,0,0,1,.472-1.56,2.94,2.94,0,0,1,1.307-1.055,2.8,2.8,0,0,1-1.121-.974,2.512,2.512,0,0,1-.41-1.414,2.757,2.757,0,0,1,.864-2.139,3.242,3.242,0,0,1,2.278-.791,3.245,3.245,0,0,1,2.274.791A2.751,2.751,0,0,1,12.431,50.119Zm-1.106,4.973a1.965,1.965,0,0,0-.568-1.458,2.013,2.013,0,0,0-1.483-.564,1.907,1.907,0,0,0-2.021,2.021,1.893,1.893,0,0,0,.538,1.428,2.066,2.066,0,0,0,1.5.52,2.06,2.06,0,0,0,1.494-.524A1.888,1.888,0,0,0,11.325,55.092ZM9.289,48.3A1.748,1.748,0,0,0,8,48.8a2.046,2.046,0,0,0-.007,2.659,1.729,1.729,0,0,0,1.3.5,1.729,1.729,0,0,0,1.3-.5,2,2,0,0,0-.018-2.64A1.724,1.724,0,0,0,9.289,48.3Zm11.785,5.149a6.2,6.2,0,0,1-.813,3.538,2.891,2.891,0,0,1-2.542,1.157,2.912,2.912,0,0,1-2.527-1.132,5.882,5.882,0,0,1-.85-3.38V51.826a6.059,6.059,0,0,1,.813-3.494A2.914,2.914,0,0,1,17.7,47.189a2.94,2.94,0,0,1,2.534,1.1,5.847,5.847,0,0,1,.835,3.4ZM19.718,51.6a4.965,4.965,0,0,0-.483-2.509A1.664,1.664,0,0,0,17.7,48.3a1.642,1.642,0,0,0-1.516.784A4.848,4.848,0,0,0,15.7,51.5v2.168a5.045,5.045,0,0,0,.5,2.552,1.661,1.661,0,0,0,1.52.824,1.638,1.638,0,0,0,1.49-.776,4.862,4.862,0,0,0,.509-2.446Zm-8.437,39.73v1.15h-.249a3.568,3.568,0,0,0-2.52.938,3.9,3.9,0,0,0-1.084,2.556,2.892,2.892,0,0,1,2.3-.967,2.765,2.765,0,0,1,2.223.981,4.3,4.3,0,0,1-.066,5.171,3.089,3.089,0,0,1-2.406.989A3.044,3.044,0,0,1,7,100.971a4.659,4.659,0,0,1-.952-3.029v-.52a7.02,7.02,0,0,1,1.256-4.5,4.613,4.613,0,0,1,3.739-1.593Zm-1.78,4.8A2.277,2.277,0,0,0,7.406,97.6v.5A3.5,3.5,0,0,0,8,100.22a1.778,1.778,0,0,0,1.479.806,1.723,1.723,0,0,0,1.439-.674,3.236,3.236,0,0,0-.007-3.541A1.7,1.7,0,0,0,9.5,96.133Zm11.572,1.318a6.2,6.2,0,0,1-.813,3.538,2.891,2.891,0,0,1-2.542,1.157,2.912,2.912,0,0,1-2.527-1.132,5.882,5.882,0,0,1-.85-3.38V95.826a6.059,6.059,0,0,1,.813-3.494A2.914,2.914,0,0,1,17.7,91.189a2.94,2.94,0,0,1,2.534,1.1,5.847,5.847,0,0,1,.835,3.4ZM19.718,95.6a4.965,4.965,0,0,0-.483-2.509A1.664,1.664,0,0,0,17.7,92.3a1.642,1.642,0,0,0-1.516.784A4.848,4.848,0,0,0,15.7,95.5v2.168a5.045,5.045,0,0,0,.5,2.552,1.661,1.661,0,0,0,1.52.824,1.638,1.638,0,0,0,1.49-.776,4.862,4.862,0,0,0,.509-2.446Zm-8.035,46.82h1.479v1.106H11.684V146H10.321v-2.476H5.465v-.8l4.775-7.39h1.443Zm-4.68,0h3.318v-5.229l-.161.293Zm14.07-.967a6.2,6.2,0,0,1-.813,3.538,2.891,2.891,0,0,1-2.542,1.157,2.912,2.912,0,0,1-2.527-1.132,5.882,5.882,0,0,1-.85-3.38v-1.809a6.059,6.059,0,0,1,.813-3.494,2.914,2.914,0,0,1,2.549-1.143,2.94,2.94,0,0,1,2.534,1.1,5.847,5.847,0,0,1,.835,3.4ZM19.718,139.6a4.965,4.965,0,0,0-.483-2.509A1.664,1.664,0,0,0,17.7,136.3a1.642,1.642,0,0,0-1.516.784,4.848,4.848,0,0,0-.491,2.41v2.168a5.045,5.045,0,0,0,.5,2.552,1.661,1.661,0,0,0,1.52.824,1.638,1.638,0,0,0,1.49-.776,4.862,4.862,0,0,0,.509-2.446ZM12.951,190H5.963v-.974l3.691-4.1a8.77,8.77,0,0,0,1.132-1.512,2.524,2.524,0,0,0,.311-1.2,1.913,1.913,0,0,0-.505-1.37,1.767,1.767,0,0,0-1.348-.535,2.093,2.093,0,0,0-1.571.575,2.2,2.2,0,0,0-.56,1.6H5.758a3.145,3.145,0,0,1,.948-2.38,3.516,3.516,0,0,1,2.538-.908,3.379,3.379,0,0,1,2.351.78,2.661,2.661,0,0,1,.864,2.076q0,1.575-2.007,3.75l-2.856,3.1h5.354Zm8.123-4.548a6.2,6.2,0,0,1-.813,3.538,2.891,2.891,0,0,1-2.542,1.157,2.912,2.912,0,0,1-2.527-1.132,5.882,5.882,0,0,1-.85-3.38v-1.809a6.059,6.059,0,0,1,.813-3.494,2.914,2.914,0,0,1,2.549-1.143,2.94,2.94,0,0,1,2.534,1.1,5.847,5.847,0,0,1,.835,3.4ZM19.718,183.6a4.965,4.965,0,0,0-.483-2.509A1.664,1.664,0,0,0,17.7,180.3a1.642,1.642,0,0,0-1.516.784,4.848,4.848,0,0,0-.491,2.41v2.168a5.045,5.045,0,0,0,.5,2.552,1.661,1.661,0,0,0,1.52.824,1.638,1.638,0,0,0,1.49-.776,4.862,4.862,0,0,0,.509-2.446Zm-2.856,45.853a6.2,6.2,0,0,1-.813,3.538,2.891,2.891,0,0,1-2.542,1.157,2.912,2.912,0,0,1-2.527-1.132,5.882,5.882,0,0,1-.85-3.38v-1.809a6.059,6.059,0,0,1,.813-3.494,2.914,2.914,0,0,1,2.549-1.143,2.94,2.94,0,0,1,2.534,1.1,5.847,5.847,0,0,1,.835,3.4ZM15.507,227.6a4.965,4.965,0,0,0-.483-2.509,1.664,1.664,0,0,0-1.531-.787,1.642,1.642,0,0,0-1.516.784,4.848,4.848,0,0,0-.491,2.41v2.168a5.045,5.045,0,0,0,.5,2.552,1.661,1.661,0,0,0,1.52.824,1.638,1.638,0,0,0,1.49-.776,4.862,4.862,0,0,0,.509-2.446Z" transform="translate(801 1380)" fill="#12263f"/>
    <g id="Rectángulo_413113" data-name="Rectángulo 413113" transform="translate(831 1362)" fill="none" stroke="#360742" stroke-linecap="round" stroke-width="3">
      <rect width="277" height="254" stroke="none"/>
      <rect x="1.5" y="1.5" width="274" height="251" fill="none"/>
    </g>
    <g id="Grupo_1115713" data-name="Grupo 1115713" transform="translate(2481 12958)">
      <rect id="Rectángulo_413117-2" data-name="Rectángulo 413117" width="7" height="3" transform="translate(-1649 -11527)" fill="#360742"/>
      <rect id="Rectángulo_413119-2" data-name="Rectángulo 413119" width="7" height="3" transform="translate(-1649 -11439)" fill="#360742"/>
      <rect id="Rectángulo_413115-2" data-name="Rectángulo 413115" width="7" height="3" transform="translate(-1649 -11571)" fill="#360742"/>
      <rect id="Rectángulo_413116-2" data-name="Rectángulo 413116" width="7" height="3" transform="translate(-1649 -11483)" fill="#360742"/>
      <rect id="Rectángulo_413118-2" data-name="Rectángulo 413118" width="7" height="3" transform="translate(-1649 -11395)" fill="#360742"/>
    </g>
    <g id="Grupo_1115714" data-name="Grupo 1115714" transform="translate(2750 12958)">
      <rect id="Rectángulo_413117-3" data-name="Rectángulo 413117" width="7" height="3" transform="translate(-1649 -11527)" fill="#360742"/>
      <rect id="Rectángulo_413119-3" data-name="Rectángulo 413119" width="7" height="3" transform="translate(-1649 -11439)" fill="#360742"/>
      <rect id="Rectángulo_413115-3" data-name="Rectángulo 413115" width="7" height="3" transform="translate(-1649 -11571)" fill="#360742"/>
      <rect id="Rectángulo_413116-3" data-name="Rectángulo 413116" width="7" height="3" transform="translate(-1649 -11483)" fill="#360742"/>
      <rect id="Rectángulo_413118-3" data-name="Rectángulo 413118" width="7" height="3" transform="translate(-1649 -11395)" fill="#360742"/>
    </g>
    <g id="Grupo_1115715" data-name="Grupo 1115715" transform="translate(2176 13008)">
      <rect id="Rectángulo_413128" data-name="Rectángulo 413128" width="7" height="3" transform="translate(-1308 -11393.56) rotate(-90)" fill="#360742"/>
      <rect id="Rectángulo_413131" data-name="Rectángulo 413131" width="7" height="3" transform="translate(-1232 -11393.56) rotate(-90)" fill="#360742"/>
      <rect id="Rectángulo_413133" data-name="Rectángulo 413133" width="7" height="3" transform="translate(-1156 -11393.56) rotate(-90)" fill="#360742"/>
      <rect id="Rectángulo_413129" data-name="Rectángulo 413129" width="7" height="3" transform="translate(-1270 -11393.56) rotate(-90)" fill="#360742"/>
      <rect id="Rectángulo_413130" data-name="Rectángulo 413130" width="7" height="3" transform="translate(-1194 -11393.56) rotate(-90)" fill="#360742"/>
      <rect id="Rectángulo_413132" data-name="Rectángulo 413132" width="7" height="3" transform="translate(-1118 -11393.56) rotate(-90)" fill="#360742"/>
      <rect id="Rectángulo_413134" data-name="Rectángulo 413134" width="7" height="3" transform="translate(-1081 -11393.56) rotate(-90)" fill="#360742"/>
    </g>
    <g id="Grupo_1115716" data-name="Grupo 1115716" transform="translate(2176 12762.56)">
      <rect id="Rectángulo_413128-2" data-name="Rectángulo 413128" width="7" height="3" transform="translate(-1308 -11393.56) rotate(-90)" fill="#360742"/>
      <rect id="Rectángulo_413131-2" data-name="Rectángulo 413131" width="7" height="3" transform="translate(-1232 -11393.56) rotate(-90)" fill="#360742"/>
      <rect id="Rectángulo_413133-2" data-name="Rectángulo 413133" width="7" height="3" transform="translate(-1156 -11393.56) rotate(-90)" fill="#360742"/>
      <rect id="Rectángulo_413129-2" data-name="Rectángulo 413129" width="7" height="3" transform="translate(-1270 -11393.56) rotate(-90)" fill="#360742"/>
      <rect id="Rectángulo_413130-2" data-name="Rectángulo 413130" width="7" height="3" transform="translate(-1194 -11393.56) rotate(-90)" fill="#360742"/>
      <rect id="Rectángulo_413132-2" data-name="Rectángulo 413132" width="7" height="3" transform="translate(-1118 -11393.56) rotate(-90)" fill="#360742"/>
      <rect id="Rectángulo_413134-2" data-name="Rectángulo 413134" width="7" height="3" transform="translate(-1081 -11393.56) rotate(-90)" fill="#360742"/>
    </g>
    <circle id="Elipse_14565" data-name="Elipse 14565" cx="4.5" cy="4.5" r="4.5" transform="translate(837 1534)" fill="#f55d32"/>
    <circle id="Elipse_14566" data-name="Elipse 14566" cx="4.5" cy="4.5" r="4.5" transform="translate(836 1509)" fill="#f55d32"/>
    <circle id="Elipse_14567" data-name="Elipse 14567" cx="4.5" cy="4.5" r="4.5" transform="translate(847 1514)" fill="#f55d32"/>
    <circle id="Elipse_14568" data-name="Elipse 14568" cx="4.5" cy="4.5" r="4.5" transform="translate(856 1525)" fill="#f55d32"/>
    <circle id="Elipse_14569" data-name="Elipse 14569" cx="4.5" cy="4.5" r="4.5" transform="translate(868 1528)" fill="#f55d32"/>
    <circle id="Elipse_14570" data-name="Elipse 14570" cx="4.5" cy="4.5" r="4.5" transform="translate(869 1512)" fill="#f55d32"/>
    <circle id="Elipse_14579" data-name="Elipse 14579" cx="4.5" cy="4.5" r="4.5" transform="translate(876 1504)" fill="#f55d32"/>
    <circle id="Elipse_14580" data-name="Elipse 14580" cx="4.5" cy="4.5" r="4.5" transform="translate(878 1493)" fill="#f55d32"/>
    <circle id="Elipse_14581" data-name="Elipse 14581" cx="4.5" cy="4.5" r="4.5" transform="translate(893 1502)" fill="#f55d32"/>
    <circle id="Elipse_14582" data-name="Elipse 14582" cx="4.5" cy="4.5" r="4.5" transform="translate(896 1491)" fill="#f55d32"/>
    <circle id="Elipse_14583" data-name="Elipse 14583" cx="4.5" cy="4.5" r="4.5" transform="translate(901 1474)" fill="#f55d32"/>
    <circle id="Elipse_14584" data-name="Elipse 14584" cx="4.5" cy="4.5" r="4.5" transform="translate(897 1460)" fill="#f55d32"/>
    <circle id="Elipse_14585" data-name="Elipse 14585" cx="4.5" cy="4.5" r="4.5" transform="translate(913 1459)" fill="#f55d32"/>
    <circle id="Elipse_14586" data-name="Elipse 14586" cx="4.5" cy="4.5" r="4.5" transform="translate(924 1461)" fill="#f55d32"/>
    <circle id="Elipse_14593" data-name="Elipse 14593" cx="4.5" cy="4.5" r="4.5" transform="translate(929 1450)" fill="#f55d32"/>
    <circle id="Elipse_14594" data-name="Elipse 14594" cx="4.5" cy="4.5" r="4.5" transform="translate(937 1460)" fill="#f55d32"/>
    <circle id="Elipse_14595" data-name="Elipse 14595" cx="4.5" cy="4.5" r="4.5" transform="translate(937 1472)" fill="#f55d32"/>
    <circle id="Elipse_14596" data-name="Elipse 14596" cx="4.5" cy="4.5" r="4.5" transform="translate(933 1486)" fill="#f55d32"/>
    <circle id="Elipse_14597" data-name="Elipse 14597" cx="4.5" cy="4.5" r="4.5" transform="translate(932 1497)" fill="#f55d32"/>
    <circle id="Elipse_14587" data-name="Elipse 14587" cx="4.5" cy="4.5" r="4.5" transform="translate(920 1480)" fill="#f55d32"/>
    <circle id="Elipse_14588" data-name="Elipse 14588" cx="4.5" cy="4.5" r="4.5" transform="translate(913 1493)" fill="#f55d32"/>
    <circle id="Elipse_14589" data-name="Elipse 14589" cx="4.5" cy="4.5" r="4.5" transform="translate(912 1505)" fill="#f55d32"/>
    <circle id="Elipse_14590" data-name="Elipse 14590" cx="4.5" cy="4.5" r="4.5" transform="translate(913 1446)" fill="#f55d32"/>
    <circle id="Elipse_14591" data-name="Elipse 14591" cx="4.5" cy="4.5" r="4.5" transform="translate(921 1432)" fill="#f55d32"/>
    <circle id="Elipse_14592" data-name="Elipse 14592" cx="4.5" cy="4.5" r="4.5" transform="translate(933 1438)" fill="#f55d32"/>
    <circle id="Elipse_14598" data-name="Elipse 14598" cx="4.5" cy="4.5" r="4.5" transform="translate(949 1449)" fill="#f55d32"/>
    <circle id="Elipse_14599" data-name="Elipse 14599" cx="4.5" cy="4.5" r="4.5" transform="translate(955 1431)" fill="#f55d32"/>
    <circle id="Elipse_14600" data-name="Elipse 14600" cx="4.5" cy="4.5" r="4.5" transform="translate(972 1411)" fill="#f55d32"/>
    <circle id="Elipse_14601" data-name="Elipse 14601" cx="4.5" cy="4.5" r="4.5" transform="translate(977 1431)" fill="#f55d32"/>
    <circle id="Elipse_14608" data-name="Elipse 14608" cx="4.5" cy="4.5" r="4.5" transform="translate(990 1430)" fill="#f55d32"/>
    <circle id="Elipse_14609" data-name="Elipse 14609" cx="4.5" cy="4.5" r="4.5" transform="translate(992 1420)" fill="#f55d32"/>
    <circle id="Elipse_14610" data-name="Elipse 14610" cx="4.5" cy="4.5" r="4.5" transform="translate(1003 1423)" fill="#f55d32"/>
    <circle id="Elipse_14614" data-name="Elipse 14614" cx="4.5" cy="4.5" r="4.5" transform="translate(1007 1407)" fill="#f55d32"/>
    <circle id="Elipse_14602" data-name="Elipse 14602" cx="4.5" cy="4.5" r="4.5" transform="translate(970 1443)" fill="#f55d32"/>
    <circle id="Elipse_14603" data-name="Elipse 14603" cx="4.5" cy="4.5" r="4.5" transform="translate(967 1454)" fill="#f55d32"/>
    <circle id="Elipse_14604" data-name="Elipse 14604" cx="4.5" cy="4.5" r="4.5" transform="translate(955 1465)" fill="#f55d32"/>
    <circle id="Elipse_14605" data-name="Elipse 14605" cx="4.5" cy="4.5" r="4.5" transform="translate(956 1475)" fill="#f55d32"/>
    <circle id="Elipse_14606" data-name="Elipse 14606" cx="4.5" cy="4.5" r="4.5" transform="translate(979 1465)" fill="#f55d32"/>
    <circle id="Elipse_14607" data-name="Elipse 14607" cx="4.5" cy="4.5" r="4.5" transform="translate(985 1452)" fill="#f55d32"/>
    <circle id="Elipse_14611" data-name="Elipse 14611" cx="4.5" cy="4.5" r="4.5" transform="translate(995 1445)" fill="#f55d32"/>
    <circle id="Elipse_14612" data-name="Elipse 14612" cx="4.5" cy="4.5" r="4.5" transform="translate(1005 1448)" fill="#f55d32"/>
    <circle id="Elipse_14613" data-name="Elipse 14613" cx="4.5" cy="4.5" r="4.5" transform="translate(1015 1429)" fill="#f55d32"/>
    <circle id="Elipse_14615" data-name="Elipse 14615" cx="4.5" cy="4.5" r="4.5" transform="translate(1024 1440)" fill="#f55d32"/>
    <circle id="Elipse_14616" data-name="Elipse 14616" cx="4.5" cy="4.5" r="4.5" transform="translate(1036 1428)" fill="#f55d32"/>
    <circle id="Elipse_14617" data-name="Elipse 14617" cx="4.5" cy="4.5" r="4.5" transform="translate(1025 1417)" fill="#f55d32"/>
    <circle id="Elipse_14618" data-name="Elipse 14618" cx="4.5" cy="4.5" r="4.5" transform="translate(1021 1394)" fill="#f55d32"/>
    <circle id="Elipse_14619" data-name="Elipse 14619" cx="4.5" cy="4.5" r="4.5" transform="translate(1032 1403)" fill="#f55d32"/>
    <circle id="Elipse_14620" data-name="Elipse 14620" cx="4.5" cy="4.5" r="4.5" transform="translate(1043 1419)" fill="#f55d32"/>
    <circle id="Elipse_14621" data-name="Elipse 14621" cx="4.5" cy="4.5" r="4.5" transform="translate(1045 1408)" fill="#f55d32"/>
    <circle id="Elipse_14622" data-name="Elipse 14622" cx="4.5" cy="4.5" r="4.5" transform="translate(1037 1384)" fill="#f55d32"/>
    <circle id="Elipse_14623" data-name="Elipse 14623" cx="4.5" cy="4.5" r="4.5" transform="translate(1048 1393)" fill="#f55d32"/>
    <circle id="Elipse_14624" data-name="Elipse 14624" cx="4.5" cy="4.5" r="4.5" transform="translate(1064 1406)" fill="#f55d32"/>
    <circle id="Elipse_14625" data-name="Elipse 14625" cx="4.5" cy="4.5" r="4.5" transform="translate(1060 1416)" fill="#f55d32"/>
    <circle id="Elipse_14626" data-name="Elipse 14626" cx="4.5" cy="4.5" r="4.5" transform="translate(1068 1388)" fill="#f55d32"/>
    <circle id="Elipse_14629" data-name="Elipse 14629" cx="4.5" cy="4.5" r="4.5" transform="translate(1087 1395)" fill="#f55d32"/>
    <circle id="Elipse_14630" data-name="Elipse 14630" cx="4.5" cy="4.5" r="4.5" transform="translate(1091 1375)" fill="#f55d32"/>
    <circle id="Elipse_14631" data-name="Elipse 14631" cx="4.5" cy="4.5" r="4.5" transform="translate(1080 1408)" fill="#f55d32"/>
    <circle id="Elipse_14632" data-name="Elipse 14632" cx="4.5" cy="4.5" r="4.5" transform="translate(1099 1402)" fill="#f55d32"/>
    <circle id="Elipse_14633" data-name="Elipse 14633" cx="4.5" cy="4.5" r="4.5" transform="translate(1087 1419)" fill="#f55d32"/>
    <circle id="Elipse_14634" data-name="Elipse 14634" cx="4.5" cy="4.5" r="4.5" transform="translate(1070 1433)" fill="#f55d32"/>
    <circle id="Elipse_14635" data-name="Elipse 14635" cx="4.5" cy="4.5" r="4.5" transform="translate(1086 1431)" fill="#f55d32"/>
    <circle id="Elipse_14636" data-name="Elipse 14636" cx="4.5" cy="4.5" r="4.5" transform="translate(1097 1433)" fill="#f55d32"/>
    <circle id="Elipse_14637" data-name="Elipse 14637" cx="4.5" cy="4.5" r="4.5" transform="translate(1091 1450)" fill="#f55d32"/>
    <circle id="Elipse_14638" data-name="Elipse 14638" cx="4.5" cy="4.5" r="4.5" transform="translate(1086 1468)" fill="#f55d32"/>
    <circle id="Elipse_14639" data-name="Elipse 14639" cx="4.5" cy="4.5" r="4.5" transform="translate(1078 1456)" fill="#f55d32"/>
    <circle id="Elipse_14640" data-name="Elipse 14640" cx="4.5" cy="4.5" r="4.5" transform="translate(1073 1446)" fill="#f55d32"/>
    <circle id="Elipse_14641" data-name="Elipse 14641" cx="4.5" cy="4.5" r="4.5" transform="translate(1042 1442)" fill="#f55d32"/>
    <circle id="Elipse_14642" data-name="Elipse 14642" cx="4.5" cy="4.5" r="4.5" transform="translate(1054 1451)" fill="#f55d32"/>
    <circle id="Elipse_14643" data-name="Elipse 14643" cx="4.5" cy="4.5" r="4.5" transform="translate(1052 1466)" fill="#f55d32"/>
    <circle id="Elipse_14644" data-name="Elipse 14644" cx="4.5" cy="4.5" r="4.5" transform="translate(1070 1492)" fill="#f55d32"/>
    <circle id="Elipse_14645" data-name="Elipse 14645" cx="4.5" cy="4.5" r="4.5" transform="translate(1048 1495)" fill="#f55d32"/>
    <circle id="Elipse_14646" data-name="Elipse 14646" cx="4.5" cy="4.5" r="4.5" transform="translate(1042 1485)" fill="#f55d32"/>
    <circle id="Elipse_14647" data-name="Elipse 14647" cx="4.5" cy="4.5" r="4.5" transform="translate(1039 1461)" fill="#f55d32"/>
    <circle id="Elipse_14648" data-name="Elipse 14648" cx="4.5" cy="4.5" r="4.5" transform="translate(1025 1454)" fill="#f55d32"/>
    <circle id="Elipse_14649" data-name="Elipse 14649" cx="4.5" cy="4.5" r="4.5" transform="translate(1029 1471)" fill="#f55d32"/>
    <circle id="Elipse_14650" data-name="Elipse 14650" cx="4.5" cy="4.5" r="4.5" transform="translate(1011 1463)" fill="#f55d32"/>
    <circle id="Elipse_14651" data-name="Elipse 14651" cx="4.5" cy="4.5" r="4.5" transform="translate(1006 1479)" fill="#f55d32"/>
    <circle id="Elipse_14652" data-name="Elipse 14652" cx="4.5" cy="4.5" r="4.5" transform="translate(1018 1484)" fill="#f55d32"/>
    <circle id="Elipse_14653" data-name="Elipse 14653" cx="4.5" cy="4.5" r="4.5" transform="translate(1007 1492)" fill="#f55d32"/>
    <circle id="Elipse_14654" data-name="Elipse 14654" cx="4.5" cy="4.5" r="4.5" transform="translate(990 1475)" fill="#f55d32"/>
    <circle id="Elipse_14655" data-name="Elipse 14655" cx="4.5" cy="4.5" r="4.5" transform="translate(977 1479)" fill="#f55d32"/>
    <circle id="Elipse_14656" data-name="Elipse 14656" cx="4.5" cy="4.5" r="4.5" transform="translate(975 1489)" fill="#f55d32"/>
    <circle id="Elipse_14657" data-name="Elipse 14657" cx="4.5" cy="4.5" r="4.5" transform="translate(989 1489)" fill="#f55d32"/>
    <circle id="Elipse_14658" data-name="Elipse 14658" cx="4.5" cy="4.5" r="4.5" transform="translate(993 1503)" fill="#f55d32"/>
    <circle id="Elipse_14660" data-name="Elipse 14660" cx="4.5" cy="4.5" r="4.5" transform="translate(983 1511)" fill="#f55d32"/>
    <circle id="Elipse_14661" data-name="Elipse 14661" cx="4.5" cy="4.5" r="4.5" transform="translate(977 1524)" fill="#f55d32"/>
    <circle id="Elipse_14662" data-name="Elipse 14662" cx="4.5" cy="4.5" r="4.5" transform="translate(965 1513)" fill="#f55d32"/>
    <circle id="Elipse_14663" data-name="Elipse 14663" cx="4.5" cy="4.5" r="4.5" transform="translate(968 1502)" fill="#f55d32"/>
    <circle id="Elipse_14664" data-name="Elipse 14664" cx="4.5" cy="4.5" r="4.5" transform="translate(953 1490)" fill="#f55d32"/>
    <circle id="Elipse_14665" data-name="Elipse 14665" cx="4.5" cy="4.5" r="4.5" transform="translate(948 1507)" fill="#f55d32"/>
    <circle id="Elipse_14666" data-name="Elipse 14666" cx="4.5" cy="4.5" r="4.5" transform="translate(955 1531)" fill="#f55d32"/>
    <circle id="Elipse_14667" data-name="Elipse 14667" cx="4.5" cy="4.5" r="4.5" transform="translate(936 1531)" fill="#f55d32"/>
    <circle id="Elipse_14668" data-name="Elipse 14668" cx="4.5" cy="4.5" r="4.5" transform="translate(935 1518)" fill="#f55d32"/>
    <circle id="Elipse_14669" data-name="Elipse 14669" cx="4.5" cy="4.5" r="4.5" transform="translate(923 1519)" fill="#f55d32"/>
    <circle id="Elipse_14671" data-name="Elipse 14671" cx="4.5" cy="4.5" r="4.5" transform="translate(921 1536)" fill="#f55d32"/>
    <circle id="Elipse_14672" data-name="Elipse 14672" cx="4.5" cy="4.5" r="4.5" transform="translate(932 1545)" fill="#f55d32"/>
    <circle id="Elipse_14673" data-name="Elipse 14673" cx="4.5" cy="4.5" r="4.5" transform="translate(917 1567)" fill="#f55d32"/>
    <circle id="Elipse_14674" data-name="Elipse 14674" cx="4.5" cy="4.5" r="4.5" transform="translate(912 1552)" fill="#f55d32"/>
    <circle id="Elipse_14675" data-name="Elipse 14675" cx="4.5" cy="4.5" r="4.5" transform="translate(899 1532)" fill="#f55d32"/>
    <circle id="Elipse_14677" data-name="Elipse 14677" cx="4.5" cy="4.5" r="4.5" transform="translate(880 1537)" fill="#f55d32"/>
    <circle id="Elipse_14678" data-name="Elipse 14678" cx="4.5" cy="4.5" r="4.5" transform="translate(895 1550)" fill="#f55d32"/>
    <circle id="Elipse_14679" data-name="Elipse 14679" cx="4.5" cy="4.5" r="4.5" transform="translate(891 1571)" fill="#f55d32"/>
    <circle id="Elipse_14680" data-name="Elipse 14680" cx="4.5" cy="4.5" r="4.5" transform="translate(868 1571)" fill="#f55d32"/>
    <circle id="Elipse_14681" data-name="Elipse 14681" cx="4.5" cy="4.5" r="4.5" transform="translate(877 1551)" fill="#f55d32"/>
    <circle id="Elipse_14682" data-name="Elipse 14682" cx="4.5" cy="4.5" r="4.5" transform="translate(864 1547)" fill="#f55d32"/>
    <circle id="Elipse_14683" data-name="Elipse 14683" cx="4.5" cy="4.5" r="4.5" transform="translate(839 1552)" fill="#f55d32"/>
    <circle id="Elipse_14684" data-name="Elipse 14684" cx="4.5" cy="4.5" r="4.5" transform="translate(834 1568)" fill="#f55d32"/>
    <circle id="Elipse_14685" data-name="Elipse 14685" cx="4.5" cy="4.5" r="4.5" transform="translate(836 1591)" fill="#f55d32"/>
    <circle id="Elipse_14686" data-name="Elipse 14686" cx="4.5" cy="4.5" r="4.5" transform="translate(855 1583)" fill="#f55d32"/>
    <circle id="Elipse_14687" data-name="Elipse 14687" cx="4.5" cy="4.5" r="4.5" transform="translate(846 1572)" fill="#f55d32"/>
    <circle id="Elipse_14688" data-name="Elipse 14688" cx="4.5" cy="4.5" r="4.5" transform="translate(857 1560)" fill="#f55d32"/>
    <circle id="Elipse_14676" data-name="Elipse 14676" cx="4.5" cy="4.5" r="4.5" transform="translate(895 1519)" fill="#f55d32"/>
    <circle id="Elipse_14670" data-name="Elipse 14670" cx="4.5" cy="4.5" r="4.5" transform="translate(912 1517)" fill="#f55d32"/>
    <circle id="Elipse_14659" data-name="Elipse 14659" cx="4.5" cy="4.5" r="4.5" transform="translate(1006 1522)" fill="#f55d32"/>
    <circle id="Elipse_14627" data-name="Elipse 14627" cx="4.5" cy="4.5" r="4.5" transform="translate(1064 1375)" fill="#f55d32"/>
    <circle id="Elipse_14628" data-name="Elipse 14628" cx="4.5" cy="4.5" r="4.5" transform="translate(1080 1373)" fill="#f55d32"/>
    <circle id="Elipse_14571" data-name="Elipse 14571" cx="4.5" cy="4.5" r="4.5" transform="translate(858 1501)" fill="#f55d32"/>
    <circle id="Elipse_14572" data-name="Elipse 14572" cx="4.5" cy="4.5" r="4.5" transform="translate(841 1493)" fill="#f55d32"/>
    <circle id="Elipse_14573" data-name="Elipse 14573" cx="4.5" cy="4.5" r="4.5" transform="translate(845 1481)" fill="#f55d32"/>
    <circle id="Elipse_14574" data-name="Elipse 14574" cx="4.5" cy="4.5" r="4.5" transform="translate(865 1489)" fill="#f55d32"/>
    <circle id="Elipse_14575" data-name="Elipse 14575" cx="4.5" cy="4.5" r="4.5" transform="translate(863 1479)" fill="#f55d32"/>
    <circle id="Elipse_14576" data-name="Elipse 14576" cx="4.5" cy="4.5" r="4.5" transform="translate(870 1469)" fill="#f55d32"/>
    <circle id="Elipse_14577" data-name="Elipse 14577" cx="4.5" cy="4.5" r="4.5" transform="translate(872 1450)" fill="#f55d32"/>
    <circle id="Elipse_14578" data-name="Elipse 14578" cx="4.5" cy="4.5" r="4.5" transform="translate(881 1477)" fill="#f55d32"/>
    <rect id="Rectángulo_413135" data-name="Rectángulo 413135" width="258" height="60" transform="translate(523 1654)" fill="#523dbf"/>
    <rect id="Rectángulo_413136" data-name="Rectángulo 413136" width="276" height="60" transform="translate(832 1654)" fill="#523dbf"/>
    <path id="Trazado_929848" data-name="Trazado 929848" d="M-41.375-4.333a4.673,4.673,0,0,1-.721,2.36,4.35,4.35,0,0,1-1.85,1.586,6.3,6.3,0,0,1-2.72.563,5.025,5.025,0,0,1-3.973-1.644,6.786,6.786,0,0,1-1.45-4.641v-.633a7.746,7.746,0,0,1,.655-3.292,4.961,4.961,0,0,1,1.885-2.18,5.26,5.26,0,0,1,2.848-.769,5.516,5.516,0,0,1,3.744,1.226,4.844,4.844,0,0,1,1.608,3.379h-3.076a2.292,2.292,0,0,0-.589-1.679,2.422,2.422,0,0,0-1.687-.51,1.843,1.843,0,0,0-1.687.861,5.536,5.536,0,0,0-.562,2.751v.905a6.126,6.126,0,0,0,.514,2.927,1.882,1.882,0,0,0,1.771.879,2.369,2.369,0,0,0,1.626-.5,2.126,2.126,0,0,0,.6-1.591ZM-36.927,0H-39.9V-13.5h2.971Zm7.181,0a3.344,3.344,0,0,1-.281-.853A2.754,2.754,0,0,1-32.313.176,3.374,3.374,0,0,1-34.6-.637a2.588,2.588,0,0,1-.94-2.043A2.66,2.66,0,0,1-34.4-5.019a5.821,5.821,0,0,1,3.322-.791h.914v-.5q0-1.316-1.134-1.316a.927.927,0,0,0-1.055,1.042H-35.31a2.655,2.655,0,0,1,1.173-2.239,4.931,4.931,0,0,1,2.993-.86A4.323,4.323,0,0,1-28.27-8.8a3.086,3.086,0,0,1,1.081,2.435v4.21a4.311,4.311,0,0,0,.4,2V0ZM-31.6-1.934a1.652,1.652,0,0,0,.918-.237,1.487,1.487,0,0,0,.523-.536V-4.228h-.861q-1.547,0-1.547,1.389a.848.848,0,0,0,.272.655A.986.986,0,0,0-31.6-1.934Zm11.03-.738a.684.684,0,0,0-.4-.606,6.016,6.016,0,0,0-1.5-.475A6.853,6.853,0,0,1-24.3-4.4a3.062,3.062,0,0,1-1.1-.971,2.319,2.319,0,0,1-.378-1.31,2.628,2.628,0,0,1,1.081-2.158,4.453,4.453,0,0,1,2.83-.848,4.934,4.934,0,0,1,3.023.853A2.666,2.666,0,0,1-17.7-6.592h-2.971q0-1.143-1.2-1.143a1.194,1.194,0,0,0-.782.259.8.8,0,0,0-.316.646.737.737,0,0,0,.387.642,3.654,3.654,0,0,0,1.235.4,10.671,10.671,0,0,1,1.49.378A2.706,2.706,0,0,1-17.714-2.76,2.491,2.491,0,0,1-18.87-.642a5.068,5.068,0,0,1-2.993.817,5.172,5.172,0,0,1-2.18-.439,3.645,3.645,0,0,1-1.494-1.2,2.707,2.707,0,0,1-.536-1.591H-23.3a1.145,1.145,0,0,0,.439.962,1.808,1.808,0,0,0,1.081.3,1.422,1.422,0,0,0,.91-.246A.787.787,0,0,0-20.571-2.672ZM-13.206,0h-2.971V-9.51h2.971Zm-3.146-11.962A1.322,1.322,0,0,1-15.9-13a1.724,1.724,0,0,1,1.187-.4,1.724,1.724,0,0,1,1.187.4,1.322,1.322,0,0,1,.457,1.037,1.322,1.322,0,0,1-.457,1.037,1.724,1.724,0,0,1-1.187.4,1.724,1.724,0,0,1-1.187-.4A1.322,1.322,0,0,1-16.352-11.962ZM-10.692,0V-7.453h-1.38V-9.51h1.38v-.316a3.631,3.631,0,0,1,1.248-2.909A4.987,4.987,0,0,1-6.2-13.685a11.509,11.509,0,0,1,3.094.51l-.4,2.338L-4-10.969a7.832,7.832,0,0,0-2.021-.255q-1.7,0-1.7,1.547v.167h1.863v2.057H-7.721V0Zm8.947,0H-4.724V-9.51h2.979ZM4.083-2.109a1.317,1.317,0,0,0,.967-.338,1.241,1.241,0,0,0,.334-.945H8.161A3.288,3.288,0,0,1,7.04-.826a4.168,4.168,0,0,1-2.887,1,4.22,4.22,0,0,1-3.27-1.3,5.125,5.125,0,0,1-1.2-3.6v-.123A5.792,5.792,0,0,1,.22-7.4a3.872,3.872,0,0,1,1.534-1.7,4.573,4.573,0,0,1,2.373-.593A4.116,4.116,0,0,1,7.071-8.657a3.647,3.647,0,0,1,1.09,2.786H5.383A1.626,1.626,0,0,0,5.023-7a1.244,1.244,0,0,0-.967-.4Q2.9-7.4,2.711-5.933A10.357,10.357,0,0,0,2.65-4.649a4.068,4.068,0,0,0,.343,1.986A1.187,1.187,0,0,0,4.083-2.109ZM14.77,0a3.344,3.344,0,0,1-.281-.853A2.754,2.754,0,0,1,12.2.176,3.374,3.374,0,0,1,9.918-.637a2.588,2.588,0,0,1-.94-2.043,2.66,2.66,0,0,1,1.143-2.338,5.821,5.821,0,0,1,3.322-.791h.914v-.5q0-1.316-1.134-1.316a.927.927,0,0,0-1.055,1.042H9.207A2.655,2.655,0,0,1,10.38-8.825a4.931,4.931,0,0,1,2.993-.86,4.323,4.323,0,0,1,2.874.888,3.086,3.086,0,0,1,1.081,2.435v4.21a4.311,4.311,0,0,0,.4,2V0ZM12.916-1.934a1.652,1.652,0,0,0,.918-.237,1.487,1.487,0,0,0,.523-.536V-4.228H13.5q-1.547,0-1.547,1.389a.848.848,0,0,0,.272.655A.986.986,0,0,0,12.916-1.934Zm10.072-.176a1.317,1.317,0,0,0,.967-.338,1.241,1.241,0,0,0,.334-.945h2.777A3.288,3.288,0,0,1,25.945-.826a4.168,4.168,0,0,1-2.887,1,4.22,4.22,0,0,1-3.27-1.3,5.125,5.125,0,0,1-1.2-3.6v-.123A5.792,5.792,0,0,1,19.125-7.4a3.872,3.872,0,0,1,1.534-1.7,4.573,4.573,0,0,1,2.373-.593,4.116,4.116,0,0,1,2.944,1.028,3.647,3.647,0,0,1,1.09,2.786H24.289A1.626,1.626,0,0,0,23.928-7a1.244,1.244,0,0,0-.967-.4q-1.151,0-1.345,1.468a10.357,10.357,0,0,0-.062,1.283A4.068,4.068,0,0,0,21.9-2.663,1.187,1.187,0,0,0,22.988-2.109ZM31.443,0H28.472V-9.51h2.971ZM28.3-11.962A1.322,1.322,0,0,1,28.753-13a1.724,1.724,0,0,1,1.187-.4,1.724,1.724,0,0,1,1.187.4,1.322,1.322,0,0,1,.457,1.037,1.322,1.322,0,0,1-.457,1.037,1.724,1.724,0,0,1-1.187.4,1.724,1.724,0,0,1-1.187-.4A1.322,1.322,0,0,1,28.3-11.962Zm4.6,7.119a5.613,5.613,0,0,1,.554-2.536,3.96,3.96,0,0,1,1.591-1.709,4.791,4.791,0,0,1,2.435-.6,4.373,4.373,0,0,1,3.366,1.323,5.076,5.076,0,0,1,1.23,3.6v.105a4.925,4.925,0,0,1-1.235,3.529A4.384,4.384,0,0,1,37.49.176a4.434,4.434,0,0,1-3.261-1.217,4.761,4.761,0,0,1-1.327-3.3Zm2.962.185a3.538,3.538,0,0,0,.413,1.934,1.376,1.376,0,0,0,1.222.615q1.582,0,1.617-2.435v-.3q0-2.558-1.635-2.558-1.485,0-1.608,2.206ZM37.876-13.5h3.129l-2.443,2.76-2.417,0Zm8.218,3.99.1,1.116a3.225,3.225,0,0,1,2.716-1.292,2.713,2.713,0,0,1,2.219.888,4.226,4.226,0,0,1,.76,2.672V0H48.916V-6a1.6,1.6,0,0,0-.29-1.059A1.342,1.342,0,0,0,47.571-7.4a1.413,1.413,0,0,0-1.292.686V0H43.317V-9.51Z" transform="translate(613 1692)" fill="#fff"/>
    <path id="Trazado_929847" data-name="Trazado 929847" d="M-35.666-4.526h-1.67V0h-3.085V-12.8h5.036a5.621,5.621,0,0,1,3.56,1.01,3.421,3.421,0,0,1,1.283,2.853,4.155,4.155,0,0,1-.541,2.213A3.837,3.837,0,0,1-32.774-5.3L-30.1-.132V0h-3.3ZM-37.336-6.9h1.951a1.751,1.751,0,0,0,1.323-.463,1.788,1.788,0,0,0,.444-1.291,1.809,1.809,0,0,0-.448-1.3,1.735,1.735,0,0,0-1.318-.471h-1.951ZM-24.214.176a4.889,4.889,0,0,1-3.542-1.305,4.507,4.507,0,0,1-1.354-3.4v-.246a5.84,5.84,0,0,1,.541-2.575,3.955,3.955,0,0,1,1.578-1.727,4.763,4.763,0,0,1,2.461-.611,4.117,4.117,0,0,1,3.164,1.244,4.887,4.887,0,0,1,1.16,3.467v1.151h-5.889A2.135,2.135,0,0,0-25.4-2.566a2.066,2.066,0,0,0,1.389.457,2.662,2.662,0,0,0,2.2-.984l1.354,1.6A3.784,3.784,0,0,1-22.03-.277,5.3,5.3,0,0,1-24.214.176ZM-24.548-7.4q-1.3,0-1.547,1.723h2.988v-.229a1.467,1.467,0,0,0-.36-1.1A1.434,1.434,0,0,0-24.548-7.4Zm5.186,2.575a6.421,6.421,0,0,1,.475-2.549,3.821,3.821,0,0,1,1.362-1.709,3.591,3.591,0,0,1,2.065-.6,2.855,2.855,0,0,1,2.32,1l.105-.826h2.689V-.36a4.009,4.009,0,0,1-.584,2.184,3.75,3.75,0,0,1-1.692,1.424,6.219,6.219,0,0,1-2.566.5,5.365,5.365,0,0,1-2.026-.4,3.657,3.657,0,0,1-1.5-1.028L-17.473.58a2.716,2.716,0,0,0,2.18.976A1.764,1.764,0,0,0-13.324-.466v-.3a2.781,2.781,0,0,1-2.153.94A3.437,3.437,0,0,1-18.29-1.156,5.517,5.517,0,0,1-19.362-4.72Zm2.971.185a3.383,3.383,0,0,0,.439,1.85,1.386,1.386,0,0,0,1.23.681,1.573,1.573,0,0,0,1.4-.642v-4A1.534,1.534,0,0,0-14.7-7.4a1.4,1.4,0,0,0-1.239.708A3.858,3.858,0,0,0-16.392-4.641ZM-2.909-6.829l-.976-.07a1.752,1.752,0,0,0-1.793.879V0H-8.64V-9.51h2.777l.1,1.222a2.294,2.294,0,0,1,2.083-1.4,2.888,2.888,0,0,1,.826.105Zm5.5,7A4.889,4.889,0,0,1-.949-1.129,4.507,4.507,0,0,1-2.3-4.526v-.246a5.84,5.84,0,0,1,.541-2.575A3.955,3.955,0,0,1-.185-9.075a4.763,4.763,0,0,1,2.461-.611A4.117,4.117,0,0,1,5.44-8.442,4.887,4.887,0,0,1,6.6-4.975v1.151H.712a2.135,2.135,0,0,0,.694,1.257,2.066,2.066,0,0,0,1.389.457,2.662,2.662,0,0,0,2.2-.984l1.354,1.6A3.784,3.784,0,0,1,4.777-.277,5.3,5.3,0,0,1,2.593.176ZM2.259-7.4Q.958-7.4.712-5.678H3.7v-.229a1.467,1.467,0,0,0-.36-1.1A1.434,1.434,0,0,0,2.259-7.4ZM12.771-2.672a.684.684,0,0,0-.4-.606,6.016,6.016,0,0,0-1.5-.475A6.853,6.853,0,0,1,9.044-4.4a3.062,3.062,0,0,1-1.1-.971,2.319,2.319,0,0,1-.378-1.31A2.628,2.628,0,0,1,8.648-8.837a4.453,4.453,0,0,1,2.83-.848,4.934,4.934,0,0,1,3.023.853,2.666,2.666,0,0,1,1.143,2.241H12.674q0-1.143-1.2-1.143a1.194,1.194,0,0,0-.782.259.8.8,0,0,0-.316.646.737.737,0,0,0,.387.642,3.654,3.654,0,0,0,1.235.4,10.671,10.671,0,0,1,1.49.378A2.706,2.706,0,0,1,15.627-2.76,2.491,2.491,0,0,1,14.471-.642a5.068,5.068,0,0,1-2.993.817A5.172,5.172,0,0,1,9.3-.264,3.645,3.645,0,0,1,7.8-1.459,2.707,2.707,0,0,1,7.269-3.05h2.769a1.145,1.145,0,0,0,.439.962,1.808,1.808,0,0,0,1.081.3,1.422,1.422,0,0,0,.91-.246A.787.787,0,0,0,12.771-2.672ZM20.136,0H17.165V-9.51h2.971ZM16.989-11.962A1.322,1.322,0,0,1,17.446-13a1.724,1.724,0,0,1,1.187-.4,1.724,1.724,0,0,1,1.187.4,1.322,1.322,0,0,1,.457,1.037,1.322,1.322,0,0,1-.457,1.037,1.724,1.724,0,0,1-1.187.4,1.724,1.724,0,0,1-1.187-.4A1.322,1.322,0,0,1,16.989-11.962Zm4.6,7.119a5.613,5.613,0,0,1,.554-2.536A3.96,3.96,0,0,1,23.73-9.088a4.791,4.791,0,0,1,2.435-.6,4.373,4.373,0,0,1,3.366,1.323,5.076,5.076,0,0,1,1.23,3.6v.105a4.925,4.925,0,0,1-1.235,3.529A4.384,4.384,0,0,1,26.183.176a4.434,4.434,0,0,1-3.261-1.217,4.761,4.761,0,0,1-1.327-3.3Zm2.962.185a3.538,3.538,0,0,0,.413,1.934,1.376,1.376,0,0,0,1.222.615q1.582,0,1.617-2.435v-.3Q27.8-7.4,26.165-7.4q-1.485,0-1.608,2.206ZM26.569-13.5H29.7l-2.443,2.76-2.417,0Zm8.218,3.99.1,1.116A3.225,3.225,0,0,1,37.6-9.686a2.713,2.713,0,0,1,2.219.888,4.226,4.226,0,0,1,.76,2.672V0H37.608V-6a1.6,1.6,0,0,0-.29-1.059A1.342,1.342,0,0,0,36.264-7.4a1.413,1.413,0,0,0-1.292.686V0H32.01V-9.51Z" transform="translate(907 1692)" fill="#fff"/>
    <path id="Trazado_928130" data-name="Trazado 928130" d="M-1340.5-11454.76l273.007-145.289" transform="translate(2173.493 13008.76)" fill="none" stroke="#523dbf" stroke-linecap="round" stroke-width="4"/>
  </g>
</svg>
