<svg xmlns="http://www.w3.org/2000/svg" width="85" height="85" viewBox="0 0 85 85">
  <g id="Grupo_1114848" data-name="Grupo 1114848" transform="translate(-195.571 -550)">
    <rect id="Rectángulo_412870" data-name="Rectángulo 412870" width="85" height="85" rx="10" transform="translate(195.571 550)" fill="#fe9ab8"/>
    <g id="Grupo_1114847" data-name="Grupo 1114847" transform="translate(204.305 562)">
      <path id="Trazado_926815" data-name="Trazado 926815" d="M16.823,8.533H57.056a4.023,4.023,0,0,1,4.023,4.023V44.743a4.023,4.023,0,0,1-4.023,4.023H16.823A4.023,4.023,0,0,1,12.8,44.743V12.556A4.024,4.024,0,0,1,16.823,8.533Z" transform="translate(-7.527 -7.527)" fill="#87ced9"/>
      <g id="Grupo_1114843" data-name="Grupo 1114843" transform="translate(8.29 4.023)">
        <rect id="Rectángulo_412871" data-name="Rectángulo 412871" width="2.012" height="2.012" transform="translate(0)" fill="#4398d1"/>
        <rect id="Rectángulo_412872" data-name="Rectángulo 412872" width="2.012" height="2.012" transform="translate(4.023)" fill="#4398d1"/>
        <rect id="Rectángulo_412873" data-name="Rectángulo 412873" width="2.012" height="2.012" transform="translate(8.047)" fill="#4398d1"/>
        <path id="Trazado_926816" data-name="Trazado 926816" d="M68.023,76.8h40.233a4.023,4.023,0,0,1,4.023,4.023V113.01a4.023,4.023,0,0,1-4.023,4.023H68.023A4.023,4.023,0,0,1,64,113.01V80.823A4.023,4.023,0,0,1,68.023,76.8Z" transform="translate(-60.983 -71.771)" fill="#4398d1"/>
      </g>
      <path id="Trazado_926817" data-name="Trazado 926817" d="M174.928,76.8h-4.779c-7.209,22.952-21.013,34.552-30.569,40.233h35.348a4.023,4.023,0,0,0,4.023-4.023V80.823A4.023,4.023,0,0,0,174.928,76.8Z" transform="translate(-119.364 -67.748)" fill="#3f8fc4"/>
      <g id="Grupo_1114844" data-name="Grupo 1114844" transform="translate(14.325 12.07)">
        <rect id="Rectángulo_412874" data-name="Rectángulo 412874" width="2.012" height="2.012" fill="#87ced9"/>
        <rect id="Rectángulo_412875" data-name="Rectángulo 412875" width="2.012" height="2.012" transform="translate(4.023)" fill="#87ced9"/>
        <rect id="Rectángulo_412876" data-name="Rectángulo 412876" width="2.012" height="2.012" transform="translate(8.047)" fill="#87ced9"/>
      </g>
      <g id="Grupo_1114845" data-name="Grupo 1114845" transform="translate(14.325 16.093)">
        <rect id="Rectángulo_412877" data-name="Rectángulo 412877" width="42.245" height="2.012" transform="translate(0 25.146)" fill="#3685ba"/>
        <rect id="Rectángulo_412878" data-name="Rectángulo 412878" width="2.012" height="6.035" transform="translate(2.012 17.099)" fill="#3685ba"/>
        <rect id="Rectángulo_412879" data-name="Rectángulo 412879" width="2.012" height="12.07" transform="translate(6.035 11.064)" fill="#3685ba"/>
        <rect id="Rectángulo_412880" data-name="Rectángulo 412880" width="2.012" height="9.052" transform="translate(10.058 14.082)" fill="#3685ba"/>
        <rect id="Rectángulo_412881" data-name="Rectángulo 412881" width="2.012" height="16.093" transform="translate(14.082 7.041)" fill="#3685ba"/>
        <rect id="Rectángulo_412882" data-name="Rectángulo 412882" width="2.012" height="18.105" transform="translate(18.105 5.029)" fill="#3685ba"/>
        <rect id="Rectángulo_412883" data-name="Rectángulo 412883" width="2.012" height="7.041" transform="translate(22.128 6.035)" fill="#3685ba"/>
        <rect id="Rectángulo_412884" data-name="Rectángulo 412884" width="2.012" height="11.064" transform="translate(26.152 2.012)" fill="#3685ba"/>
        <rect id="Rectángulo_412885" data-name="Rectángulo 412885" width="2.012" height="13.076" transform="translate(30.175)" fill="#3685ba"/>
        <rect id="Rectángulo_412886" data-name="Rectángulo 412886" width="2.012" height="19.111" transform="translate(34.198 4.023)" fill="#3685ba"/>
        <rect id="Rectángulo_412887" data-name="Rectángulo 412887" width="2.012" height="15.087" transform="translate(38.222 8.047)" fill="#3685ba"/>
      </g>
      <rect id="Rectángulo_412888" data-name="Rectángulo 412888" width="4.268" height="17.07" transform="translate(62.611 56.333) rotate(135)" fill="#fdb62f"/>
      <rect id="Rectángulo_412889" data-name="Rectángulo 412889" width="4.268" height="5.69" transform="translate(54.561 48.283) rotate(135)" fill="#fa962a"/>
      <circle id="Elipse_14478" data-name="Elipse 14478" cx="13.076" cy="13.076" r="13.076" transform="translate(28.407 26.152)" fill="#fdb62f"/>
      <circle id="Elipse_14479" data-name="Elipse 14479" cx="9.052" cy="9.052" r="9.052" transform="translate(32.43 30.175)" fill="#87ced9"/>
      <g id="Grupo_1114846" data-name="Grupo 1114846" transform="translate(32.43 30.175)">
        <path id="Trazado_926818" data-name="Trazado 926818" d="M245.171,349.867a8.937,8.937,0,0,0,.72,2.012h16.2a8.935,8.935,0,0,0,.72-2.012Z" transform="translate(-244.939 -338.803)" fill="#4398d1"/>
        <path id="Trazado_926819" data-name="Trazado 926819" d="M313.478,265.05v-8.993a8.521,8.521,0,0,0-2.012,0v8.993Z" transform="translate(-303.419 -255.997)" fill="#4398d1"/>
        <path id="Trazado_926820" data-name="Trazado 926820" d="M279.345,268.989v-8.526a9.008,9.008,0,0,0-2.012,1v7.526Z" transform="translate(-273.31 -259.937)" fill="#4398d1"/>
        <path id="Trazado_926821" data-name="Trazado 926821" d="M347.612,268.989v-7.526a9,9,0,0,0-2.012-1v8.526Z" transform="translate(-333.53 -259.937)" fill="#4398d1"/>
        <path id="Trazado_926822" data-name="Trazado 926822" d="M245.212,284.578a9.011,9.011,0,0,0-2.012,5.684h2.012Z" transform="translate(-243.2 -281.209)" fill="#4398d1"/>
        <path id="Trazado_926823" data-name="Trazado 926823" d="M379.733,290.262h2.012a9.01,9.01,0,0,0-2.012-5.684Z" transform="translate(-363.64 -281.209)" fill="#4398d1"/>
      </g>
      <path id="Trazado_926824" data-name="Trazado 926824" d="M8.04,42.086l.5-1.947a3.018,3.018,0,0,1-2.264-2.923V5.029A3.017,3.017,0,0,1,9.3,2.012H49.529a3.017,3.017,0,0,1,3.017,3.017V6.035h2.012V5.029A5.035,5.035,0,0,0,49.529,0H9.3A5.035,5.035,0,0,0,4.267,5.029V37.216A5.03,5.03,0,0,0,8.04,42.086Z"/>
      <rect id="Rectángulo_412890" data-name="Rectángulo 412890" width="2.012" height="2.012" transform="translate(8.29 4.023)"/>
      <rect id="Rectángulo_412891" data-name="Rectángulo 412891" width="2.012" height="2.012" transform="translate(12.314 4.023)"/>
      <rect id="Rectángulo_412892" data-name="Rectángulo 412892" width="2.012" height="2.012" transform="translate(16.337 4.023)"/>
      <path id="Trazado_926825" data-name="Trazado 926825" d="M130.246,163.691h1.6V161.68h-1.167a13.551,13.551,0,0,0-.845-7.208v-9.891h-2.012v6.405a14.156,14.156,0,0,0-2.012-2.088v-8.34H123.8v6.934a14.012,14.012,0,0,0-2.012-.961v-10h-2.011v9.386a13.97,13.97,0,0,0-2.012-.283v-7.092h-2.012v7.092a13.972,13.972,0,0,0-2.012.283v-3.351h-2.012v3.962a14.018,14.018,0,0,0-2.012.961v-5.928H107.7V148.9a14.155,14.155,0,0,0-2.012,2.088v-7.411h-2.012v10.9a13.551,13.551,0,0,0-.845,7.208H89.6v2.012h13.669a14.051,14.051,0,0,0,21.569,7.491l9.313,9.313a1.007,1.007,0,0,0,1.422,0l3.017-3.017a1.007,1.007,0,0,0,0-1.422l-9.54-9.54A13.893,13.893,0,0,0,130.246,163.691Zm-25.558-4.023a12.07,12.07,0,1,1,12.07,12.07A12.071,12.071,0,0,1,104.687,159.668Zm31.77,17.1-1.6,1.6L126.4,169.9a14.247,14.247,0,0,0,1.514-1.677Z" transform="translate(-75.275 -120.441)"/>
      <path id="Trazado_926826" data-name="Trazado 926826" d="M244.725,247.467a10.058,10.058,0,1,0,10.058,10.058A10.058,10.058,0,0,0,244.725,247.467Zm-5.029,3.787v6.271h2.012v-7.454a7.957,7.957,0,0,1,2.012-.522v7.976h2.012v-7.976a7.954,7.954,0,0,1,2.012.522v7.454h2.012v-6.271a7.973,7.973,0,0,1,2.753,8.283H236.943A7.973,7.973,0,0,1,239.7,251.254Zm5.029,14.318a8.048,8.048,0,0,1-6.958-4.023h13.917A8.048,8.048,0,0,1,244.725,265.572Z" transform="translate(-203.243 -218.298)"/>
      <path id="Trazado_926827" data-name="Trazado 926827" d="M55.467,73.3v32.187a5.035,5.035,0,0,0,5.029,5.029H73.572V108.5H60.5a3.017,3.017,0,0,1-3.017-3.017V73.3A3.017,3.017,0,0,1,60.5,70.278h40.233a3.017,3.017,0,0,1,3.017,3.017v32.187a3.017,3.017,0,0,1-.754,2l1.509,1.331a5.02,5.02,0,0,0,1.257-3.326V73.3a5.035,5.035,0,0,0-5.029-5.029H60.5A5.035,5.035,0,0,0,55.467,73.3Z" transform="translate(-45.165 -60.219)"/>
      <rect id="Rectángulo_412893" data-name="Rectángulo 412893" width="2.012" height="2.012" transform="translate(14.325 12.07)"/>
      <rect id="Rectángulo_412894" data-name="Rectángulo 412894" width="2.012" height="2.012" transform="translate(18.349 12.07)"/>
      <rect id="Rectángulo_412895" data-name="Rectángulo 412895" width="2.012" height="2.012" transform="translate(22.372 12.07)"/>
      <rect id="Rectángulo_412896" data-name="Rectángulo 412896" width="2.012" height="6.035" transform="translate(16.337 33.192)"/>
      <rect id="Rectángulo_412897" data-name="Rectángulo 412897" width="2.012" height="12.07" transform="translate(20.36 27.157)"/>
      <rect id="Rectángulo_412898" data-name="Rectángulo 412898" width="2.012" height="9.052" transform="translate(24.383 30.175)"/>
    </g>
  </g>
</svg>
