<svg xmlns="http://www.w3.org/2000/svg" width="295" height="114" viewBox="0 0 295 114">
  <g id="Grupo_1113565" data-name="Grupo 1113565" transform="translate(-179.571 -963)">
    <rect id="Rectángulo_411827" data-name="Rectángulo 411827" width="295" height="114" transform="translate(179.571 963)" fill="#fe9ab8"/>
    <rect id="Rectángulo_411837" data-name="Rectángulo 411837" width="295" height="64" transform="translate(179.571 963)" fill="#b9b1e5"/>
    <g id="_249294921_e6208d9e-fb72-4382-99b4-dbcb22cd77d3_1_" data-name="249294921_e6208d9e-fb72-4382-99b4-dbcb22cd77d3(1)" transform="translate(117.804 786.375)">
      <g id="Grupo_1114940" data-name="Grupo 1114940" transform="translate(121.105 181.731)">
        <path id="Trazado_926828" data-name="Trazado 926828" d="M321.046,277.463a37.874,37.874,0,0,1-1.517,4.127H164.054a43.332,43.332,0,0,1-5.7-7.634c-1.861-3.172-10.67-19.114-4.176-34.243,3.373-7.857,9.809-13.019,14.2-16.536,5.11-4.1,6.717-3.975,12.361-8.018,9.08-6.5,10.822-11.04,17.371-17.371,4.857-4.695,14.312-13.834,27.393-15.7,14.1-2.012,30.711,4.667,38.752,16.2,5.247,7.526,3.577,12.431,10.023,17.539,6.985,5.535,12.016,2.208,21.714,6.347,13.749,5.868,20.033,19.553,21.715,23.219C319.58,249.472,325.575,262.53,321.046,277.463Z" transform="translate(-148.774 -181.731)" fill="#ece7fc"/>
        <g id="Grupo_1114850" data-name="Grupo 1114850" transform="translate(26.95 46.274)">
          <path id="Trazado_926829" data-name="Trazado 926829" d="M430.4,648.688v1.359H392.307v-1.359a1.285,1.285,0,0,1,1.285-1.285h35.525A1.285,1.285,0,0,1,430.4,648.688Z" transform="translate(-392.307 -647.403)" fill="none" stroke="#000" stroke-linecap="round" stroke-linejoin="round" stroke-miterlimit="10" stroke-width="1"/>
          <path id="Trazado_926830" data-name="Trazado 926830" d="M429.116,647.4H393.592a1.285,1.285,0,0,0-1.285,1.285V671.1a1.28,1.28,0,0,0,1.28,1.28h35.535a1.28,1.28,0,0,0,1.28-1.28V648.688A1.285,1.285,0,0,0,429.116,647.4Z" transform="translate(-392.307 -647.403)" fill="none" stroke="#000" stroke-miterlimit="10" stroke-width="1"/>
          <path id="Trazado_926831" data-name="Trazado 926831" d="M443.567,721.564v15.172H409.154v-9.9a11.385,11.385,0,0,0,2.724,2.6,9.551,9.551,0,0,0,3.743,1.706,3.871,3.871,0,0,0,3.46-1.42,21.872,21.872,0,0,0,2.53-3.821,8.766,8.766,0,0,1,2.314-2.785,3.51,3.51,0,0,1,2.475-.7c1.379.2,2.573,1.4,3.531,2.321.695.67,1.342,1.385,1.972,2.115a7.939,7.939,0,0,0,1.944,1.828c1.606.932,3.3.193,4.592-.924a11.447,11.447,0,0,0,1.232-1.261c.97-1.142,1.809-2.395,2.739-3.567C442.779,722.46,443.167,722.007,443.567,721.564Z" transform="translate(-407.48 -714.195)" fill="#7c60ea"/>
          <path id="Trazado_926832" data-name="Trazado 926832" d="M409.516,739.6c.447-1.261.913-2.515,1.384-3.767.477-1.267.931-2.547,1.528-3.764a5.24,5.24,0,0,1,2.336-2.781c1.564-.639,2.762,1.1,3.508,2.2.973,1.434,2.451,4.3,4.629,3.631,1.316-.4,1.871-2.056,2.444-3.151.584-1.118,1.093-2.272,1.609-3.422a9.42,9.42,0,0,1,1.883-2.976,2.531,2.531,0,0,1,.991-.647c1.41-.433,2.425,1.318,2.868,2.376a17.441,17.441,0,0,1,.974,3.925c.173,1.044.66,2.444,1.772,2.813,1.852.615,3.233-2.055,4.132-3.219.324-.419.613-.914,1.215-.857a1.882,1.882,0,0,1,1.238.848,6.484,6.484,0,0,1,.916,2.368,42.5,42.5,0,0,1,.722,6.286" transform="translate(-407.806 -717.159)" fill="none" stroke="#000" stroke-miterlimit="10" stroke-width="1"/>
          <g id="Grupo_1114849" data-name="Grupo 1114849" transform="translate(1.674 0.869)">
            <path id="Trazado_926833" data-name="Trazado 926833" d="M410.059,656.6a.453.453,0,1,1-.453-.453A.453.453,0,0,1,410.059,656.6Z" transform="translate(-409.154 -656.15)" fill="#7c60ea"/>
            <path id="Trazado_926834" data-name="Trazado 926834" d="M426.912,656.6a.453.453,0,1,1-.453-.453A.453.453,0,0,1,426.912,656.6Z" transform="translate(-424.332 -656.15)" fill="#7c60ea"/>
            <path id="Trazado_926835" data-name="Trazado 926835" d="M443.766,656.6a.453.453,0,1,1-.453-.453A.453.453,0,0,1,443.766,656.6Z" transform="translate(-439.511 -656.15)" fill="#7c60ea"/>
          </g>
        </g>
        <g id="Grupo_1114854" data-name="Grupo 1114854" transform="translate(81.946 4.081)">
          <g id="Grupo_1114851" data-name="Grupo 1114851" transform="translate(0.9 0.787)">
            <path id="Trazado_926836" data-name="Trazado 926836" d="M972.3,238.526l-1.915-.627a6.858,6.858,0,0,0-.753-1.81l.914-1.8a.422.422,0,0,0-.077-.488l-.962-.961a.419.419,0,0,0-.487-.077l-.708.359-1.093.554a6.88,6.88,0,0,0-1.809-.752l-.627-1.915a.42.42,0,0,0-.4-.291h-1.36a.337.337,0,0,0-.057,0,.416.416,0,0,0-.341.285L962,232.923a6.889,6.889,0,0,0-1.81.752l-.746-.378-1.054-.535a.422.422,0,0,0-.488.077l-.281.281-.68.681a.417.417,0,0,0-.077.487l.914,1.8a6.819,6.819,0,0,0-.752,1.81l-1.916.626a.42.42,0,0,0-.291.4v1.36a.418.418,0,0,0,.29.4l1.915.627a6.852,6.852,0,0,0,.753,1.809l-.914,1.8a.418.418,0,0,0,.077.488l.68.68.281.282a.419.419,0,0,0,.487.077l1.055-.535.746-.378a6.869,6.869,0,0,0,1.81.752l.626,1.915a.417.417,0,0,0,.341.285.352.352,0,0,0,.058,0h1.36a.419.419,0,0,0,.4-.289l.627-1.916a6.874,6.874,0,0,0,1.809-.752l1.093.555.707.358a.42.42,0,0,0,.488-.077l.962-.962a.419.419,0,0,0,.077-.487l-.914-1.8a6.859,6.859,0,0,0,.753-1.809l1.915-.627a.42.42,0,0,0,.291-.4v-1.36A.418.418,0,0,0,972.3,238.526Zm-8.6,5.012a3.933,3.933,0,1,1,3.934-3.934A3.938,3.938,0,0,1,963.7,243.538Z" transform="translate(-954.814 -230.718)" fill="#7c60ea"/>
          </g>
          <g id="Grupo_1114852" data-name="Grupo 1114852">
            <path id="Trazado_926837" data-name="Trazado 926837" d="M963.237,230.606l-1.915-.627a6.864,6.864,0,0,0-.753-1.81l.914-1.8a.421.421,0,0,0-.077-.488l-.962-.961a.418.418,0,0,0-.487-.077l-.708.359-1.093.554a6.875,6.875,0,0,0-1.809-.752l-.627-1.915a.42.42,0,0,0-.4-.291h-1.36a.338.338,0,0,0-.057,0,.417.417,0,0,0-.342.285L952.935,225a6.889,6.889,0,0,0-1.81.752l-.746-.378-1.054-.535a.423.423,0,0,0-.488.077l-.281.281-.68.681a.417.417,0,0,0-.077.487l.914,1.8a6.823,6.823,0,0,0-.752,1.81l-1.916.626a.42.42,0,0,0-.291.4v1.36a.418.418,0,0,0,.29.4l1.915.627a6.854,6.854,0,0,0,.753,1.809L947.8,237a.418.418,0,0,0,.077.488l.68.68.281.282a.419.419,0,0,0,.487.077l1.055-.535.746-.378a6.869,6.869,0,0,0,1.81.752l.626,1.915a.417.417,0,0,0,.341.285.352.352,0,0,0,.058,0h1.36a.419.419,0,0,0,.4-.289l.627-1.916a6.881,6.881,0,0,0,1.809-.752l1.093.555.707.358a.42.42,0,0,0,.488-.077l.962-.962a.419.419,0,0,0,.077-.487l-.914-1.8a6.859,6.859,0,0,0,.753-1.809l1.915-.627a.42.42,0,0,0,.291-.4V231A.417.417,0,0,0,963.237,230.606Zm-8.6,5.012a3.933,3.933,0,1,1,3.934-3.934A3.938,3.938,0,0,1,954.639,235.618Z" transform="translate(-945.753 -222.798)" fill="#fff"/>
          </g>
          <g id="Grupo_1114853" data-name="Grupo 1114853">
            <path id="Trazado_926838" data-name="Trazado 926838" d="M963.237,230.606l-1.915-.627a6.864,6.864,0,0,0-.753-1.81l.914-1.8a.421.421,0,0,0-.077-.488l-.962-.961a.418.418,0,0,0-.487-.077l-.708.359-1.093.554a6.875,6.875,0,0,0-1.809-.752l-.627-1.915a.42.42,0,0,0-.4-.291h-1.36a.338.338,0,0,0-.057,0,.417.417,0,0,0-.342.285L952.935,225a6.889,6.889,0,0,0-1.81.752l-.746-.378-1.054-.535a.423.423,0,0,0-.488.077l-.281.281-.68.681a.417.417,0,0,0-.077.487l.914,1.8a6.823,6.823,0,0,0-.752,1.81l-1.916.626a.42.42,0,0,0-.291.4v1.36a.418.418,0,0,0,.29.4l1.915.627a6.854,6.854,0,0,0,.753,1.809L947.8,237a.418.418,0,0,0,.077.488l.68.68.281.282a.419.419,0,0,0,.487.077l1.055-.535.746-.378a6.869,6.869,0,0,0,1.81.752l.626,1.915a.417.417,0,0,0,.341.285.352.352,0,0,0,.058,0h1.36a.419.419,0,0,0,.4-.289l.627-1.916a6.881,6.881,0,0,0,1.809-.752l1.093.555.707.358a.42.42,0,0,0,.488-.077l.962-.962a.419.419,0,0,0,.077-.487l-.914-1.8a6.859,6.859,0,0,0,.753-1.809l1.915-.627a.42.42,0,0,0,.291-.4V231A.417.417,0,0,0,963.237,230.606Zm-8.6,5.012a3.933,3.933,0,1,1,3.934-3.934A3.938,3.938,0,0,1,954.639,235.618Z" transform="translate(-945.753 -222.798)" fill="none" stroke="#000" stroke-linecap="round" stroke-miterlimit="10" stroke-width="1"/>
          </g>
        </g>
        <path id="Trazado_926839" data-name="Trazado 926839" d="M298.086,1186.64H121.105" transform="translate(-121.105 -1086.781)" fill="none" stroke="#000" stroke-miterlimit="10" stroke-width="1"/>
        <g id="Grupo_1114883" data-name="Grupo 1114883" transform="translate(56.339 64.37)">
          <path id="Trazado_926840" data-name="Trazado 926840" d="M735.981,864.959H700.7a1.216,1.216,0,0,1-1.216-1.216v-21.6a1.216,1.216,0,0,1,1.216-1.217h35.277a1.217,1.217,0,0,1,1.216,1.217v21.6A1.216,1.216,0,0,1,735.981,864.959Z" transform="translate(-698.352 -839.791)" fill="#7c60ea" opacity="0.35"/>
          <path id="Trazado_926841" data-name="Trazado 926841" d="M724.553,853.531H689.277a1.217,1.217,0,0,1-1.217-1.216v-21.6a1.217,1.217,0,0,1,1.217-1.217h35.277a1.217,1.217,0,0,1,1.217,1.217v21.6A1.217,1.217,0,0,1,724.553,853.531Z" transform="translate(-688.06 -829.499)" fill="#fff"/>
          <path id="Trazado_926842" data-name="Trazado 926842" d="M724.553,853.531H689.277a1.217,1.217,0,0,1-1.217-1.216v-21.6a1.217,1.217,0,0,1,1.217-1.217h35.277a1.217,1.217,0,0,1,1.217,1.217v21.6A1.217,1.217,0,0,1,724.553,853.531Z" transform="translate(-688.06 -829.499)" fill="none" stroke="#000" stroke-miterlimit="10" stroke-width="1"/>
          <g id="Grupo_1114882" data-name="Grupo 1114882" transform="translate(2.56 2.894)">
            <g id="Grupo_1114857" data-name="Grupo 1114857" transform="translate(0 10.646)">
              <g id="Grupo_1114856" data-name="Grupo 1114856">
                <g id="Grupo_1114855" data-name="Grupo 1114855">
                  <rect id="Rectángulo_412900" data-name="Rectángulo 412900" width="2.136" height="7.759"/>
                </g>
              </g>
            </g>
            <g id="Grupo_1114860" data-name="Grupo 1114860" transform="translate(7.613 4.371)">
              <g id="Grupo_1114859" data-name="Grupo 1114859">
                <g id="Grupo_1114858" data-name="Grupo 1114858">
                  <rect id="Rectángulo_412901" data-name="Rectángulo 412901" width="2.137" height="14.034"/>
                </g>
              </g>
            </g>
            <g id="Grupo_1114863" data-name="Grupo 1114863" transform="translate(3.555 7.519)">
              <g id="Grupo_1114862" data-name="Grupo 1114862">
                <g id="Grupo_1114861" data-name="Grupo 1114861">
                  <rect id="Rectángulo_412902" data-name="Rectángulo 412902" width="2.64" height="10.887" fill="#7c60ea"/>
                </g>
              </g>
            </g>
            <g id="Grupo_1114866" data-name="Grupo 1114866" transform="translate(15.226 13.095)">
              <g id="Grupo_1114865" data-name="Grupo 1114865">
                <g id="Grupo_1114864" data-name="Grupo 1114864">
                  <rect id="Rectángulo_412903" data-name="Rectángulo 412903" width="2.136" height="5.31"/>
                </g>
              </g>
            </g>
            <g id="Grupo_1114869" data-name="Grupo 1114869" transform="translate(11.42 13.095)">
              <g id="Grupo_1114868" data-name="Grupo 1114868">
                <g id="Grupo_1114867" data-name="Grupo 1114867">
                  <rect id="Rectángulo_412904" data-name="Rectángulo 412904" width="2.136" height="5.31" fill="#7c60ea"/>
                </g>
              </g>
            </g>
            <g id="Grupo_1114872" data-name="Grupo 1114872" transform="translate(22.839 9.709)">
              <g id="Grupo_1114871" data-name="Grupo 1114871">
                <g id="Grupo_1114870" data-name="Grupo 1114870">
                  <rect id="Rectángulo_412905" data-name="Rectángulo 412905" width="2.136" height="8.696"/>
                </g>
              </g>
            </g>
            <g id="Grupo_1114875" data-name="Grupo 1114875" transform="translate(19.033 2.16)">
              <g id="Grupo_1114874" data-name="Grupo 1114874">
                <g id="Grupo_1114873" data-name="Grupo 1114873">
                  <rect id="Rectángulo_412906" data-name="Rectángulo 412906" width="2.136" height="16.245" fill="#7c60ea"/>
                </g>
              </g>
            </g>
            <g id="Grupo_1114878" data-name="Grupo 1114878" transform="translate(26.646)">
              <g id="Grupo_1114877" data-name="Grupo 1114877">
                <g id="Grupo_1114876" data-name="Grupo 1114876">
                  <rect id="Rectángulo_412907" data-name="Rectángulo 412907" width="2.136" height="18.405" fill="#7c60ea"/>
                </g>
              </g>
            </g>
            <g id="Grupo_1114881" data-name="Grupo 1114881" transform="translate(30.452 12.346)">
              <g id="Grupo_1114880" data-name="Grupo 1114880">
                <g id="Grupo_1114879" data-name="Grupo 1114879">
                  <rect id="Rectángulo_412908" data-name="Rectángulo 412908" width="2.136" height="6.06"/>
                </g>
              </g>
            </g>
          </g>
          <line id="Línea_52567" data-name="Línea 52567" x2="14.659" transform="translate(3.813 2.732)" fill="none" stroke="#000" stroke-miterlimit="10" stroke-width="1"/>
          <line id="Línea_52568" data-name="Línea 52568" x2="10.438" transform="translate(3.813 4.253)" fill="none" stroke="#000" stroke-miterlimit="10" stroke-width="1"/>
          <line id="Línea_52569" data-name="Línea 52569" x2="10.438" transform="translate(3.813 5.773)" fill="none" stroke="#000" stroke-miterlimit="10" stroke-width="1"/>
        </g>
        <g id="Grupo_1114935" data-name="Grupo 1114935" transform="translate(22.704 7.181)">
          <g id="Grupo_1114887" data-name="Grupo 1114887">
            <path id="Trazado_926843" data-name="Trazado 926843" d="M403.759,295.088H366.645a1.294,1.294,0,0,1-1.294-1.294V271.063a1.294,1.294,0,0,1,1.294-1.294h37.114a1.294,1.294,0,0,1,1.294,1.294v22.731A1.294,1.294,0,0,1,403.759,295.088Z" transform="translate(-363.784 -268.202)" fill="#7c60ea" opacity="0.35"/>
            <path id="Trazado_926844" data-name="Trazado 926844" d="M387.989,279.317H350.875a1.294,1.294,0,0,1-1.294-1.294V255.292A1.294,1.294,0,0,1,350.875,254h37.114a1.294,1.294,0,0,1,1.294,1.294v22.731A1.294,1.294,0,0,1,387.989,279.317Z" transform="translate(-349.581 -253.998)" fill="#fff"/>
            <path id="Trazado_926845" data-name="Trazado 926845" d="M387.989,279.317H350.875a1.294,1.294,0,0,1-1.294-1.294V255.292A1.294,1.294,0,0,1,350.875,254h37.114a1.294,1.294,0,0,1,1.294,1.294v22.731A1.294,1.294,0,0,1,387.989,279.317Z" transform="translate(-349.581 -253.998)" fill="none" stroke="#000" stroke-miterlimit="10" stroke-width="1"/>
            <g id="Grupo_1114884" data-name="Grupo 1114884" transform="translate(4.001 3.07)">
              <line id="Línea_52570" data-name="Línea 52570" x2="11.346" fill="none" stroke="#000" stroke-miterlimit="10" stroke-width="1"/>
              <line id="Línea_52571" data-name="Línea 52571" x2="11.346" transform="translate(0 1.39)" fill="none" stroke="#000" stroke-miterlimit="10" stroke-width="1"/>
              <line id="Línea_52572" data-name="Línea 52572" x2="16.227" transform="translate(0 2.78)" fill="none" stroke="#000" stroke-miterlimit="10" stroke-width="1"/>
              <line id="Línea_52573" data-name="Línea 52573" x2="16.227" transform="translate(0 4.17)" fill="none" stroke="#000" stroke-miterlimit="10" stroke-width="1"/>
            </g>
            <g id="Grupo_1114885" data-name="Grupo 1114885" transform="translate(5.565 10.411)">
              <path id="Trazado_926846" data-name="Trazado 926846" d="M414.1,379.177a5.828,5.828,0,0,1-2.033.572c-.186.018-.375.027-.564.027s-.378-.009-.561-.027a5.82,5.82,0,0,1-2.172-.643,5.4,5.4,0,0,1-.944-.614,5.749,5.749,0,0,1-1.348-1.514,5.463,5.463,0,0,1-.5-1.009,5.808,5.808,0,0,1-.384-1.915c-.006-.065-.006-.13-.006-.2a6.008,6.008,0,0,1,.071-.927,5.822,5.822,0,0,1,.587-1.785,5.409,5.409,0,0,1,.611-.947,5.793,5.793,0,0,1,1.34-1.248l.741,1.286a4.252,4.252,0,0,0-.785.708,4.3,4.3,0,0,0-.626.938,4.238,4.238,0,0,0-.366,1.047,4.167,4.167,0,0,0-.1.927c0,.068,0,.133.006.2a4.333,4.333,0,0,0,.21,1.165,4.492,4.492,0,0,0,1.3,1.974A4.419,4.419,0,0,0,411.5,378.3a4.406,4.406,0,0,0,1.856-.407Z" transform="translate(-405.587 -367.939)" fill="#7c60ea"/>
              <path id="Trazado_926847" data-name="Trazado 926847" d="M496.471,393c0,.068,0,.133-.006.2a5.7,5.7,0,0,1-.419,2v0a5.427,5.427,0,0,1-.513,1,5.9,5.9,0,0,1-1.428,1.534l-.746-1.3a4.426,4.426,0,0,0,1.632-3.24c.006-.065.006-.13.006-.2a4.167,4.167,0,0,0-.1-.927,4.347,4.347,0,0,0-.4-1.127l1.281-.741a5.916,5.916,0,0,1,.628,1.868A6.009,6.009,0,0,1,496.471,393Z" transform="translate(-484.636 -387.085)"/>
              <path id="Trazado_926848" data-name="Trazado 926848" d="M448.668,360.95l-1.3.752a4.378,4.378,0,0,0-.853-.729,4.507,4.507,0,0,0-1.877-.7,4.433,4.433,0,0,0-.564-.035,4.387,4.387,0,0,0-.561.035,4.163,4.163,0,0,0-1.015.257l-.746-1.292a5.863,5.863,0,0,1,1.761-.448c.183-.018.372-.026.561-.026s.378.009.564.026a5.78,5.78,0,0,1,1.614.389,5.637,5.637,0,0,1,1,.511A5.937,5.937,0,0,1,448.668,360.95Z" transform="translate(-438.158 -358.764)" fill="#7c60ea"/>
            </g>
            <g id="Grupo_1114886" data-name="Grupo 1114886" transform="translate(20.058 12.27)">
              <circle id="Elipse_14480" data-name="Elipse 14480" cx="0.455" cy="0.455" r="0.455" fill="none" stroke="#000" stroke-miterlimit="10" stroke-width="1"/>
              <line id="Línea_52574" data-name="Línea 52574" x2="13.304" transform="translate(2.339 0.455)" fill="none" stroke="#000" stroke-miterlimit="10" stroke-width="1"/>
              <circle id="Elipse_14481" data-name="Elipse 14481" cx="0.455" cy="0.455" r="0.455" transform="translate(0 2.403)" fill="none" stroke="#000" stroke-miterlimit="10" stroke-width="1"/>
              <line id="Línea_52575" data-name="Línea 52575" x2="13.304" transform="translate(2.339 2.858)" fill="none" stroke="#000" stroke-miterlimit="10" stroke-width="1"/>
              <circle id="Elipse_14482" data-name="Elipse 14482" cx="0.455" cy="0.455" r="0.455" transform="translate(0 4.807)" fill="none" stroke="#000" stroke-miterlimit="10" stroke-width="1"/>
              <line id="Línea_52576" data-name="Línea 52576" x2="13.304" transform="translate(2.339 5.262)" fill="none" stroke="#000" stroke-miterlimit="10" stroke-width="1"/>
              <path id="Trazado_926849" data-name="Trazado 926849" d="M552.344,450.488a.455.455,0,1,1-.455-.455A.455.455,0,0,1,552.344,450.488Z" transform="translate(-551.435 -442.822)" fill="none" stroke="#000" stroke-miterlimit="10" stroke-width="1"/>
              <line id="Línea_52577" data-name="Línea 52577" x2="13.304" transform="translate(2.339 7.665)" fill="none" stroke="#000" stroke-miterlimit="10" stroke-width="1"/>
            </g>
          </g>
          <g id="Grupo_1114916" data-name="Grupo 1114916" transform="translate(33.66 17.237)">
            <path id="Trazado_926850" data-name="Trazado 926850" d="M748.207,474.154H702.733a1.568,1.568,0,0,1-1.568-1.568V444.744a1.568,1.568,0,0,1,1.568-1.568h45.473a1.568,1.568,0,0,1,1.568,1.568v27.842A1.568,1.568,0,0,1,748.207,474.154Z" transform="translate(-699.888 -441.614)" fill="#7c60ea" opacity="0.35"/>
            <path id="Trazado_926851" data-name="Trazado 926851" d="M735.35,458.439H689.876a1.568,1.568,0,0,1-1.568-1.568V429.029a1.568,1.568,0,0,1,1.568-1.568h45.473a1.568,1.568,0,0,1,1.568,1.568v27.842A1.568,1.568,0,0,1,735.35,458.439Z" transform="translate(-688.308 -427.461)" fill="#fff"/>
            <path id="Trazado_926852" data-name="Trazado 926852" d="M735.35,458.439H689.876a1.568,1.568,0,0,1-1.568-1.568V429.029a1.568,1.568,0,0,1,1.568-1.568h45.473a1.568,1.568,0,0,1,1.568,1.568v27.842A1.568,1.568,0,0,1,735.35,458.439Z" transform="translate(-688.308 -427.461)" fill="none" stroke="#000" stroke-miterlimit="10" stroke-width="1"/>
            <g id="Grupo_1114915" data-name="Grupo 1114915" transform="translate(3.301 3.731)">
              <g id="Grupo_1114890" data-name="Grupo 1114890" transform="translate(0 13.724)">
                <g id="Grupo_1114889" data-name="Grupo 1114889">
                  <g id="Grupo_1114888" data-name="Grupo 1114888">
                    <rect id="Rectángulo_412909" data-name="Rectángulo 412909" width="2.754" height="10.001"/>
                  </g>
                </g>
              </g>
              <g id="Grupo_1114893" data-name="Grupo 1114893" transform="translate(9.814 5.634)">
                <g id="Grupo_1114892" data-name="Grupo 1114892">
                  <g id="Grupo_1114891" data-name="Grupo 1114891">
                    <rect id="Rectángulo_412910" data-name="Rectángulo 412910" width="2.754" height="18.091"/>
                  </g>
                </g>
              </g>
              <g id="Grupo_1114896" data-name="Grupo 1114896" transform="translate(4.583 9.692)">
                <g id="Grupo_1114895" data-name="Grupo 1114895">
                  <g id="Grupo_1114894" data-name="Grupo 1114894">
                    <rect id="Rectángulo_412911" data-name="Rectángulo 412911" width="3.402" height="14.034" fill="#7c60ea"/>
                  </g>
                </g>
              </g>
              <g id="Grupo_1114899" data-name="Grupo 1114899" transform="translate(19.627 16.881)">
                <g id="Grupo_1114898" data-name="Grupo 1114898">
                  <g id="Grupo_1114897" data-name="Grupo 1114897">
                    <rect id="Rectángulo_412912" data-name="Rectángulo 412912" width="2.754" height="6.845"/>
                  </g>
                </g>
              </g>
              <g id="Grupo_1114902" data-name="Grupo 1114902" transform="translate(14.72 16.881)">
                <g id="Grupo_1114901" data-name="Grupo 1114901">
                  <g id="Grupo_1114900" data-name="Grupo 1114900">
                    <rect id="Rectángulo_412913" data-name="Rectángulo 412913" width="2.754" height="6.845" fill="#7c60ea"/>
                  </g>
                </g>
              </g>
              <g id="Grupo_1114905" data-name="Grupo 1114905" transform="translate(29.44 12.516)">
                <g id="Grupo_1114904" data-name="Grupo 1114904">
                  <g id="Grupo_1114903" data-name="Grupo 1114903">
                    <rect id="Rectángulo_412914" data-name="Rectángulo 412914" width="2.754" height="11.209"/>
                  </g>
                </g>
              </g>
              <g id="Grupo_1114908" data-name="Grupo 1114908" transform="translate(24.534 2.785)">
                <g id="Grupo_1114907" data-name="Grupo 1114907">
                  <g id="Grupo_1114906" data-name="Grupo 1114906">
                    <rect id="Rectángulo_412915" data-name="Rectángulo 412915" width="2.754" height="20.94" fill="#7c60ea"/>
                  </g>
                </g>
              </g>
              <g id="Grupo_1114911" data-name="Grupo 1114911" transform="translate(34.347)">
                <g id="Grupo_1114910" data-name="Grupo 1114910">
                  <g id="Grupo_1114909" data-name="Grupo 1114909">
                    <rect id="Rectángulo_412916" data-name="Rectángulo 412916" width="2.754" height="23.725" fill="#7c60ea"/>
                  </g>
                </g>
              </g>
              <g id="Grupo_1114914" data-name="Grupo 1114914" transform="translate(39.254 15.914)">
                <g id="Grupo_1114913" data-name="Grupo 1114913">
                  <g id="Grupo_1114912" data-name="Grupo 1114912">
                    <rect id="Rectángulo_412917" data-name="Rectángulo 412917" width="2.754" height="7.811"/>
                  </g>
                </g>
              </g>
            </g>
          </g>
          <g id="Grupo_1114920" data-name="Grupo 1114920" transform="translate(102.927 45.883)">
            <g id="Grupo_1114918" data-name="Grupo 1114918" transform="translate(0.001 0)">
              <path id="Trazado_926853" data-name="Trazado 926853" d="M1412,717.531v2.094h-26.637v-2.094a1.8,1.8,0,0,1,1.795-1.795h23.047A1.8,1.8,0,0,1,1412,717.531Z" transform="translate(-1385.368 -715.736)" fill="none" stroke="#000" stroke-linecap="round" stroke-linejoin="round" stroke-miterlimit="10" stroke-width="1"/>
              <g id="Grupo_1114917" data-name="Grupo 1114917" transform="translate(2.263 1.378)">
                <circle id="Elipse_14483" data-name="Elipse 14483" cx="0.567" cy="0.567" r="0.567" fill="#7c60ea"/>
                <path id="Trazado_926854" data-name="Trazado 926854" d="M1427.269,730.167a.567.567,0,1,1-.567-.567A.567.567,0,0,1,1427.269,730.167Z" transform="translate(-1424.348 -729.6)" fill="#7c60ea"/>
                <path id="Trazado_926855" data-name="Trazado 926855" d="M1445.269,730.167a.567.567,0,1,1-.567-.567A.567.567,0,0,1,1445.269,730.167Z" transform="translate(-1440.559 -729.6)" fill="#7c60ea"/>
              </g>
            </g>
            <path id="Trazado_926856" data-name="Trazado 926856" d="M1412.006,754.868v22.961a1.8,1.8,0,0,1-1.795,1.795h-23.047a1.8,1.8,0,0,1-1.795-1.795V754.868Z" transform="translate(-1385.368 -750.979)" fill="none" stroke="#000" stroke-linecap="round" stroke-linejoin="round" stroke-miterlimit="10" stroke-width="1"/>
            <path id="Trazado_926857" data-name="Trazado 926857" d="M1410.2,715.735h-23.047a1.8,1.8,0,0,0-1.795,1.795v25.055a1.8,1.8,0,0,0,1.795,1.795H1410.2a1.8,1.8,0,0,0,1.795-1.795V717.53A1.794,1.794,0,0,0,1410.2,715.735Z" transform="translate(-1385.36 -715.735)" fill="none" stroke="#000" stroke-linecap="round" stroke-linejoin="round" stroke-miterlimit="10" stroke-width="1"/>
            <g id="Grupo_1114919" data-name="Grupo 1114919" transform="translate(3.823 7.631)">
              <rect id="Rectángulo_412918" data-name="Rectángulo 412918" width="2.91" height="7.694" transform="translate(0 11.232)" fill="none" stroke="#000" stroke-linecap="round" stroke-linejoin="round" stroke-miterlimit="10" stroke-width="1"/>
              <rect id="Rectángulo_412919" data-name="Rectángulo 412919" width="2.91" height="18.926" transform="translate(5.361)" fill="#7c60ea"/>
              <rect id="Rectángulo_412920" data-name="Rectángulo 412920" width="2.91" height="10.678" transform="translate(10.721 8.248)" fill="none" stroke="#000" stroke-linecap="round" stroke-linejoin="round" stroke-miterlimit="10" stroke-width="1"/>
              <rect id="Rectángulo_412921" data-name="Rectángulo 412921" width="2.91" height="14.766" transform="translate(16.081 4.16)" fill="#7c60ea"/>
            </g>
          </g>
          <g id="Grupo_1114933" data-name="Grupo 1114933" transform="translate(85.62 6.996)">
            <path id="Trazado_926858" data-name="Trazado 926858" d="M1267.339,359.207h-39.588a.78.78,0,0,1-.78-.78V340.948a.78.78,0,0,1,.78-.78h39.588a.78.78,0,0,1,.78.78v17.479A.78.78,0,0,1,1267.339,359.207Z" transform="translate(-1225.404 -338.601)" opacity="0.35"/>
            <path id="Trazado_926859" data-name="Trazado 926859" d="M1251.569,343.436h-39.588a.78.78,0,0,1-.78-.78V325.177a.78.78,0,0,1,.78-.78h39.588a.78.78,0,0,1,.78.78v17.479A.78.78,0,0,1,1251.569,343.436Z" transform="translate(-1211.201 -324.397)" fill="#7c60ea"/>
            <path id="Trazado_926860" data-name="Trazado 926860" d="M1251.569,343.436h-39.588a.78.78,0,0,1-.78-.78V325.177a.78.78,0,0,1,.78-.78h39.588a.78.78,0,0,1,.78.78v17.479A.78.78,0,0,1,1251.569,343.436Z" transform="translate(-1211.201 -324.397)" fill="none" stroke="#000" stroke-miterlimit="10" stroke-width="1"/>
            <g id="Grupo_1114932" data-name="Grupo 1114932" transform="translate(2.29 2.752)">
              <g id="Grupo_1114921" data-name="Grupo 1114921">
                <path id="Trazado_926861" data-name="Trazado 926861" d="M1243.38,355.471l1.809,1.045a4.7,4.7,0,0,1,1.712-1.713,4.671,4.671,0,0,1,4.68,0,4.7,4.7,0,0,1,1.713,1.713,4.643,4.643,0,0,1,.628,2.34h2.087a6.73,6.73,0,0,0-.906-3.385,6.807,6.807,0,0,0-2.478-2.478,6.767,6.767,0,0,0-9.246,2.478Z" transform="translate(-1242.473 -352.088)" fill="#fff" opacity="0.25"/>
                <path id="Trazado_926862" data-name="Trazado 926862" d="M1234.25,389.521a6.771,6.771,0,0,0,3.384,5.862l1.045-1.81a4.7,4.7,0,0,1-1.713-1.713,4.67,4.67,0,0,1,0-4.68l-1.809-1.045A6.737,6.737,0,0,0,1234.25,389.521Z" transform="translate(-1234.25 -382.753)" fill="#fff" opacity="0.45"/>
                <path id="Trazado_926863" data-name="Trazado 926863" d="M1268.3,426.059a6.778,6.778,0,0,0,6.769,0,6.808,6.808,0,0,0,2.478-2.478,6.732,6.732,0,0,0,.906-3.385h-2.087a4.643,4.643,0,0,1-.628,2.34,4.7,4.7,0,0,1-1.713,1.713,4.67,4.67,0,0,1-4.68,0Z" transform="translate(-1264.917 -413.429)" fill="#fff"/>
              </g>
              <g id="Grupo_1114931" data-name="Grupo 1114931" transform="translate(15.809 0)">
                <g id="Grupo_1114922" data-name="Grupo 1114922">
                  <line id="Línea_52578" data-name="Línea 52578" x2="20.76" fill="none" stroke="#fff" stroke-miterlimit="10" stroke-width="1"/>
                </g>
                <g id="Grupo_1114923" data-name="Grupo 1114923" transform="translate(0 1.692)">
                  <line id="Línea_52579" data-name="Línea 52579" x2="20.76" fill="none" stroke="#fff" stroke-miterlimit="10" stroke-width="1"/>
                </g>
                <g id="Grupo_1114924" data-name="Grupo 1114924" transform="translate(0 3.384)">
                  <line id="Línea_52580" data-name="Línea 52580" x2="20.76" fill="none" stroke="#fff" stroke-miterlimit="10" stroke-width="1"/>
                </g>
                <g id="Grupo_1114925" data-name="Grupo 1114925" transform="translate(0 5.076)">
                  <line id="Línea_52581" data-name="Línea 52581" x2="20.76" fill="none" stroke="#fff" stroke-miterlimit="10" stroke-width="1"/>
                </g>
                <g id="Grupo_1114926" data-name="Grupo 1114926" transform="translate(0 6.768)">
                  <line id="Línea_52582" data-name="Línea 52582" x2="20.76" fill="none" stroke="#fff" stroke-miterlimit="10" stroke-width="1"/>
                </g>
                <g id="Grupo_1114927" data-name="Grupo 1114927" transform="translate(0 8.46)">
                  <line id="Línea_52583" data-name="Línea 52583" x2="20.76" fill="none" stroke="#fff" stroke-miterlimit="10" stroke-width="1"/>
                </g>
                <g id="Grupo_1114928" data-name="Grupo 1114928" transform="translate(0 10.152)">
                  <line id="Línea_52584" data-name="Línea 52584" x2="20.76" fill="none" stroke="#fff" stroke-miterlimit="10" stroke-width="1"/>
                </g>
                <g id="Grupo_1114929" data-name="Grupo 1114929" transform="translate(0 11.844)">
                  <line id="Línea_52585" data-name="Línea 52585" x2="20.76" fill="none" stroke="#fff" stroke-miterlimit="10" stroke-width="1"/>
                </g>
                <g id="Grupo_1114930" data-name="Grupo 1114930" transform="translate(0 13.536)">
                  <line id="Línea_52586" data-name="Línea 52586" x2="20.76" fill="none" stroke="#fff" stroke-miterlimit="10" stroke-width="1"/>
                </g>
              </g>
            </g>
          </g>
          <g id="Grupo_1114934" data-name="Grupo 1114934" transform="translate(47.74 18.771)">
            <path id="Trazado_926864" data-name="Trazado 926864" d="M957.808,720.966q-1.288.163-2.635.305a123.78,123.78,0,0,1-15.294.656c-3.344-.063-6.513-.26-9.488-.546q-1.221-.117-2.4-.254l.315-1.74v0l4.355-17.442c.3-.178.555-.34.773-.476a26.841,26.841,0,0,0,3.748-2.824c-.278.222-11.625,9.228-23.8,2.7h0a25.815,25.815,0,0,1-3.614-2.372,5.389,5.389,0,0,0,.936-.356,4.866,4.866,0,0,0,1.668-1.324,5.182,5.182,0,0,0,1.009-3.829,6.358,6.358,0,0,0-.309-1.436,13.7,13.7,0,0,0,3,2.325,8.394,8.394,0,0,0,9.69.168,19.4,19.4,0,0,0,3.7-2.689c.1-.082.19-.161.279-.238,1.892-1.636,1.9-2.013,3.278-2.926a12.679,12.679,0,0,1,1.916-1.081,9.564,9.564,0,0,1,2.089-.656,9.782,9.782,0,0,1,3.374-.049q-.068.518-.136,1.036,1.356.083,2.788.11a65.953,65.953,0,0,0,7.7-.31q-.024-.662-.047-1.325c7.792,3.109,7.631,12.787,7.533,19.835C958.213,707.615,958.617,720.864,957.808,720.966Z" transform="translate(-901.845 -662.196)" fill="#7c60ea"/>
            <path id="Trazado_926865" data-name="Trazado 926865" d="M840.534,700.5a4.865,4.865,0,0,1-1.668,1.324,7,7,0,0,0-1.043-.6,6.621,6.621,0,0,0-.635-.257c-1.016-.352-1.533-.256-2.385-.611a4.474,4.474,0,0,1-.82-.447h0a3.028,3.028,0,0,1-2.1-.455,1.977,1.977,0,0,1-.975-1.513,1.417,1.417,0,0,1,.256-.752,1.31,1.31,0,0,1-.474-1.4,1.111,1.111,0,0,1,.786-.532,1.393,1.393,0,0,1-.146-1.592,1.334,1.334,0,0,1,.639-.544c-.281-.136-.523-.268-.727-.387a2.337,2.337,0,0,1-.96-.873c-.036-.063-.505-.924-.131-1.469a1.639,1.639,0,0,1,2.138-.1,22.667,22.667,0,0,1,2.72,1.469,44.277,44.277,0,0,1,3.811,2.866c.381.3.854.662,1.41,1.079.4.3.838.624,1.316.97A5.182,5.182,0,0,1,840.534,700.5Z" transform="translate(-830.003 -665.401)" fill="#fff"/>
            <path id="Trazado_926866" data-name="Trazado 926866" d="M849.741,721.789a11.722,11.722,0,0,0,1.892.718" transform="translate(-847.78 -694.075)"/>
            <path id="Trazado_926867" data-name="Trazado 926867" d="M844.779,742.569a3.066,3.066,0,0,1,.378-.065,2.154,2.154,0,0,1,1.28.262" transform="translate(-843.311 -712.719)"/>
            <path id="Trazado_926868" data-name="Trazado 926868" d="M841.634,759.327a.931.931,0,0,1,.341-.281,1.186,1.186,0,0,1,1.047.073" transform="translate(-840.478 -727.544)"/>
            <path id="Trazado_926869" data-name="Trazado 926869" d="M853.848,773.083a6.086,6.086,0,0,0,1.609,1.691" transform="translate(-851.478 -740.272)"/>
            <path id="Trazado_926870" data-name="Trazado 926870" d="M909.539,803.942a5.406,5.406,0,0,1-.936.356s-.193-.228-.107-.958A7,7,0,0,1,909.539,803.942Z" transform="translate(-900.676 -767.522)"/>
            <path id="Trazado_926871" data-name="Trazado 926871" d="M934.209,744.524c-.479-.347-.919-.672-1.316-.97a2.65,2.65,0,0,1,1.007-.466A6.358,6.358,0,0,1,934.209,744.524Z" transform="translate(-922.669 -713.257)"/>
            <path id="Trazado_926872" data-name="Trazado 926872" d="M1083.861,651.293a12.691,12.691,0,0,0-1.915,1.081c-1.381.912-1.386,1.289-3.278,2.926q-1.768-2.888-3.535-5.776a6.372,6.372,0,0,0,1.321-.116,6.237,6.237,0,0,0,1.69-.587,6.376,6.376,0,0,0,2.6-2.533c.041-.072.075-.137.1-.192a12.18,12.18,0,0,0,3.015,5.2Z" transform="translate(-1050.774 -625.903)" fill="#7c60ea"/>
            <path id="Trazado_926873" data-name="Trazado 926873" d="M1076.449,667.09a6.381,6.381,0,0,1-1.321.116,9.093,9.093,0,0,1,1.053-1.477A10.411,10.411,0,0,0,1076.449,667.09Z" transform="translate(-1050.77 -643.586)"/>
            <path id="Trazado_926874" data-name="Trazado 926874" d="M1066.108,567.756a6.378,6.378,0,0,1-2.6,2.533,6.236,6.236,0,0,1-1.69.587,10.271,10.271,0,0,1-.268-1.361,9.669,9.669,0,0,1-.076-1.116c-.016-1.8.482-2.81-.089-4.339a6.559,6.559,0,0,0-.676-1.3c-.813-1.189-1.533-1.329-1.761-2.24-.025-.1-.229-.961.231-1.387.483-.448,1.385-.13,1.654-.036a3.5,3.5,0,0,1,1.387.978,15,15,0,0,1,3.379,5.549A13.167,13.167,0,0,1,1066.108,567.756Z" transform="translate(-1036.139 -547.372)" fill="#fff"/>
            <line id="Línea_52587" data-name="Línea 52587" x1="2.714" y2="7.423" transform="translate(41.758 66.484)"/>
            <path id="Trazado_926875" data-name="Trazado 926875" d="M1099.53,1052.215h-33.44l5.086-14.722c2.975.287,6.143.483,9.488.546a123.733,123.733,0,0,0,15.294-.656Z" transform="translate(-1042.63 -978.308)"/>
            <path id="Trazado_926876" data-name="Trazado 926876" d="M1227.07,675.058a65.955,65.955,0,0,1-7.7.309q-1.432-.026-2.788-.11.068-.519.136-1.036l.151-1.154q.442-.1.922-.2a27.479,27.479,0,0,1,8.453-.358q.378.042.736.092.02.566.041,1.131Q1227.046,674.4,1227.07,675.058Z" transform="translate(-1178.168 -649.537)"/>
            <path id="Trazado_926877" data-name="Trazado 926877" d="M1196.941,536.843a27.478,27.478,0,0,0-8.453.358q.034-.35.061-.712a3.821,3.821,0,0,0,1.9-.978,3.9,3.9,0,0,0,1.081-2.036,5.948,5.948,0,0,1-2.874.783,5.4,5.4,0,0,1-.678-.042,4.363,4.363,0,0,1-2.223-.836,4.507,4.507,0,0,1-1.558-2.583,6.992,6.992,0,0,1,.171-3.419,18.55,18.55,0,0,1,1.349-3.818c.225-.519.509-1.146.858-1.857a6.37,6.37,0,0,0,.567.679,6.879,6.879,0,0,0,2.85,1.766q.028,1.767.057,3.533a1.79,1.79,0,0,1,1.729-.684,1.821,1.821,0,0,1,1.235.988,2.062,2.062,0,0,1-.057,1.767,2.509,2.509,0,0,1-1.653,1.292,3.654,3.654,0,0,1,.152,1.538,8.606,8.606,0,0,0,4.677,1.481q.163.48.319.988C1196.637,535.67,1196.8,536.268,1196.941,536.843Z" transform="translate(-1148.863 -513.87)" fill="#fff"/>
            <path id="Trazado_926878" data-name="Trazado 926878" d="M1232.344,640.178a3.9,3.9,0,0,1-1.081,2.037,3.822,3.822,0,0,1-1.9.978q.031-.4.054-.811.04-.727.051-1.42A5.946,5.946,0,0,0,1232.344,640.178Z" transform="translate(-1189.68 -620.574)"/>
            <path id="Trazado_926879" data-name="Trazado 926879" d="M1209.764,456.153a11.332,11.332,0,0,1-2.489,4.939,13.808,13.808,0,0,1-2.01,1.994h0a8.608,8.608,0,0,1-4.677-1.481,3.656,3.656,0,0,0-.152-1.538,2.51,2.51,0,0,0,1.653-1.292,2.062,2.062,0,0,0,.057-1.767,1.82,1.82,0,0,0-1.235-.988,1.79,1.79,0,0,0-1.729.684q-.029-1.767-.056-3.533a6.879,6.879,0,0,1-2.85-1.766,6.351,6.351,0,0,1-.567-.679,8.184,8.184,0,0,1-1.314-3.329,10.245,10.245,0,0,1,.094-4.5,5.678,5.678,0,0,0,1.558,1.349c1.178.683,2.105.616,3.97.8a15.363,15.363,0,0,1,5.167,1.045,5.724,5.724,0,0,1,2.926,2.223,5.1,5.1,0,0,1,.551,3.457,3.553,3.553,0,0,1,.931,1.1A4.637,4.637,0,0,1,1209.764,456.153Z" transform="translate(-1158 -442.893)"/>
            <path id="Trazado_926880" data-name="Trazado 926880" d="M957.808,720.967q-1.288.163-2.635.3a123.768,123.768,0,0,1-15.294.656c-3.344-.063-6.513-.26-9.488-.546q-1.221-.117-2.4-.254l3.334-18.433a17.14,17.14,0,0,1-3.044,1.264c-4.309,1.275-8.195.005-10.782-.84a25.254,25.254,0,0,1-7.73-4.145,5.4,5.4,0,0,0,.936-.356,4.866,4.866,0,0,0,1.668-1.324,5.182,5.182,0,0,0,1.009-3.829,6.36,6.36,0,0,0-.309-1.436,13.7,13.7,0,0,0,3,2.324,8.394,8.394,0,0,0,9.69.168,19.4,19.4,0,0,0,3.7-2.689c.1-.082.19-.162.279-.239,1.892-1.636,1.9-2.013,3.278-2.926a12.68,12.68,0,0,1,1.915-1.081,9.565,9.565,0,0,1,2.089-.656,9.783,9.783,0,0,1,3.374-.049q-.068.518-.136,1.036,1.356.083,2.788.11a65.966,65.966,0,0,0,7.7-.31q-.024-.662-.047-1.325c7.792,3.109,7.631,12.787,7.533,19.835C958.213,707.616,958.617,720.865,957.808,720.967Z" transform="translate(-901.845 -662.197)" fill="none" stroke="#000" stroke-linecap="round" stroke-linejoin="round" stroke-miterlimit="10" stroke-width="1"/>
            <path id="Trazado_926881" data-name="Trazado 926881" d="M1126.69,813.659c.876-.459,1.606-.914,2.109-1.228a26.8,26.8,0,0,0,3.753-2.829" transform="translate(-1097.208 -773.162)" fill="none" stroke="#000" stroke-linecap="round" stroke-linejoin="round" stroke-miterlimit="10" stroke-width="1"/>
            <path id="Trazado_926882" data-name="Trazado 926882" d="M840.534,700.5a4.865,4.865,0,0,1-1.668,1.324,7,7,0,0,0-1.043-.6,6.621,6.621,0,0,0-.635-.257c-1.016-.352-1.533-.256-2.385-.611a4.474,4.474,0,0,1-.82-.447h0a3.028,3.028,0,0,1-2.1-.455,1.977,1.977,0,0,1-.975-1.513,1.417,1.417,0,0,1,.256-.752,1.31,1.31,0,0,1-.474-1.4,1.111,1.111,0,0,1,.786-.532,1.393,1.393,0,0,1-.146-1.592,1.334,1.334,0,0,1,.639-.544c-.281-.136-.523-.268-.727-.387a2.337,2.337,0,0,1-.96-.873c-.036-.063-.505-.924-.131-1.469a1.639,1.639,0,0,1,2.138-.1,22.667,22.667,0,0,1,2.72,1.469,44.277,44.277,0,0,1,3.811,2.866c.381.3.854.662,1.41,1.079.4.3.838.624,1.316.97A5.182,5.182,0,0,1,840.534,700.5Z" transform="translate(-830.003 -665.401)" fill="none" stroke="#000" stroke-linecap="round" stroke-linejoin="round" stroke-miterlimit="10" stroke-width="1"/>
            <path id="Trazado_926883" data-name="Trazado 926883" d="M849.741,721.789a11.722,11.722,0,0,0,1.892.718" transform="translate(-847.78 -694.075)" fill="none" stroke="#000" stroke-linecap="round" stroke-linejoin="round" stroke-miterlimit="10" stroke-width="1"/>
            <path id="Trazado_926884" data-name="Trazado 926884" d="M844.779,742.569a3.066,3.066,0,0,1,.378-.065,2.154,2.154,0,0,1,1.28.262" transform="translate(-843.311 -712.719)" fill="none" stroke="#000" stroke-linecap="round" stroke-linejoin="round" stroke-miterlimit="10" stroke-width="1"/>
            <path id="Trazado_926885" data-name="Trazado 926885" d="M841.634,759.327a.931.931,0,0,1,.341-.281,1.186,1.186,0,0,1,1.047.073" transform="translate(-840.478 -727.544)" fill="none" stroke="#000" stroke-linecap="round" stroke-linejoin="round" stroke-miterlimit="10" stroke-width="1"/>
            <path id="Trazado_926886" data-name="Trazado 926886" d="M853.848,773.083a6.086,6.086,0,0,0,1.609,1.691" transform="translate(-851.478 -740.272)" fill="none" stroke="#000" stroke-linecap="round" stroke-linejoin="round" stroke-miterlimit="10" stroke-width="1"/>
            <path id="Trazado_926887" data-name="Trazado 926887" d="M909.539,803.942a5.406,5.406,0,0,1-.936.356s-.193-.228-.107-.958A7,7,0,0,1,909.539,803.942Z" transform="translate(-900.676 -767.522)" fill="none" stroke="#000" stroke-linecap="round" stroke-linejoin="round" stroke-miterlimit="10" stroke-width="1"/>
            <path id="Trazado_926888" data-name="Trazado 926888" d="M934.209,744.524c-.479-.347-.919-.672-1.316-.97a2.65,2.65,0,0,1,1.007-.466A6.358,6.358,0,0,1,934.209,744.524Z" transform="translate(-922.669 -713.257)" fill="none" stroke="#000" stroke-linecap="round" stroke-linejoin="round" stroke-miterlimit="10" stroke-width="1"/>
            <path id="Trazado_926889" data-name="Trazado 926889" d="M1083.861,651.293a12.691,12.691,0,0,0-1.915,1.081c-1.381.912-1.386,1.289-3.278,2.926q-1.768-2.888-3.535-5.776a6.372,6.372,0,0,0,1.321-.116,6.237,6.237,0,0,0,1.69-.587,6.376,6.376,0,0,0,2.6-2.533c.041-.072.075-.137.1-.192a12.18,12.18,0,0,0,3.015,5.2Z" transform="translate(-1050.774 -625.903)" fill="none" stroke="#000" stroke-linecap="round" stroke-linejoin="round" stroke-miterlimit="10" stroke-width="1"/>
            <path id="Trazado_926890" data-name="Trazado 926890" d="M1076.449,667.09a6.381,6.381,0,0,1-1.321.116,9.093,9.093,0,0,1,1.053-1.477A10.411,10.411,0,0,0,1076.449,667.09Z" transform="translate(-1050.77 -643.586)" fill="none" stroke="#000" stroke-linecap="round" stroke-linejoin="round" stroke-miterlimit="10" stroke-width="1"/>
            <path id="Trazado_926891" data-name="Trazado 926891" d="M1066.108,567.756a6.378,6.378,0,0,1-2.6,2.533,6.236,6.236,0,0,1-1.69.587,10.271,10.271,0,0,1-.268-1.361,9.669,9.669,0,0,1-.076-1.116c-.016-1.8.482-2.81-.089-4.339a6.559,6.559,0,0,0-.676-1.3c-.813-1.189-1.533-1.329-1.761-2.24-.025-.1-.229-.961.231-1.387.483-.448,1.385-.13,1.654-.036a3.5,3.5,0,0,1,1.387.978,15,15,0,0,1,3.379,5.549A13.167,13.167,0,0,1,1066.108,567.756Z" transform="translate(-1036.139 -547.372)" fill="none" stroke="#000" stroke-linecap="round" stroke-linejoin="round" stroke-miterlimit="10" stroke-width="1"/>
            <path id="Trazado_926892" data-name="Trazado 926892" d="M1099.53,1052.215h-33.44l5.086-14.722c2.975.287,6.143.483,9.488.546a123.733,123.733,0,0,0,15.294-.656Z" transform="translate(-1042.63 -978.308)" fill="none" stroke="#000" stroke-linecap="round" stroke-linejoin="round" stroke-miterlimit="10" stroke-width="1"/>
            <path id="Trazado_926893" data-name="Trazado 926893" d="M1227.07,675.058a65.955,65.955,0,0,1-7.7.309q-1.432-.026-2.788-.11.068-.519.136-1.036l.151-1.154q.442-.1.922-.2a27.479,27.479,0,0,1,8.453-.358q.378.042.736.092.02.566.041,1.131Q1227.046,674.4,1227.07,675.058Z" transform="translate(-1178.168 -649.537)" fill="none" stroke="#000" stroke-linecap="round" stroke-linejoin="round" stroke-miterlimit="10" stroke-width="1"/>
            <path id="Trazado_926894" data-name="Trazado 926894" d="M1196.941,536.843a27.478,27.478,0,0,0-8.453.358q.034-.35.061-.712a3.821,3.821,0,0,0,1.9-.978,3.9,3.9,0,0,0,1.081-2.036,5.948,5.948,0,0,1-2.874.783,5.4,5.4,0,0,1-.678-.042,4.363,4.363,0,0,1-2.223-.836,4.507,4.507,0,0,1-1.558-2.583,6.992,6.992,0,0,1,.171-3.419,18.55,18.55,0,0,1,1.349-3.818c.225-.519.509-1.146.858-1.857a6.37,6.37,0,0,0,.567.679,6.879,6.879,0,0,0,2.85,1.766q.028,1.767.057,3.533a1.79,1.79,0,0,1,1.729-.684,1.821,1.821,0,0,1,1.235.988,2.062,2.062,0,0,1-.057,1.767,2.509,2.509,0,0,1-1.653,1.292,3.654,3.654,0,0,1,.152,1.538,8.606,8.606,0,0,0,4.677,1.481q.163.48.319.988C1196.637,535.67,1196.8,536.268,1196.941,536.843Z" transform="translate(-1148.863 -513.87)" fill="none" stroke="#000" stroke-linecap="round" stroke-linejoin="round" stroke-miterlimit="10" stroke-width="1"/>
            <path id="Trazado_926895" data-name="Trazado 926895" d="M1232.344,640.178a3.9,3.9,0,0,1-1.081,2.037,3.822,3.822,0,0,1-1.9.978q.031-.4.054-.811.04-.727.051-1.42A5.946,5.946,0,0,0,1232.344,640.178Z" transform="translate(-1189.68 -620.574)" fill="none" stroke="#000" stroke-linecap="round" stroke-linejoin="round" stroke-miterlimit="10" stroke-width="1"/>
            <path id="Trazado_926896" data-name="Trazado 926896" d="M1209.764,456.153a11.332,11.332,0,0,1-2.489,4.939,13.808,13.808,0,0,1-2.01,1.994h0a8.608,8.608,0,0,1-4.677-1.481,3.656,3.656,0,0,0-.152-1.538,2.51,2.51,0,0,0,1.653-1.292,2.062,2.062,0,0,0,.057-1.767,1.82,1.82,0,0,0-1.235-.988,1.79,1.79,0,0,0-1.729.684q-.029-1.767-.056-3.533a6.879,6.879,0,0,1-2.85-1.766,6.351,6.351,0,0,1-.567-.679,8.184,8.184,0,0,1-1.314-3.329,10.245,10.245,0,0,1,.094-4.5,5.678,5.678,0,0,0,1.558,1.349c1.178.683,2.105.616,3.97.8a15.363,15.363,0,0,1,5.167,1.045,5.724,5.724,0,0,1,2.926,2.223,5.1,5.1,0,0,1,.551,3.457,3.553,3.553,0,0,1,.931,1.1A4.637,4.637,0,0,1,1209.764,456.153Z" transform="translate(-1158 -442.893)" fill="none" stroke="#000" stroke-linecap="round" stroke-linejoin="round" stroke-miterlimit="10" stroke-width="1"/>
            <line id="Línea_52588" data-name="Línea 52588" x1="2.714" y2="7.423" transform="translate(41.758 66.484)" fill="none" stroke="#fff" stroke-linecap="round" stroke-linejoin="round" stroke-miterlimit="10" stroke-width="1"/>
            <path id="Trazado_926897" data-name="Trazado 926897" d="M1100.665,842.853l-4.355,17.442,3.019-16.689C1099.827,843.345,1100.277,843.086,1100.665,842.853Z" transform="translate(-1069.847 -803.109)"/>
          </g>
        </g>
        <g id="Grupo_1114939" data-name="Grupo 1114939" transform="translate(45.101 89.626)">
          <g id="Grupo_1114936" data-name="Grupo 1114936" transform="translate(0.899 0.785)">
            <path id="Trazado_926898" data-name="Trazado 926898" d="M601.465,1099.352l-1.912-.626a6.858,6.858,0,0,0-.752-1.807l.912-1.8a.421.421,0,0,0-.077-.487l-.96-.959a.418.418,0,0,0-.486-.077l-.707.359-1.091.553a6.872,6.872,0,0,0-1.806-.751l-.625-1.911a.419.419,0,0,0-.4-.29h-1.357a.348.348,0,0,0-.057,0,.416.416,0,0,0-.341.285l-.625,1.912a6.879,6.879,0,0,0-1.807.751l-.744-.377-1.052-.534a.422.422,0,0,0-.487.077l-.281.28-.678.68a.416.416,0,0,0-.077.486l.912,1.8a6.815,6.815,0,0,0-.751,1.807l-1.912.625a.419.419,0,0,0-.29.4v1.357a.417.417,0,0,0,.29.4l1.912.626a6.846,6.846,0,0,0,.752,1.806l-.912,1.8a.417.417,0,0,0,.077.487l.678.678.281.281a.418.418,0,0,0,.486.077l1.053-.534.744-.377a6.849,6.849,0,0,0,1.807.751l.625,1.912a.416.416,0,0,0,.34.285.364.364,0,0,0,.058,0h1.357a.418.418,0,0,0,.4-.288l.626-1.913a6.857,6.857,0,0,0,1.806-.751l1.091.554.706.358a.42.42,0,0,0,.487-.077l.96-.96a.418.418,0,0,0,.077-.486l-.912-1.8a6.847,6.847,0,0,0,.752-1.806l1.911-.625a.419.419,0,0,0,.29-.4v-1.358A.417.417,0,0,0,601.465,1099.352Zm-8.582,5a3.926,3.926,0,1,1,3.927-3.927A3.931,3.931,0,0,1,592.883,1104.355Z" transform="translate(-584.013 -1091.558)" fill="#7c60ea"/>
          </g>
          <g id="Grupo_1114937" data-name="Grupo 1114937">
            <path id="Trazado_926899" data-name="Trazado 926899" d="M592.421,1091.453l-1.912-.626a6.846,6.846,0,0,0-.752-1.807l.912-1.8a.421.421,0,0,0-.077-.487l-.96-.959a.418.418,0,0,0-.486-.077l-.707.359-1.091.552a6.875,6.875,0,0,0-1.806-.751l-.625-1.911a.419.419,0,0,0-.4-.29h-1.358a.348.348,0,0,0-.057,0,.416.416,0,0,0-.341.285l-.625,1.912a6.875,6.875,0,0,0-1.807.751l-.744-.377-1.052-.534a.422.422,0,0,0-.487.077l-.281.28-.679.68a.416.416,0,0,0-.077.486l.912,1.8a6.809,6.809,0,0,0-.751,1.807l-1.912.625a.419.419,0,0,0-.29.4v1.358a.417.417,0,0,0,.29.4l1.912.626a6.844,6.844,0,0,0,.752,1.806l-.912,1.8a.417.417,0,0,0,.077.487l.679.678.281.281a.419.419,0,0,0,.486.077l1.053-.534.744-.377a6.857,6.857,0,0,0,1.807.751l.624,1.912a.417.417,0,0,0,.34.285.362.362,0,0,0,.058,0h1.358a.418.418,0,0,0,.4-.288l.626-1.913a6.87,6.87,0,0,0,1.806-.751l1.091.554.706.358a.42.42,0,0,0,.487-.077l.96-.96a.419.419,0,0,0,.077-.486l-.912-1.8a6.838,6.838,0,0,0,.752-1.806l1.911-.626a.419.419,0,0,0,.29-.4v-1.357A.416.416,0,0,0,592.421,1091.453Zm-8.582,5a3.926,3.926,0,1,1,3.927-3.927A3.931,3.931,0,0,1,583.839,1096.455Z" transform="translate(-574.969 -1083.659)" fill="#fff"/>
          </g>
          <g id="Grupo_1114938" data-name="Grupo 1114938">
            <path id="Trazado_926900" data-name="Trazado 926900" d="M592.421,1091.453l-1.912-.626a6.846,6.846,0,0,0-.752-1.807l.912-1.8a.421.421,0,0,0-.077-.487l-.96-.959a.418.418,0,0,0-.486-.077l-.707.359-1.091.552a6.875,6.875,0,0,0-1.806-.751l-.625-1.911a.419.419,0,0,0-.4-.29h-1.358a.348.348,0,0,0-.057,0,.416.416,0,0,0-.341.285l-.625,1.912a6.875,6.875,0,0,0-1.807.751l-.744-.377-1.052-.534a.422.422,0,0,0-.487.077l-.281.28-.679.68a.416.416,0,0,0-.077.486l.912,1.8a6.809,6.809,0,0,0-.751,1.807l-1.912.625a.419.419,0,0,0-.29.4v1.358a.417.417,0,0,0,.29.4l1.912.626a6.844,6.844,0,0,0,.752,1.806l-.912,1.8a.417.417,0,0,0,.077.487l.679.678.281.281a.419.419,0,0,0,.486.077l1.053-.534.744-.377a6.857,6.857,0,0,0,1.807.751l.624,1.912a.417.417,0,0,0,.34.285.362.362,0,0,0,.058,0h1.358a.418.418,0,0,0,.4-.288l.626-1.913a6.87,6.87,0,0,0,1.806-.751l1.091.554.706.358a.42.42,0,0,0,.487-.077l.96-.96a.419.419,0,0,0,.077-.486l-.912-1.8a6.838,6.838,0,0,0,.752-1.806l1.911-.626a.419.419,0,0,0,.29-.4v-1.357A.416.416,0,0,0,592.421,1091.453Zm-8.582,5a3.926,3.926,0,1,1,3.927-3.927A3.931,3.931,0,0,1,583.839,1096.455Z" transform="translate(-574.969 -1083.659)" fill="none" stroke="#000" stroke-linecap="round" stroke-miterlimit="10" stroke-width="1"/>
          </g>
        </g>
      </g>
    </g>
  </g>
</svg>
