<svg xmlns="http://www.w3.org/2000/svg" xmlns:xlink="http://www.w3.org/1999/xlink" width="233" height="201.12" viewBox="0 0 233 201.12">
  <defs>
    <clipPath id="clip-path">
      <rect id="Rectángulo_412973" data-name="Rectángulo 412973" width="206.358" height="201.12" transform="translate(0 0)" fill="none"/>
    </clipPath>
  </defs>
  <g id="Grupo_1116037" data-name="Grupo 1116037" transform="translate(-337.684 -417.123)">
    <g id="Grupo_1116020" data-name="Grupo 1116020" transform="translate(11430.8 12430)">
      <circle id="Elipse_11682" data-name="Elipse 11682" cx="2" cy="2" r="2" transform="translate(-11064.116 -12007)" fill="#523dbf"/>
      <circle id="Elipse_11683" data-name="Elipse 11683" cx="2" cy="2" r="2" transform="translate(-11064.116 -11998)" fill="#523dbf"/>
      <circle id="Elipse_11684" data-name="Elipse 11684" cx="2" cy="2" r="2" transform="translate(-11064.116 -11980)" fill="#523dbf"/>
      <circle id="Elipse_11685" data-name="Elipse 11685" cx="2" cy="2" r="2" transform="translate(-11044.116 -12007)" fill="#523dbf"/>
      <circle id="Elipse_11686" data-name="Elipse 11686" cx="2" cy="2" r="2" transform="translate(-11044.116 -11998)" fill="#523dbf"/>
      <circle id="Elipse_11687" data-name="Elipse 11687" cx="2" cy="2" r="2" transform="translate(-11044.116 -11980)" fill="#523dbf"/>
      <circle id="Elipse_11688" data-name="Elipse 11688" cx="2" cy="2" r="2" transform="translate(-11044.116 -11971)" fill="#523dbf"/>
      <circle id="Elipse_11689" data-name="Elipse 11689" cx="2" cy="2" r="2" transform="translate(-11044.116 -11989)" fill="#523dbf"/>
      <circle id="Elipse_11690" data-name="Elipse 11690" cx="2" cy="2" r="2" transform="translate(-11054.116 -12007)" fill="#523dbf"/>
      <circle id="Elipse_11691" data-name="Elipse 11691" cx="2" cy="2" r="2" transform="translate(-11054.116 -11998)" fill="#523dbf"/>
      <circle id="Elipse_11692" data-name="Elipse 11692" cx="2" cy="2" r="2" transform="translate(-11054.116 -11980)" fill="#523dbf"/>
      <circle id="Elipse_11693" data-name="Elipse 11693" cx="2" cy="2" r="2" transform="translate(-11054.116 -11971)" fill="#523dbf"/>
      <circle id="Elipse_11694" data-name="Elipse 11694" cx="2" cy="2" r="2" transform="translate(-11054.116 -11989)" fill="#523dbf"/>
      <circle id="Elipse_11695" data-name="Elipse 11695" cx="2" cy="2" r="2" transform="translate(-11035.116 -12007)" fill="#523dbf"/>
      <circle id="Elipse_11696" data-name="Elipse 11696" cx="2" cy="2" r="2" transform="translate(-11035.116 -11998)" fill="#523dbf"/>
      <circle id="Elipse_11697" data-name="Elipse 11697" cx="2" cy="2" r="2" transform="translate(-11035.116 -11980)" fill="#523dbf"/>
      <circle id="Elipse_11698" data-name="Elipse 11698" cx="2" cy="2" r="2" transform="translate(-11035.116 -11971)" fill="#523dbf"/>
      <circle id="Elipse_11699" data-name="Elipse 11699" cx="2" cy="2" r="2" transform="translate(-11035.116 -11989)" fill="#523dbf"/>
      <circle id="Elipse_11700" data-name="Elipse 11700" cx="2" cy="2" r="2" transform="translate(-11025.116 -12007)" fill="#523dbf"/>
      <circle id="Elipse_11701" data-name="Elipse 11701" cx="2" cy="2" r="2" transform="translate(-11025.116 -11989)" fill="#523dbf"/>
      <circle id="Elipse_11702" data-name="Elipse 11702" cx="2" cy="2" r="2" transform="translate(-11025.116 -11971)" fill="#523dbf"/>
      <circle id="Elipse_11703" data-name="Elipse 11703" cx="2" cy="2" r="2" transform="translate(-11074.116 -11998)" fill="#523dbf"/>
      <circle id="Elipse_11704" data-name="Elipse 11704" cx="2" cy="2" r="2" transform="translate(-11074.116 -11980)" fill="#523dbf"/>
      <circle id="Elipse_11705" data-name="Elipse 11705" cx="2" cy="2" r="2" transform="translate(-11083.116 -11998)" fill="#523dbf"/>
      <circle id="Elipse_11706" data-name="Elipse 11706" cx="2" cy="2" r="2" transform="translate(-11083.116 -11980)" fill="#523dbf"/>
      <circle id="Elipse_11707" data-name="Elipse 11707" cx="2" cy="2" r="2" transform="translate(-11093.116 -11980)" fill="#523dbf"/>
    </g>
    <g id="Grupo_1116035" data-name="Grupo 1116035" transform="translate(11591.8 12560)">
      <circle id="Elipse_11682-2" data-name="Elipse 11682" cx="2" cy="2" r="2" transform="translate(-11064.116 -12007)" fill="#523dbf"/>
      <circle id="Elipse_11683-2" data-name="Elipse 11683" cx="2" cy="2" r="2" transform="translate(-11064.116 -11998)" fill="#523dbf"/>
      <circle id="Elipse_11684-2" data-name="Elipse 11684" cx="2" cy="2" r="2" transform="translate(-11064.116 -11980)" fill="#523dbf"/>
      <circle id="Elipse_11685-2" data-name="Elipse 11685" cx="2" cy="2" r="2" transform="translate(-11044.116 -12007)" fill="#523dbf"/>
      <circle id="Elipse_11686-2" data-name="Elipse 11686" cx="2" cy="2" r="2" transform="translate(-11044.116 -11998)" fill="#523dbf"/>
      <circle id="Elipse_11687-2" data-name="Elipse 11687" cx="2" cy="2" r="2" transform="translate(-11044.116 -11980)" fill="#523dbf"/>
      <circle id="Elipse_11688-2" data-name="Elipse 11688" cx="2" cy="2" r="2" transform="translate(-11044.116 -11971)" fill="#523dbf"/>
      <circle id="Elipse_11689-2" data-name="Elipse 11689" cx="2" cy="2" r="2" transform="translate(-11044.116 -11989)" fill="#523dbf"/>
      <circle id="Elipse_11690-2" data-name="Elipse 11690" cx="2" cy="2" r="2" transform="translate(-11054.116 -12007)" fill="#523dbf"/>
      <circle id="Elipse_11691-2" data-name="Elipse 11691" cx="2" cy="2" r="2" transform="translate(-11054.116 -11998)" fill="#523dbf"/>
      <circle id="Elipse_11692-2" data-name="Elipse 11692" cx="2" cy="2" r="2" transform="translate(-11054.116 -11980)" fill="#523dbf"/>
      <circle id="Elipse_11693-2" data-name="Elipse 11693" cx="2" cy="2" r="2" transform="translate(-11054.116 -11971)" fill="#523dbf"/>
      <circle id="Elipse_11694-2" data-name="Elipse 11694" cx="2" cy="2" r="2" transform="translate(-11054.116 -11989)" fill="#523dbf"/>
      <circle id="Elipse_11695-2" data-name="Elipse 11695" cx="2" cy="2" r="2" transform="translate(-11035.116 -12007)" fill="#523dbf"/>
      <circle id="Elipse_11696-2" data-name="Elipse 11696" cx="2" cy="2" r="2" transform="translate(-11035.116 -11998)" fill="#523dbf"/>
      <circle id="Elipse_11697-2" data-name="Elipse 11697" cx="2" cy="2" r="2" transform="translate(-11035.116 -11980)" fill="#523dbf"/>
      <circle id="Elipse_11698-2" data-name="Elipse 11698" cx="2" cy="2" r="2" transform="translate(-11035.116 -11971)" fill="#523dbf"/>
      <circle id="Elipse_11699-2" data-name="Elipse 11699" cx="2" cy="2" r="2" transform="translate(-11035.116 -11989)" fill="#523dbf"/>
      <circle id="Elipse_11700-2" data-name="Elipse 11700" cx="2" cy="2" r="2" transform="translate(-11025.116 -12007)" fill="#523dbf"/>
      <circle id="Elipse_11701-2" data-name="Elipse 11701" cx="2" cy="2" r="2" transform="translate(-11025.116 -11989)" fill="#523dbf"/>
      <circle id="Elipse_11702-2" data-name="Elipse 11702" cx="2" cy="2" r="2" transform="translate(-11025.116 -11971)" fill="#523dbf"/>
      <circle id="Elipse_11703-2" data-name="Elipse 11703" cx="2" cy="2" r="2" transform="translate(-11074.116 -11998)" fill="#523dbf"/>
      <circle id="Elipse_11704-2" data-name="Elipse 11704" cx="2" cy="2" r="2" transform="translate(-11074.116 -11980)" fill="#523dbf"/>
      <circle id="Elipse_11705-2" data-name="Elipse 11705" cx="2" cy="2" r="2" transform="translate(-11083.116 -11998)" fill="#523dbf"/>
      <circle id="Elipse_11706-2" data-name="Elipse 11706" cx="2" cy="2" r="2" transform="translate(-11083.116 -11980)" fill="#523dbf"/>
      <circle id="Elipse_11707-2" data-name="Elipse 11707" cx="2" cy="2" r="2" transform="translate(-11093.116 -11980)" fill="#523dbf"/>
    </g>
    <g id="Grupo_1116036" data-name="Grupo 1116036" transform="translate(350.642 417.121)">
      <g id="Grupo_1115077" data-name="Grupo 1115077" transform="translate(0 0.002)" clip-path="url(#clip-path)">
        <path id="Trazado_926949" data-name="Trazado 926949" d="M718.513,130.247h-85.8c-2.224,0-8.884-9.9-8.884-12.121V13.806c0-2.225,6.659-12.121,8.884-12.121h79.327c2.225,0,10.5,9.9,10.5,12.121v104.32c0,2.225-8.278,12.121-10.5,12.121" transform="translate(-551.305 -1.699)" fill="#fff"/>
        <path id="Trazado_926950" data-name="Trazado 926950" d="M707.206,128.537H635.861a13.735,13.735,0,0,1-13.719-13.719V13.721A13.735,13.735,0,0,1,635.861,0h71.345a13.734,13.734,0,0,1,13.719,13.719v101.1a13.734,13.734,0,0,1-13.719,13.719M635.861.394a13.342,13.342,0,0,0-13.327,13.326v101.1a13.342,13.342,0,0,0,13.327,13.326h71.345a13.342,13.342,0,0,0,13.327-13.326V13.721A13.342,13.342,0,0,0,707.206.394Z" transform="translate(-549.655 -0.002)"/>
        <path id="Trazado_926951" data-name="Trazado 926951" d="M776.131,696.1H703.118a4.416,4.416,0,0,1-4.416-4.416V657.95a4.416,4.416,0,0,1,4.416-4.416h73.013a4.416,4.416,0,0,1,4.416,4.416v33.729a4.416,4.416,0,0,1-4.416,4.416" transform="translate(-617.294 -577.389)" fill="#ffdac7"/>
        <rect id="Rectángulo_412955" data-name="Rectángulo 412955" width="24.54" height="7.912" transform="translate(88.708 30.479)" fill="#c5cde3"/>
        <rect id="Rectángulo_412956" data-name="Rectángulo 412956" width="33.997" height="2.209" transform="translate(79.251 43.395)" fill="#e5e8ff"/>
        <rect id="Rectángulo_412957" data-name="Rectángulo 412957" width="33.997" height="2.209" transform="translate(79.251 49.027)" fill="#e5e8ff"/>
        <rect id="Rectángulo_412958" data-name="Rectángulo 412958" width="33.997" height="2.209" transform="translate(79.251 54.66)" fill="#e5e8ff"/>
        <rect id="Rectángulo_412959" data-name="Rectángulo 412959" width="4.676" height="2.209" transform="translate(99.677 60.293)" fill="#e5e8ff"/>
        <rect id="Rectángulo_412960" data-name="Rectángulo 412960" width="5.836" height="2.209" transform="translate(107.412 60.293)" fill="#e5e8ff"/>
        <path id="Trazado_926952" data-name="Trazado 926952" d="M692.855,62.423a2.454,2.454,0,1,1-2.454-2.454,2.454,2.454,0,0,1,2.454,2.454" transform="translate(-607.792 -52.982)" fill="#ff4148"/>
        <path id="Trazado_926953" data-name="Trazado 926953" d="M754.773,62.423a2.454,2.454,0,1,1-2.454-2.454,2.454,2.454,0,0,1,2.454,2.454" transform="translate(-662.496 -52.982)" fill="#ffb902"/>
        <path id="Trazado_926954" data-name="Trazado 926954" d="M816.69,62.423a2.454,2.454,0,1,1-2.454-2.454,2.454,2.454,0,0,1,2.454,2.454" transform="translate(-717.199 -52.982)" fill="#04b5a4"/>
        <path id="Trazado_926955" data-name="Trazado 926955" d="M1120.1,205.86l-7.161-9.347a22.872,22.872,0,0,1,12.847-3.921,5.578,5.578,0,0,1,.606.022l-1.032,11.718a11.11,11.11,0,0,0-5.26,1.528" transform="translate(-983.265 -170.153)" fill="#007afd"/>
        <path id="Trazado_926956" data-name="Trazado 926956" d="M1118.608,204.569a.2.2,0,0,1-.156-.077l-7.161-9.347a.2.2,0,0,1,.046-.282,23.077,23.077,0,0,1,12.956-3.954,5.76,5.76,0,0,1,.627.023.2.2,0,0,1,.174.212l-1.031,11.718a.2.2,0,0,1-.189.179,10.852,10.852,0,0,0-5.167,1.5.2.2,0,0,1-.1.027m-6.878-9.5,6.929,9.045a11.236,11.236,0,0,1,5.029-1.461l1-11.349c-.13-.006-.263-.006-.393-.006a22.688,22.688,0,0,0-12.563,3.771" transform="translate(-981.776 -168.666)" fill="#242b2b"/>
        <path id="Trazado_926957" data-name="Trazado 926957" d="M1037.964,257.051h-11.775a22.884,22.884,0,0,1,7.859-15.924l7.161,9.339a11.245,11.245,0,0,0-3.244,6.586" transform="translate(-906.625 -213.033)" fill="#ffd24f"/>
        <path id="Trazado_926958" data-name="Trazado 926958" d="M1036.478,255.755H1024.7a.2.2,0,0,1-.2-.208,22.939,22.939,0,0,1,7.926-16.061.189.189,0,0,1,.148-.047.2.2,0,0,1,.136.076l7.161,9.339a.2.2,0,0,1-.018.259,11.11,11.11,0,0,0-3.188,6.471.2.2,0,0,1-.194.172m-11.566-.392h11.394a11.51,11.51,0,0,1,3.156-6.406l-6.929-9.036a22.54,22.54,0,0,0-7.621,15.443" transform="translate(-905.139 -211.541)" fill="#242b2b"/>
        <path id="Trazado_926959" data-name="Trazado 926959" d="M1072.145,217.558a23,23,0,0,1-45.956,1.422h11.775a11.272,11.272,0,1,0,13.58-12.438l1.032-11.727a23,23,0,0,1,19.568,22.743" transform="translate(-906.625 -172.117)" fill="#ff4148"/>
        <path id="Trazado_926960" data-name="Trazado 926960" d="M1047.656,239.267a23.21,23.21,0,0,1-23.15-21.764.2.2,0,0,1,.2-.208h11.775a.2.2,0,0,1,.195.172,11.076,11.076,0,1,0,13.343-12.223.2.2,0,0,1-.154-.209l1.032-11.727a.2.2,0,0,1,.074-.137.192.192,0,0,1,.151-.04,23.2,23.2,0,0,1-3.463,46.135m-22.744-21.58a22.8,22.8,0,1,0,26.355-24.135l-1,11.347a11.47,11.47,0,1,1-13.962,12.788Z" transform="translate(-905.138 -170.628)" fill="#242b2b"/>
        <path id="Trazado_926961" data-name="Trazado 926961" d="M1057.748,133.583l-3.248-11.364h-13.274v-.392h13.422a.2.2,0,0,1,.188.142l3.288,11.506Z" transform="translate(-919.911 -107.633)" fill="#242b2b"/>
        <rect id="Rectángulo_412961" data-name="Rectángulo 412961" width="6.375" height="1.305" transform="translate(121.316 15.833)" fill="#242b2b"/>
        <rect id="Rectángulo_412962" data-name="Rectángulo 412962" width="2.248" height="1.305" transform="translate(121.316 18.084)" fill="#242b2b"/>
        <path id="Trazado_926962" data-name="Trazado 926962" d="M1269.522,533.772H1256.1a.2.2,0,0,1-.184-.128l-3.288-8.914.368-.136,3.241,8.786h13.285Z" transform="translate(-1106.681 -463.472)" fill="#242b2b"/>
        <rect id="Rectángulo_412963" data-name="Rectángulo 412963" width="6.375" height="1.305" transform="translate(156.466 67.355)" fill="#242b2b"/>
        <rect id="Rectángulo_412964" data-name="Rectángulo 412964" width="2.248" height="1.305" transform="translate(160.593 65.105)" fill="#242b2b"/>
        <path id="Trazado_926963" data-name="Trazado 926963" d="M1138.657,764.22h20.679a1.293,1.293,0,0,0,1.293-1.293V742.248a1.293,1.293,0,0,0-1.293-1.292h-20.679a1.292,1.292,0,0,0-1.292,1.292v20.679a1.292,1.292,0,0,0,1.292,1.293" transform="translate(-1004.847 -654.625)" fill="#fff"/>
        <path id="Trazado_926964" data-name="Trazado 926964" d="M1154.788,762.928H1140.23a4.555,4.555,0,0,1-4.55-4.55V743.82a4.555,4.555,0,0,1,4.55-4.549h14.558a4.555,4.555,0,0,1,4.549,4.549v14.558a4.555,4.555,0,0,1-4.549,4.55m-14.558-23.265a4.161,4.161,0,0,0-4.157,4.157v14.558a4.162,4.162,0,0,0,4.157,4.157h14.558a4.162,4.162,0,0,0,4.157-4.157V743.82a4.161,4.161,0,0,0-4.157-4.157Z" transform="translate(-1003.36 -653.137)"/>
        <path id="Trazado_926965" data-name="Trazado 926965" d="M1208.729,774.982a3.317,3.317,0,1,0,3.317-3.317,3.317,3.317,0,0,0-3.317,3.317" transform="translate(-1067.897 -681.757)" fill="#007afd"/>
        <path id="Trazado_926966" data-name="Trazado 926966" d="M1175.756,849.641a7.162,7.162,0,0,1,14.318,0Z" transform="translate(-1038.766 -744.506)" fill="#007afd"/>
        <rect id="Rectángulo_412965" data-name="Rectángulo 412965" width="22.084" height="7.156" transform="translate(106.211 86.33)" fill="#fff"/>
        <rect id="Rectángulo_412966" data-name="Rectángulo 412966" width="42.557" height="2.654" transform="translate(85.738 96.377)" fill="#fff"/>
        <rect id="Rectángulo_412967" data-name="Rectángulo 412967" width="42.557" height="2.654" transform="translate(85.738 100.99)" fill="#fff"/>
        <rect id="Rectángulo_412968" data-name="Rectángulo 412968" width="17.945" height="2.654" transform="translate(110.35 105.603)" fill="#fff"/>
        <path id="Trazado_926967" data-name="Trazado 926967" d="M391.885,435.166c-.089,1.279-5.28,5.847-6.049,6.35-.56.361-1.134.734-1.414.918,0,0-7.223,14.09-13.226,14.522-8.427.613-24.115-7.353-24.115-7.353l6.783-11.457,16.184,7.995,9.881-10.132,0,0c.354-1.148,1.8-5.571,3.012-5.879,1.074-.273,1.134,3.009,1.134,3.009s7.389-7.524,8.3-6.616c.9.889-3.345,4.635-3.473,4.749.071-.028,1.141-.51,1.481.252a1.006,1.006,0,0,1-.34,1.226,1.088,1.088,0,0,1,1.237.131c.5.532-.209,1.343-.209,1.343a.823.823,0,0,1,.808.939" transform="translate(-306.641 -376.764)" fill="#ffcfc5"/>
        <path id="Trazado_926968" data-name="Trazado 926968" d="M682.309,481.1H682.3a.454.454,0,0,1-.352-.164.981.981,0,0,1-.214-.751c.113-1.071,1.671-2.328,1.737-2.381l.245.307c-.416.333-1.513,1.362-1.592,2.116a.6.6,0,0,0,.127.462c.005.006.016.019.058.02h.007c.581,0,2.317-1.681,3.278-2.746l.291.263c-.435.482-2.643,2.875-3.573,2.875" transform="translate(-602.294 -422.132)" fill="#ffb29f"/>
        <path id="Trazado_926969" data-name="Trazado 926969" d="M690.669,494.207h-.022a.681.681,0,0,1-.558-.3c-.516-.745.425-1.874.466-1.922l.3.253c-.221.262-.729,1.031-.443,1.445a.287.287,0,0,0,.246.135h.015c.818,0,2.516-1.943,3.1-2.7l.309.241c-.229.293-2.257,2.846-3.417,2.846" transform="translate(-609.549 -433.898)" fill="#ffb29f"/>
        <path id="Trazado_926970" data-name="Trazado 926970" d="M694.862,514a.811.811,0,0,1-.129-.009.586.586,0,0,1-.407-.248.918.918,0,0,1-.152-.714,1.9,1.9,0,0,1,.762-1.014l.218.326a1.529,1.529,0,0,0-.6.764.532.532,0,0,0,.092.417.188.188,0,0,0,.143.08c.533.085,1.84-.76,2.542-1.311l.242.309c-.19.149-1.81,1.4-2.716,1.4" transform="translate(-613.278 -452.358)" fill="#ffb29f"/>
        <path id="Trazado_926971" data-name="Trazado 926971" d="M653.893,487.332l-.189-.344c1.546-.846,1.083-3.327,1.078-3.352l.385-.075c.022.113.523,2.787-1.275,3.771" transform="translate(-577.539 -427.22)" fill="#ffb29f"/>
        <path id="Trazado_926972" data-name="Trazado 926972" d="M330.978,521.736a.5.5,0,0,1-.478.083l-4.7-1.828-9.581-3.732,3.591-15.05a35.122,35.122,0,0,1,7.988,2.78c4.01,2.005,7.286,3.261,7.286,3.261,1.672.735-2.085,13.15-4.108,14.485" transform="translate(-279.377 -442.813)" fill="#014eb1"/>
        <path id="Trazado_926973" data-name="Trazado 926973" d="M401.9,569.272a.5.5,0,0,1-.478.083l-4.7-1.828-.228-12.513s1.781,10.356,5.4,14.257" transform="translate(-350.297 -490.349)"/>
        <path id="Trazado_926974" data-name="Trazado 926974" d="M401.88,1624.553l-11.688-6.317-3.155-2.786-12.732,1.917.01,9.983a.828.828,0,0,0,.808,1H402.38a.829.829,0,0,0,.829-.829v-.989a2.128,2.128,0,0,0-1.329-1.978" transform="translate(-330.687 -1427.23)"/>
        <path id="Trazado_926975" data-name="Trazado 926975" d="M386.294,1532.847l-.073-9.24-12.765-1.654.106,12.81c5.167,2.178,9.836,1.428,12.732-1.917" transform="translate(-329.944 -1344.627)" fill="#ffcfc5"/>
        <path id="Trazado_926976" data-name="Trazado 926976" d="M513.968,1656.851l-.346-.185a3.637,3.637,0,0,1,2.7-1.92l.036.391a3.243,3.243,0,0,0-2.393,1.714" transform="translate(-453.779 -1461.947)" fill="#fff"/>
        <path id="Trazado_926977" data-name="Trazado 926977" d="M535.836,1669.046l-.346-.186a3.638,3.638,0,0,1,2.7-1.919l.036.391a3.242,3.242,0,0,0-2.394,1.714" transform="translate(-473.099 -1472.722)" fill="#fff"/>
        <path id="Trazado_926978" data-name="Trazado 926978" d="M6.636,1267.039l5.033-12.3,2.434-3.435-3.265-12.455-9.926,1.075a.828.828,0,0,0-.908.91l2.91,27.1a.829.829,0,0,0,.913.736l.983-.105a2.128,2.128,0,0,0,1.825-1.533" transform="translate(0 -1094.511)"/>
        <path id="Trazado_926979" data-name="Trazado 926979" d="M91.021,1240.142l9.179-1.059.282-12.869-12.726,1.472c-1.614,5.37-.37,9.932,3.265,12.455" transform="translate(-76.918 -1083.346)" fill="#ffcfc5"/>
        <path id="Trazado_926980" data-name="Trazado 926980" d="M69.491,1384.073a3.242,3.242,0,0,0-1.96-2.2l.147-.364a3.638,3.638,0,0,1,2.2,2.483Z" transform="translate(-59.663 -1220.549)" fill="#fff"/>
        <path id="Trazado_926981" data-name="Trazado 926981" d="M59.7,1407.122a3.241,3.241,0,0,0-1.96-2.2l.147-.364a3.638,3.638,0,0,1,2.2,2.483Z" transform="translate(-51.013 -1240.912)" fill="#fff"/>
        <path id="Trazado_926982" data-name="Trazado 926982" d="M193.122,849.513c-2.139,6.078-26.5,11.136-39.19,13.376l-.008,0c-2.815.494-5.051.853-6.344,1.054-.788.123-1.224.185-1.224.185l-.726-2.68L144.155,856l-2.228-8.225,32.7-5.808-14.824-35.915,12.717-5.9s23.5,41.1,20.6,49.359" transform="translate(-125.391 -706.926)" fill="#242b2b"/>
        <path id="Trazado_926983" data-name="Trazado 926983" d="M170.8,1262.024l-.008,0c-2.815.494-5.051.853-6.344,1.054l-1.95-2.494-1.413-1.807s-.085-1.861-.062-3.641c.031-2.352.243-4.568,1.081-2.2,1.471,4.17,8.7,9.082,8.7,9.082" transform="translate(-142.255 -1106.061)"/>
        <path id="Trazado_926984" data-name="Trazado 926984" d="M205.513,944.114c-2.031-.058-4.074.016-6.109.085-3.491.116-8.742.595-12.059-1.378l-2.958-40.433s-16.132-25.348-17.72-30.3c-3.074-9.59,0-10.766,0-10.766l20.971,1.529s10.75,26.285,12.99,35.456c1.857,7.6,3.491,26.717,4.317,37.726.239,3.2.413,5.711.5,7.059.035.541.058.892.066,1.027" transform="translate(-146.041 -760.963)" fill="#242b2b"/>
        <path id="Trazado_926985" data-name="Trazado 926985" d="M415.9,1509.573c-3.193-.417-17.554-2.352-10.437-2.525,7.982-.2,9.932-4.537,9.932-4.537l0,0c.239,3.2.413,5.711.5,7.059" transform="translate(-356.49 -1327.449)"/>
        <path id="Trazado_926986" data-name="Trazado 926986" d="M400.737,996.714a104.845,104.845,0,0,0-1.772-10.825c-1.321-5.406-5.6-16.765-8.957-25.341l.366-.143c3.361,8.588,7.647,19.964,8.973,25.392a105.077,105.077,0,0,1,1.781,10.869Z" transform="translate(-344.567 -848.505)" fill="#fff"/>
        <path id="Trazado_926987" data-name="Trazado 926987" d="M137.854,532.25c.007,5.762-29.7,10.945-31.3,10.478,0,0-1.835.112-3.051-2.465s1.252-4.8,1.252-4.8-.127-.438-.344-1.22c-.547-1.994-10.032-25.392-5.723-33.04,1.1-1.957,6.46-4.214,7.551-4.7,7.64-3.387,20.3-2.414,23.87-.387,3.482,1.973,4.4,23.882,4.59,30.292.036,1.107.047,1.752.047,1.752s3.1.127,3.106,4.083" transform="translate(-86.203 -436.692)" fill="#014eb1"/>
        <path id="Trazado_926988" data-name="Trazado 926988" d="M161.233,605.769s3.473,7.548,4.363,10.577a37.528,37.528,0,0,1,1.069,7.394l21.793,3.146H160.7Z" transform="translate(-141.974 -535.19)"/>
        <path id="Trazado_926989" data-name="Trazado 926989" d="M328.032,1535.5a45.4,45.4,0,0,0,19.316.793,2.313,2.313,0,1,0,.19-4.622c-5.812,1.128-12.387.561-19.316-.792a2.312,2.312,0,1,0-.189,4.621" transform="translate(-287.852 -1352.512)" fill="#242b2b"/>
        <path id="Trazado_926990" data-name="Trazado 926990" d="M120,1183.74a45.41,45.41,0,0,0,5.8,18.444,2.313,2.313,0,0,0,4.413-1.387c-3.029-5.086-4.722-11.465-5.8-18.443A2.313,2.313,0,1,0,120,1183.74" transform="translate(-105.92 -1043.164)" fill="#242b2b"/>
        <path id="Trazado_926991" data-name="Trazado 926991" d="M355.151,770.082c.036,1.108.047,1.752.047,1.752s-1.9,1.759-8.1,2.7a19.482,19.482,0,0,0,8.058-4.453" transform="translate(-306.652 -680.358)"/>
        <path id="Trazado_926992" data-name="Trazado 926992" d="M161.331,837.524a10.723,10.723,0,0,1-4.691,1s-.127-.438-.344-1.22a41.638,41.638,0,0,0,5.035.217" transform="translate(-138.086 -739.75)"/>
        <path id="Trazado_926993" data-name="Trazado 926993" d="M275.437,298.88s.125,5.085-3.087,6.142a3.425,3.425,0,0,1-4.38-2.016l1.177-4.01,2.954-.273" transform="translate(-236.748 -263.919)"/>
        <path id="Trazado_926994" data-name="Trazado 926994" d="M187.4,409.069l2.311,3.867,5.642.073,3.142.422-1.333-4.778-.033-1.214-.083-3.211-9.991-5.211c.073.415.137.829.192,1.235a37,37,0,0,1,.152,8.816" transform="translate(-165.262 -352.528)" fill="#ffcfc5"/>
        <path id="Trazado_926995" data-name="Trazado 926995" d="M187.057,399.017c.073.415.137.829.192,1.235.061,0,.119.006.177,0a3.6,3.6,0,0,1,.3.841c1.657,4.188,6.1,6.586,9.4,6.34l-.082-3.211Z" transform="translate(-165.262 -352.527)" fill="#fc9b88"/>
        <path id="Trazado_926996" data-name="Trazado 926996" d="M174.085,485.291c1.171,2.189,4.916,3.152,7.953,3.939,0,0-.4,5.287-1.292,5.351-.818.059-8.488-1.95-8.76-6.012,1.094-.945,1.3-2.007,2.1-3.277" transform="translate(-151.947 -428.749)" fill="#00448e"/>
        <path id="Trazado_926997" data-name="Trazado 926997" d="M258.27,486.072s2.041,3.8,3.23,4.023c1.354.251,2.05-3.545,1.678-5.486l-3.1-2.893c.37,1.328.953,2.483-1.809,4.356" transform="translate(-228.178 -425.59)" fill="#00448e"/>
        <path id="Trazado_926998" data-name="Trazado 926998" d="M168.345,298.828c-3.324.457-8.041-1.962-9.762-6.306a3.477,3.477,0,0,0-.3-.841,3.265,3.265,0,0,1-2.364-1.156c-1.084-1.2-1.243-2.836-.343-3.639a1.994,1.994,0,0,1,1.988-.324c.106-4.723,2.379-8.535,5.715-9.074,2.227-.36,4.458.807,6.172,2.94.207.256.408.527.6.812a14.905,14.905,0,0,1,2.268,5.959c.977,6-.476,11.146-3.97,11.629" transform="translate(-136.932 -245.101)" fill="#ffcfc5"/>
        <path id="Trazado_926999" data-name="Trazado 926999" d="M116.315,239.731a5.086,5.086,0,0,0,3.3,2.413c1.457.362,2.775,1.1,4.14.471l-.172-.23a17.852,17.852,0,0,0-.744-3.12,3.316,3.316,0,0,0-.3-.84,3.273,3.273,0,0,1-2.364-1.154c-1.082-1.206-1.24-2.839-.343-3.642a1.987,1.987,0,0,1,1.985-.323s1.7.708,1.725,2.191l1.148.324.386-2.717s1.772-1.447.818-2.892c0,0,14.164,2.975,14-3.144s-6.39-3.736-6.39-3.736a11.563,11.563,0,0,0,.823-2.047c.658-2.238.662-5.309-5.146-3.688a12.613,12.613,0,0,0-9.11,9.8,2.966,2.966,0,0,0-2.579.826,2.438,2.438,0,0,0-.029,3.191,1.545,1.545,0,0,0-2.044-.109,2.547,2.547,0,0,0-.879,1.993,3.9,3.9,0,0,0,1.961,3.4c-.989,1-.831,1.79-.184,3.032" transform="translate(-101.192 -191.845)"/>
        <path id="Trazado_927000" data-name="Trazado 927000" d="M277.569,370.5l1.3,3.671-1.841.392Z" transform="translate(-244.747 -327.335)" fill="#fc9b88"/>
        <path id="Trazado_927001" data-name="Trazado 927001" d="M409.569,759.885l0,0-25.286,1.4a2.288,2.288,0,0,1-.432-4.551l13.683-1.838,14-1.879Z" transform="translate(-337.381 -665.283)" fill="#fff"/>
        <path id="Trazado_927002" data-name="Trazado 927002" d="M382.667,760a2.482,2.482,0,0,1-2.472-2.347,2.486,2.486,0,0,1,2.146-2.6l27.681-3.717a.194.194,0,0,1,.174.066.2.2,0,0,1,.04.183l-1.955,6.827a.193.193,0,0,1-.014.063.2.2,0,0,1-.171.121l-25.286,1.4c-.048,0-.1,0-.143,0m27.109-8.235-27.383,3.677a2.113,2.113,0,0,0-1.334.745,2.091,2.091,0,0,0,1.729,3.417l25.142-1.391Z" transform="translate(-335.894 -663.794)"/>
        <path id="Trazado_927003" data-name="Trazado 927003" d="M534.834,752.466l-1.966,6.865-12.611.7.58-5.686Z" transform="translate(-459.641 -664.794)"/>
        <path id="Trazado_927004" data-name="Trazado 927004" d="M566.28,575.343l-32.2,1.785,2.782-27.213a3.071,3.071,0,0,1,2.885-2.754l29.241-1.621a3.071,3.071,0,0,1,3.225,3.379l-2.352,23.006a3.811,3.811,0,0,1-3.58,3.418" transform="translate(-471.852 -481.974)" fill="#fff"/>
        <path id="Trazado_927005" data-name="Trazado 927005" d="M532.592,575.838a.2.2,0,0,1-.2-.216l2.781-27.213a3.252,3.252,0,0,1,3.07-2.93l29.241-1.621a3.267,3.267,0,0,1,3.431,3.594l-2.351,23.006a3.989,3.989,0,0,1-3.765,3.594l-32.2,1.785h-.011m35.079-31.592c-.054,0-.107,0-.161,0l-29.241,1.621a2.863,2.863,0,0,0-2.7,2.578l-2.758,26.984,31.972-1.772a3.6,3.6,0,0,0,3.4-3.242l2.351-23.006a2.874,2.874,0,0,0-2.859-3.167m-2.878,29.611h0Z" transform="translate(-470.365 -480.487)"/>
        <path id="Trazado_927006" data-name="Trazado 927006" d="M540.12,559.282a3.223,3.223,0,0,0-1.421,2.349l-2.813,27.539-1.811.1,2.783-27.209a3.073,3.073,0,0,1,2.884-2.757Z" transform="translate(-471.848 -494.119)"/>
        <path id="Trazado_927007" data-name="Trazado 927007" d="M691.719,659.125a3.716,3.716,0,0,1-2.959,3.488,3.676,3.676,0,0,1-3.376-1.047,4.245,4.245,0,0,0,1.016.063,4.455,4.455,0,0,0,4.1-5.383,3.688,3.688,0,0,1,1.218,2.879" transform="translate(-605.529 -579.785)" fill="#c5cde3"/>
        <path id="Trazado_927008" data-name="Trazado 927008" d="M82.206,666.326,83.9,678.415l24.922,1.973-.658,9.089s-24.381,5.786-32.54.381c-5.2-3.445-5.067-22.725-5.067-22.725Z" transform="translate(-62.335 -588.691)" fill="#ffcfc5"/>
        <path id="Trazado_927009" data-name="Trazado 927009" d="M72.219,556.691c0,.765-14.035,5.571-15.754,3.275,0,0-.34-9.825,1.191-15.184s7-8.645,7-8.645c3.168,2.963,6.566,12.828,7.558,20.554" transform="translate(-49.858 -473.671)" fill="#014eb1"/>
        <path id="Trazado_927010" data-name="Trazado 927010" d="M405.654,771.172c1.429-.06,2.515.109,2.409.841-.185,1.24-2.528.972-4.407,1.171,1.393-.059,3.9-.321,2.978,1.271-1.37,2.362-13.575,2.249-13.575,2.249l.689-9.141s5.379-3.51,6.213-2.319c.82,1.175-2.448,3.474-2.537,3.537.228-.083,9.965-3.09,10.12-1.313.083.933-.892,1.127-2.351,1.633,2.134-.5,3.589-.448,3.648.587.073,1.3-2.227,1.215-3.187,1.486" transform="translate(-347.263 -675.865)" fill="#ffcfc5"/>
        <path id="Trazado_927011" data-name="Trazado 927011" d="M1540.814,163.938v23.177a2.631,2.631,0,0,1-2.633,2.63h-24.888a2.631,2.631,0,0,1-2.63-2.63V163.938a2.631,2.631,0,0,1,2.63-2.63h24.888a2.631,2.631,0,0,1,2.633,2.63" transform="translate(-1334.652 -142.514)" fill="#444ba1"/>
        <path id="Trazado_927012" data-name="Trazado 927012" d="M1536.694,188.453h-24.888a2.829,2.829,0,0,1-2.826-2.826V162.45a2.829,2.829,0,0,1,2.826-2.826h24.888a2.831,2.831,0,0,1,2.829,2.826v23.177a2.831,2.831,0,0,1-2.829,2.826m-24.888-28.437a2.437,2.437,0,0,0-2.434,2.433v23.177a2.437,2.437,0,0,0,2.434,2.434h24.888a2.438,2.438,0,0,0,2.436-2.434V162.45a2.438,2.438,0,0,0-2.436-2.433Z" transform="translate(-1333.165 -141.026)"/>
        <path id="Trazado_927013" data-name="Trazado 927013" d="M1690.253,259.432v10.161a.931.931,0,0,1-.931.931h-3.376a.931.931,0,0,1-.931-.931V259.432a.931.931,0,0,1,.931-.931h3.376a.931.931,0,0,1,.931.931" transform="translate(-1488.689 -228.383)" fill="#fff"/>
        <path id="Trazado_927014" data-name="Trazado 927014" d="M1687.833,269.233h-3.376a1.129,1.129,0,0,1-1.128-1.127V257.944a1.129,1.129,0,0,1,1.128-1.127h3.376a1.129,1.129,0,0,1,1.128,1.127v10.161a1.129,1.129,0,0,1-1.128,1.127m-3.376-12.023a.735.735,0,0,0-.735.735v10.161a.735.735,0,0,0,.735.735h3.376a.736.736,0,0,0,.735-.735V257.944a.736.736,0,0,0-.735-.735Z" transform="translate(-1487.2 -226.895)"/>
        <path id="Trazado_927015" data-name="Trazado 927015" d="M1555.365,296.834v5.8a.931.931,0,0,1-.932.931h-3.376a.931.931,0,0,1-.931-.931v-5.8a.931.931,0,0,1,.931-.931h3.376a.931.931,0,0,1,.932.931" transform="translate(-1369.517 -261.427)" fill="#fff"/>
        <path id="Trazado_927016" data-name="Trazado 927016" d="M1552.945,302.278h-3.376a1.129,1.129,0,0,1-1.128-1.127v-5.8a1.129,1.129,0,0,1,1.128-1.127h3.376a1.129,1.129,0,0,1,1.128,1.127v5.8a1.129,1.129,0,0,1-1.128,1.127m-3.376-7.665a.736.736,0,0,0-.735.735v5.8a.736.736,0,0,0,.735.735h3.376a.736.736,0,0,0,.735-.735v-5.8a.736.736,0,0,0-.735-.735Z" transform="translate(-1368.028 -259.94)"/>
        <path id="Trazado_927017" data-name="Trazado 927017" d="M1622.809,224.612V238.83a.931.931,0,0,1-.931.931H1618.5a.931.931,0,0,1-.932-.931V224.612a.931.931,0,0,1,.932-.931h3.376a.931.931,0,0,1,.931.931" transform="translate(-1429.102 -197.62)" fill="#fff"/>
        <path id="Trazado_927018" data-name="Trazado 927018" d="M1620.39,238.47h-3.377a1.129,1.129,0,0,1-1.127-1.127V223.124a1.129,1.129,0,0,1,1.127-1.127h3.377a1.129,1.129,0,0,1,1.127,1.127v14.218a1.129,1.129,0,0,1-1.127,1.127m-3.377-16.08a.735.735,0,0,0-.735.735v14.218a.735.735,0,0,0,.735.735h3.377a.736.736,0,0,0,.735-.735V223.124a.736.736,0,0,0-.735-.735Z" transform="translate(-1427.615 -196.132)"/>
        <rect id="Rectángulo_412969" data-name="Rectángulo 412969" width="6.231" height="1.659" transform="translate(178.691 21.816)" fill="#fff"/>
        <rect id="Rectángulo_412970" data-name="Rectángulo 412970" width="3.618" height="1.659" transform="translate(178.691 24.965)" fill="#fff"/>
        <path id="Trazado_927019" data-name="Trazado 927019" d="M425.3,189.016a9.85,9.85,0,1,0-13.868,1.312,9.85,9.85,0,0,0,13.868-1.312" transform="translate(-360.336 -152.744)" fill="#fff"/>
        <path id="Trazado_927020" data-name="Trazado 927020" d="M416.2,191.332a10.071,10.071,0,1,1,.964-.046c-.322.031-.644.046-.964.046m.026-19.7a9.649,9.649,0,1,0,6.145,2.211,9.638,9.638,0,0,0-6.145-2.211" transform="translate(-358.842 -151.291)"/>
        <path id="Trazado_927021" data-name="Trazado 927021" d="M459.986,219.946c-1.042,3.539-6.89,4.46-6.89,4.46s-4.417-3.942-3.375-7.481a5.677,5.677,0,0,1,10.265,3.021" transform="translate(-397.182 -189.462)" fill="#ff4148"/>
        <path id="Trazado_927022" data-name="Trazado 927022" d="M914.107,1166.907a13.883,13.883,0,1,1-15.385,12.2,13.883,13.883,0,0,1,15.385-12.2" transform="translate(-793.927 -1030.866)" fill="#fff"/>
        <path id="Trazado_927023" data-name="Trazado 927023" d="M911.057,1193.3a14.4,14.4,0,0,1-1.644-.095,14.033,14.033,0,1,1,1.644.095m-.038-27.77a13.7,13.7,0,1,0,1.581.091,13.706,13.706,0,0,0-1.581-.091" transform="translate(-792.443 -1029.386)"/>
        <path id="Trazado_927024" data-name="Trazado 927024" d="M938.713,1196.134l5.443,4.695a3.605,3.605,0,0,1,.368,5.085l-7.348,8.512a3.6,3.6,0,0,1-5.082.37l-5.442-4.7a3.606,3.606,0,0,1-.368-5.085l7.349-8.511a3.6,3.6,0,0,1,5.081-.37" transform="translate(-817.583 -1055.994)" fill="#ffd24f"/>
        <path id="Trazado_927025" data-name="Trazado 927025" d="M932.971,1214.375a3.768,3.768,0,0,1-2.478-.926l-5.442-4.694a3.807,3.807,0,0,1-.389-5.362l7.348-8.512a3.8,3.8,0,0,1,5.359-.39l5.442,4.694a3.807,3.807,0,0,1,.388,5.362l-7.348,8.511a3.772,3.772,0,0,1-2.6,1.306c-.094.007-.188.01-.282.01m1.919-20.418c-.084,0-.168,0-.252.009a3.382,3.382,0,0,0-2.33,1.171l-7.349,8.511a3.413,3.413,0,0,0,.348,4.809l5.442,4.694a3.4,3.4,0,0,0,4.805-.35l7.348-8.512a3.414,3.414,0,0,0-.348-4.808l-5.443-4.695a3.378,3.378,0,0,0-2.222-.83" transform="translate(-816.11 -1054.499)"/>
        <path id="Trazado_927026" data-name="Trazado 927026" d="M940.167,1221.775l-.031-.391,8.17-.645a.839.839,0,0,0,.771-.9l-.642-8.062.391-.031.643,8.062a1.231,1.231,0,0,1-1.132,1.325Z" transform="translate(-830.599 -1070.56)"/>
        <rect id="Rectángulo_412971" data-name="Rectángulo 412971" width="7.058" height="0.393" transform="matrix(0.984, -0.178, 0.178, 0.984, 118.618, 148.791)"/>
        <rect id="Rectángulo_412972" data-name="Rectángulo 412972" width="7.145" height="0.392" transform="translate(116.926 157.549) rotate(-88.878)"/>
        <path id="Trazado_927027" data-name="Trazado 927027" d="M1535.168,722.955a12.262,12.262,0,1,1-11.54-12.944,12.262,12.262,0,0,1,11.54,12.944" transform="translate(-1334.652 -627.268)" fill="#fff"/>
        <path id="Trazado_927028" data-name="Trazado 927028" d="M1521.447,733.221q-.358,0-.721-.021a12.453,12.453,0,1,1,.721.021m-.016-24.525a12.076,12.076,0,1,0,.7.02q-.351-.02-.7-.02" transform="translate(-1333.165 -625.777)"/>
        <path id="Trazado_927029" data-name="Trazado 927029" d="M1598.864,753.262l-.427-.016a.949.949,0,0,1-.072,1.9l-.427-.016a.948.948,0,0,1-.071,1.895l-5.55-.209a3.537,3.537,0,0,1-1.732-.527l-.856-.2.186-4.945,2.385-2.735a2.513,2.513,0,0,0,.43-1.313l.065-1.714a1.324,1.324,0,0,1,1.372-1.272c.64.024,1.165.5,1.123,1.621,0,.093-.011.188-.023.289l.032.867a3.716,3.716,0,0,1-.074.883l-.318,1.559,3.876.146v0a.948.948,0,0,1-.132,1.89l.239.009a.985.985,0,0,1,.955,1.009.953.953,0,0,1-.3.635.94.94,0,0,1-.68.252" transform="translate(-1404.505 -657.402)" fill="#ffcfc5"/>
        <path id="Trazado_927030" data-name="Trazado 927030" d="M1563.213,791.272l-.237,6.3a.611.611,0,0,1-.634.588l-3.307-.125a.611.611,0,0,1-.588-.634l.238-6.3a.61.61,0,0,1,.634-.587l3.307.125a.61.61,0,0,1,.587.634" transform="translate(-1376.868 -698.409)" fill="#444ba1"/>
      </g>
    </g>
  </g>
</svg>
