<svg xmlns="http://www.w3.org/2000/svg" width="100" height="100" viewBox="0 0 100 100">
  <g id="Grupo_1111627" data-name="Grupo 1111627" transform="translate(-1236.5 -460)">
    <g id="Elipse_12108" data-name="Elipse 12108" transform="translate(1241.5 465)" fill="#fe9ab8" stroke="rgba(255,255,255,0.4)" stroke-width="5">
      <circle cx="45" cy="45" r="45" stroke="none"/>
      <circle cx="45" cy="45" r="47.5" fill="none"/>
    </g>
    <g id="_014-engineering" data-name="014-engineering" transform="translate(1254.496 477)">
      <g id="Page-1_13_" transform="translate(0.004 0)">
        <g id="_x30_14---Engineering">
          <path id="Shape_39_" d="M187.97,265.334a14.08,14.08,0,1,0,14.08,14.08A14.08,14.08,0,0,0,187.97,265.334Zm0,25.994a11.914,11.914,0,1,1,11.914-11.914A11.914,11.914,0,0,1,187.97,291.328Z" transform="translate(-155.461 -237.158)" fill="#360742"/>
          <path id="Shape_38_" d="M242.437,326.3a7.582,7.582,0,1,0,7.582,7.582A7.582,7.582,0,0,0,242.437,326.3Zm0,13a5.415,5.415,0,1,1,5.415-5.415A5.415,5.415,0,0,1,242.437,339.3Z" transform="translate(-209.928 -291.624)" fill="#360742"/>
          <path id="Shape_37_" d="M61.673,15.1a4.332,4.332,0,0,0-4.179,3.249H48.676a3.249,3.249,0,0,0-3.249,3.249v3.764l-2.021.6L41.094,25V12.93a1.083,1.083,0,0,1,1.083-1.083h3.4a4.332,4.332,0,1,0,0-2.166h-3.4a3.249,3.249,0,0,0-3.249,3.249V24.105l-.138-.057L37.6,21.859a2.576,2.576,0,0,0-2.262-1.347H34.6V9.527a4.332,4.332,0,1,0-2.166,0V20.512h-.7a2.578,2.578,0,0,0-2.266,1.347l-1.191,2.189-.171.073V12.93a3.249,3.249,0,0,0-3.249-3.249h-3.4a4.332,4.332,0,1,0,0,2.166h3.4a1.083,1.083,0,0,1,1.083,1.083V25.017l-2.274.941L21.6,25.348V21.595a3.249,3.249,0,0,0-3.249-3.249H9.531a4.332,4.332,0,1,0,0,2.166H18.35a1.083,1.083,0,0,1,1.083,1.083v3.815a2.549,2.549,0,0,0-.72.489L16.159,28.45A2.572,2.572,0,0,0,15.509,31l.709,2.383L14.307,38l-2.191,1.191a2.573,2.573,0,0,0-1.348,2.264v3.609a2.574,2.574,0,0,0,1.349,2.265l2.191,1.191,1.911,4.61-.709,2.383a2.572,2.572,0,0,0,.65,2.555l2.553,2.551a2.572,2.572,0,0,0,2.556.65l2.389-.708,4.614,1.911,1.191,2.189A2.578,2.578,0,0,0,31.726,66h3.612A2.575,2.575,0,0,0,37.6,64.654l1.191-2.189,4.615-1.911,2.39.709a2.572,2.572,0,0,0,2.554-.65l2.555-2.552a2.574,2.574,0,0,0,.65-2.554l-.716-2.386,1.912-4.61,2.191-1.191a2.573,2.573,0,0,0,1.349-2.265v-3.6a2.574,2.574,0,0,0-1.349-2.265L52.754,38l-1.912-4.605.71-2.383a2.579,2.579,0,0,0-.65-2.555L48.351,25.9a2.547,2.547,0,0,0-.758-.5v-3.8a1.083,1.083,0,0,1,1.083-1.083h8.818A4.325,4.325,0,1,0,61.673,15.1ZM49.759,8.6a2.166,2.166,0,1,1-2.166,2.166A2.166,2.166,0,0,1,49.759,8.6ZM31.347,5.349a2.166,2.166,0,1,1,2.166,2.166A2.166,2.166,0,0,1,31.347,5.349ZM17.267,12.93a2.166,2.166,0,1,1,2.166-2.166A2.166,2.166,0,0,1,17.267,12.93ZM5.353,21.595a2.166,2.166,0,1,1,2.166-2.166A2.166,2.166,0,0,1,5.353,21.595Zm44.021,8.386a.41.41,0,0,1,.1.406l-.819,2.755a1.083,1.083,0,0,0,.038.722L50.9,39.184a1.09,1.09,0,0,0,.484.541l2.529,1.365a.407.407,0,0,1,.217.36v3.609a.407.407,0,0,1-.217.36l-2.53,1.372a1.091,1.091,0,0,0-.484.541l-2.205,5.319a1.083,1.083,0,0,0-.038.722l.819,2.754a.412.412,0,0,1-.1.407l-2.554,2.552a.422.422,0,0,1-.408.1l-2.757-.818a1.076,1.076,0,0,0-.722.038l-5.323,2.2a1.09,1.09,0,0,0-.541.484L35.7,63.618a.413.413,0,0,1-.362.217H31.726a.412.412,0,0,1-.362-.217l-1.371-2.525a1.083,1.083,0,0,0-.541-.484l-5.323-2.2a1.083,1.083,0,0,0-.722-.038l-2.756.818a.41.41,0,0,1-.408-.108l-2.554-2.551a.409.409,0,0,1-.108-.406l.819-2.755a1.083,1.083,0,0,0-.037-.722l-2.2-5.315a1.083,1.083,0,0,0-.484-.542l-2.527-1.365a.408.408,0,0,1-.217-.36V41.452a.407.407,0,0,1,.217-.362l2.528-1.37a1.083,1.083,0,0,0,.484-.541l2.206-5.319a1.083,1.083,0,0,0,.037-.722l-.814-2.75a.409.409,0,0,1,.108-.406l2.554-2.552a.408.408,0,0,1,.407-.1l2.757.818a1.075,1.075,0,0,0,.722-.038l3.294-1.362.021-.009,2.009-.832a1.083,1.083,0,0,0,.541-.484l1.358-2.525a.412.412,0,0,1,.362-.217h3.612a.413.413,0,0,1,.362.217l1.37,2.527a1.091,1.091,0,0,0,.541.484l5.324,2.2a1.077,1.077,0,0,0,.722.038l2.756-.818a.41.41,0,0,1,.409.108Zm12.3-8.386a2.166,2.166,0,1,1,2.166-2.166A2.166,2.166,0,0,1,61.673,21.595Z" transform="translate(-1.004 -1)" fill="#360742"/>
        </g>
      </g>
    </g>
  </g>
</svg>
