<svg xmlns="http://www.w3.org/2000/svg" width="100" height="100" viewBox="0 0 100 100">
  <g id="Grupo_1111626" data-name="Grupo 1111626" transform="translate(-905.5 -241)">
    <g id="Elipse_12109" data-name="Elipse 12109" transform="translate(910.5 246)" fill="#fe9ab8" stroke="rgba(255,255,255,0.4)" stroke-width="5">
      <circle cx="45" cy="45" r="45" stroke="none"/>
      <circle cx="45" cy="45" r="47.5" fill="none"/>
    </g>
    <g id="_041-chip" data-name="041-chip" transform="translate(923.5 259)">
      <g id="Page-1_40_" transform="translate(0 0)">
        <g id="_x30_41---AI-Networking" transform="translate(0 0)">
          <path id="Shape_106_" d="M201.7,235.515a1.083,1.083,0,0,0-2,0l-5.414,12.994a1.083,1.083,0,1,0,2,.834l1.527-3.665h5.776l1.527,3.665a1.083,1.083,0,0,0,2-.834Zm-2.984,8,1.985-4.764,1.985,4.764Z" transform="translate(-173.618 -209.929)" fill="#360742"/>
          <path id="Path_141_" d="M333.878,237.017a1.083,1.083,0,1,0,0-2.166h-6.5a1.083,1.083,0,0,0,0,2.166h2.166v10.828h-2.166a1.083,1.083,0,0,0,0,2.166h6.5a1.083,1.083,0,1,0,0-2.166h-2.166V237.017Z" transform="translate(-291.632 -209.931)" fill="#360742" fill-rule="evenodd"/>
          <path id="Shape_105_" d="M49.742,23.755h7.733a4.331,4.331,0,1,0,0-2.165H49.742a4.331,4.331,0,0,0-4.331-4.331V9.525a4.331,4.331,0,1,0-2.166,0v7.733H34.583V9.525a4.331,4.331,0,1,0-2.166,0v7.733H23.755V9.525a4.331,4.331,0,1,0-2.166,0v7.733a4.331,4.331,0,0,0-4.331,4.331H9.525a4.331,4.331,0,1,0,0,2.166h7.733v8.662H9.525a4.331,4.331,0,1,0,0,2.166h7.733v8.662H9.525a4.331,4.331,0,1,0,0,2.166h7.733a4.331,4.331,0,0,0,4.331,4.331v7.733a4.331,4.331,0,1,0,2.165,0V49.742h8.662v7.733a4.331,4.331,0,1,0,2.165,0V49.742h8.662v7.733a4.331,4.331,0,1,0,2.165,0V49.742a4.331,4.331,0,0,0,4.331-4.331h7.733a4.331,4.331,0,1,0,0-2.165H49.741V34.583h7.733a4.331,4.331,0,1,0,0-2.165H49.741V23.755Zm11.911-3.248a2.166,2.166,0,1,1-2.166,2.166A2.166,2.166,0,0,1,61.653,20.506ZM42.162,5.347a2.166,2.166,0,1,1,2.166,2.166A2.166,2.166,0,0,1,42.162,5.347Zm-10.828,0A2.166,2.166,0,1,1,33.5,7.513,2.166,2.166,0,0,1,31.334,5.347Zm-10.828,0a2.166,2.166,0,1,1,2.166,2.166A2.166,2.166,0,0,1,20.506,5.347ZM5.347,24.838a2.166,2.166,0,1,1,2.166-2.166A2.166,2.166,0,0,1,5.347,24.838Zm0,10.828A2.166,2.166,0,1,1,7.513,33.5,2.166,2.166,0,0,1,5.347,35.666Zm0,10.828a2.166,2.166,0,1,1,2.166-2.166A2.166,2.166,0,0,1,5.347,46.494Zm19.49,15.159a2.166,2.166,0,1,1-2.166-2.166A2.166,2.166,0,0,1,24.838,61.653Zm10.828,0A2.166,2.166,0,1,1,33.5,59.487,2.166,2.166,0,0,1,35.666,61.653Zm10.828,0a2.166,2.166,0,1,1-2.166-2.166A2.166,2.166,0,0,1,46.493,61.653Zm15.159-19.49a2.166,2.166,0,1,1-2.166,2.166A2.166,2.166,0,0,1,61.653,42.162Zm0-10.828A2.166,2.166,0,1,1,59.487,33.5,2.166,2.166,0,0,1,61.653,31.334ZM47.576,45.411a2.166,2.166,0,0,1-2.166,2.166H21.589a2.166,2.166,0,0,1-2.166-2.166V21.589a2.166,2.166,0,0,1,2.166-2.166H45.411a2.166,2.166,0,0,1,2.166,2.166Z" transform="translate(-1 -1)" fill="#360742"/>
          <path id="Path_140_" d="M195.292,199.622a1.083,1.083,0,0,0,1.083-1.083v-2.166h2.166a1.083,1.083,0,1,0,0-2.166h-3.248a1.083,1.083,0,0,0-1.083,1.083v3.248A1.083,1.083,0,0,0,195.292,199.622Z" transform="translate(-173.62 -173.619)" fill="#360742" fill-rule="evenodd"/>
        </g>
      </g>
    </g>
  </g>
</svg>
