<svg xmlns="http://www.w3.org/2000/svg" width="100" height="100" viewBox="0 0 100 100">
  <g id="Grupo_1115167" data-name="Grupo 1115167" transform="translate(-200.184 -583)">
    <rect id="Rectángulo_412509" data-name="Rectángulo 412509" width="100" height="100" rx="10" transform="translate(200.184 583)" fill="#fe9ab8"/>
    <g id="Analysis-report-document-develop-infromation" transform="translate(218.175 601)">
      <path id="Trazado_927549" data-name="Trazado 927549" d="M61,14V59a2.006,2.006,0,0,1-2,2H25a2.006,2.006,0,0,1-2-2V5a2.006,2.006,0,0,1,2-2H50v9a2.006,2.006,0,0,0,2,2Z" fill="#fee9ab"/>
      <path id="Trazado_927550" data-name="Trazado 927550" d="M61,14V59a2.006,2.006,0,0,1-2,2H55a2.006,2.006,0,0,0,2-2V14Z" fill="#ffd422"/>
      <path id="Trazado_927551" data-name="Trazado 927551" d="M61,14H52a2.006,2.006,0,0,1-2-2V3Z" fill="#ff7956"/>
      <circle id="Elipse_14503" data-name="Elipse 14503" cx="8" cy="8" r="8" transform="translate(41 41)" fill="#bdfdff"/>
      <path id="Trazado_927552" data-name="Trazado 927552" d="M47,28H27V8A19.994,19.994,0,0,1,47,28Z" fill="#ff3051"/>
      <path id="Trazado_927553" data-name="Trazado 927553" d="M57,49a8,8,0,0,1-8,8,8.239,8.239,0,0,1-2-.25,8,8,0,0,0,0-15.5A8.239,8.239,0,0,1,49,41a8,8,0,0,1,8,8Z" fill="#46f8ff"/>
      <path id="Trazado_927554" data-name="Trazado 927554" d="M47,28H43A20,20,0,0,0,27,8.4L27,8A19.994,19.994,0,0,1,47,28Z" fill="#cd2a00"/>
      <path id="Trazado_927555" data-name="Trazado 927555" d="M23,32H43A20,20,0,0,1,8.86,46.14Z" fill="#5eac24"/>
      <path id="Trazado_927556" data-name="Trazado 927556" d="M23,12V32L8.86,46.14A20,20,0,0,1,23,12Z" fill="#ffcd00"/>
      <path id="Trazado_927557" data-name="Trazado 927557" d="M61.71,13.29l-11-11A1.033,1.033,0,0,0,50,2H25a3.009,3.009,0,0,0-3,3v6.05a20.973,20.973,0,0,0,0,41.9V59a3.009,3.009,0,0,0,3,3H59a3.009,3.009,0,0,0,3-3V14a1.033,1.033,0,0,0-.29-.71ZM51,5.41,58.59,13H52a1,1,0,0,1-1-1ZM4,32A19.023,19.023,0,0,1,22,13.03V31.59L8.9,44.69A18.879,18.879,0,0,1,4,32Zm6.31,14.1L23.41,33H41.97A18.963,18.963,0,0,1,10.31,46.1ZM60,59a1,1,0,0,1-1,1H25a1,1,0,0,1-1-1V52.95A21.014,21.014,0,0,0,44,32a1,1,0,0,0-1-1H24V5a1,1,0,0,1,1-1H49v8a3.009,3.009,0,0,0,3,3h8Z"/>
      <path id="Trazado_927558" data-name="Trazado 927558" d="M27,7a1,1,0,0,0-1,1V28a1,1,0,0,0,1,1H47a1,1,0,0,0,1-1A21.023,21.023,0,0,0,27,7Zm1,20V9.03A19.017,19.017,0,0,1,45.97,27Z"/>
      <path id="Trazado_927559" data-name="Trazado 927559" d="M49,40a9,9,0,1,0,9,9,9,9,0,0,0-9-9Zm0,16a7,7,0,1,1,7-7A7,7,0,0,1,49,56Z"/>
      <path id="Trazado_927560" data-name="Trazado 927560" d="M47,50.586l-2.293-2.293-1.414,1.414,3,3a1,1,0,0,0,1.414,0l6-6-1.414-1.414Z"/>
      <path id="Trazado_927561" data-name="Trazado 927561" d="M50,19h8v2H50Z"/>
      <path id="Trazado_927562" data-name="Trazado 927562" d="M50,25h8v2H50Z"/>
      <path id="Trazado_927563" data-name="Trazado 927563" d="M50,31h8v2H50Z"/>
    </g>
  </g>
</svg>
