<svg xmlns="http://www.w3.org/2000/svg" width="190" height="67" viewBox="0 0 190 67">
  <g id="Grupo_1115325" data-name="Grupo 1115325" transform="translate(-1230.184 -2556)">
    <rect id="Rectángulo_412520" data-name="Rectángulo 412520" width="190" height="67" rx="10" transform="translate(1230.184 2556)" fill="#fe9ab8"/>
    <g id="Grupo_1115324" data-name="Grupo 1115324" transform="translate(8.188)">
      <g id="Grupo_1115322" data-name="Grupo 1115322" transform="translate(1252.996 2563)">
        <path id="Trazado_927832" data-name="Trazado 927832" d="M47.963,30.824a10.255,10.255,0,0,0-6.037-14.709A10.23,10.23,0,0,0,28.443,9.525a10.211,10.211,0,0,0-6.585-2.4c-.28,0-.559.011-.834.033A10.216,10.216,0,0,1,32.37,4.4a10.248,10.248,0,0,1,16.773,6.72,10.255,10.255,0,0,1-1.175,19.707Z" transform="translate(-3.909 -1.146)" fill="#78a0d4"/>
        <path id="Trazado_927833" data-name="Trazado 927833" d="M36.183,37.056A10.255,10.255,0,0,0,39.16,16.988,10.23,10.23,0,0,0,25.676,10.4,10.248,10.248,0,0,0,8.9,17.117a10.25,10.25,0,0,0,3.352,19.938Z" transform="translate(-1.142 -2.018)" fill="#c0dafc"/>
        <path id="Trazado_927834" data-name="Trazado 927834" d="M2,56H39.6v5.128H2Z" transform="translate(-1.143 -8.998)" fill="#3b5892"/>
        <path id="Trazado_927835" data-name="Trazado 927835" d="M36.184,57.709V56H2v2.564H35.329A.855.855,0,0,0,36.184,57.709Z" transform="translate(-1.143 -8.998)" fill="#4c6cb5"/>
        <path id="Trazado_927836" data-name="Trazado 927836" d="M6,54.546V46h5.128v8.546" transform="translate(-1.724 -7.544)" fill="#fce797"/>
        <path id="Trazado_927837" data-name="Trazado 927837" d="M8.564,51.128V46H6v5.982H7.709A.855.855,0,0,0,8.564,51.128Z" transform="translate(-1.724 -7.544)" fill="#ffeeb6"/>
        <path id="Trazado_927838" data-name="Trazado 927838" d="M16,53.673V40h5.128V53.673" transform="translate(-3.178 -6.671)" fill="#f9d266"/>
        <path id="Trazado_927839" data-name="Trazado 927839" d="M18.564,50.255V40H16V51.11h1.709A.855.855,0,0,0,18.564,50.255Z" transform="translate(-3.178 -6.671)" fill="#fce797"/>
        <path id="Trazado_927840" data-name="Trazado 927840" d="M26,53.383V38h5.128V53.383" transform="translate(-4.632 -6.38)" fill="#f4a93c"/>
        <path id="Trazado_927841" data-name="Trazado 927841" d="M28.564,49.964V38H26V50.819h1.709A.855.855,0,0,0,28.564,49.964Z" transform="translate(-4.632 -6.38)" fill="#f6b940"/>
        <path id="Trazado_927842" data-name="Trazado 927842" d="M36,52.219V30h5.128V52.219" transform="translate(-6.087 -5.217)" fill="#d5883e"/>
        <path id="Trazado_927843" data-name="Trazado 927843" d="M38.564,48.8V30H36V49.655h1.709A.855.855,0,0,0,38.564,48.8Z" transform="translate(-6.087 -5.217)" fill="#f3a748"/>
        <path id="Trazado_927844" data-name="Trazado 927844" d="M50,49.128,55.128,44l5.128,5.128H57.691V59.383H52.564V49.128Z" transform="translate(-8.122 -7.253)" fill="#b52f28"/>
        <path id="Trazado_927845" data-name="Trazado 927845" d="M31.8,24.11V20.691H29.894a7.642,7.642,0,0,0-.988-2.38l1.349-1.349-2.417-2.417L26.49,15.894a7.643,7.643,0,0,0-2.38-.988V13H20.691v1.907a7.643,7.643,0,0,0-2.38.988l-1.349-1.349-2.417,2.417,1.349,1.349a7.643,7.643,0,0,0-.988,2.38H13V24.11h1.907a7.643,7.643,0,0,0,.988,2.38l-1.349,1.349,2.417,2.417,1.349-1.349a7.643,7.643,0,0,0,2.38.988V31.8H24.11V29.894a7.643,7.643,0,0,0,2.38-.988l1.349,1.349,2.417-2.417L28.906,26.49a7.643,7.643,0,0,0,.988-2.38Z" transform="translate(-2.742 -2.745)" fill="#474747"/>
        <ellipse id="Elipse_14511" data-name="Elipse 14511" cx="4.273" cy="4.273" rx="4.273" ry="4.273" transform="translate(15.385 15.382)" fill="#f2f2f2"/>
        <path id="Trazado_927846" data-name="Trazado 927846" d="M39.456,47.148H36.892v-10.3a11.11,11.11,0,0,0,8.7-5.426A11.1,11.1,0,0,0,47,10.354,11.1,11.1,0,0,0,29.292,3.287a10.99,10.99,0,0,0-3.509-.578A11.1,11.1,0,0,0,17.716,6.2a11.081,11.081,0,0,0-9.737,9.275,11.1,11.1,0,0,0,4.13,21.415h.855V47.148H11.255V39.456A.855.855,0,0,0,10.4,38.6H5.272a.855.855,0,0,0-.855.855v7.691H1.854A.855.855,0,0,0,1,48V53.13a.855.855,0,0,0,.855.855h37.6a.855.855,0,0,0,.855-.855V48a.855.855,0,0,0-.855-.855Zm-7.691,0V26.638h3.418v20.51ZM19.8,36.893H21.51V47.148H19.8Zm6.837,10.255H23.219V33.474h3.418Zm1.709-10.255h1.709V47.148H28.346Zm.8-31.843A.855.855,0,0,0,30,4.907a9.393,9.393,0,0,1,15.374,6.158.855.855,0,0,0,.57.714A9.391,9.391,0,0,1,46.569,29.3a11.081,11.081,0,0,0-6.878-14,11.078,11.078,0,0,0-14-6.882,11.116,11.116,0,0,0-5.43-2.2A9.342,9.342,0,0,1,29.15,5.047ZM12.109,35.183A9.4,9.4,0,0,1,9.033,16.907a.855.855,0,0,0,.57-.714,9.393,9.393,0,0,1,15.374-6.158.855.855,0,0,0,.855.143A9.374,9.374,0,0,1,38.19,16.219a.855.855,0,0,0,.571.57A9.4,9.4,0,0,1,36.892,35.14V25.783a.855.855,0,0,0-.855-.855H30.91a.855.855,0,0,0-.855.855v9.4H28.346V32.62a.855.855,0,0,0-.855-.855H22.364a.855.855,0,0,0-.855.855v2.564H19.8v-.855a.855.855,0,0,0-.855-.855H13.818a.855.855,0,0,0-.855.855v.855Zm2.564,0h3.418V47.148H14.673ZM6.127,40.311H9.545v6.837H6.127ZM38.6,52.275H2.709V48.857H38.6Z" transform="translate(-0.997 -1)"/>
        <path id="Trazado_927847" data-name="Trazado 927847" d="M55.586,43.25a.855.855,0,0,0-1.208,0L49.25,48.378a.855.855,0,0,0,.6,1.459h1.709v9.4a.855.855,0,0,0,.855.855h5.128a.855.855,0,0,0,.855-.855v-9.4H60.11a.855.855,0,0,0,.6-1.459Zm1.96,4.877a.855.855,0,0,0-.855.855v9.4H53.273v-9.4a.855.855,0,0,0-.855-.855h-.5l3.065-3.065,3.065,3.065Z" transform="translate(-7.977 -7.108)"/>
        <path id="Trazado_927848" data-name="Trazado 927848" d="M17.421,30.715l.887-.887a8.425,8.425,0,0,0,1.384.574v1.253a.855.855,0,0,0,.855.855h3.418a.855.855,0,0,0,.855-.855V30.4a8.425,8.425,0,0,0,1.384-.575l.887.888a.855.855,0,0,0,1.208,0L30.715,28.3a.855.855,0,0,0,0-1.208l-.886-.887a8.461,8.461,0,0,0,.573-1.384h1.253a.855.855,0,0,0,.855-.855V20.546a.855.855,0,0,0-.855-.855H30.4a8.46,8.46,0,0,0-.574-1.384l.887-.887a.855.855,0,0,0,0-1.208L28.3,13.795a.855.855,0,0,0-1.208,0l-.887.887a8.424,8.424,0,0,0-1.384-.574V12.855A.855.855,0,0,0,23.964,12H20.546a.855.855,0,0,0-.855.855v1.253a8.425,8.425,0,0,0-1.384.575l-.887-.888a.855.855,0,0,0-1.208,0l-2.418,2.418a.855.855,0,0,0,0,1.208l.886.887a8.461,8.461,0,0,0-.573,1.384H12.855a.855.855,0,0,0-.855.855v3.418a.855.855,0,0,0,.855.855h1.253a8.46,8.46,0,0,0,.574,1.384l-.887.887a.855.855,0,0,0,0,1.208l2.418,2.418a.855.855,0,0,0,1.208,0Zm-.949-4.826a6.762,6.762,0,0,1-.878-2.114.855.855,0,0,0-.834-.666H13.709V21.4H14.76a.855.855,0,0,0,.834-.665,6.762,6.762,0,0,1,.878-2.114.855.855,0,0,0-.119-1.06l-.745-.745,1.208-1.208.745.745a.855.855,0,0,0,1.061.118,6.8,6.8,0,0,1,2.113-.882.855.855,0,0,0,.665-.829V13.709H23.11V14.76a.855.855,0,0,0,.665.833,6.8,6.8,0,0,1,2.113.878.855.855,0,0,0,1.061-.118l.745-.745L28.9,16.816l-.745.745a.855.855,0,0,0-.119,1.06,6.762,6.762,0,0,1,.878,2.114.855.855,0,0,0,.834.665H30.8V23.11H29.75a.855.855,0,0,0-.834.665,6.762,6.762,0,0,1-.878,2.114.855.855,0,0,0,.119,1.06l.745.745L27.694,28.9l-.745-.745a.855.855,0,0,0-1.061-.118,6.8,6.8,0,0,1-2.113.882.855.855,0,0,0-.665.829V30.8H21.4V29.75a.855.855,0,0,0-.665-.833,6.8,6.8,0,0,1-2.113-.878.855.855,0,0,0-1.061.118l-.745.745-1.208-1.208.745-.745a.855.855,0,0,0,.119-1.06Z" transform="translate(-2.597 -2.6)"/>
        <path id="Trazado_927849" data-name="Trazado 927849" d="M23.128,28.255A5.128,5.128,0,1,0,18,23.128a5.128,5.128,0,0,0,5.128,5.128Zm0-8.546a3.418,3.418,0,1,1-3.418,3.418A3.418,3.418,0,0,1,23.128,19.709Z" transform="translate(-3.469 -3.472)"/>
      </g>
      <g id="Grupo_1115323" data-name="Grupo 1115323" transform="translate(1327.076 2563)">
        <path id="Trazado_927850" data-name="Trazado 927850" d="M2,32v3.418H5.681A22.094,22.094,0,0,0,9.7,45.105L7.091,47.712l4.834,4.834,2.606-2.606a22.094,22.094,0,0,0,9.688,4.017v3.681h6.837V53.957a22.094,22.094,0,0,0,9.687-4.017l2.606,2.606,4.834-4.834-2.606-2.606a22.094,22.094,0,0,0,4.017-9.688h3.681V32" transform="translate(-1.145 -5.505)" fill="#b5b5b5"/>
        <path id="Trazado_927851" data-name="Trazado 927851" d="M44.765,32A15.383,15.383,0,0,1,14,32" transform="translate(-2.89 -5.505)" fill="#f2f2f2"/>
        <path id="Trazado_927852" data-name="Trazado 927852" d="M15.673,27.638H2a25.638,25.638,0,0,1,51.275,0H39.6" transform="translate(-1.145 -1.143)" fill="#3b5892"/>
        <ellipse id="Elipse_14512" data-name="Elipse 14512" cx="11.964" cy="11.964" rx="11.964" ry="11.964" transform="translate(14.528 14.531)" fill="#5e87ca"/>
        <path id="Trazado_927853" data-name="Trazado 927853" d="M25,25H36.964V36.964H25Z" transform="translate(-4.49 -4.487)" fill="#c0dafc"/>
        <path id="Trazado_927854" data-name="Trazado 927854" d="M29,29h5.128v5.128H29Z" transform="translate(-5.072 -5.069)" fill="#5e87ca"/>
        <path id="Trazado_927855" data-name="Trazado 927855" d="M32.418,31.564V29H29v3.418h2.564A.855.855,0,0,0,32.418,31.564Z" transform="translate(-5.072 -5.069)" fill="#78a0d4"/>
        <path id="Trazado_927856" data-name="Trazado 927856" d="M33.982,28H28.855a.855.855,0,0,0-.855.855v5.128a.855.855,0,0,0,.855.855h5.128a.855.855,0,0,0,.855-.855V28.855A.855.855,0,0,0,33.982,28Zm-.855,5.128H29.709V29.709h3.418Z" transform="translate(-4.926 -4.924)"/>
        <path id="Trazado_927857" data-name="Trazado 927857" d="M45.382,7.972l-.009-.015h0a26.438,26.438,0,0,0-35.753,0v.006A26.426,26.426,0,0,0,1,27.492V30.91a.855.855,0,0,0,.855.855h2.96A23.093,23.093,0,0,0,8.435,40.5L6.342,42.6a.855.855,0,0,0,0,1.208l4.834,4.834a.855.855,0,0,0,1.208,0l2.1-2.093a23.093,23.093,0,0,0,8.737,3.62v2.96a.855.855,0,0,0,.855.855h6.837a.855.855,0,0,0,.855-.855v-2.96a23.093,23.093,0,0,0,8.737-3.62l2.1,2.1a.855.855,0,0,0,1.208,0l4.834-4.834a.855.855,0,0,0,0-1.208L46.55,40.5a23.093,23.093,0,0,0,3.62-8.737h2.96a.855.855,0,0,0,.855-.855V27.492a26.427,26.427,0,0,0-8.6-19.52ZM12.634,11.288A30.742,30.742,0,0,0,9.9,18.166,31.373,31.373,0,0,1,5.37,16.337,24.9,24.9,0,0,1,9.9,10.063a26.99,26.99,0,0,0,2.735,1.225Zm1.612.565a38.489,38.489,0,0,0,5.271,1.289q-.5,2.287-.855,5.083a12.909,12.909,0,0,0-1.453,1.646,51.68,51.68,0,0,1-5.682-1.216,28.976,28.976,0,0,1,2.718-6.8Zm30.839-1.788a24.9,24.9,0,0,1,4.529,6.274,31.236,31.236,0,0,1-4.529,1.829A30.758,30.758,0,0,0,42.35,11.29a26.7,26.7,0,0,0,2.736-1.227Zm-1.629,8.587a51.6,51.6,0,0,1-5.682,1.216,12.85,12.85,0,0,0-1.453-1.646q-.356-2.8-.855-5.083a38.489,38.489,0,0,0,5.272-1.286,28.976,28.976,0,0,1,2.718,6.8Zm-15.964-2.27a11.11,11.11,0,1,1-11.11,11.11,11.11,11.11,0,0,1,11.11-11.11Zm-6.883.313q.274-1.725.632-3.294a47.717,47.717,0,0,0,6.25.41,47.621,47.621,0,0,0,6.262-.412c.227,1.047.437,2.146.621,3.3A12.726,12.726,0,0,0,20.609,16.695Zm14.463-5.219a21.79,21.79,0,0,0-3.541-8.062,17.051,17.051,0,0,1,8.29,6.939,37.4,37.4,0,0,1-4.748,1.123Zm-1.743.256a46.156,46.156,0,0,1-5.838.369,46.174,46.174,0,0,1-5.843-.371c1.477-5.476,3.658-9.022,5.843-9.022s4.365,3.546,5.838,9.023Zm-13.417-.256a37.11,37.11,0,0,1-4.748-1.123,17.051,17.051,0,0,1,8.29-6.939,21.8,21.8,0,0,0-3.542,8.062ZM16.2,21.432a12.728,12.728,0,0,0-1.484,5.205h-4.3a34.928,34.928,0,0,1,.718-6.324A51.405,51.405,0,0,0,16.2,21.432Zm-1.484,6.914a12.8,12.8,0,0,0,25.552,0h1.709a14.508,14.508,0,0,1-28.971,0Zm25.552-1.709a12.728,12.728,0,0,0-1.484-5.205c1.78-.3,3.475-.678,5.067-1.116a34.928,34.928,0,0,1,.718,6.324Zm6.01,0a36.413,36.413,0,0,0-.789-6.806,33.27,33.27,0,0,0,4.843-1.942,24.6,24.6,0,0,1,1.927,8.748ZM43.763,8.816c-.725.351-1.492.677-2.3.976A22.048,22.048,0,0,0,36.893,4.56,24.838,24.838,0,0,1,43.763,8.816ZM18.1,4.56a22.031,22.031,0,0,0-4.579,5.233c-.8-.3-1.571-.625-2.3-.977A24.855,24.855,0,0,1,18.1,4.56ZM4.653,17.89A33.309,33.309,0,0,0,9.5,19.831a36.414,36.414,0,0,0-.789,6.806H2.725A24.6,24.6,0,0,1,4.653,17.89Zm44.8,12.166a.855.855,0,0,0-.844.725A21.365,21.365,0,0,1,44.743,40.1a.855.855,0,0,0,.085,1.111l2,2L43.2,46.834l-2-2a.855.855,0,0,0-1.111-.085,21.365,21.365,0,0,1-9.315,3.862.855.855,0,0,0-.725.844v2.822H24.928V49.449A.855.855,0,0,0,24.2,48.6a21.365,21.365,0,0,1-9.315-3.862.855.855,0,0,0-1.111.085l-2,2L8.155,43.2l2-2a.855.855,0,0,0,.085-1.111,21.365,21.365,0,0,1-3.858-9.31.855.855,0,0,0-.849-.725H2.709V28.346H11.3a16.215,16.215,0,0,0,32.389,0h8.588v1.709Z" transform="translate(-1 -0.997)"/>
        <path id="Trazado_927858" data-name="Trazado 927858" d="M23.564,36.383a.855.855,0,0,0,.855.855h1.709V39.8h1.709V37.237h1.709V39.8h1.709V37.237h1.709V39.8h1.709V37.237h1.709a.855.855,0,0,0,.855-.855V34.673H39.8V32.964H37.237V31.255H39.8V29.546H37.237V27.837H39.8V26.128H37.237V24.418a.855.855,0,0,0-.855-.855H34.673V21H32.964v2.564H31.255V21H29.546v2.564H27.837V21H26.128v2.564H24.418a.855.855,0,0,0-.855.855v1.709H21v1.709h2.564v1.709H21v1.709h2.564v1.709H21v1.709h2.564Zm1.709-11.11H35.528V35.528H25.273Z" transform="translate(-3.908 -3.906)"/>
      </g>
    </g>
  </g>
</svg>
