<svg id="Grupo_1114657" data-name="Grupo 1114657" xmlns="http://www.w3.org/2000/svg" width="85" height="55.379" viewBox="0 0 85 55.379">
  <ellipse id="Elipse_11682" data-name="Elipse 11682" cx="3.036" cy="3.077" rx="3.036" ry="3.077" transform="translate(25.804)" fill="#523dbf"/>
  <ellipse id="Elipse_11683" data-name="Elipse 11683" cx="3.036" cy="3.077" rx="3.036" ry="3.077" transform="translate(25.804 12.306)" fill="#523dbf"/>
  <ellipse id="Elipse_11684" data-name="Elipse 11684" cx="3.036" cy="3.077" rx="3.036" ry="3.077" transform="translate(25.804 36.919)" fill="#523dbf"/>
  <ellipse id="Elipse_11685" data-name="Elipse 11685" cx="3.036" cy="3.077" rx="3.036" ry="3.077" transform="translate(53.125)" fill="#523dbf"/>
  <ellipse id="Elipse_11686" data-name="Elipse 11686" cx="3.036" cy="3.077" rx="3.036" ry="3.077" transform="translate(53.125 12.306)" fill="#523dbf"/>
  <ellipse id="Elipse_11687" data-name="Elipse 11687" cx="3.036" cy="3.077" rx="3.036" ry="3.077" transform="translate(53.125 36.919)" fill="#523dbf"/>
  <ellipse id="Elipse_11688" data-name="Elipse 11688" cx="3.036" cy="3.077" rx="3.036" ry="3.077" transform="translate(53.125 49.225)" fill="#523dbf"/>
  <ellipse id="Elipse_11689" data-name="Elipse 11689" cx="3.036" cy="3.077" rx="3.036" ry="3.077" transform="translate(53.125 24.613)" fill="#523dbf"/>
  <ellipse id="Elipse_11690" data-name="Elipse 11690" cx="3.036" cy="3.077" rx="3.036" ry="3.077" transform="translate(39.464)" fill="#523dbf"/>
  <ellipse id="Elipse_11691" data-name="Elipse 11691" cx="3.036" cy="3.077" rx="3.036" ry="3.077" transform="translate(39.464 12.306)" fill="#523dbf"/>
  <ellipse id="Elipse_11692" data-name="Elipse 11692" cx="3.036" cy="3.077" rx="3.036" ry="3.077" transform="translate(39.464 36.919)" fill="#523dbf"/>
  <ellipse id="Elipse_11693" data-name="Elipse 11693" cx="3.036" cy="3.077" rx="3.036" ry="3.077" transform="translate(39.464 49.225)" fill="#523dbf"/>
  <ellipse id="Elipse_12763" data-name="Elipse 12763" cx="3.036" cy="3.077" rx="3.036" ry="3.077" transform="translate(25.804 49.225)" fill="#523dbf"/>
  <ellipse id="Elipse_11694" data-name="Elipse 11694" cx="3.036" cy="3.077" rx="3.036" ry="3.077" transform="translate(39.464 24.613)" fill="#523dbf"/>
  <ellipse id="Elipse_11695" data-name="Elipse 11695" cx="3.036" cy="3.077" rx="3.036" ry="3.077" transform="translate(65.268)" fill="#523dbf"/>
  <ellipse id="Elipse_11696" data-name="Elipse 11696" cx="3.036" cy="3.077" rx="3.036" ry="3.077" transform="translate(65.268 12.306)" fill="#523dbf"/>
  <ellipse id="Elipse_11699" data-name="Elipse 11699" cx="3.036" cy="3.077" rx="3.036" ry="3.077" transform="translate(65.268 24.613)" fill="#523dbf"/>
  <ellipse id="Elipse_12762" data-name="Elipse 12762" cx="3.036" cy="3.077" rx="3.036" ry="3.077" transform="translate(78.929 24.613)" fill="#523dbf"/>
  <ellipse id="Elipse_11700" data-name="Elipse 11700" cx="3.036" cy="3.077" rx="3.036" ry="3.077" transform="translate(78.929)" fill="#523dbf"/>
  <ellipse id="Elipse_11703" data-name="Elipse 11703" cx="3.036" cy="3.077" rx="3.036" ry="3.077" transform="translate(12.143 12.306)" fill="#523dbf"/>
  <ellipse id="Elipse_11704" data-name="Elipse 11704" cx="3.036" cy="3.077" rx="3.036" ry="3.077" transform="translate(12.143 36.919)" fill="#523dbf"/>
  <ellipse id="Elipse_11706" data-name="Elipse 11706" cx="3.036" cy="3.077" rx="3.036" ry="3.077" transform="translate(0 36.919)" fill="#523dbf"/>
</svg>
