<svg xmlns="http://www.w3.org/2000/svg" width="90" height="90" viewBox="0 0 90 90">
  <g id="Grupo_1116092" data-name="Grupo 1116092" transform="translate(-1174.184 -2863)">
    <g id="Grupo_1116065" data-name="Grupo 1116065" transform="translate(994.516 2121)">
      <rect id="Rectángulo_402006" data-name="Rectángulo 402006" width="90" height="90" transform="translate(179.668 742)" fill="#f1ff64"/>
    </g>
    <g id="Outline" transform="translate(1142.184 2859)">
      <path id="Trazado_927868" data-name="Trazado 927868" d="M59,64H52.4A4.4,4.4,0,0,0,48,68.4v37.4a4.4,4.4,0,0,0,4.4,4.4H59V108H52.4a2.2,2.2,0,0,1-2.2-2.2V75H59V72.8H50.2V68.4a2.2,2.2,0,0,1,2.2-2.2H59Z" transform="translate(0 -41.4)" fill="#523dbf"/>
      <path id="Trazado_927869" data-name="Trazado 927869" d="M184.7,66.6h-3.3v2.2h3.3a4.4,4.4,0,0,0,4.4-4.4V27a4.408,4.408,0,0,0-3.3-4.261V20.4a4.4,4.4,0,0,0-4.4-4.4h-33a4.4,4.4,0,0,0-4.4,4.4V80.9a1.1,1.1,0,0,0,1.1,1.1h33a1.1,1.1,0,0,0,1.1-1.1V20.4a2.2,2.2,0,0,1,4.4,0v2.2h-2.2v2.2h3.3a2.2,2.2,0,0,1,2.2,2.2v4.4h-5.5v2.2h5.5V64.4a2.2,2.2,0,0,1-2.2,2.2ZM177,20.4V79.8H146.2V20.4a2.2,2.2,0,0,1,2.2-2.2h29.19A4.373,4.373,0,0,0,177,20.4Z" transform="translate(-82.8 0)" fill="#523dbf"/>
      <path id="Trazado_927870" data-name="Trazado 927870" d="M80,96h2.2v2.2H80Z" transform="translate(-27.6 -69)" fill="#523dbf"/>
      <path id="Trazado_927871" data-name="Trazado 927871" d="M112,96h2.2v2.2H112Z" transform="translate(-55.2 -69)" fill="#523dbf"/>
      <path id="Trazado_927872" data-name="Trazado 927872" d="M194.2,77.183l1.842-1.842a11.014,11.014,0,1,0-1.556-1.556l-2.165,2.165a1.1,1.1,0,0,0-.322.778v15.4h2.2Zm17.6-10.356a8.754,8.754,0,0,1-1.838,5.373L204.1,66.37V58.1a8.811,8.811,0,0,1,7.7,8.729ZM197.607,59.88A8.754,8.754,0,0,1,201.9,58.1v6.073ZM194.2,66.828a8.754,8.754,0,0,1,1.853-5.392l6.169,6.17,0,0,6.186,6.153a8.772,8.772,0,0,1-10.8.015l2.869-2.869-1.556-1.556-2.869,2.869a8.753,8.753,0,0,1-1.853-5.392Z" transform="translate(-124.199 -34.328)" fill="#523dbf"/>
      <path id="Trazado_927873" data-name="Trazado 927873" d="M192,336h2.2v2.2H192Z" transform="translate(-124.2 -276)" fill="#523dbf"/>
      <path id="Trazado_927874" data-name="Trazado 927874" d="M233.1,240a1.1,1.1,0,0,0-1.1,1.1v4.4a1.1,1.1,0,0,0,1.1,1.1h15.4a1.1,1.1,0,0,0,1.1-1.1v-4.4a1.1,1.1,0,0,0-1.1-1.1Zm1.1,2.2h7.7v2.2h-7.7Zm13.2,2.2h-3.3v-2.2h3.3Z" transform="translate(-158.7 -193.2)" fill="#523dbf"/>
      <path id="Trazado_927875" data-name="Trazado 927875" d="M248.5,304H233.1a1.1,1.1,0,0,0-1.1,1.1v4.4a1.1,1.1,0,0,0,1.1,1.1h15.4a1.1,1.1,0,0,0,1.1-1.1v-4.4A1.1,1.1,0,0,0,248.5,304Zm-14.3,2.2h2.2v2.2h-2.2Zm13.2,2.2h-8.8v-2.2h8.8Z" transform="translate(-158.7 -248.4)" fill="#523dbf"/>
      <path id="Trazado_927876" data-name="Trazado 927876" d="M200,376h2.2v2.2H200Z" transform="translate(-131.1 -310.5)" fill="#523dbf"/>
      <path id="Trazado_927877" data-name="Trazado 927877" d="M232,376h17.6v2.2H232Z" transform="translate(-158.7 -310.5)" fill="#523dbf"/>
      <path id="Trazado_927878" data-name="Trazado 927878" d="M184,408h24.2v2.2H184Z" transform="translate(-117.3 -338.1)" fill="#523dbf"/>
      <path id="Trazado_927879" data-name="Trazado 927879" d="M184,440h22v2.2H184Z" transform="translate(-117.3 -365.7)" fill="#523dbf"/>
    </g>
  </g>
</svg>
