<svg xmlns="http://www.w3.org/2000/svg" width="386" height="167.078" viewBox="0 0 386 167.078">
  <g id="Grupo_1115241" data-name="Grupo 1115241" transform="translate(-1010.184 -877.5)">
    <g id="Grupo_1114653" data-name="Grupo 1114653" transform="translate(95.288 -3243)">
      <rect id="Rectángulo_411486" data-name="Rectángulo 411486" width="386" height="115" rx="10" transform="translate(914.896 4147)" fill="#fe9ab8"/>
    </g>
    <g id="_249295333_4c74c4d9-39e6-4f27-b047-c8d669582883" data-name="249295333_4c74c4d9-39e6-4f27-b047-c8d669582883" transform="translate(980.065 693.715)">
      <path id="Trazado_927564" data-name="Trazado 927564" d="M352.443,381.111a57.014,57.014,0,0,1-2.284,6.211H116.147a65.214,65.214,0,0,1-8.576-11.491c-2.8-4.775-16.061-28.769-6.286-51.54,5.077-11.826,14.764-19.595,21.369-24.889,7.692-6.166,10.11-5.984,18.605-12.069,13.667-9.787,16.288-16.618,26.146-26.146,7.311-7.067,21.541-20.823,41.231-23.632,21.224-3.029,46.225,7.025,58.327,24.386,7.9,11.328,5.383,18.711,15.085,26.4,10.514,8.332,18.085,3.323,32.682,9.553,20.694,8.833,30.152,29.43,32.684,34.947C350.235,338.981,359.258,358.634,352.443,381.111Z" transform="translate(0 -47.388)" fill="#ece7fc"/>
      <path id="Trazado_927565" data-name="Trazado 927565" d="M107.66,1719.39H362.841" transform="translate(-8.912 -1379.456)" fill="none" stroke="#000" stroke-linecap="round" stroke-linejoin="round" stroke-miterlimit="10" stroke-width="1"/>
      <g id="Grupo_1115236" data-name="Grupo 1115236" transform="translate(102.919 184.285)">
        <g id="Grupo_1115169" data-name="Grupo 1115169" transform="translate(112.359 109.605)">
          <path id="Trazado_927566" data-name="Trazado 927566" d="M1306.239,1266.937v1.758h-49.292v-1.758a1.662,1.662,0,0,1,1.662-1.662h45.967A1.663,1.663,0,0,1,1306.239,1266.937Z" transform="translate(-1256.947 -1265.274)" fill="none" stroke="#000" stroke-linecap="round" stroke-linejoin="round" stroke-miterlimit="10" stroke-width="1"/>
          <path id="Trazado_927567" data-name="Trazado 927567" d="M1304.572,1265.28h-45.967a1.662,1.662,0,0,0-1.662,1.662v29a1.656,1.656,0,0,0,1.656,1.656h45.981a1.656,1.656,0,0,0,1.656-1.656v-29A1.662,1.662,0,0,0,1304.572,1265.28Z" transform="translate(-1256.943 -1265.279)" fill="none" stroke="#000" stroke-miterlimit="10" stroke-width="1"/>
          <path id="Trazado_927568" data-name="Trazado 927568" d="M1322.838,1359.32v19.632h-44.529v-12.807a14.728,14.728,0,0,0,3.525,3.359,12.354,12.354,0,0,0,4.843,2.207,5.009,5.009,0,0,0,4.477-1.838,28.313,28.313,0,0,0,3.274-4.944,11.343,11.343,0,0,1,2.994-3.6,4.543,4.543,0,0,1,3.2-.9c1.784.253,3.329,1.807,4.569,3,.9.867,1.737,1.792,2.552,2.737a10.277,10.277,0,0,0,2.516,2.365c2.078,1.206,4.273.25,5.942-1.2a14.807,14.807,0,0,0,1.594-1.632c1.255-1.478,2.34-3.1,3.544-4.616C1321.817,1360.48,1322.32,1359.894,1322.838,1359.32Z" transform="translate(-1276.143 -1349.784)" fill="#7c60ea"/>
          <path id="Trazado_927569" data-name="Trazado 927569" d="M1278.77,1382.575c.579-1.631,1.182-3.254,1.792-4.874.617-1.64,1.2-3.3,1.977-4.871.673-1.372,1.524-2.987,3.023-3.6,2.024-.827,3.574,1.427,4.539,2.849,1.259,1.855,3.172,5.558,5.99,4.7,1.7-.519,2.422-2.66,3.162-4.077.756-1.447,1.414-2.939,2.082-4.428a12.188,12.188,0,0,1,2.436-3.85,3.27,3.27,0,0,1,1.283-.837c1.825-.56,3.137,1.706,3.711,3.074a22.565,22.565,0,0,1,1.26,5.079c.224,1.352.854,3.162,2.292,3.64,2.4.8,4.183-2.659,5.346-4.165.419-.543.793-1.182,1.572-1.11a2.436,2.436,0,0,1,1.6,1.1,8.389,8.389,0,0,1,1.185,3.063,54.984,54.984,0,0,1,.934,8.134" transform="translate(-1276.557 -1353.539)" fill="none" stroke="#000" stroke-miterlimit="10" stroke-width="1"/>
          <g id="Grupo_1115168" data-name="Grupo 1115168" transform="translate(2.166 1.125)">
            <path id="Trazado_927570" data-name="Trazado 927570" d="M1279.477,1276.958a.586.586,0,1,1-.586-.586A.586.586,0,0,1,1279.477,1276.958Z" transform="translate(-1278.305 -1276.372)" fill="#7c60ea"/>
            <circle id="Elipse_14504" data-name="Elipse 14504" cx="0.586" cy="0.586" r="0.586" transform="translate(2.167)" fill="#7c60ea"/>
            <path id="Trazado_927571" data-name="Trazado 927571" d="M1322.227,1276.958a.586.586,0,1,1-.586-.586A.586.586,0,0,1,1322.227,1276.958Z" transform="translate(-1316.72 -1276.372)" fill="#7c60ea"/>
          </g>
        </g>
        <g id="Grupo_1115170" data-name="Grupo 1115170" transform="translate(94.766 121.335)">
          <path id="Trazado_927572" data-name="Trazado 927572" d="M1088.037,1381.243l-4.607-.283,2.058,4.132Z" transform="translate(-1083.43 -1380.96)"/>
        </g>
        <g id="Grupo_1115171" data-name="Grupo 1115171" transform="translate(234.317 102.102)">
          <path id="Trazado_927573" data-name="Trazado 927573" d="M2460.208,1208.532a.457.457,0,0,1-.448-.466,3,3,0,0,1,1.34-2.359,1.959,1.959,0,0,0,.064-3.4,2.842,2.842,0,0,1,.09-4.767,1.959,1.959,0,0,0,.064-3.4,3,3,0,0,1-1.25-2.408.457.457,0,1,1,.914.017,2.14,2.14,0,0,0,.958,1.721,2.841,2.841,0,0,1-.09,4.767,1.959,1.959,0,0,0-.064,3.4,2.842,2.842,0,0,1-.09,4.767,2.141,2.141,0,0,0-1.022,1.684A.458.458,0,0,1,2460.208,1208.532Z" transform="translate(-2459.759 -1191.275)"/>
        </g>
        <g id="Grupo_1115172" data-name="Grupo 1115172" transform="translate(15.749 40.445)">
          <path id="Trazado_927574" data-name="Trazado 927574" d="M309.913,583.178l-5.8,1.978,4.614,4.036Z" transform="translate(-304.11 -583.178)"/>
        </g>
        <g id="Grupo_1115176" data-name="Grupo 1115176" transform="translate(93.705 144.72)">
          <g id="Grupo_1115173" data-name="Grupo 1115173" transform="translate(1.061 0.927)">
            <path id="Trazado_927575" data-name="Trazado 927575" d="M1104.017,1629.934l-2.255-.738a8.083,8.083,0,0,0-.887-2.132l1.076-2.12a.5.5,0,0,0-.091-.575l-1.133-1.132a.492.492,0,0,0-.573-.091l-.834.423-1.287.652a8.1,8.1,0,0,0-2.131-.886l-.738-2.255a.5.5,0,0,0-.47-.342h-1.6a.408.408,0,0,0-.068.006.491.491,0,0,0-.4.336l-.738,2.255a8.111,8.111,0,0,0-2.132.886l-.878-.445-1.242-.63a.5.5,0,0,0-.575.091l-.331.331-.8.8a.491.491,0,0,0-.091.573l1.076,2.121a8.04,8.04,0,0,0-.886,2.132l-2.256.737a.5.5,0,0,0-.342.47v1.6a.492.492,0,0,0,.342.469l2.256.739a8.068,8.068,0,0,0,.887,2.131l-1.076,2.12a.493.493,0,0,0,.091.574l.8.8.331.332a.494.494,0,0,0,.574.091l1.243-.63.878-.445a8.089,8.089,0,0,0,2.132.886l.737,2.255a.491.491,0,0,0,.4.336.422.422,0,0,0,.069.006h1.6a.493.493,0,0,0,.47-.34l.739-2.257a8.1,8.1,0,0,0,2.131-.886l1.287.653.832.422a.5.5,0,0,0,.575-.091l1.133-1.132a.494.494,0,0,0,.091-.573l-1.076-2.122a8.076,8.076,0,0,0,.887-2.13l2.255-.738a.5.5,0,0,0,.342-.47v-1.6A.489.489,0,0,0,1104.017,1629.934Zm-10.124,5.9a4.632,4.632,0,1,1,4.633-4.633A4.637,4.637,0,0,1,1093.893,1635.836Z" transform="translate(-1083.427 -1620.738)"/>
          </g>
          <g id="Grupo_1115174" data-name="Grupo 1115174" transform="translate(0)">
            <path id="Trazado_927576" data-name="Trazado 927576" d="M1093.555,1620.795l-2.255-.738a8.085,8.085,0,0,0-.887-2.132l1.077-2.12a.5.5,0,0,0-.091-.575l-1.133-1.132a.492.492,0,0,0-.573-.091l-.834.423-1.287.652a8.091,8.091,0,0,0-2.131-.886l-.738-2.255a.494.494,0,0,0-.47-.342h-1.6a.4.4,0,0,0-.068.006.49.49,0,0,0-.4.336l-.738,2.256a8.11,8.11,0,0,0-2.132.886l-.878-.445-1.242-.63a.5.5,0,0,0-.575.091l-.332.331-.8.8a.491.491,0,0,0-.091.573l1.076,2.121a8.043,8.043,0,0,0-.886,2.132l-2.256.737a.5.5,0,0,0-.342.47v1.6a.491.491,0,0,0,.342.469l2.255.739a8.078,8.078,0,0,0,.887,2.131l-1.076,2.12a.492.492,0,0,0,.091.574l.8.8.332.332a.494.494,0,0,0,.574.091l1.243-.63.878-.445a8.087,8.087,0,0,0,2.132.886l.737,2.256a.492.492,0,0,0,.4.336.407.407,0,0,0,.069.006h1.6a.493.493,0,0,0,.47-.341l.739-2.257a8.1,8.1,0,0,0,2.13-.886l1.287.653.832.422a.5.5,0,0,0,.575-.091l1.133-1.133a.494.494,0,0,0,.091-.573l-1.076-2.122a8.078,8.078,0,0,0,.887-2.131l2.255-.738a.5.5,0,0,0,.342-.47v-1.6A.489.489,0,0,0,1093.555,1620.795Zm-10.124,5.9a4.632,4.632,0,1,1,4.633-4.634A4.637,4.637,0,0,1,1083.431,1626.7Z" transform="translate(-1072.965 -1611.599)" fill="#fff"/>
          </g>
          <g id="Grupo_1115175" data-name="Grupo 1115175" transform="translate(0)">
            <path id="Trazado_927577" data-name="Trazado 927577" d="M1093.555,1620.795l-2.255-.738a8.085,8.085,0,0,0-.887-2.132l1.077-2.12a.5.5,0,0,0-.091-.575l-1.133-1.132a.492.492,0,0,0-.573-.091l-.834.423-1.287.652a8.091,8.091,0,0,0-2.131-.886l-.738-2.255a.494.494,0,0,0-.47-.342h-1.6a.4.4,0,0,0-.068.006.49.49,0,0,0-.4.336l-.738,2.256a8.11,8.11,0,0,0-2.132.886l-.878-.445-1.242-.63a.5.5,0,0,0-.575.091l-.332.331-.8.8a.491.491,0,0,0-.091.573l1.076,2.121a8.043,8.043,0,0,0-.886,2.132l-2.256.737a.5.5,0,0,0-.342.47v1.6a.491.491,0,0,0,.342.469l2.255.739a8.078,8.078,0,0,0,.887,2.131l-1.076,2.12a.492.492,0,0,0,.091.574l.8.8.332.332a.494.494,0,0,0,.574.091l1.243-.63.878-.445a8.087,8.087,0,0,0,2.132.886l.737,2.256a.492.492,0,0,0,.4.336.407.407,0,0,0,.069.006h1.6a.493.493,0,0,0,.47-.341l.739-2.257a8.1,8.1,0,0,0,2.13-.886l1.287.653.832.422a.5.5,0,0,0,.575-.091l1.133-1.133a.494.494,0,0,0,.091-.573l-1.076-2.122a8.078,8.078,0,0,0,.887-2.131l2.255-.738a.5.5,0,0,0,.342-.47v-1.6A.489.489,0,0,0,1093.555,1620.795Zm-10.124,5.9a4.632,4.632,0,1,1,4.633-4.634A4.637,4.637,0,0,1,1083.431,1626.7Z" transform="translate(-1072.965 -1611.599)" fill="none" stroke="#000" stroke-linecap="round" stroke-miterlimit="10" stroke-width="1"/>
          </g>
        </g>
        <g id="Grupo_1115177" data-name="Grupo 1115177" transform="translate(238.74 43.341)">
          <path id="Trazado_927578" data-name="Trazado 927578" d="M2507.63,612l-4.25-.261,1.9,3.811Z" transform="translate(-2503.38 -611.735)"/>
        </g>
        <g id="Grupo_1115178" data-name="Grupo 1115178" transform="translate(115.253 12.734)">
          <path id="Trazado_927579" data-name="Trazado 927579" d="M1299.987,312.178a.384.384,0,0,1-.384.384,2.519,2.519,0,0,1-2-1.089,1.647,1.647,0,0,0-2.863,0,2.389,2.389,0,0,1-4.008,0,1.647,1.647,0,0,0-2.862,0,2.519,2.519,0,0,1-2,1.089.384.384,0,1,1,0-.768,1.8,1.8,0,0,0,1.431-.832,2.389,2.389,0,0,1,4.008,0,1.647,1.647,0,0,0,2.862,0,2.389,2.389,0,0,1,4.008,0,1.8,1.8,0,0,0,1.431.832A.384.384,0,0,1,1299.987,312.178Z" transform="translate(-1285.477 -309.873)"/>
        </g>
        <g id="Grupo_1115207" data-name="Grupo 1115207" transform="translate(91.283 21.836)">
          <path id="Trazado_927580" data-name="Trazado 927580" d="M1153.33,468.3H1052.546a3.475,3.475,0,0,1-3.475-3.475V403.12a3.475,3.475,0,0,1,3.475-3.475H1153.33a3.475,3.475,0,0,1,3.475,3.475v61.708A3.475,3.475,0,0,1,1153.33,468.3Z" transform="translate(-1049.07 -399.645)" fill="#fff"/>
          <path id="Trazado_927581" data-name="Trazado 927581" d="M1153.33,468.3H1052.546a3.475,3.475,0,0,1-3.475-3.475V403.12a3.475,3.475,0,0,1,3.475-3.475H1153.33a3.475,3.475,0,0,1,3.475,3.475v61.708A3.475,3.475,0,0,1,1153.33,468.3Z" transform="translate(-1049.07 -399.645)" fill="none" stroke="#000" stroke-miterlimit="10" stroke-width="1"/>
          <g id="Grupo_1115206" data-name="Grupo 1115206" transform="translate(7.316 8.269)">
            <g id="Grupo_1115181" data-name="Grupo 1115181" transform="translate(0 30.417)">
              <g id="Grupo_1115180" data-name="Grupo 1115180">
                <g id="Grupo_1115179" data-name="Grupo 1115179">
                  <rect id="Rectángulo_413048" data-name="Rectángulo 413048" width="6.104" height="22.167"/>
                </g>
              </g>
            </g>
            <g id="Grupo_1115184" data-name="Grupo 1115184" transform="translate(21.75 12.487)">
              <g id="Grupo_1115183" data-name="Grupo 1115183">
                <g id="Grupo_1115182" data-name="Grupo 1115182">
                  <rect id="Rectángulo_413049" data-name="Rectángulo 413049" width="6.104" height="40.096"/>
                </g>
              </g>
            </g>
            <g id="Grupo_1115187" data-name="Grupo 1115187" transform="translate(10.157 21.48)">
              <g id="Grupo_1115186" data-name="Grupo 1115186">
                <g id="Grupo_1115185" data-name="Grupo 1115185">
                  <rect id="Rectángulo_413050" data-name="Rectángulo 413050" width="7.541" height="31.103" fill="#7c60ea"/>
                </g>
              </g>
            </g>
            <g id="Grupo_1115190" data-name="Grupo 1115190" transform="translate(43.501 37.413)">
              <g id="Grupo_1115189" data-name="Grupo 1115189">
                <g id="Grupo_1115188" data-name="Grupo 1115188">
                  <rect id="Rectángulo_413051" data-name="Rectángulo 413051" width="6.104" height="15.17"/>
                </g>
              </g>
            </g>
            <g id="Grupo_1115193" data-name="Grupo 1115193" transform="translate(32.625 37.413)">
              <g id="Grupo_1115192" data-name="Grupo 1115192">
                <g id="Grupo_1115191" data-name="Grupo 1115191">
                  <rect id="Rectángulo_413052" data-name="Rectángulo 413052" width="6.104" height="15.17" fill="#7c60ea"/>
                </g>
              </g>
            </g>
            <g id="Grupo_1115196" data-name="Grupo 1115196" transform="translate(65.251 27.74)">
              <g id="Grupo_1115195" data-name="Grupo 1115195">
                <g id="Grupo_1115194" data-name="Grupo 1115194">
                  <rect id="Rectángulo_413053" data-name="Rectángulo 413053" width="6.104" height="24.843"/>
                </g>
              </g>
            </g>
            <g id="Grupo_1115199" data-name="Grupo 1115199" transform="translate(54.376 6.172)">
              <g id="Grupo_1115198" data-name="Grupo 1115198">
                <g id="Grupo_1115197" data-name="Grupo 1115197">
                  <rect id="Rectángulo_413054" data-name="Rectángulo 413054" width="6.104" height="46.411" fill="#7c60ea"/>
                </g>
              </g>
            </g>
            <g id="Grupo_1115202" data-name="Grupo 1115202" transform="translate(76.126)">
              <g id="Grupo_1115201" data-name="Grupo 1115201">
                <g id="Grupo_1115200" data-name="Grupo 1115200">
                  <rect id="Rectángulo_413055" data-name="Rectángulo 413055" width="6.104" height="52.583" fill="#7c60ea"/>
                </g>
              </g>
            </g>
            <g id="Grupo_1115205" data-name="Grupo 1115205" transform="translate(87.001 35.271)">
              <g id="Grupo_1115204" data-name="Grupo 1115204">
                <g id="Grupo_1115203" data-name="Grupo 1115203">
                  <rect id="Rectángulo_413056" data-name="Rectángulo 413056" width="6.104" height="17.312"/>
                </g>
              </g>
            </g>
          </g>
          <line id="Línea_52632" data-name="Línea 52632" x2="41.882" transform="translate(10.894 7.806)" fill="none" stroke="#000" stroke-miterlimit="10" stroke-width="1"/>
          <line id="Línea_52633" data-name="Línea 52633" x2="29.823" transform="translate(10.894 12.15)" fill="none" stroke="#000" stroke-miterlimit="10" stroke-width="1"/>
          <line id="Línea_52634" data-name="Línea 52634" x2="29.823" transform="translate(10.894 16.494)" fill="none" stroke="#000" stroke-miterlimit="10" stroke-width="1"/>
        </g>
        <g id="Grupo_1115211" data-name="Grupo 1115211" transform="translate(155.675 85.174)">
          <path id="Trazado_927582" data-name="Trazado 927582" d="M1753.851,1070.271h-67.36a2.349,2.349,0,0,1-2.349-2.349v-41.255a2.349,2.349,0,0,1,2.349-2.349h67.36a2.349,2.349,0,0,1,2.349,2.349v41.255A2.349,2.349,0,0,1,1753.851,1070.271Z" transform="translate(-1684.142 -1024.318)" fill="#fff"/>
          <path id="Trazado_927583" data-name="Trazado 927583" d="M1753.851,1070.271h-67.36a2.349,2.349,0,0,1-2.349-2.349v-41.255a2.349,2.349,0,0,1,2.349-2.349h67.36a2.349,2.349,0,0,1,2.349,2.349v41.255A2.349,2.349,0,0,1,1753.851,1070.271Z" transform="translate(-1684.142 -1024.318)" fill="none" stroke="#000" stroke-miterlimit="10" stroke-width="1"/>
          <g id="Grupo_1115208" data-name="Grupo 1115208" transform="translate(7.261 5.572)">
            <line id="Línea_52635" data-name="Línea 52635" x2="20.593" fill="none" stroke="#000" stroke-miterlimit="10" stroke-width="1"/>
            <line id="Línea_52636" data-name="Línea 52636" x2="20.593" transform="translate(0 2.523)" fill="none" stroke="#000" stroke-miterlimit="10" stroke-width="1"/>
            <line id="Línea_52637" data-name="Línea 52637" x2="29.452" transform="translate(0 5.045)" fill="none" stroke="#000" stroke-miterlimit="10" stroke-width="1"/>
            <line id="Línea_52638" data-name="Línea 52638" x2="29.452" transform="translate(0 7.568)" fill="none" stroke="#000" stroke-miterlimit="10" stroke-width="1"/>
          </g>
          <g id="Grupo_1115209" data-name="Grupo 1115209" transform="translate(7.261 18.895)">
            <path id="Trazado_927584" data-name="Trazado 927584" d="M1771.206,1247.354a10.579,10.579,0,0,1-3.69,1.039c-.337.032-.68.048-1.023.048s-.686-.016-1.018-.048a10.565,10.565,0,0,1-3.941-1.167,9.809,9.809,0,0,1-1.714-1.114,10.441,10.441,0,0,1-2.447-2.747,9.919,9.919,0,0,1-.91-1.831,10.543,10.543,0,0,1-.7-3.476c-.011-.118-.011-.236-.011-.359a10.888,10.888,0,0,1,.129-1.682,10.578,10.578,0,0,1,1.066-3.24,9.8,9.8,0,0,1,1.109-1.719,10.5,10.5,0,0,1,2.431-2.265l1.344,2.335a7.714,7.714,0,0,0-1.424,1.285,7.809,7.809,0,0,0-1.135,1.7,7.694,7.694,0,0,0-.664,1.9,7.564,7.564,0,0,0-.182,1.682c0,.123,0,.241.011.359a7.868,7.868,0,0,0,.38,2.115,8.159,8.159,0,0,0,2.362,3.583,8.018,8.018,0,0,0,5.312,2.008,7.99,7.99,0,0,0,3.368-.739Z" transform="translate(-1755.756 -1226.956)" fill="#7c60ea"/>
            <path id="Trazado_927585" data-name="Trazado 927585" d="M1917.529,1271.672c0,.123,0,.241-.011.359a10.343,10.343,0,0,1-.76,3.625v.005a9.857,9.857,0,0,1-.932,1.815,10.7,10.7,0,0,1-2.592,2.785l-1.355-2.351a8.033,8.033,0,0,0,2.961-5.88c.011-.118.011-.236.011-.359a7.555,7.555,0,0,0-.182-1.682,7.892,7.892,0,0,0-.734-2.046l2.324-1.344a10.739,10.739,0,0,1,1.141,3.39A11,11,0,0,1,1917.529,1271.672Z" transform="translate(-1896.049 -1260.93)"/>
            <path id="Trazado_927586" data-name="Trazado 927586" d="M1832.632,1214.643l-2.362,1.366a7.929,7.929,0,0,0-1.548-1.323,8.175,8.175,0,0,0-3.406-1.269,8.067,8.067,0,0,0-1.023-.064,7.983,7.983,0,0,0-1.017.064,7.562,7.562,0,0,0-1.842.466l-1.355-2.346a10.644,10.644,0,0,1,3.2-.814c.332-.032.675-.048,1.017-.048s.686.016,1.023.048a10.478,10.478,0,0,1,2.929.707,10.217,10.217,0,0,1,1.821.927A10.728,10.728,0,0,1,1832.632,1214.643Z" transform="translate(-1813.557 -1210.675)" fill="#7c60ea"/>
          </g>
          <g id="Grupo_1115210" data-name="Grupo 1115210" transform="translate(36.405 22.268)">
            <path id="Trazado_927587" data-name="Trazado 927587" d="M2044.841,1244.765a.825.825,0,1,1-.825-.825A.825.825,0,0,1,2044.841,1244.765Z" transform="translate(-2043.19 -1243.94)" fill="none" stroke="#000" stroke-miterlimit="10" stroke-width="1"/>
            <line id="Línea_52639" data-name="Línea 52639" x2="24.147" transform="translate(4.244 0.825)" fill="none" stroke="#000" stroke-miterlimit="10" stroke-width="1"/>
            <path id="Trazado_927588" data-name="Trazado 927588" d="M2044.841,1287.8a.825.825,0,1,1-.825-.825A.825.825,0,0,1,2044.841,1287.8Z" transform="translate(-2043.19 -1282.607)" fill="none" stroke="#000" stroke-miterlimit="10" stroke-width="1"/>
            <line id="Línea_52640" data-name="Línea 52640" x2="24.147" transform="translate(4.244 5.188)" fill="none" stroke="#000" stroke-miterlimit="10" stroke-width="1"/>
            <path id="Trazado_927589" data-name="Trazado 927589" d="M2044.841,1330.815a.825.825,0,1,1-.825-.825A.825.825,0,0,1,2044.841,1330.815Z" transform="translate(-2043.19 -1321.265)" fill="none" stroke="#000" stroke-miterlimit="10" stroke-width="1"/>
            <line id="Línea_52641" data-name="Línea 52641" x2="24.147" transform="translate(4.244 9.55)" fill="none" stroke="#000" stroke-miterlimit="10" stroke-width="1"/>
            <path id="Trazado_927590" data-name="Trazado 927590" d="M2044.841,1373.845a.825.825,0,1,1-.825-.825A.825.825,0,0,1,2044.841,1373.845Z" transform="translate(-2043.19 -1359.932)" fill="none" stroke="#000" stroke-miterlimit="10" stroke-width="1"/>
            <line id="Línea_52642" data-name="Línea 52642" x2="24.147" transform="translate(4.244 13.913)" fill="none" stroke="#000" stroke-miterlimit="10" stroke-width="1"/>
          </g>
        </g>
        <g id="Grupo_1115214" data-name="Grupo 1115214" transform="translate(0 28.338)">
          <path id="Trazado_927591" data-name="Trazado 927591" d="M325.669,1561.4H265.722c-.373-7.059-.906-13.109-1.4-17.827,4.413.486,9.014.9,13.791,1.223,5.2.35,10.611.588,16.216.682q.509.175,1.011.316l.333.09h0c.111.029.221.056.331.083a13.877,13.877,0,0,0,4.911.346l.033,0c.171-.022.34-.048.506-.078l.046-.009c.16-.03.318-.064.473-.1.1-.024.191-.048.286-.074q.313-.088.61-.2h0c.079-.029.157-.06.234-.09.192-.079.378-.165.556-.257h0q.744-.009,1.481-.021c6.55-.107,12.814-.408,18.769-.853Q324.842,1553.007,325.669,1561.4Z" transform="translate(-252.609 -1434.084)"/>
          <path id="Trazado_927592" data-name="Trazado 927592" d="M325.669,1561.4H265.722c-.373-7.059-.906-13.109-1.4-17.827,4.413.486,9.014.9,13.791,1.223,5.2.35,10.611.588,16.216.682q.509.175,1.011.316l.333.09h0c.111.029.221.056.331.083a13.877,13.877,0,0,0,4.911.346l.033,0c.171-.022.34-.048.506-.078l.046-.009c.16-.03.318-.064.473-.1.1-.024.191-.048.286-.074q.313-.088.61-.2h0c.079-.029.157-.06.234-.09.192-.079.378-.165.556-.257h0q.744-.009,1.481-.021c6.55-.107,12.814-.408,18.769-.853Q324.842,1553.007,325.669,1561.4Z" transform="translate(-252.609 -1434.084)" fill="none" stroke="#000" stroke-linecap="round" stroke-miterlimit="10" stroke-width="1"/>
          <g id="Grupo_1115213" data-name="Grupo 1115213">
            <path id="Trazado_927593" data-name="Trazado 927593" d="M167.439,1117a39.847,39.847,0,0,1-8.209-6.8c-.222-.241-.441-.485-.655-.732a38.537,38.537,0,0,1-6.01-9.3,41.137,41.137,0,0,1-3.155-10.312c-.034-.193-.064-.385-.094-.577a45.609,45.609,0,0,1,.131-14.628,35.941,35.941,0,0,0,4.4,3.372C147.634,1097.4,159.787,1110.807,167.439,1117Z" transform="translate(-148.789 -1012.709)"/>
            <path id="Trazado_927594" data-name="Trazado 927594" d="M678.552,1530.74a4.763,4.763,0,0,1-1.2.374Z" transform="translate(-623.755 -1422.557)"/>
            <path id="Trazado_927595" data-name="Trazado 927595" d="M234.878,772.54a27.659,27.659,0,0,1-11.714,7.021q.318,2.718.64,5.434,1.235,10.459,2.5,20.916.93,7.706,1.876,15.412-1.115.09-2.245.175c-6.4.478-13.163.79-20.251.873a5.673,5.673,0,0,0,1.023-.671c1.139-.122,2.325-.474,2.69-1.37a1.851,1.851,0,0,0,.029-1.19,2.369,2.369,0,0,0,1.271-1.239,2.013,2.013,0,0,0,.013-1.243,2.566,2.566,0,0,0,.74-.809c.153-.269.474-.964.239-1.2-.259-.258-1.018.227-1.814.547-2.1.845-4.631.617-4.858-.034s1.976-1.315,2.361-3.352c.165-.872-.025-1.882-.411-1.984-.609-.162-1.131,2.088-3.215,3.318a5.785,5.785,0,0,1-2.395.753,31.334,31.334,0,0,1-4.538-.753,35.866,35.866,0,0,1-12.518-6.141c-7.643-6.235-10.175-15.919-8.716-25.138a36.393,36.393,0,0,1-13.611-4.237,35.84,35.84,0,0,1-6.687-4.736h0c2.243-13.186,10.164-25.336,22.685-30.979q1.61-.725,3.283-1.293a37.394,37.394,0,0,1,8.167-1.775,11.229,11.229,0,0,0,2.129,4.615c2.68,3.4,8.319,6.258,13.087,3.712A9.549,9.549,0,0,0,209.1,741.7l.046.019c8.406,3.452,15.389,9.513,21.839,15.771a78.242,78.242,0,0,0,8.927,7.917A27.141,27.141,0,0,1,234.878,772.54Z" transform="translate(-154.625 -710.958)" fill="#7c60ea"/>
            <path id="Trazado_927596" data-name="Trazado 927596" d="M662.3,1507.228a7.425,7.425,0,0,0,4.015-.969Z" transform="translate(-610.232 -1400.558)"/>
            <path id="Trazado_927597" data-name="Trazado 927597" d="M277.245,1432.707c-10.753-.182-20.79-.889-30.007-1.906q-.849-.094-1.688-.19-.12-6.268-.239-12.533.321.37.655.732c7.971,8.677,19.554,13.235,31.189,13.866h0C277.185,1432.687,277.215,1432.7,277.245,1432.707Z" transform="translate(-235.523 -1321.318)" fill="#7c60ea"/>
            <path id="Trazado_927598" data-name="Trazado 927598" d="M803.864,960.572q-1.193-10.142-2.357-20.288Z" transform="translate(-735.326 -891.968)"/>
            <path id="Trazado_927599" data-name="Trazado 927599" d="M870.24,1129.38a64.717,64.717,0,0,1-5.2,4.7c-7.1,5.741-11.889,7.129-13.759,7.595a30.007,30.007,0,0,1-21.175-2.5,27.793,27.793,0,0,1-4.714-3.239q-.322-2.716-.639-5.434c.574-.175,1.184-.38,1.819-.62l.029-.011C840.04,1147.581,860.625,1136.285,870.24,1129.38Z" transform="translate(-756.212 -1061.892)"/>
            <path id="Trazado_927600" data-name="Trazado 927600" d="M904.688,823.755a4.484,4.484,0,0,1-1.351,2.074,8.061,8.061,0,0,1-1.911,1.471,73.79,73.79,0,0,1-14.809,21.75c-9.615,6.905-30.2,18.2-43.642.485a27.024,27.024,0,0,0,14.9-13.521,22.371,22.371,0,0,0,8.92,3.986c7.64,1.4,15.06-2.279,21.023-6.729a45.627,45.627,0,0,0,4.818-4.148h0c.171-.468.329-.966.461-1.482a13.716,13.716,0,0,0,.313-1.564c.132-.957.076-1.337.148-2.288a7.281,7.281,0,0,1,.379-2.42c.146-.293.306-.5,2.634-2.189,1.151-.836,1.607-1.146,1.828-.988s.079.73.016.971a5.6,5.6,0,0,1-1.712,2.454c-.516.506-.755.66-.708.872.079.363.919.58,1.614.495a4.031,4.031,0,0,0,2.419-1.762c.727-.865.815-1.26,1.976-2.718.615-.77.988-1.159,1.284-1.07s.371.58.428.906a3.821,3.821,0,0,1-.014,1.354,1.577,1.577,0,0,1,.755.753,1.479,1.479,0,0,1,.008,1.062A3,3,0,0,1,904.688,823.755Z" transform="translate(-772.588 -781.563)" fill="#fff"/>
            <path id="Trazado_927601" data-name="Trazado 927601" d="M1412.49,862.265c.7-.634,1.26-1.189,1.679-1.613a8.4,8.4,0,0,0,1.6-1.911,5.971,5.971,0,0,0,.469-1.013Z" transform="translate(-1284.359 -817.785)"/>
            <path id="Trazado_927602" data-name="Trazado 927602" d="M1409.24,844.308a11.762,11.762,0,0,0,1.466-1.317,6.861,6.861,0,0,0,1.564-2.206,4.8,4.8,0,0,0,.282-.951Z" transform="translate(-1281.439 -801.704)"/>
            <path id="Trazado_927603" data-name="Trazado 927603" d="M625.67,1637.27l-1.021,8.326h-.058Q625.123,1641.432,625.67,1637.27Z" transform="translate(-576.349 -1518.286)"/>
            <path id="Trazado_927604" data-name="Trazado 927604" d="M572.687,697.536a10.681,10.681,0,0,1-5.353-1.817h0A7.526,7.526,0,0,1,566,694.5a8.161,8.161,0,0,1-1.789-3.965,7.707,7.707,0,0,0,3.109,2,8.227,8.227,0,0,0,4.845.058q.085,1.177.213,2.4.1.974.223,1.911Q572.643,697.221,572.687,697.536Z" transform="translate(-522.091 -667.543)"/>
            <path id="Trazado_927605" data-name="Trazado 927605" d="M507.481,471.184a16.414,16.414,0,0,1-1.558,3.753,17.727,17.727,0,0,0-1.3,3.642,18.721,18.721,0,0,0-.923-4.27,2.987,2.987,0,0,0-.827-1.27,2.1,2.1,0,0,0-1.191-.561c-.22-.02-.591-.01-1.822.615-1.452.738-1.359.939-2.02,1.185-1.611.6-2.439-.5-3.6.176a3.028,3.028,0,0,0-1.251,2c-.2.995.21,1.474.285,2.5a5.351,5.351,0,0,1-.944,3.271,2.5,2.5,0,0,0-1.164-2.656,1.948,1.948,0,0,0-1.888.022,2.51,2.51,0,0,0-.835,2.02,6.424,6.424,0,0,0,.944,3.819,4.745,4.745,0,0,1-1.05-.436,4.2,4.2,0,0,1-.992-.772,5.353,5.353,0,0,1-1.185-2.283c-.437-1.432-.093-1.73-.571-2.612-.553-1.023-1.125-.824-1.514-1.69-.483-1.073-.022-2.306.439-3.534.474-1.265.738-1.206,1.032-2.239.443-1.559-.106-1.883.329-2.964a4.354,4.354,0,0,1,2.942-2.415c.951-.232,1.034.128,2.392,0a9.8,9.8,0,0,0,3.556-1.141c1.605-.8,1.8-1.3,3.007-1.493.42-.068,1.5-.242,2.064.351.45.476.15,1.006.527,1.339.61.539,1.734-.555,3.337-.57a4.467,4.467,0,0,1,3.885,2.349C508.154,468.494,507.86,469.671,507.481,471.184Z" transform="translate(-449.9 -463.775)"/>
            <path id="Trazado_927606" data-name="Trazado 927606" d="M509.764,570.905q.941.332,1.864.709a9.55,9.55,0,0,1-4.463,5.473c-4.768,2.546-10.407-.307-13.087-3.712a11.227,11.227,0,0,1-2.129-4.615q1.338-.14,2.684-.187c.171-.688.329-1.408.465-2.159a33.561,33.561,0,0,0,.5-4.324,4.743,4.743,0,0,0,1.05.436,6.424,6.424,0,0,1-.944-3.819,2.509,2.509,0,0,1,.835-2.02,1.948,1.948,0,0,1,1.888-.022,2.5,2.5,0,0,1,1.164,2.656,5.35,5.35,0,0,0,.944-3.271c-.075-1.028-.484-1.507-.285-2.5a3.028,3.028,0,0,1,1.251-2c1.161-.672,1.989.425,3.6-.176.661-.246.568-.448,2.02-1.185,1.231-.626,1.6-.635,1.822-.615a2.1,2.1,0,0,1,1.191.562,2.989,2.989,0,0,1,.827,1.27,18.727,18.727,0,0,1,.923,4.27c.026.278.048.562.062.854.14,2.862.263,5.35-1.439,7.332a6.837,6.837,0,0,1-3.276,2.054,8.227,8.227,0,0,1-4.845-.058,7.709,7.709,0,0,1-3.109-2,8.162,8.162,0,0,0,1.789,3.964,7.529,7.529,0,0,0,1.332,1.218h0a10.682,10.682,0,0,0,5.353,1.817q-.044-.315-.085-.636Q508.725,570.538,509.764,570.905Z" transform="translate(-457.155 -540.87)" fill="#fff"/>
            <path id="Trazado_927607" data-name="Trazado 927607" d="M643.065,1532.35a8.114,8.114,0,0,0,3.476.21Z" transform="translate(-592.949 -1424.004)"/>
            <path id="Trazado_927608" data-name="Trazado 927608" d="M601.736,1543.56a9.307,9.307,0,0,0,3.746,1.258,12.465,12.465,0,0,0,2.407,0Z" transform="translate(-555.81 -1434.077)"/>
            <path id="Trazado_927609" data-name="Trazado 927609" d="M678.552,1530.74a4.763,4.763,0,0,1-1.2.374" transform="translate(-623.755 -1422.557)" fill="none" stroke="#000" stroke-linecap="round" stroke-miterlimit="10" stroke-width="1"/>
            <path id="Trazado_927610" data-name="Trazado 927610" d="M234.878,772.54a27.659,27.659,0,0,1-11.714,7.021q.318,2.718.64,5.434,1.235,10.459,2.5,20.916.93,7.706,1.876,15.412-1.115.09-2.245.175c-6.4.478-13.163.79-20.251.873a5.673,5.673,0,0,0,1.023-.671c1.139-.122,2.325-.474,2.69-1.37a1.851,1.851,0,0,0,.029-1.19,2.369,2.369,0,0,0,1.271-1.239,2.013,2.013,0,0,0,.013-1.243,2.566,2.566,0,0,0,.74-.809c.153-.269.474-.964.239-1.2-.259-.258-1.018.227-1.814.547-2.1.845-4.631.617-4.858-.034s1.976-1.315,2.361-3.352c.165-.872-.025-1.882-.411-1.984-.609-.162-1.131,2.088-3.215,3.318a5.785,5.785,0,0,1-2.395.753,31.334,31.334,0,0,1-4.538-.753,35.866,35.866,0,0,1-12.518-6.141c-7.643-6.235-10.175-15.919-8.716-25.138a36.393,36.393,0,0,1-13.611-4.237,35.84,35.84,0,0,1-6.687-4.736h0c2.243-13.186,10.164-25.336,22.685-30.979q1.61-.725,3.283-1.293a37.394,37.394,0,0,1,8.167-1.775,11.229,11.229,0,0,0,2.129,4.615c2.68,3.4,8.319,6.258,13.087,3.712A9.549,9.549,0,0,0,209.1,741.7l.046.019c8.406,3.452,15.389,9.513,21.839,15.771a78.242,78.242,0,0,0,8.927,7.917A27.141,27.141,0,0,1,234.878,772.54Z" transform="translate(-154.625 -710.958)" fill="none" stroke="#000" stroke-linecap="round" stroke-miterlimit="10" stroke-width="1"/>
            <path id="Trazado_927611" data-name="Trazado 927611" d="M363.176,1001.07a32.384,32.384,0,0,0-7.7,16.432" transform="translate(-334.52 -946.592)" fill="none" stroke="#000" stroke-linecap="round" stroke-miterlimit="10" stroke-width="1"/>
            <path id="Trazado_927612" data-name="Trazado 927612" d="M277.245,1432.707c-10.753-.182-20.79-.889-30.007-1.906q-.849-.094-1.688-.19-.12-6.268-.239-12.533.321.37.655.732c7.971,8.677,19.554,13.235,31.189,13.866h0C277.185,1432.687,277.215,1432.7,277.245,1432.707Z" transform="translate(-235.523 -1321.318)" fill="none" stroke="#000" stroke-linecap="round" stroke-miterlimit="10" stroke-width="1"/>
            <path id="Trazado_927613" data-name="Trazado 927613" d="M803.864,960.572q-1.193-10.142-2.357-20.288" transform="translate(-735.326 -891.968)" fill="none" stroke="#000" stroke-linecap="round" stroke-miterlimit="10" stroke-width="1"/>
            <path id="Trazado_927614" data-name="Trazado 927614" d="M888.317,823.756a4.479,4.479,0,0,1-1.35,2.074,8.074,8.074,0,0,1-1.911,1.471,71.34,71.34,0,0,1-20.012,26.445c-7.1,5.741-11.89,7.129-13.759,7.594a30,30,0,0,1-21.175-2.5,27.792,27.792,0,0,1-4.713-3.24q-.322-2.716-.64-5.434a27.657,27.657,0,0,0,11.714-7.021,27.155,27.155,0,0,0,5.033-7.131,22.38,22.38,0,0,0,8.92,3.986c7.64,1.4,15.059-2.279,21.023-6.729a45.64,45.64,0,0,0,4.818-4.148h0a15.437,15.437,0,0,0,.461-1.482,13.639,13.639,0,0,0,.313-1.564c.132-.957.076-1.338.148-2.288a7.256,7.256,0,0,1,.379-2.42c.145-.293.306-.5,2.634-2.19,1.151-.837,1.606-1.146,1.828-.988s.079.73.016.971a5.59,5.59,0,0,1-1.712,2.453c-.516.507-.755.66-.708.872.079.364.919.58,1.614.495a4.03,4.03,0,0,0,2.42-1.762c.727-.865.815-1.26,1.976-2.717.614-.771.988-1.16,1.284-1.07s.371.579.428.906a3.8,3.8,0,0,1-.014,1.354,1.577,1.577,0,0,1,.756.753,1.479,1.479,0,0,1,.008,1.062A3,3,0,0,1,888.317,823.756Z" transform="translate(-756.217 -781.563)" fill="none" stroke="#000" stroke-linecap="round" stroke-miterlimit="10" stroke-width="1"/>
            <path id="Trazado_927615" data-name="Trazado 927615" d="M1412.49,862.265c.7-.634,1.26-1.189,1.679-1.613a8.4,8.4,0,0,0,1.6-1.911,5.971,5.971,0,0,0,.469-1.013" transform="translate(-1284.359 -817.785)" fill="none" stroke="#000" stroke-linecap="round" stroke-miterlimit="10" stroke-width="1"/>
            <path id="Trazado_927616" data-name="Trazado 927616" d="M1409.24,844.308a11.762,11.762,0,0,0,1.466-1.317,6.861,6.861,0,0,0,1.564-2.206,4.8,4.8,0,0,0,.282-.951" transform="translate(-1281.439 -801.704)" fill="none" stroke="#000" stroke-linecap="round" stroke-miterlimit="10" stroke-width="1"/>
            <path id="Trazado_927617" data-name="Trazado 927617" d="M625.669,1637.27q-.547,4.162-1.078,8.326" transform="translate(-576.348 -1518.286)" fill="none" stroke="#fff" stroke-linecap="round" stroke-miterlimit="10" stroke-width="1"/>
            <path id="Trazado_927618" data-name="Trazado 927618" d="M572.687,697.536a10.681,10.681,0,0,1-5.353-1.817h0A7.526,7.526,0,0,1,566,694.5a8.161,8.161,0,0,1-1.789-3.965,7.707,7.707,0,0,0,3.109,2,8.227,8.227,0,0,0,4.845.058q.085,1.177.213,2.4.1.974.223,1.911Q572.643,697.221,572.687,697.536Z" transform="translate(-522.091 -667.543)" fill="none" stroke="#000" stroke-linecap="round" stroke-miterlimit="10" stroke-width="1"/>
            <path id="Trazado_927619" data-name="Trazado 927619" d="M507.481,471.184a16.414,16.414,0,0,1-1.558,3.753,17.727,17.727,0,0,0-1.3,3.642,18.721,18.721,0,0,0-.923-4.27,2.987,2.987,0,0,0-.827-1.27,2.1,2.1,0,0,0-1.191-.561c-.22-.02-.591-.01-1.822.615-1.452.738-1.359.939-2.02,1.185-1.611.6-2.439-.5-3.6.176a3.028,3.028,0,0,0-1.251,2c-.2.995.21,1.474.285,2.5a5.351,5.351,0,0,1-.944,3.271,2.5,2.5,0,0,0-1.164-2.656,1.948,1.948,0,0,0-1.888.022,2.51,2.51,0,0,0-.835,2.02,6.424,6.424,0,0,0,.944,3.819,4.745,4.745,0,0,1-1.05-.436,4.2,4.2,0,0,1-.992-.772,5.353,5.353,0,0,1-1.185-2.283c-.437-1.432-.093-1.73-.571-2.612-.553-1.023-1.125-.824-1.514-1.69-.483-1.073-.022-2.306.439-3.534.474-1.265.738-1.206,1.032-2.239.443-1.559-.106-1.883.329-2.964a4.354,4.354,0,0,1,2.942-2.415c.951-.232,1.034.128,2.392,0a9.8,9.8,0,0,0,3.556-1.141c1.605-.8,1.8-1.3,3.007-1.493.42-.068,1.5-.242,2.064.351.45.476.15,1.006.527,1.339.61.539,1.734-.555,3.337-.57a4.467,4.467,0,0,1,3.885,2.349C508.154,468.494,507.86,469.671,507.481,471.184Z" transform="translate(-449.9 -463.775)" fill="none" stroke="#000" stroke-linecap="round" stroke-miterlimit="10" stroke-width="1"/>
            <path id="Trazado_927620" data-name="Trazado 927620" d="M509.764,570.905q.941.332,1.864.709a9.55,9.55,0,0,1-4.463,5.473c-4.768,2.546-10.407-.307-13.087-3.712a11.227,11.227,0,0,1-2.129-4.615q1.338-.14,2.684-.187c.171-.688.329-1.408.465-2.159a33.561,33.561,0,0,0,.5-4.324,4.743,4.743,0,0,0,1.05.436,6.424,6.424,0,0,1-.944-3.819,2.509,2.509,0,0,1,.835-2.02,1.948,1.948,0,0,1,1.888-.022,2.5,2.5,0,0,1,1.164,2.656,5.35,5.35,0,0,0,.944-3.271c-.075-1.028-.484-1.507-.285-2.5a3.028,3.028,0,0,1,1.251-2c1.161-.672,1.989.425,3.6-.176.661-.246.568-.448,2.02-1.185,1.231-.626,1.6-.635,1.822-.615a2.1,2.1,0,0,1,1.191.562,2.989,2.989,0,0,1,.827,1.27,18.727,18.727,0,0,1,.923,4.27c.026.278.048.562.062.854.14,2.862.263,5.35-1.439,7.332a6.837,6.837,0,0,1-3.276,2.054,8.227,8.227,0,0,1-4.845-.058,7.709,7.709,0,0,1-3.109-2,8.162,8.162,0,0,0,1.789,3.964,7.529,7.529,0,0,0,1.332,1.218h0a10.682,10.682,0,0,0,5.353,1.817q-.044-.315-.085-.636Q508.725,570.538,509.764,570.905Z" transform="translate(-457.155 -540.87)" fill="none" stroke="#000" stroke-linecap="round" stroke-miterlimit="10" stroke-width="1"/>
            <g id="Grupo_1115212" data-name="Grupo 1115212" transform="translate(45.047 12.237)">
              <path id="Trazado_927621" data-name="Trazado 927621" d="M593.064,590.714a2.069,2.069,0,0,1,.917-.754,2.157,2.157,0,0,1,1.669.046" transform="translate(-593.064 -589.268)" fill="none" stroke="#000" stroke-linecap="round" stroke-miterlimit="10" stroke-width="1"/>
              <path id="Trazado_927622" data-name="Trazado 927622" d="M649.868,585.072a2.069,2.069,0,0,1,1.04-.571,2.157,2.157,0,0,1,1.632.355" transform="translate(-644.109 -584.46)" fill="none" stroke="#000" stroke-linecap="round" stroke-miterlimit="10" stroke-width="1"/>
              <path id="Trazado_927623" data-name="Trazado 927623" d="M606.253,621.757c.15.427.057.849-.207.941s-.6-.179-.749-.607-.057-.849.207-.941S606.1,621.329,606.253,621.757Z" transform="translate(-603.993 -617.414)"/>
              <path id="Trazado_927624" data-name="Trazado 927624" d="M661.863,615.173c.048.45-.139.839-.417.869s-.542-.312-.59-.762.139-.839.417-.869S661.815,614.723,661.863,615.173Z" transform="translate(-653.975 -611.373)"/>
              <path id="Trazado_927625" data-name="Trazado 927625" d="M638.8,613.054a3.218,3.218,0,0,0-.084,1.585,3.442,3.442,0,0,0,.509,1.183,4.408,4.408,0,0,0,.957,1.082.66.66,0,0,1,.132.375.84.84,0,0,1-.33.6,1.4,1.4,0,0,1-.629.343" transform="translate(-634.033 -610.155)" fill="none" stroke="#000" stroke-linecap="round" stroke-miterlimit="10" stroke-width="1"/>
              <path id="Trazado_927626" data-name="Trazado 927626" d="M618.215,671.4a2.265,2.265,0,0,0,.562.523,2.3,2.3,0,0,0,1.061.362" transform="translate(-615.665 -662.58)" fill="none" stroke="#000" stroke-linecap="round" stroke-miterlimit="10" stroke-width="1"/>
            </g>
            <path id="Trazado_927627" data-name="Trazado 927627" d="M438.089,1259.663l-16.363,31.169-21.474-11.273,16.363-31.169,3.83,2.01-1.356,2.583,13.815,7.252,1.356-2.582Z" transform="translate(-374.755 -1168.835)" fill="#fff"/>
            <path id="Trazado_927628" data-name="Trazado 927628" d="M596.566,1261.438a2.32,2.32,0,1,0-3.481-1.828l-5.1-2.677-.6,1.145-1.356,2.583,13.815,7.252,1.956-3.727Zm-1.741-.915a1.231,1.231,0,1,1,1.662-.518A1.232,1.232,0,0,1,594.825,1260.523Z" transform="translate(-541.697 -1176.512)"/>
            <path id="Trazado_927629" data-name="Trazado 927629" d="M438.089,1259.663l-16.363,31.169-21.474-11.273,16.363-31.169,3.83,2.01-1.356,2.583,13.815,7.252,1.356-2.582Z" transform="translate(-374.755 -1168.835)" fill="none" stroke="#000" stroke-linecap="round" stroke-miterlimit="10" stroke-width="1"/>
            <path id="Trazado_927630" data-name="Trazado 927630" d="M596.566,1261.438a2.32,2.32,0,1,0-3.481-1.828l-5.1-2.677-.6,1.145-1.356,2.583,13.815,7.252,1.956-3.727Zm-1.741-.915a1.231,1.231,0,1,1,1.662-.518A1.232,1.232,0,0,1,594.825,1260.523Z" transform="translate(-541.697 -1176.512)" fill="none" stroke="#000" stroke-linecap="round" stroke-miterlimit="10" stroke-width="1"/>
            <path id="Trazado_927631" data-name="Trazado 927631" d="M235.311,1147.477a2.572,2.572,0,0,1-.739.81,2.013,2.013,0,0,1-.014,1.244,2.369,2.369,0,0,1-1.271,1.238,1.86,1.86,0,0,1-.029,1.19c-.365.9-1.551,1.247-2.69,1.37a5.654,5.654,0,0,1-1.023.671c-2.281,1.182-5.709,1.219-9.334-.024-.03-.01-.061-.02-.091-.032h0a48.3,48.3,0,0,1-22.98-7.067c-7.652-6.191-19.8-19.6-13.588-38.981q1.077.7,2.283,1.365a36.4,36.4,0,0,0,13.611,4.237c-1.458,9.219,1.073,18.9,8.717,25.137a35.869,35.869,0,0,0,12.518,6.142,31.477,31.477,0,0,0,4.538.753,5.8,5.8,0,0,0,2.4-.753c2.084-1.231,2.606-3.48,3.215-3.319.387.1.576,1.113.411,1.985-.385,2.036-2.586,2.7-2.361,3.352s2.76.88,4.857.034c.8-.321,1.554-.805,1.814-.548C235.785,1146.514,235.463,1147.208,235.311,1147.477Z" transform="translate(-178.49 -1042.586)" fill="#fff"/>
            <path id="Trazado_927632" data-name="Trazado 927632" d="M205.609,1117.594a2.567,2.567,0,0,1-.74.809,2.013,2.013,0,0,1-.013,1.243,2.369,2.369,0,0,1-1.271,1.239,1.852,1.852,0,0,1-.029,1.19c-.365.9-1.551,1.247-2.69,1.37a5.682,5.682,0,0,1-1.023.671c-2.281,1.182-5.709,1.219-9.334-.025l-.09-.031h0c-11.635-.631-23.218-5.189-31.189-13.866q-.334-.362-.655-.732a38.535,38.535,0,0,1-6.011-9.3,41.158,41.158,0,0,1-3.155-10.312q-.049-.288-.094-.577a45.606,45.606,0,0,1,.132-14.628,35.836,35.836,0,0,0,6.687,4.736,36.388,36.388,0,0,0,13.611,4.237c-1.458,9.219,1.073,18.9,8.716,25.138a35.867,35.867,0,0,0,12.518,6.141,31.349,31.349,0,0,0,4.538.753,5.79,5.79,0,0,0,2.395-.753c2.085-1.23,2.606-3.48,3.215-3.318.386.1.576,1.112.411,1.984-.385,2.037-2.586,2.7-2.361,3.352s2.76.879,4.858.034c.8-.32,1.554-.805,1.814-.547C206.083,1116.631,205.762,1117.326,205.609,1117.594Z" transform="translate(-148.788 -1012.703)" fill="none" stroke="#000" stroke-linecap="round" stroke-miterlimit="10" stroke-width="1"/>
            <path id="Trazado_927633" data-name="Trazado 927633" d="M662.3,1507.228a7.425,7.425,0,0,0,4.015-.969" transform="translate(-610.232 -1400.558)" fill="none" stroke="#000" stroke-linecap="round" stroke-miterlimit="10" stroke-width="1"/>
            <path id="Trazado_927634" data-name="Trazado 927634" d="M643.065,1530.49a8.42,8.42,0,0,0,2.792.3,4.479,4.479,0,0,0,.941-.173c.322-.1.633-.228.951-.339" transform="translate(-592.949 -1422.144)" fill="none" stroke="#000" stroke-linecap="round" stroke-miterlimit="10" stroke-width="1"/>
            <path id="Trazado_927635" data-name="Trazado 927635" d="M601.736,1543.56a9.307,9.307,0,0,0,3.746,1.258,12.465,12.465,0,0,0,2.407,0" transform="translate(-555.81 -1434.077)" fill="none" stroke="#000" stroke-linecap="round" stroke-miterlimit="10" stroke-width="1"/>
          </g>
        </g>
        <g id="Grupo_1115227" data-name="Grupo 1115227" transform="translate(171.475 15.627)">
          <path id="Trazado_927636" data-name="Trazado 927636" d="M1898.972,366.23h-57.857a1.14,1.14,0,0,1-1.14-1.14V339.545a1.14,1.14,0,0,1,1.14-1.14h57.857a1.14,1.14,0,0,1,1.14,1.14V365.09A1.14,1.14,0,0,1,1898.972,366.23Z" transform="translate(-1839.974 -338.405)" fill="#7c60ea"/>
          <path id="Trazado_927637" data-name="Trazado 927637" d="M1898.972,366.23h-57.857a1.14,1.14,0,0,1-1.14-1.14V339.545a1.14,1.14,0,0,1,1.14-1.14h57.857a1.14,1.14,0,0,1,1.14,1.14V365.09A1.14,1.14,0,0,1,1898.972,366.23Z" transform="translate(-1839.974 -338.405)" fill="none" stroke="#000" stroke-miterlimit="10" stroke-width="1"/>
          <g id="Grupo_1115226" data-name="Grupo 1115226" transform="translate(3.347 4.021)">
            <g id="Grupo_1115215" data-name="Grupo 1115215">
              <path id="Trazado_927638" data-name="Trazado 927638" d="M1886.05,383.011l2.644,1.527a6.87,6.87,0,0,1,2.5-2.5,6.825,6.825,0,0,1,6.839,0,6.87,6.87,0,0,1,2.5,2.5,6.786,6.786,0,0,1,.918,3.42h3.05a9.837,9.837,0,0,0-1.323-4.947,9.948,9.948,0,0,0-3.621-3.621,9.89,9.89,0,0,0-13.513,3.621Z" transform="translate(-1884.725 -378.066)" fill="#fff"/>
              <path id="Trazado_927639" data-name="Trazado 927639" d="M1872.98,431.781a9.9,9.9,0,0,0,4.945,8.568l1.527-2.645a6.871,6.871,0,0,1-2.5-2.5,6.825,6.825,0,0,1,0-6.839l-2.644-1.527A9.847,9.847,0,0,0,1872.98,431.781Z" transform="translate(-1872.98 -421.889)" fill="#fff" opacity="0.45"/>
              <path id="Trazado_927640" data-name="Trazado 927640" d="M1921.75,484.189a9.906,9.906,0,0,0,9.893,0,9.949,9.949,0,0,0,3.621-3.621,9.838,9.838,0,0,0,1.323-4.946h-3.05a6.787,6.787,0,0,1-.918,3.42,6.87,6.87,0,0,1-2.5,2.5,6.826,6.826,0,0,1-6.84,0Z" transform="translate(-1916.805 -465.729)" fill="#fff"/>
            </g>
            <g id="Grupo_1115225" data-name="Grupo 1115225" transform="translate(23.105 0)">
              <g id="Grupo_1115216" data-name="Grupo 1115216">
                <line id="Línea_52643" data-name="Línea 52643" x2="30.34" fill="none" stroke="#fff" stroke-miterlimit="10" stroke-width="1"/>
              </g>
              <g id="Grupo_1115217" data-name="Grupo 1115217" transform="translate(0 2.473)">
                <line id="Línea_52644" data-name="Línea 52644" x2="30.34" fill="none" stroke="#fff" stroke-miterlimit="10" stroke-width="1"/>
              </g>
              <g id="Grupo_1115218" data-name="Grupo 1115218" transform="translate(0 4.946)">
                <line id="Línea_52645" data-name="Línea 52645" x2="30.34" fill="none" stroke="#fff" stroke-miterlimit="10" stroke-width="1"/>
              </g>
              <g id="Grupo_1115219" data-name="Grupo 1115219" transform="translate(0 7.418)">
                <line id="Línea_52646" data-name="Línea 52646" x2="30.34" fill="none" stroke="#fff" stroke-miterlimit="10" stroke-width="1"/>
              </g>
              <g id="Grupo_1115220" data-name="Grupo 1115220" transform="translate(0 9.891)">
                <line id="Línea_52647" data-name="Línea 52647" x2="30.34" fill="none" stroke="#fff" stroke-miterlimit="10" stroke-width="1"/>
              </g>
              <g id="Grupo_1115221" data-name="Grupo 1115221" transform="translate(0 12.364)">
                <line id="Línea_52648" data-name="Línea 52648" x2="30.34" fill="none" stroke="#fff" stroke-miterlimit="10" stroke-width="1"/>
              </g>
              <g id="Grupo_1115222" data-name="Grupo 1115222" transform="translate(0 14.837)">
                <line id="Línea_52649" data-name="Línea 52649" x2="30.34" fill="none" stroke="#fff" stroke-miterlimit="10" stroke-width="1"/>
              </g>
              <g id="Grupo_1115223" data-name="Grupo 1115223" transform="translate(0 17.31)">
                <line id="Línea_52650" data-name="Línea 52650" x2="30.34" fill="none" stroke="#fff" stroke-miterlimit="10" stroke-width="1"/>
              </g>
              <g id="Grupo_1115224" data-name="Grupo 1115224" transform="translate(0 19.783)">
                <line id="Línea_52651" data-name="Línea 52651" x2="30.34" fill="none" stroke="#fff" stroke-miterlimit="10" stroke-width="1"/>
              </g>
            </g>
          </g>
        </g>
        <g id="Grupo_1115231" data-name="Grupo 1115231" transform="translate(139.659 7.318)">
          <g id="Grupo_1115228" data-name="Grupo 1115228" transform="translate(1.061 0.927)">
            <path id="Trazado_927641" data-name="Trazado 927641" d="M1557.237,274.791l-2.255-.738a8.086,8.086,0,0,0-.887-2.132l1.077-2.12a.5.5,0,0,0-.091-.575l-1.133-1.132a.493.493,0,0,0-.573-.091l-.834.423-1.287.652a8.1,8.1,0,0,0-2.131-.886l-.738-2.255a.5.5,0,0,0-.47-.342h-1.6a.4.4,0,0,0-.067.006.49.49,0,0,0-.4.336l-.737,2.256a8.114,8.114,0,0,0-2.132.886l-.878-.445-1.241-.63a.5.5,0,0,0-.575.091l-.332.331-.8.8a.491.491,0,0,0-.091.573l1.076,2.121a8.028,8.028,0,0,0-.886,2.132l-2.256.737a.5.5,0,0,0-.342.47v1.6a.492.492,0,0,0,.342.469l2.255.739a8.075,8.075,0,0,0,.887,2.131l-1.076,2.12a.492.492,0,0,0,.091.574l.8.8.332.332a.494.494,0,0,0,.574.091l1.243-.63.878-.445a8.089,8.089,0,0,0,2.132.886l.737,2.255a.492.492,0,0,0,.4.336.41.41,0,0,0,.069.006h1.6a.493.493,0,0,0,.47-.34l.739-2.257a8.1,8.1,0,0,0,2.13-.886l1.287.653.832.422a.5.5,0,0,0,.575-.091l1.133-1.133a.494.494,0,0,0,.09-.573l-1.076-2.122a8.071,8.071,0,0,0,.887-2.131l2.255-.738a.5.5,0,0,0,.342-.47v-1.6A.492.492,0,0,0,1557.237,274.791Zm-10.125,5.9a4.632,4.632,0,1,1,4.633-4.633A4.637,4.637,0,0,1,1547.112,280.693Z" transform="translate(-1536.647 -265.595)" fill="#7c60e9"/>
          </g>
          <g id="Grupo_1115229" data-name="Grupo 1115229">
            <path id="Trazado_927642" data-name="Trazado 927642" d="M1546.776,265.65l-2.255-.738a8.077,8.077,0,0,0-.887-2.132l1.077-2.12a.5.5,0,0,0-.091-.575l-1.133-1.132a.493.493,0,0,0-.573-.091l-.834.423-1.287.652a8.1,8.1,0,0,0-2.13-.886l-.738-2.255a.5.5,0,0,0-.47-.342h-1.6a.4.4,0,0,0-.068.006.491.491,0,0,0-.4.336l-.738,2.255a8.114,8.114,0,0,0-2.132.886l-.878-.445-1.242-.63a.5.5,0,0,0-.575.091l-.331.331-.8.8a.491.491,0,0,0-.091.573l1.076,2.121a8.032,8.032,0,0,0-.886,2.132l-2.256.737a.494.494,0,0,0-.342.47v1.6a.492.492,0,0,0,.342.469l2.255.739a8.076,8.076,0,0,0,.887,2.131l-1.076,2.12a.492.492,0,0,0,.091.574l.8.8.331.332a.494.494,0,0,0,.574.091l1.243-.63.878-.445a8.088,8.088,0,0,0,2.132.886l.737,2.255a.492.492,0,0,0,.4.336.417.417,0,0,0,.069.006h1.6a.493.493,0,0,0,.47-.34l.739-2.257a8.1,8.1,0,0,0,2.13-.886l1.287.653.832.422a.5.5,0,0,0,.575-.091l1.133-1.133a.494.494,0,0,0,.09-.573l-1.076-2.122a8.072,8.072,0,0,0,.887-2.131l2.255-.738a.5.5,0,0,0,.342-.47v-1.6A.492.492,0,0,0,1546.776,265.65Zm-10.124,5.9a4.632,4.632,0,1,1,4.633-4.633A4.637,4.637,0,0,1,1536.652,271.553Z" transform="translate(-1526.186 -256.455)" fill="#fff"/>
          </g>
          <g id="Grupo_1115230" data-name="Grupo 1115230">
            <path id="Trazado_927643" data-name="Trazado 927643" d="M1546.776,265.65l-2.255-.738a8.077,8.077,0,0,0-.887-2.132l1.077-2.12a.5.5,0,0,0-.091-.575l-1.133-1.132a.493.493,0,0,0-.573-.091l-.834.423-1.287.652a8.1,8.1,0,0,0-2.13-.886l-.738-2.255a.5.5,0,0,0-.47-.342h-1.6a.4.4,0,0,0-.068.006.491.491,0,0,0-.4.336l-.738,2.255a8.114,8.114,0,0,0-2.132.886l-.878-.445-1.242-.63a.5.5,0,0,0-.575.091l-.331.331-.8.8a.491.491,0,0,0-.091.573l1.076,2.121a8.032,8.032,0,0,0-.886,2.132l-2.256.737a.494.494,0,0,0-.342.47v1.6a.492.492,0,0,0,.342.469l2.255.739a8.076,8.076,0,0,0,.887,2.131l-1.076,2.12a.492.492,0,0,0,.091.574l.8.8.331.332a.494.494,0,0,0,.574.091l1.243-.63.878-.445a8.088,8.088,0,0,0,2.132.886l.737,2.255a.492.492,0,0,0,.4.336.417.417,0,0,0,.069.006h1.6a.493.493,0,0,0,.47-.34l.739-2.257a8.1,8.1,0,0,0,2.13-.886l1.287.653.832.422a.5.5,0,0,0,.575-.091l1.133-1.133a.494.494,0,0,0,.09-.573l-1.076-2.122a8.072,8.072,0,0,0,.887-2.131l2.255-.738a.5.5,0,0,0,.342-.47v-1.6A.492.492,0,0,0,1546.776,265.65Zm-10.124,5.9a4.632,4.632,0,1,1,4.633-4.633A4.637,4.637,0,0,1,1536.652,271.553Z" transform="translate(-1526.186 -256.455)" fill="none" stroke="#000" stroke-linecap="round" stroke-miterlimit="10" stroke-width="1"/>
          </g>
        </g>
        <g id="Grupo_1115235" data-name="Grupo 1115235" transform="translate(61.667 0)">
          <g id="Grupo_1115233" data-name="Grupo 1115233">
            <path id="Trazado_927644" data-name="Trazado 927644" d="M793.614,186.753v2.879H756.988v-2.879a2.469,2.469,0,0,1,2.468-2.468h31.69A2.468,2.468,0,0,1,793.614,186.753Z" transform="translate(-756.988 -184.285)" fill="none" stroke="#000" stroke-linecap="round" stroke-linejoin="round" stroke-miterlimit="10" stroke-width="1"/>
            <g id="Grupo_1115232" data-name="Grupo 1115232" transform="translate(3.112 1.894)">
              <path id="Trazado_927645" data-name="Trazado 927645" d="M789.235,203.748a.779.779,0,1,1-.779-.779A.779.779,0,0,1,789.235,203.748Z" transform="translate(-787.677 -202.969)" fill="#7c60ea"/>
              <path id="Trazado_927646" data-name="Trazado 927646" d="M813.489,203.748a.779.779,0,1,1-.779-.779A.779.779,0,0,1,813.489,203.748Z" transform="translate(-809.472 -202.969)" fill="#7c60ea"/>
              <path id="Trazado_927647" data-name="Trazado 927647" d="M837.742,203.748a.779.779,0,1,1-.779-.779A.779.779,0,0,1,837.742,203.748Z" transform="translate(-831.266 -202.969)" fill="#7c60ea"/>
            </g>
          </g>
          <path id="Trazado_927648" data-name="Trazado 927648" d="M793.614,237.02v31.571a2.468,2.468,0,0,1-2.468,2.468h-31.69a2.468,2.468,0,0,1-2.468-2.468V237.02Z" transform="translate(-756.989 -231.673)" fill="none" stroke="#000" stroke-linecap="round" stroke-linejoin="round" stroke-miterlimit="10" stroke-width="1"/>
          <path id="Trazado_927649" data-name="Trazado 927649" d="M791.146,184.285h-31.69a2.469,2.469,0,0,0-2.468,2.468V221.2a2.468,2.468,0,0,0,2.468,2.468h31.69a2.468,2.468,0,0,0,2.468-2.468v-34.45A2.469,2.469,0,0,0,791.146,184.285Z" transform="translate(-756.989 -184.285)" fill="none" stroke="#000" stroke-linecap="round" stroke-linejoin="round" stroke-miterlimit="10" stroke-width="1"/>
          <g id="Grupo_1115234" data-name="Grupo 1115234" transform="translate(5.256 10.493)">
            <rect id="Rectángulo_413057" data-name="Rectángulo 413057" width="4.002" height="10.58" transform="translate(0 15.444)" fill="none" stroke="#000" stroke-linecap="round" stroke-linejoin="round" stroke-miterlimit="10" stroke-width="1"/>
            <rect id="Rectángulo_413058" data-name="Rectángulo 413058" width="4.002" height="26.024" transform="translate(7.371)" fill="#7c60ea"/>
            <rect id="Rectángulo_413059" data-name="Rectángulo 413059" width="4.002" height="14.682" transform="translate(14.742 11.341)" fill="none" stroke="#000" stroke-linecap="round" stroke-linejoin="round" stroke-miterlimit="10" stroke-width="1"/>
            <rect id="Rectángulo_413060" data-name="Rectángulo 413060" width="4.002" height="20.303" transform="translate(22.112 5.721)" fill="#7c60ea"/>
          </g>
        </g>
      </g>
    </g>
  </g>
</svg>
