<svg xmlns="http://www.w3.org/2000/svg" width="100" height="100" viewBox="0 0 100 100">
  <g id="Grupo_1114440" data-name="Grupo 1114440" transform="translate(-1236.5 -460)">
    <g id="Elipse_12108" data-name="Elipse 12108" transform="translate(1241.5 465)" fill="#fe9ab8" stroke="rgba(255,255,255,0.4)" stroke-width="5">
      <circle cx="45" cy="45" r="45" stroke="none"/>
      <circle cx="45" cy="45" r="47.5" fill="none"/>
    </g>
    <g id="_020-gear" data-name="020-gear" transform="translate(1253.486 477)">
      <g id="Page-1_19_" transform="translate(0.014 0)">
        <g id="_x30_20---AI-Options" transform="translate(0 0)">
          <path id="Shape_59_" d="M65.041,27.765l-3.417-1.853-2.982-7.2,1.107-3.728a3.337,3.337,0,0,0-.839-3.309l-3.8-3.8a3.337,3.337,0,0,0-3.309-.84L48.073,8.151l-7.2-2.988L39.023,1.746A3.337,3.337,0,0,0,36.09,0H30.713A3.337,3.337,0,0,0,27.78,1.746L25.927,5.163l-7.2,2.982L15,7.033a3.337,3.337,0,0,0-3.309.84l-3.8,3.807a3.337,3.337,0,0,0-.839,3.308l1.112,3.728-2.988,7.2L1.761,27.765A3.337,3.337,0,0,0,.014,30.7v5.377a3.337,3.337,0,0,0,1.747,2.933l3.417,1.853,2.982,7.2L7.048,51.785a3.337,3.337,0,0,0,.839,3.309l3.8,3.8a3.337,3.337,0,0,0,3.309.84l3.727-1.107,7.2,2.982,1.853,3.417a3.337,3.337,0,0,0,2.933,1.746h5.377a3.337,3.337,0,0,0,2.933-1.746L40.87,61.61l7.2-2.982,3.727,1.107a3.337,3.337,0,0,0,3.309-.84l3.8-3.8a3.337,3.337,0,0,0,.839-3.308l-1.107-3.728,2.982-7.2,3.417-1.853a3.337,3.337,0,0,0,1.747-2.933V30.7a3.336,3.336,0,0,0-1.742-2.933Zm-.477,8.309a1.112,1.112,0,0,1-.583.978l-3.764,2.041a1.112,1.112,0,0,0-.5.556l-3.283,7.925a1.112,1.112,0,0,0-.039.743l1.218,4.105a1.112,1.112,0,0,1-.278,1.1l-3.805,3.8a1.112,1.112,0,0,1-1.1.279l-4.1-1.223a1.1,1.1,0,0,0-.742.039L39.657,59.7a1.1,1.1,0,0,0-.556.5l-2.029,3.768a1.112,1.112,0,0,1-.978.582H30.713a1.112,1.112,0,0,1-.978-.582L27.695,60.2a1.1,1.1,0,0,0-.556-.5l-7.926-3.283a1.113,1.113,0,0,0-.742-.039l-4.1,1.223a1.112,1.112,0,0,1-1.1-.28l-3.8-3.808a1.112,1.112,0,0,1-.278-1.1l1.223-4.105a1.112,1.112,0,0,0-.039-.743L7.082,39.645a1.113,1.113,0,0,0-.5-.556L2.821,37.057a1.112,1.112,0,0,1-.583-.978V30.7a1.112,1.112,0,0,1,.583-.978l3.764-2.041a1.112,1.112,0,0,0,.5-.556L10.366,19.2a1.112,1.112,0,0,0,.039-.743L9.181,14.35a1.112,1.112,0,0,1,.278-1.1l3.811-3.8a1.112,1.112,0,0,1,1.1-.279l4.1,1.223a1.113,1.113,0,0,0,.742-.039l7.926-3.283a1.1,1.1,0,0,0,.556-.5l2.029-3.768a1.112,1.112,0,0,1,.978-.582h5.377a1.112,1.112,0,0,1,.978.582L39.108,6.57a1.1,1.1,0,0,0,.556.5l7.926,3.283a1.1,1.1,0,0,0,.742.039l4.1-1.223a1.112,1.112,0,0,1,1.1.28l3.8,3.808a1.112,1.112,0,0,1,.278,1.1L56.4,18.46a1.112,1.112,0,0,0,.039.743l3.283,7.925a1.112,1.112,0,0,0,.5.556l3.764,2.032a1.113,1.113,0,0,1,.583.978Z" transform="translate(-0.014 0)" fill="#360742"/>
          <path id="Shape_58_" d="M112.046,88.665A23.357,23.357,0,1,0,135.4,112.022a23.357,23.357,0,0,0-23.357-23.357Zm0,44.49a21.133,21.133,0,1,1,21.133-21.133A21.133,21.133,0,0,1,112.046,133.155Z" transform="translate(-78.659 -78.636)" fill="#360742"/>
          <path id="Shape_57_" d="M174.383,151v-2.224a1.112,1.112,0,0,0-2.224,0V151h-2.224v-2.224a1.112,1.112,0,1,0-2.224,0V151h-2.225v-2.224a1.112,1.112,0,1,0-2.224,0V151h-2.224v-2.224a1.112,1.112,0,1,0-2.224,0V151h-2.224v-2.224a1.112,1.112,0,1,0-2.224,0V151a3.337,3.337,0,0,0-3.337,3.337H148.8a1.112,1.112,0,0,0,0,2.224h2.224v2.224H148.8a1.112,1.112,0,1,0,0,2.224h2.224v2.224H148.8a1.112,1.112,0,1,0,0,2.224h2.224v2.224H148.8a1.112,1.112,0,1,0,0,2.224h2.224v2.224H148.8a1.112,1.112,0,1,0,0,2.224h2.224a3.337,3.337,0,0,0,3.337,3.337v2.224a1.112,1.112,0,1,0,2.224,0v-2.224h2.224v2.224a1.112,1.112,0,1,0,2.224,0v-2.224h2.224v2.224a1.112,1.112,0,1,0,2.224,0v-2.224h2.225v2.224a1.112,1.112,0,1,0,2.224,0v-2.224h2.224v2.224a1.112,1.112,0,0,0,2.224,0v-2.224a3.337,3.337,0,0,0,3.337-3.337h2.224a1.112,1.112,0,1,0,0-2.224h-2.224v-2.224h2.224a1.112,1.112,0,1,0,0-2.224h-2.224v-2.224h2.224a1.112,1.112,0,1,0,0-2.224h-2.224V161.01h2.224a1.112,1.112,0,1,0,0-2.224h-2.224v-2.224h2.224a1.112,1.112,0,1,0,0-2.224h-2.224A3.337,3.337,0,0,0,174.383,151Zm1.112,23.357a1.112,1.112,0,0,1-1.112,1.112h-20.02a1.112,1.112,0,0,1-1.112-1.112v-20.02a1.112,1.112,0,0,1,1.112-1.112h20.02a1.112,1.112,0,0,1,1.112,1.112Z" transform="translate(-130.985 -130.96)" fill="#360742"/>
          <path id="Shape_56_" d="M225.583,253.382c-.007-.017-.014-.032-.022-.05l-2.914-6.66a1.112,1.112,0,0,0-2.038,0l-3.893,8.9a1.112,1.112,0,0,0,2.038.89l.682-1.557h4.384l.682,1.557a1.112,1.112,0,0,0,1.019.667,1.1,1.1,0,0,0,.445-.093,1.112,1.112,0,0,0,.574-1.465Zm-5.179-.7,1.223-2.781,1.223,2.781Z" transform="translate(-192.134 -218.18)" fill="#360742"/>
          <path id="Path_71_" d="M320.411,248.218a1.112,1.112,0,1,0,0-2.224h-4.449a1.112,1.112,0,1,0,0,2.224h1.112v6.673h-1.112a1.112,1.112,0,1,0,0,2.224h4.449a1.112,1.112,0,1,0,0-2.224H319.3v-6.673Z" transform="translate(-279.238 -218.169)" fill="#360742" fill-rule="evenodd"/>
        </g>
      </g>
    </g>
  </g>
</svg>
