<svg xmlns="http://www.w3.org/2000/svg" width="100" height="100" viewBox="0 0 100 100">
  <g id="Grupo_1114441" data-name="Grupo 1114441" transform="translate(-905.5 -241)">
    <g id="Elipse_12109" data-name="Elipse 12109" transform="translate(910.5 246)" fill="#fe9ab8" stroke="rgba(255,255,255,0.4)" stroke-width="5">
      <circle cx="45" cy="45" r="45" stroke="none"/>
      <circle cx="45" cy="45" r="47.5" fill="none"/>
    </g>
    <g id="_009-cpu" data-name="009-cpu" transform="translate(923.474 258.973)">
      <g id="Page-1_8_" transform="translate(0 0)">
        <g id="_x30_09---Robot-CPU">
          <path id="Shape_24_" d="M60.851,18.149a3.2,3.2,0,0,0,0-6.405h-3.2V10.676a4.27,4.27,0,0,0-4.27-4.27H52.31V3.2a3.2,3.2,0,1,0-6.405,0v3.2H43.77V3.2a3.2,3.2,0,0,0-6.405,0v3.2H35.23V3.2a3.2,3.2,0,1,0-6.405,0v3.2H26.689V3.2a3.2,3.2,0,0,0-6.405,0v3.2H18.149V3.2a3.2,3.2,0,1,0-6.405,0v3.2H10.676a4.27,4.27,0,0,0-4.27,4.27v1.068H3.2a3.2,3.2,0,0,0,0,6.405h3.2v2.135H3.2a3.2,3.2,0,0,0,0,6.405h3.2v2.135H3.2a3.2,3.2,0,0,0,0,6.405h3.2v2.135H3.2a3.2,3.2,0,0,0,0,6.405h3.2v2.135H3.2a3.2,3.2,0,0,0,0,6.405h3.2v1.068a4.27,4.27,0,0,0,4.27,4.27h1.068v3.2a3.2,3.2,0,1,0,6.405,0v-3.2h2.135v3.2a3.2,3.2,0,1,0,6.405,0v-3.2h2.135v3.2a3.2,3.2,0,1,0,6.405,0v-3.2h2.135v3.2a3.2,3.2,0,1,0,6.405,0v-3.2H45.9v3.2a3.2,3.2,0,1,0,6.405,0v-3.2h1.068a4.27,4.27,0,0,0,4.27-4.27V52.31h3.2a3.2,3.2,0,1,0,0-6.405h-3.2V43.77h3.2a3.2,3.2,0,1,0,0-6.405h-3.2V35.23h3.2a3.2,3.2,0,1,0,0-6.405h-3.2V26.689h3.2a3.2,3.2,0,1,0,0-6.405h-3.2V18.149h3.2Zm0-4.27a1.068,1.068,0,0,1,0,2.135h-3.2V13.878ZM48.04,3.2a1.068,1.068,0,0,1,2.135,0v3.2H48.04Zm-8.54,0a1.068,1.068,0,0,1,2.135,0v3.2H39.5Zm-8.541,0a1.068,1.068,0,1,1,2.135,0v3.2H30.959Zm-8.541,0a1.068,1.068,0,1,1,2.135,0v3.2H22.419Zm-8.54,0a1.068,1.068,0,1,1,2.135,0v3.2H13.878ZM3.2,16.013a1.068,1.068,0,0,1,0-2.135h3.2v2.135Zm0,8.541a1.068,1.068,0,0,1,0-2.135h3.2v2.135Zm0,8.541a1.068,1.068,0,0,1,0-2.135h3.2v2.135Zm0,8.54a1.068,1.068,0,0,1,0-2.135h3.2v2.135Zm0,8.541a1.068,1.068,0,0,1,0-2.135h3.2v2.135ZM16.013,60.851a1.068,1.068,0,1,1-2.135,0v-3.2h2.135Zm8.541,0a1.068,1.068,0,1,1-2.135,0v-3.2h2.135Zm8.541,0a1.068,1.068,0,1,1-2.135,0v-3.2h2.135Zm8.54,0a1.068,1.068,0,1,1-2.135,0v-3.2h2.135Zm8.541,0a1.068,1.068,0,1,1-2.135,0v-3.2h2.135Zm5.338-7.473a2.135,2.135,0,0,1-2.135,2.135h-42.7A2.135,2.135,0,0,1,8.54,53.378v-42.7A2.135,2.135,0,0,1,10.676,8.54h42.7a2.135,2.135,0,0,1,2.135,2.135Zm5.338-5.338a1.068,1.068,0,1,1,0,2.135h-3.2V48.04Zm0-8.54a1.068,1.068,0,0,1,0,2.135h-3.2V39.5Zm0-8.541a1.068,1.068,0,1,1,0,2.135h-3.2V30.959Zm0-8.541a1.068,1.068,0,1,1,0,2.135h-3.2V22.419Z" transform="translate(0 0)" fill="#360742"/>
          <path id="Shape_23_" d="M103.649,110.149a2.041,2.041,0,0,0,1.445-.6l4.454-4.454a2.04,2.04,0,0,0-1.435-3.487h-4.465a2.042,2.042,0,0,0-2.04,2.04v4.463A2.041,2.041,0,0,0,103.649,110.149Zm4.389-6.564.755.756-.755-.755Zm-4.294.159h4.138l-4.138,4.213Z" transform="translate(-90.933 -90.933)" fill="#360742"/>
          <path id="Path_43_" d="M262.773,305.252a4.27,4.27,0,0,1-6.832,0,1.068,1.068,0,0,0-1.708,1.281,6.405,6.405,0,0,0,10.249,0,1.068,1.068,0,0,0-1.708-1.281Z" transform="translate(-227.33 -272.798)" fill="#360742" fill-rule="evenodd"/>
          <path id="Shape_22_" d="M196.792,233.7a3.736,3.736,0,1,0,3.736,3.736,3.736,3.736,0,0,0-3.736-3.736Zm0,5.338a1.6,1.6,0,1,1,1.6-1.6A1.6,1.6,0,0,1,196.792,239.037Z" transform="translate(-172.772 -209.145)" fill="#360742"/>
          <path id="Shape_21_" d="M349.2,233.7a3.736,3.736,0,1,0,3.736,3.736A3.736,3.736,0,0,0,349.2,233.7Zm0,5.338a1.6,1.6,0,1,1,1.6-1.6A1.6,1.6,0,0,1,349.2,239.037Z" transform="translate(-309.171 -209.145)" fill="#360742"/>
          <path id="Shape_20_" d="M151.162,125.351,148,123.771A4.27,4.27,0,0,0,143.8,120.2H133.12v-2.332a3.2,3.2,0,1,0-2.135,0V120.2H120.309a4.27,4.27,0,0,0-4.2,3.575l-3.161,1.58a2.125,2.125,0,0,0-1.18,1.91v6.153a2.124,2.124,0,0,0,1.18,1.91l3.161,1.58a4.27,4.27,0,0,0,4.2,3.575h6.405v2.135h-1.068a4.27,4.27,0,0,0-4.27,4.27v1.068a2.135,2.135,0,0,0,2.135,2.135h17.081a2.135,2.135,0,0,0,2.135-2.135v-1.068a4.27,4.27,0,0,0-4.27-4.27H137.39V140.48H143.8A4.27,4.27,0,0,0,148,136.9l3.161-1.58a2.124,2.124,0,0,0,1.18-1.91v-6.153A2.125,2.125,0,0,0,151.162,125.351ZM132.053,113.79a1.068,1.068,0,1,1-1.068,1.068A1.068,1.068,0,0,1,132.053,113.79ZM113.9,127.261l2.135-1.068v8.289l-2.135-1.068Zm26.689,19.624v1.068H123.512v-1.068a2.135,2.135,0,0,1,2.135-2.135h12.811A2.135,2.135,0,0,1,140.593,146.885Zm-5.338-4.27H128.85v-2.135h6.405Zm10.676-6.405a2.135,2.135,0,0,1-2.135,2.135H120.309a2.135,2.135,0,0,1-2.135-2.135V124.466a2.135,2.135,0,0,1,2.135-2.135H143.8a2.135,2.135,0,0,1,2.135,2.135v11.743Zm4.27-2.795-2.135,1.068v-8.289l2.135,1.068Z" transform="translate(-100.026 -99.912)" fill="#360742"/>
        </g>
      </g>
    </g>
  </g>
</svg>
