<svg xmlns="http://www.w3.org/2000/svg" width="50" height="50" viewBox="0 0 50 50">
  <g id="Grupo_1114428" data-name="Grupo 1114428" transform="translate(-180.184 -3636)">
    <rect id="Rectángulo_409566" data-name="Rectángulo 409566" width="50" height="50" transform="translate(180.184 3636)" fill="#fe9ab8"/>
    <g id="_003-gear" data-name="003-gear" transform="translate(186.242 3642)">
      <g id="Page-1_2_" transform="translate(0 0)">
        <g id="_x30_03---Robot-Engineering" transform="translate(0 0)">
          <path id="Shape_8_" d="M37.39,15.955,35.427,14.89l-1.713-4.135.636-2.142a1.917,1.917,0,0,0-.483-1.9L31.683,4.527a1.917,1.917,0,0,0-1.9-.483l-2.142.639L23.5,2.967,22.439,1a1.917,1.917,0,0,0-1.685-1h-3.09a1.917,1.917,0,0,0-1.685,1L14.914,2.967,10.779,4.68,8.636,4.041a1.917,1.917,0,0,0-1.9.483L4.551,6.711a1.917,1.917,0,0,0-.483,1.9l.639,2.142L2.991,14.89,1.027,15.954a1.917,1.917,0,0,0-1,1.685v3.09a1.917,1.917,0,0,0,1,1.685L2.991,23.48,4.7,27.615l-.639,2.142a1.917,1.917,0,0,0,.483,1.9l2.184,2.184a1.917,1.917,0,0,0,1.9.483l2.142-.636L14.911,35.4l1.065,1.963a1.917,1.917,0,0,0,1.685,1h3.09a1.917,1.917,0,0,0,1.685-1L23.5,35.4l4.135-1.713,2.142.636a1.917,1.917,0,0,0,1.9-.483l2.184-2.184a1.917,1.917,0,0,0,.483-1.9l-.636-2.142,1.713-4.135,1.963-1.065a1.917,1.917,0,0,0,1-1.685V17.64a1.917,1.917,0,0,0-1-1.685Zm-.275,4.775a.639.639,0,0,1-.334.562l-2.163,1.173a.639.639,0,0,0-.286.32l-1.887,4.554a.639.639,0,0,0-.022.427l.7,2.358a.639.639,0,0,1-.161.635l-2.188,2.181a.639.639,0,0,1-.634.161l-2.359-.7a.639.639,0,0,0-.427.022L22.8,34.306a.639.639,0,0,0-.32.286l-1.166,2.165a.639.639,0,0,1-.561.334H17.664a.639.639,0,0,1-.562-.334l-1.173-2.163a.639.639,0,0,0-.32-.286l-4.554-1.887a.639.639,0,0,0-.245-.049.633.633,0,0,0-.182.026l-2.358.7a.639.639,0,0,1-.635-.161L5.455,30.753a.639.639,0,0,1-.161-.634L6,27.76a.639.639,0,0,0-.022-.427L4.085,22.781a.639.639,0,0,0-.286-.32L1.637,21.294a.639.639,0,0,1-.334-.561V17.64a.639.639,0,0,1,.334-.562L3.8,15.905a.639.639,0,0,0,.286-.32l1.887-4.554a.639.639,0,0,0,.022-.427l-.7-2.358a.639.639,0,0,1,.164-.63L7.64,5.431a.639.639,0,0,1,.634-.161l2.359.7a.639.639,0,0,0,.427-.022l4.554-1.887a.639.639,0,0,0,.32-.286l1.173-2.163a.639.639,0,0,1,.561-.334h3.09a.639.639,0,0,1,.562.334l1.168,2.16a.639.639,0,0,0,.32.286l4.554,1.887a.639.639,0,0,0,.427.022l2.358-.7a.639.639,0,0,1,.635.161l2.181,2.188a.639.639,0,0,1,.161.634l-.7,2.359a.639.639,0,0,0,.022.427L34.33,15.59a.639.639,0,0,0,.286.32l2.163,1.173a.639.639,0,0,1,.334.561Z" transform="translate(-0.024 0)" fill="#360742"/>
          <path id="Shape_7_" d="M102.028,88.665a13.412,13.412,0,0,0-6.081,25.373.641.641,0,0,0,.136.064,13.269,13.269,0,0,0,11.892,0,.65.65,0,0,0,.136-.064,13.412,13.412,0,0,0-6.081-25.373Zm-5.113,24.421v-.773a1.278,1.278,0,0,1,1.278-1.278h7.67a1.278,1.278,0,0,1,1.278,1.278v.773A12,12,0,0,1,96.915,113.086Zm5.113-19.308a.639.639,0,1,1,.639-.639A.639.639,0,0,1,102.028,93.778Zm7.03,3.835a1.278,1.278,0,0,1,1.278,1.278v7.03a1.278,1.278,0,0,1-1.278,1.278H95a1.278,1.278,0,0,1-1.278-1.278v-7.03A1.278,1.278,0,0,1,95,97.613h14.061Zm-8.948,10.865h3.835v1.278h-3.835Zm8.309,3.915v-.08a2.556,2.556,0,0,0-2.556-2.556h-.639v-1.278h3.835a2.556,2.556,0,0,0,2.556-2.556v-7.03a2.556,2.556,0,0,0-2.556-2.556h-6.391v-1.4a1.917,1.917,0,1,0-1.278,0v1.4H95a2.556,2.556,0,0,0-2.556,2.556v7.03A2.556,2.556,0,0,0,95,108.478h3.835v1.278h-.639a2.556,2.556,0,0,0-2.556,2.556v.08a12.143,12.143,0,1,1,12.783,0Z" transform="translate(-82.844 -82.902)" fill="#360742"/>
          <path id="Path_6_" d="M246.146,315.848a3.835,3.835,0,0,0,6.136,0,.639.639,0,0,0-1.023-.767,2.556,2.556,0,0,1-4.09,0,.639.639,0,0,0-1.023.767Z" transform="translate(-230.029 -294.362)" fill="#360742" fill-rule="evenodd"/>
          <path id="Shape_6_" d="M189.256,250.467a2.237,2.237,0,1,0-1.582-.655A2.237,2.237,0,0,0,189.256,250.467Zm0-3.2a.959.959,0,1,1-.959.959A.959.959,0,0,1,189.256,247.271Z" transform="translate(-174.865 -230.004)" fill="#360742"/>
          <path id="Shape_5_" d="M336.752,250.467a2.237,2.237,0,1,0-2.237-2.237A2.237,2.237,0,0,0,336.752,250.467Zm0-3.2a.959.959,0,1,1-.959.959A.959.959,0,0,1,336.752,247.271Z" transform="translate(-312.774 -230.004)" fill="#360742"/>
        </g>
      </g>
    </g>
  </g>
</svg>
