<svg xmlns="http://www.w3.org/2000/svg" xmlns:xlink="http://www.w3.org/1999/xlink" width="376" height="187" viewBox="0 0 376 187">
  <defs>
    <clipPath id="clip-path">
      <rect id="Rectángulo_412996" data-name="Rectángulo 412996" width="311.057" height="175.113" fill="none"/>
    </clipPath>
    <clipPath id="clip-path-3">
      <rect id="Rectángulo_412994" data-name="Rectángulo 412994" width="6.39" height="4.359" fill="none"/>
    </clipPath>
  </defs>
  <g id="Grupo_1114653" data-name="Grupo 1114653" transform="translate(-914.711 -4147)">
    <rect id="Rectángulo_411486" data-name="Rectángulo 411486" width="376" height="187" rx="10" transform="translate(914.711 4147)" fill="#fe9ab8"/>
    <g id="Grupo_1115129" data-name="Grupo 1115129" transform="translate(947.183 4158.887)">
      <g id="Grupo_1115128" data-name="Grupo 1115128" clip-path="url(#clip-path)">
        <g id="Grupo_1115127" data-name="Grupo 1115127">
          <g id="Grupo_1115126" data-name="Grupo 1115126" clip-path="url(#clip-path)">
            <path id="Trazado_927175" data-name="Trazado 927175" d="M110.476,174.586c-2.58-10.468-12.428-17.908-22.41-22.179s-20.853-6.7-30-12.529-16.437-16.567-13.725-27c2.43-9.349,11.937-15.2,21.31-17.83S85,92.025,94.1,88.6s17.68-11.195,17.6-20.848c-.063-7.479-5.166-13.855-7.924-20.816-6.226-15.71,1.234-35.5,16.328-43.31S155.843,1.057,165.292,15.1c4.761,7.075,6.734,15.624,10.761,23.134a48.462,48.462,0,0,0,31.707,24,48.852,48.852,0,0,0,39.03-8.177c10.188-7.494,17.614-19.124,29.568-23.334a28.172,28.172,0,0,1,27.882,5.761,27.579,27.579,0,0,1,7.637,27.2c-2.741,9.614-10.543,16.938-18.605,22.935s-16.862,11.324-23.147,19.135-9.563,19.062-4.855,27.9c3.179,5.966,9.326,9.744,15.424,12.738s12.579,5.592,17.5,10.25,7.947,11.8,5.168,17.955Z" transform="translate(-22.785 0)" fill="#e1e1f7"/>
            <path id="Trazado_927176" data-name="Trazado 927176" d="M523.264,307.581a50.758,50.758,0,0,1-6.675,4.7H493.314c2.161-10.794,5.046-21.9,12.585-29.845,5.189-5.465,12.141-8.91,19.181-11.6a124.053,124.053,0,0,1,22.884-6.3c1.21-.211,2.777-.232,3.3.88a2.926,2.926,0,0,1-.524,2.573L544.815,278.4c-6.014,10.569-12.223,21.377-21.552,29.177" transform="translate(-256.8 -137.65)" fill="#9d80f7"/>
            <path id="Trazado_927177" data-name="Trazado 927177" d="M540.389,289.6,514,315.835a85.356,85.356,0,0,0-8.669,9.554" transform="translate(-263.054 -150.756)" fill="none" stroke="#ffe2fd" stroke-linecap="round" stroke-linejoin="round" stroke-width="2"/>
            <path id="Trazado_927178" data-name="Trazado 927178" d="M486.69,255.284a76.423,76.423,0,0,1-7.339,9.042H456.077c3.683-20.755,8.135-42.121,16.793-57.39a66.4,66.4,0,0,1,20.817-22.3,91.842,91.842,0,0,1,23.772-12.119c1.24-.406,2.81-.447,3.176,1.691a10.273,10.273,0,0,1-.886,4.947l-7.393,20.024c-7.5,20.323-15.238,41.106-25.666,56.1" transform="translate(-237.416 -89.692)" fill="#5726f7"/>
            <path id="Trazado_927179" data-name="Trazado 927179" d="M508.2,220.713l-30.092,50.442a189.119,189.119,0,0,0-10.016,18.372" transform="translate(-243.67 -114.895)" fill="none" stroke="#9d80f7" stroke-linecap="round" stroke-linejoin="round" stroke-width="2"/>
            <line id="Línea_52598" data-name="Línea 52598" x2="310.098" transform="translate(0.479 174.586)" fill="none" stroke="#2b3a43" stroke-linecap="round" stroke-linejoin="round" stroke-width="2"/>
            <path id="Trazado_927180" data-name="Trazado 927180" d="M251.681,45.523l-24.2,134.66c-1.19,6.624,3.214,11.994,9.838,11.994H337.385c6.624,0,12.959-5.37,14.149-11.994l24.2-134.66c1.19-6.624-3.215-11.994-9.839-11.994H265.83c-6.624,0-12.959,5.37-14.149,11.994" transform="translate(-118.316 -17.454)" fill="#2b2852"/>
            <path id="Trazado_927181" data-name="Trazado 927181" d="M237,45.523l-24.2,134.66c-1.191,6.624,3.214,11.994,9.838,11.994H322.709c6.624,0,12.959-5.37,14.149-11.994l24.2-134.66c1.19-6.624-3.214-11.994-9.839-11.994H251.154c-6.624,0-12.959,5.37-14.149,11.994" transform="translate(-110.676 -17.454)" fill="#5726f7"/>
            <path id="Trazado_927182" data-name="Trazado 927182" d="M339.6,187.1a7.606,7.606,0,0,1-7.169,6.076H232.367a4.945,4.945,0,0,1-4.984-6.076L249.539,63.813a7.605,7.605,0,0,1,7.169-6.076H356.775a4.945,4.945,0,0,1,4.984,6.076Z" transform="translate(-118.316 -30.056)" fill="#fff"/>
            <path id="Trazado_927183" data-name="Trazado 927183" d="M337.417,351.48h-21.47a1.18,1.18,0,0,1-1.19-1.451,1.814,1.814,0,0,1,1.712-1.451h21.47a1.18,1.18,0,0,1,1.19,1.451,1.814,1.814,0,0,1-1.712,1.451" transform="translate(-163.838 -181.456)" fill="#fff"/>
            <path id="Trazado_927184" data-name="Trazado 927184" d="M186.407,237.106H298.853a10.273,10.273,0,0,0,9.675-8.166l11.04-59.776A6.6,6.6,0,0,0,312.909,161H200.464a10.274,10.274,0,0,0-9.675,8.166l-11.04,59.776a6.6,6.6,0,0,0,6.658,8.166" transform="translate(-93.498 -83.809)" fill="#fff"/>
            <path id="Trazado_927185" data-name="Trazado 927185" d="M186.407,237.106H298.853a10.273,10.273,0,0,0,9.675-8.166l11.04-59.776A6.6,6.6,0,0,0,312.909,161H200.464a10.274,10.274,0,0,0-9.675,8.166l-11.04,59.776A6.6,6.6,0,0,0,186.407,237.106Z" transform="translate(-93.498 -83.809)" fill="none" stroke="#381f24" stroke-linecap="round" stroke-linejoin="round" stroke-width="2"/>
            <line id="Línea_52599" data-name="Línea 52599" y1="1.65" x2="0.304" transform="translate(202.754 131.998)" fill="none" stroke="#ffe030" stroke-linecap="round" stroke-linejoin="round" stroke-width="2"/>
            <line id="Línea_52600" data-name="Línea 52600" y1="5.424" x2="1.002" transform="translate(203.726 122.958)" fill="none" stroke="#ffe030" stroke-linecap="round" stroke-linejoin="round" stroke-width="2" stroke-dasharray="7.67 7.67"/>
            <line id="Línea_52601" data-name="Línea 52601" y1="1.65" x2="0.304" transform="translate(205.062 119.5)" fill="none" stroke="#ffe030" stroke-linecap="round" stroke-linejoin="round" stroke-width="2"/>
            <line id="Línea_52602" data-name="Línea 52602" y1="1.65" x2="0.305" transform="translate(182.757 131.998)" fill="none" stroke="#ffe030" stroke-linecap="round" stroke-linejoin="round" stroke-width="2"/>
            <line id="Línea_52603" data-name="Línea 52603" y1="22.695" x2="4.191" transform="translate(183.62 106.277)" fill="none" stroke="#ffe030" stroke-linecap="round" stroke-linejoin="round" stroke-width="2" stroke-dasharray="6.418 6.418"/>
            <line id="Línea_52604" data-name="Línea 52604" y1="1.65" x2="0.304" transform="translate(188.091 103.114)" fill="none" stroke="#ffe030" stroke-linecap="round" stroke-linejoin="round" stroke-width="2"/>
            <line id="Línea_52605" data-name="Línea 52605" y1="1.65" x2="0.304" transform="translate(162.76 131.998)" fill="none" stroke="#ffe030" stroke-linecap="round" stroke-linejoin="round" stroke-width="2"/>
            <line id="Línea_52606" data-name="Línea 52606" y1="3.106" x2="0.574" transform="translate(163.447 126.821)" fill="none" stroke="#ffe030" stroke-linecap="round" stroke-linejoin="round" stroke-width="2" stroke-dasharray="4.392 4.392"/>
            <line id="Línea_52607" data-name="Línea 52607" y1="1.65" x2="0.305" transform="translate(164.212 124.135)" fill="none" stroke="#ffe030" stroke-linecap="round" stroke-linejoin="round" stroke-width="2"/>
            <line id="Línea_52608" data-name="Línea 52608" y1="1.65" x2="0.305" transform="translate(142.763 131.998)" fill="none" stroke="#ffe030" stroke-linecap="round" stroke-linejoin="round" stroke-width="2"/>
            <line id="Línea_52609" data-name="Línea 52609" y1="30.756" x2="5.68" transform="translate(143.666 98.005)" fill="none" stroke="#ffe030" stroke-linecap="round" stroke-linejoin="round" stroke-width="2" stroke-dasharray="6.867 6.867"/>
            <line id="Línea_52610" data-name="Línea 52610" y1="1.65" x2="0.305" transform="translate(149.645 94.735)" fill="none" stroke="#ffe030" stroke-linecap="round" stroke-linejoin="round" stroke-width="2"/>
            <line id="Línea_52611" data-name="Línea 52611" y1="1.65" x2="0.305" transform="translate(122.766 131.998)" fill="none" stroke="#ffe030" stroke-linecap="round" stroke-linejoin="round" stroke-width="2"/>
            <line id="Línea_52612" data-name="Línea 52612" y1="24.904" x2="4.6" transform="translate(123.684 103.773)" fill="none" stroke="#ffe030" stroke-linecap="round" stroke-linejoin="round" stroke-width="2" stroke-dasharray="7.043 7.043"/>
            <line id="Línea_52613" data-name="Línea 52613" y1="1.65" x2="0.305" transform="translate(128.59 100.463)" fill="none" stroke="#ffe030" stroke-linecap="round" stroke-linejoin="round" stroke-width="2"/>
            <line id="Línea_52614" data-name="Línea 52614" y1="1.65" x2="0.305" transform="translate(102.769 131.998)" fill="none" stroke="#ffe030" stroke-linecap="round" stroke-linejoin="round" stroke-width="2"/>
            <line id="Línea_52615" data-name="Línea 52615" y1="25.461" x2="4.702" transform="translate(103.701 103.142)" fill="none" stroke="#ffe030" stroke-linecap="round" stroke-linejoin="round" stroke-width="2" stroke-dasharray="7.201 7.201"/>
            <line id="Línea_52616" data-name="Línea 52616" y1="1.65" x2="0.305" transform="translate(108.717 99.795)" fill="none" stroke="#ffe030" stroke-linecap="round" stroke-linejoin="round" stroke-width="2"/>
            <line id="Línea_52617" data-name="Línea 52617" x1="108.783" transform="translate(98.37 133.648)" fill="none" stroke="#2b3a43" stroke-linecap="round" stroke-linejoin="round" stroke-width="2"/>
            <line id="Línea_52618" data-name="Línea 52618" x1="23.865" transform="translate(182.169 139.562)" fill="none" stroke="#2b3a43" stroke-linecap="round" stroke-linejoin="round" stroke-width="2"/>
            <line id="Línea_52619" data-name="Línea 52619" x1="39.869" transform="translate(165.227 144.638)" fill="none" stroke="#2b3a43" stroke-linecap="round" stroke-linejoin="round" stroke-width="2"/>
            <path id="Trazado_927186" data-name="Trazado 927186" d="M216.541,292.433H203.8a1.191,1.191,0,0,1-1.2-1.473,1.853,1.853,0,0,1,1.745-1.473h12.738a1.191,1.191,0,0,1,1.2,1.473,1.853,1.853,0,0,1-1.745,1.473" transform="translate(-105.453 -150.696)" fill="#2b2852"/>
            <path id="Trazado_927187" data-name="Trazado 927187" d="M323.631,215.955c-15.761,0-11.612-19.063-23.081-19.063s-13.334,24.693-26.782,24.693-.754-36.517-17.72-36.517-11.145,25.806-24.379,25.806-1.17-16.188-12.892-16.188" transform="translate(-113.886 -96.339)" fill="none" stroke="#5726f7" stroke-linecap="round" stroke-linejoin="round" stroke-width="2"/>
            <path id="Trazado_927188" data-name="Trazado 927188" d="M388.547,206.95a2.071,2.071,0,0,0,2.088,2.561,3.222,3.222,0,0,0,3.034-2.561,2.071,2.071,0,0,0-2.088-2.561,3.222,3.222,0,0,0-3.034,2.561" transform="translate(-202.24 -106.397)" fill="#ffe030"/>
            <path id="Trazado_927189" data-name="Trazado 927189" d="M309.132,191.993a2.071,2.071,0,0,0,2.088,2.561,3.222,3.222,0,0,0,3.034-2.561,2.071,2.071,0,0,0-2.088-2.561,3.222,3.222,0,0,0-3.034,2.561" transform="translate(-160.9 -98.611)" fill="#ffe030"/>
            <path id="Trazado_927190" data-name="Trazado 927190" d="M457.888,140.7H424.725a2.886,2.886,0,0,1-2.913-3.538l9.154-51.8a4.406,4.406,0,0,1,4.163-3.538h33.163a2.886,2.886,0,0,1,2.913,3.538l-9.154,51.8a4.406,4.406,0,0,1-4.163,3.538" transform="translate(-219.55 -42.596)" fill="#ffe030"/>
            <line id="Línea_52620" data-name="Línea 52620" x2="23.469" transform="translate(218.855 48.127)" fill="none" stroke="#221c54" stroke-linecap="round" stroke-linejoin="round" stroke-width="2"/>
            <line id="Línea_52621" data-name="Línea 52621" x2="23.469" transform="translate(217.04 58.398)" fill="none" stroke="#221c54" stroke-linecap="round" stroke-linejoin="round" stroke-width="2"/>
            <line id="Línea_52622" data-name="Línea 52622" x2="23.469" transform="translate(215.224 68.67)" fill="none" stroke="#221c54" stroke-linecap="round" stroke-linejoin="round" stroke-width="2"/>
            <line id="Línea_52623" data-name="Línea 52623" x2="23.469" transform="translate(213.409 78.941)" fill="none" stroke="#221c54" stroke-linecap="round" stroke-linejoin="round" stroke-width="2"/>
            <line id="Línea_52624" data-name="Línea 52624" x2="23.469" transform="translate(211.594 89.213)" fill="none" stroke="#221c54" stroke-linecap="round" stroke-linejoin="round" stroke-width="2"/>
            <path id="Trazado_927191" data-name="Trazado 927191" d="M316.907,99.085H238.821a4.4,4.4,0,0,1-4.446-5.379l3.377-19.479a6.67,6.67,0,0,1,6.311-5.379h78.085a4.4,4.4,0,0,1,4.446,5.379l-3.377,19.479a6.67,6.67,0,0,1-6.311,5.379" transform="translate(-121.964 -35.84)" fill="#2b2852"/>
            <path id="Trazado_927192" data-name="Trazado 927192" d="M259.029,89.99h-6.645a1.2,1.2,0,0,1-1.209-1.462l1.152-6.646a1.814,1.814,0,0,1,1.716-1.463h6.646a1.2,1.2,0,0,1,1.209,1.463l-1.152,6.646a1.814,1.814,0,0,1-1.716,1.462" transform="translate(-130.74 -41.863)" fill="#fff"/>
            <path id="Trazado_927193" data-name="Trazado 927193" d="M331.019,84.314H293.485a1.594,1.594,0,0,1-1.609-1.947,2.414,2.414,0,0,1,2.285-1.947h37.534a1.594,1.594,0,0,1,1.609,1.947,2.414,2.414,0,0,1-2.285,1.947" transform="translate(-151.924 -41.864)" fill="#fff"/>
            <path id="Trazado_927194" data-name="Trazado 927194" d="M340.471,100.214H290.727a1.594,1.594,0,0,1-1.609-1.947A2.415,2.415,0,0,1,291.4,96.32h49.744a1.594,1.594,0,0,1,1.609,1.947,2.414,2.414,0,0,1-2.285,1.947" transform="translate(-150.488 -50.14)" fill="#fff"/>
            <path id="Trazado_927195" data-name="Trazado 927195" d="M318.573,116.115h-30.6a1.594,1.594,0,0,1-1.61-1.947,2.415,2.415,0,0,1,2.285-1.947h30.6a1.594,1.594,0,0,1,1.609,1.947,2.414,2.414,0,0,1-2.285,1.947" transform="translate(-149.053 -58.418)" fill="#fff"/>
            <path id="Trazado_927196" data-name="Trazado 927196" d="M176.469,181.413a3.444,3.444,0,1,1-3.6-3.276,3.444,3.444,0,0,1,3.6,3.276" transform="translate(-88.279 -92.729)" fill="#ffd5ce"/>
            <path id="Trazado_927197" data-name="Trazado 927197" d="M211.907,175.518a2.009,2.009,0,1,1-2.1-1.911,2.009,2.009,0,0,1,2.1,1.911" transform="translate(-108.221 -90.372)" fill="#ffd5ce"/>
            <path id="Trazado_927198" data-name="Trazado 927198" d="M176.426,175.782l17-2.173.191,4.013-16.863,5.039Z" transform="translate(-91.84 -90.374)" fill="#ffd5ce"/>
            <path id="Trazado_927199" data-name="Trazado 927199" d="M187.448,175.6l-5.736.661a3.418,3.418,0,0,0-2.326,1.259" transform="translate(-93.381 -91.409)" fill="none" stroke="#e38c72" stroke-linecap="round" stroke-miterlimit="10" stroke-width="1"/>
            <path id="Trazado_927200" data-name="Trazado 927200" d="M175.146,178.862a3.444,3.444,0,1,1-4.834.6,3.444,3.444,0,0,1,4.834-.6" transform="translate(-88.279 -92.729)" fill="#ffd5ce"/>
            <path id="Trazado_927201" data-name="Trazado 927201" d="M151.9,152.564a3.989,3.989,0,1,1-5.6.691,3.989,3.989,0,0,1,5.6-.691" transform="translate(-75.72 -78.98)" fill="#ffd5ce"/>
            <path id="Trazado_927202" data-name="Trazado 927202" d="M148.661,159.771l11.357,11.688,4.237-5.431-10.686-12.548Z" transform="translate(-77.387 -79.896)" fill="#ffd5ce"/>
            <path id="Trazado_927203" data-name="Trazado 927203" d="M151.853,151.984a3.708,3.708,0,0,1,1.028,1.245l4.409,5.346-4.629,6.614-6.1-6.418a4.316,4.316,0,0,1,5.295-6.787" transform="translate(-75.53 -78.703)" fill="#5726f7"/>
            <path id="Trazado_927204" data-name="Trazado 927204" d="M158.78,171.36l1.158,1.282L165,165.047l-1.158-1.282Z" transform="translate(-82.655 -85.25)" fill="#ffe030"/>
            <line id="Línea_52625" data-name="Línea 52625" x1="2.254" y1="1.652" transform="translate(76.752 78.713)" fill="none" stroke="#d7ebff" stroke-linecap="round" stroke-miterlimit="10" stroke-width="1"/>
            <path id="Trazado_927205" data-name="Trazado 927205" d="M216.912,170.493c.249-.028.418.893.517,2.374.092,1.353.093,2.478-.157,2.528l-.117.025-.016,0h0l-.482.1c-2.168.434-4.17.061-4.482-1.963-.307-1.985,1.512-2.787,3.71-3.028.159-.018.315-.028.469-.033l.038-.006Z" transform="translate(-110.433 -88.75)" fill="#ffd5ce"/>
            <path id="Trazado_927206" data-name="Trazado 927206" d="M219.827,169.536a.528.528,0,0,0-.453.593.632.632,0,0,0,.672.484l4.944-.8a.52.52,0,1,0-.153-1.028Z" transform="translate(-114.195 -87.857)" fill="#ffd5ce"/>
            <path id="Trazado_927207" data-name="Trazado 927207" d="M214.457,169.237c-.242.265-1.389,1.278-1.122,1.611l-.023.16c.371.325,2.547-.263,2.628-.663l.229-1.324c.242-.265.588-.53.313-.752a.758.758,0,0,0-.937.055,13.861,13.861,0,0,0-1.088.913" transform="translate(-111.033 -87.522)" fill="#ffd5ce"/>
            <path id="Trazado_927208" data-name="Trazado 927208" d="M217.783,166.3a.889.889,0,0,0,.5,1.139l.07.076c.417.077.376.012.574-.392a4.116,4.116,0,0,0,.211-1.772c-.035-.572-.408-1.145-.667-1.187a.61.61,0,0,0-.644.242,2.366,2.366,0,0,1-.044,1.893" transform="translate(-113.341 -85.45)" fill="#ffd5ce"/>
            <path id="Trazado_927209" data-name="Trazado 927209" d="M222.494,173.375l-2.069.33a.674.674,0,0,1-.212-1.331l2.069-.33a.674.674,0,1,1,.212,1.33" transform="translate(-114.339 -89.555)" fill="#ffd5ce"/>
            <path id="Trazado_927210" data-name="Trazado 927210" d="M222.625,176.122l-2.069.331a.674.674,0,0,1-.212-1.331l2.069-.33a.674.674,0,0,1,.212,1.33" transform="translate(-114.407 -90.986)" fill="#ffd5ce"/>
            <path id="Trazado_927211" data-name="Trazado 927211" d="M222.418,178.827l-2.069.33a.674.674,0,0,1-.212-1.331l2.069-.33a.674.674,0,0,1,.212,1.33" transform="translate(-114.299 -92.393)" fill="#ffd5ce"/>
            <path id="Trazado_927212" data-name="Trazado 927212" d="M118.058,130.5a7.761,7.761,0,0,0-1,2.875,6.926,6.926,0,0,0,.927,3.466c.419.851.983,1.767,1.908,1.98a3.906,3.906,0,0,0,2.626-.8,14.638,14.638,0,0,1,8.709-1.726c1,.116,2.172.278,2.865-.452a2.508,2.508,0,0,0,.377-2.247,21.626,21.626,0,0,0-1.793-4.44,11.671,11.671,0,0,1-1.01-2.845,5.389,5.389,0,0,1,.045-1.5c.047-.52-.155-.738-.5-1.149a7.421,7.421,0,0,0-5.561-2.724,6.356,6.356,0,0,0-5.8,3.728c-.559,1.342-.593,2.848-1.073,4.22a13.952,13.952,0,0,1-.723,1.611" transform="translate(-60.93 -62.959)" fill="#2b2852"/>
            <path id="Trazado_927213" data-name="Trazado 927213" d="M154,357.767c-2.976-.82-5.2-1.389-7.2-1.957l-1.932,2.79,4.2.859,4.929-.215Z" transform="translate(-75.414 -185.221)" fill="#ffb89b"/>
            <path id="Trazado_927214" data-name="Trazado 927214" d="M137.163,346.411V334.626h6.025l-.212,11.85Z" transform="translate(-71.401 -174.193)" fill="#ffb89b"/>
            <path id="Trazado_927215" data-name="Trazado 927215" d="M152.431,359.679H138.067l-.758-1.276-.246,1.276h-.722l-.406-1.312s-.629-2.326.408-3.645c3.923,1.549,8,2.8,12.906,2.479l3.262,1.485c.142.266.173.812-.081.993" transform="translate(-70.665 -184.654)" fill="#5726f7"/>
            <path id="Trazado_927216" data-name="Trazado 927216" d="M154.424,364.177H140.061l-.484-.815h15a.812.812,0,0,1-.149.815" transform="translate(-72.658 -189.152)" fill="#e7f4ff"/>
            <path id="Trazado_927217" data-name="Trazado 927217" d="M136.464,363.362h1.131l-.16.815h-.72Z" transform="translate(-71.038 -189.152)" fill="#e7f4ff"/>
            <path id="Trazado_927218" data-name="Trazado 927218" d="M132.915,357.767c-2.976-.82-5.2-1.389-7.2-1.957l-1.932,2.79,4.2.859,4.929-.215Z" transform="translate(-64.438 -185.221)" fill="#ffb89b"/>
            <path id="Trazado_927219" data-name="Trazado 927219" d="M116.079,346.411V334.626H122.1l-.212,11.85Z" transform="translate(-60.425 -174.193)" fill="#ffb89b"/>
            <path id="Trazado_927220" data-name="Trazado 927220" d="M131.347,359.679H116.983l-.758-1.276-.246,1.276h-.722l-.406-1.312s-.629-2.326.408-3.645c3.923,1.549,8,2.8,12.906,2.479l3.262,1.485c.142.266.173.812-.081.993" transform="translate(-59.689 -184.654)" fill="#5726f7"/>
            <path id="Trazado_927221" data-name="Trazado 927221" d="M133.34,364.177H118.977l-.484-.815h15a.812.812,0,0,1-.149.815" transform="translate(-61.683 -189.152)" fill="#e7f4ff"/>
            <path id="Trazado_927222" data-name="Trazado 927222" d="M115.38,363.362h1.131l-.16.815h-.72Z" transform="translate(-60.062 -189.152)" fill="#e7f4ff"/>
            <path id="Trazado_927223" data-name="Trazado 927223" d="M113.887,180.034h17.331l1.5-28.146L113.037,152.9Z" transform="translate(-58.843 -79.067)" fill="#5726f7"/>
            <path id="Trazado_927224" data-name="Trazado 927224" d="M131.2,258.363l10.586.366,1.773-25.962H130.1Z" transform="translate(-67.726 -121.17)" fill="#2b2852"/>
            <path id="Trazado_927225" data-name="Trazado 927225" d="M141.506,230.308a6.736,6.736,0,1,1,.185-9.524,6.736,6.736,0,0,1-.185,9.524" transform="translate(-67.725 -113.856)" fill="#2b2852"/>
            <path id="Trazado_927226" data-name="Trazado 927226" d="M141.378,283.6a5.318,5.318,0,1,1,.146-7.52,5.318,5.318,0,0,1-.146,7.52" transform="translate(-68.908 -142.867)" fill="#2b2852"/>
            <path id="Trazado_927227" data-name="Trazado 927227" d="M132.485,218.58l-2.938-7.986H112.216l-2.388,7.971a1.723,1.723,0,0,0,1.075,1.688l8.417,3.4a6.76,6.76,0,0,0,5.405-.151l6.778-3.186a1.722,1.722,0,0,0,.981-1.73" transform="translate(-57.171 -109.627)" fill="#2b2852"/>
            <path id="Trazado_927228" data-name="Trazado 927228" d="M135.154,153.369a4.293,4.293,0,0,1-4.256,3.643,4.507,4.507,0,0,1-.678-.053,4.324,4.324,0,0,1-3.643-4.138l8.619-.442a4.334,4.334,0,0,1-.042.99" transform="translate(-65.891 -79.323)" fill="#ffe030"/>
            <path id="Trazado_927229" data-name="Trazado 927229" d="M135.225,149.732a3.556,3.556,0,1,1-2.958-4.066,3.555,3.555,0,0,1,2.958,4.066" transform="translate(-66.713 -75.805)" fill="#ffd5ce"/>
            <path id="Trazado_927230" data-name="Trazado 927230" d="M128.249,146.608l.767-4.859,6.8,1.026-.539,4.941Z" transform="translate(-66.761 -73.789)" fill="#ffd5ce"/>
            <path id="Trazado_927231" data-name="Trazado 927231" d="M124.994,136.6s-2.116-.437-1.886,1.886,2.938,1.658,2.938,1.658Z" transform="translate(-64.076 -71.091)" fill="#ffd5ce"/>
            <path id="Trazado_927232" data-name="Trazado 927232" d="M125.252,138.543a.757.757,0,0,0-.809.326,1.016,1.016,0,0,0-.083.232,1.113,1.113,0,0,0,.017.551.908.908,0,0,0,.3.469.7.7,0,0,0,.564.144" transform="translate(-64.723 -72.115)" fill="none" stroke="#bf736a" stroke-linecap="round" stroke-miterlimit="10" stroke-width="0.5"/>
            <path id="Trazado_927233" data-name="Trazado 927233" d="M125.345,140.1c.134-.271-.451-.725-.96-.256" transform="translate(-64.75 -72.691)" fill="none" stroke="#bf736a" stroke-linecap="round" stroke-miterlimit="10" stroke-width="0.5"/>
            <g id="Grupo_1115125" data-name="Grupo 1115125" transform="translate(62.305 69.534)" opacity="0.1" style="mix-blend-mode: multiply;isolation: isolate">
              <g id="Grupo_1115124" data-name="Grupo 1115124">
                <g id="Grupo_1115123" data-name="Grupo 1115123" clip-path="url(#clip-path-3)">
                  <path id="Trazado_927234" data-name="Trazado 927234" d="M136.214,148.926l.13-1.168c-.947.131-4.8-.526-6.39-2.727,0,.308,3.179,5.992,6.261,3.895" transform="translate(-129.953 -145.031)"/>
                </g>
              </g>
            </g>
            <path id="Trazado_927235" data-name="Trazado 927235" d="M126.953,134.21s2.815,3.943,4.931,4.541,3.439-.67,3.439-2.84v-5.55a3.75,3.75,0,0,0-2.093-3.4,6,6,0,0,0-4.713-.069c-4.737,1.656-1.563,7.312-1.563,7.312" transform="translate(-65.545 -65.828)" fill="#ffd5ce"/>
            <path id="Trazado_927236" data-name="Trazado 927236" d="M140.84,136.1a.947.947,0,0,1,1.219,0" transform="translate(-73.316 -70.734)" fill="none" stroke="#bf736a" stroke-linecap="round" stroke-miterlimit="10" stroke-width="0.75"/>
            <path id="Trazado_927237" data-name="Trazado 927237" d="M135.01,136.1a.947.947,0,0,1,1.219,0" transform="translate(-70.281 -70.734)" fill="none" stroke="#bf736a" stroke-linecap="round" stroke-miterlimit="10" stroke-width="0.75"/>
            <path id="Trazado_927238" data-name="Trazado 927238" d="M134.941,141.867a.81.81,0,1,1-.81-.81.81.81,0,0,1,.81.81" transform="translate(-69.402 -73.429)" fill="#edbfb9"/>
            <path id="Trazado_927239" data-name="Trazado 927239" d="M143.6,141.867a.81.81,0,1,1-.81-.81.81.81,0,0,1,.81.81" transform="translate(-73.91 -73.429)" fill="#edbfb9"/>
            <path id="Trazado_927240" data-name="Trazado 927240" d="M152.207,215.967s-.045,4.985,1.1,6.959" transform="translate(-79.233 -112.424)" fill="none" stroke="#fff" stroke-linecap="round" stroke-miterlimit="10" stroke-width="1"/>
            <path id="Trazado_927241" data-name="Trazado 927241" d="M91.237,187.571a3.444,3.444,0,1,1-1.567-4.611,3.444,3.444,0,0,1,1.567,4.611" transform="translate(-44.093 -95.057)" fill="#ffd5ce"/>
            <path id="Trazado_927242" data-name="Trazado 927242" d="M111.206,159.573a3.989,3.989,0,1,1-1.816-5.341,3.99,3.99,0,0,1,1.816,5.341" transform="translate(-53.95 -80.072)" fill="#ffd5ce"/>
            <path id="Trazado_927243" data-name="Trazado 927243" d="M94.578,158.465l-9.135,13.5L91.623,175l10.113-13.014Z" transform="translate(-44.479 -82.491)" fill="#ffd5ce"/>
            <path id="Trazado_927244" data-name="Trazado 927244" d="M106.016,159.507a3.84,3.84,0,0,1-1,1.266l-4.283,5.432-7.122-3.042,5-7.3a4.131,4.131,0,0,1,7.406,3.649" transform="translate(-48.732 -79.992)" fill="#5726f7"/>
            <path id="Trazado_927245" data-name="Trazado 927245" d="M93.51,171.578l-1,1.4,7.87,3.122,1-1.4Z" transform="translate(-48.157 -89.317)" fill="#ffe030"/>
            <line id="Línea_52626" data-name="Línea 52626" y1="2.206" x2="1.715" transform="translate(53.496 82.182)" fill="none" stroke="#d7ebff" stroke-linecap="round" stroke-miterlimit="10" stroke-width="1"/>
            <path id="Trazado_927246" data-name="Trazado 927246" d="M89.8,189.606a3.444,3.444,0,1,1,1.874-4.5,3.444,3.444,0,0,1-1.874,4.5" transform="translate(-44.273 -95.25)" fill="#ffd5ce"/>
            <path id="Trazado_927247" data-name="Trazado 927247" d="M109.774,220.566a2.009,2.009,0,1,1,1.093-2.623,2.009,2.009,0,0,1-1.093,2.623" transform="translate(-55.7 -112.805)" fill="#ffd5ce"/>
            <path id="Trazado_927248" data-name="Trazado 927248" d="M91.96,187.427l7.762,15.279-3.715,1.529L85.591,190.049Z" transform="translate(-44.555 -97.567)" fill="#ffd5ce"/>
            <path id="Trazado_927249" data-name="Trazado 927249" d="M100.726,193.234l-2.552-5.18a3.418,3.418,0,0,0-1.968-1.768" transform="translate(-50.082 -96.973)" fill="none" stroke="#e38c72" stroke-linecap="round" stroke-miterlimit="10" stroke-width="1"/>
            <path id="Trazado_927250" data-name="Trazado 927250" d="M115.127,222.181c.154.2-.541.824-1.749,1.686-1.1.788-2.062,1.379-2.235,1.193l-.083-.087-.011-.012h0l-.335-.36c-1.507-1.619-2.239-3.518-.68-4.846,1.529-1.3,3.166-.174,4.524,1.571.1.126.189.254.274.382.009.01.017.019.025.029Z" transform="translate(-56.827 -114.102)" fill="#ffd5ce"/>
            <path id="Trazado_927251" data-name="Trazado 927251" d="M116.013,219.673c-.352-.067-1.817-.512-1.96-.11l-.149.064c-.082.486,1.56,2.03,1.944,1.89l1.248-.5c.352.068.759.223.8-.128a.76.76,0,0,0-.538-.77,13.825,13.825,0,0,0-1.349-.447" transform="translate(-59.293 -114.209)" fill="#ffd5ce"/>
            <path id="Trazado_927252" data-name="Trazado 927252" d="M120.157,219.788c-.445.072-.862.629-.708,1.023l-.028.1c.153.4.186.326.635.283a4.123,4.123,0,0,0,1.62-.749c.468-.33.761-.948.66-1.191s-.36-.456-.544-.421a2.367,2.367,0,0,1-1.635.956" transform="translate(-62.164 -113.914)" fill="#ffd5ce"/>
            <path id="Trazado_927253" data-name="Trazado 927253" d="M120.338,230.453l-2.289-2.728a.611.611,0,1,1,.926-.8l2.289,2.728a.611.611,0,1,1-.926.8" transform="translate(-61.375 -118.02)" fill="#ffd5ce"/>
            <path id="Trazado_927254" data-name="Trazado 927254" d="M121.211,227.168l-2.289-2.728a.611.611,0,0,1,.926-.8l2.289,2.728a.611.611,0,0,1-.926.8" transform="translate(-61.83 -116.31)" fill="#ffd5ce"/>
            <path id="Trazado_927255" data-name="Trazado 927255" d="M117.891,231.8l-2.289-2.728a.611.611,0,0,1,.926-.8L118.817,231a.611.611,0,0,1-.926.8" transform="translate(-60.101 -118.722)" fill="#ffd5ce"/>
            <path id="Trazado_927256" data-name="Trazado 927256" d="M114.3,231.786l-2.289-2.728a.611.611,0,0,1,.926-.8l2.289,2.728a.611.611,0,1,1-.926.8" transform="translate(-58.23 -118.714)" fill="#ffd5ce"/>
            <path id="Trazado_927257" data-name="Trazado 927257" d="M134.658,317.582l5.88.147,2.47-32.119-10.635-.07Z" transform="translate(-68.908 -148.641)" fill="#2b2852"/>
            <path id="Trazado_927258" data-name="Trazado 927258" d="M141.378,283.6a5.318,5.318,0,1,1,.146-7.52,5.318,5.318,0,0,1-.146,7.52" transform="translate(-68.908 -142.867)" fill="#2b2852"/>
            <path id="Trazado_927259" data-name="Trazado 927259" d="M136.978,350.121l6.037.194-.079,1.031-5.881-.146Z" transform="translate(-71.305 -182.26)" fill="#002647"/>
            <path id="Trazado_927260" data-name="Trazado 927260" d="M110.115,258.363l10.586.366,1.773-25.962H109.018Z" transform="translate(-56.75 -121.17)" fill="#2b2852"/>
            <path id="Trazado_927261" data-name="Trazado 927261" d="M120.422,230.308a6.736,6.736,0,1,1,.185-9.524,6.736,6.736,0,0,1-.185,9.524" transform="translate(-56.75 -113.856)" fill="#2b2852"/>
            <path id="Trazado_927262" data-name="Trazado 927262" d="M120.294,283.6a5.318,5.318,0,1,1,.146-7.52,5.318,5.318,0,0,1-.146,7.52" transform="translate(-57.933 -142.867)" fill="#2b2852"/>
            <path id="Trazado_927263" data-name="Trazado 927263" d="M113.574,317.582l5.88.147,2.47-32.119-10.635-.07Z" transform="translate(-57.932 -148.641)" fill="#2b2852"/>
            <path id="Trazado_927264" data-name="Trazado 927264" d="M120.294,283.6a5.318,5.318,0,1,1,.146-7.52,5.318,5.318,0,0,1-.146,7.52" transform="translate(-57.933 -142.867)" fill="#2b2852"/>
            <path id="Trazado_927265" data-name="Trazado 927265" d="M115.894,350.121l6.037.194-.079,1.031-5.88-.146Z" transform="translate(-60.33 -182.26)" fill="#002647"/>
            <line id="Línea_52627" data-name="Línea 52627" x1="0.489" y2="18.525" transform="translate(64.504 120.423)" fill="none" stroke="#fff" stroke-linecap="round" stroke-miterlimit="10" stroke-width="1"/>
            <path id="Trazado_927266" data-name="Trazado 927266" d="M113.174,217.032s.506,5.565-2.116,7.128" transform="translate(-57.812 -112.978)" fill="none" stroke="#fff" stroke-linecap="round" stroke-miterlimit="10" stroke-width="1"/>
            <path id="Trazado_927267" data-name="Trazado 927267" d="M136.522,223.225s.645,7.726,0,8.523a10.106,10.106,0,0,1-.961,1.077" transform="translate(-70.568 -116.202)" fill="none" stroke="#fff" stroke-linecap="round" stroke-miterlimit="10" stroke-width="1"/>
            <path id="Trazado_927268" data-name="Trazado 927268" d="M114.491,210.594h17.331l.429,1.166-18.055-.181Z" transform="translate(-59.446 -109.627)" fill="#ffe030"/>
            <path id="Trazado_927269" data-name="Trazado 927269" d="M128.021,127.31s4.477,3.878,8.642.9c0,0-.5-6.175-9.53-3.366,0,0-.064,1.789.888,2.469" transform="translate(-66.18 -64.606)" fill="#2b2852"/>
            <path id="Trazado_927270" data-name="Trazado 927270" d="M128.668,130.156s.738,3.712-1.317,5.211a4.316,4.316,0,0,1-.718-6.27s1.849.5,2.036,1.059" transform="translate(-65.381 -67.203)" fill="#2b2852"/>
            <path id="Trazado_927271" data-name="Trazado 927271" d="M140.539,146.989a.958.958,0,0,1-1.151-.09" transform="translate(-72.56 -76.47)" fill="none" stroke="#b52b60" stroke-linecap="round" stroke-miterlimit="10" stroke-width="1"/>
            <path id="Trazado_927272" data-name="Trazado 927272" d="M139.807,140.606s.832,1.1.742,1.275-.6.228-.6.228" transform="translate(-72.778 -73.194)" fill="none" stroke="#bf736a" stroke-linecap="round" stroke-miterlimit="10" stroke-width="0.5"/>
            <path id="Trazado_927273" data-name="Trazado 927273" d="M142.436,138.153c0,.209-.119.378-.266.378s-.266-.169-.266-.378.119-.378.266-.378.266.169.266.378" transform="translate(-73.87 -71.72)" fill="#2e1124"/>
            <path id="Trazado_927274" data-name="Trazado 927274" d="M142.826,137.953a.262.262,0,0,0,.18-.143" transform="translate(-74.35 -71.739)" fill="none" stroke="#2e1124" stroke-linecap="round" stroke-miterlimit="10" stroke-width="0.5"/>
            <path id="Trazado_927275" data-name="Trazado 927275" d="M136.556,138.153c0,.209-.119.378-.266.378s-.266-.169-.266-.378.119-.378.266-.378.266.169.266.378" transform="translate(-70.809 -71.72)" fill="#2e1124"/>
            <path id="Trazado_927276" data-name="Trazado 927276" d="M135.867,138.033a.263.263,0,0,0,.191.128" transform="translate(-70.727 -71.855)" fill="none" stroke="#2e1124" stroke-linecap="round" stroke-miterlimit="10" stroke-width="0.5"/>
            <path id="Trazado_927277" data-name="Trazado 927277" d="M129.8,124.058a6.178,6.178,0,0,1,4.737.03" transform="translate(-67.57 -64.342)" fill="none" stroke="#002647" stroke-linecap="round" stroke-miterlimit="10" stroke-width="1"/>
            <path id="Trazado_927278" data-name="Trazado 927278" d="M130.046,126.185a8.655,8.655,0,0,1,3.8.256" transform="translate(-67.697 -65.634)" fill="none" stroke="#002647" stroke-linecap="round" stroke-miterlimit="10" stroke-width="1"/>
            <path id="Trazado_927279" data-name="Trazado 927279" d="M127.075,125.537a3.755,3.755,0,0,0-1.33,2.855" transform="translate(-65.458 -65.35)" fill="none" stroke="#002647" stroke-linecap="round" stroke-miterlimit="10" stroke-width="1"/>
            <path id="Trazado_927280" data-name="Trazado 927280" d="M130.942,157.216a2.894,2.894,0,0,1-1.316,2.672s-3.936-3.589-3.159-6.589c0,0,1.365,3.6,4.475,3.917" transform="translate(-65.781 -79.801)" fill="#ffe030"/>
            <path id="Trazado_927281" data-name="Trazado 927281" d="M136.957,156.534a3.081,3.081,0,0,0,1.365,2.744s3.586-2.928,2.276-6.9c0,0-.533,3.834-3.642,4.156" transform="translate(-71.294 -79.322)" fill="#ffe030"/>
            <path id="Trazado_927282" data-name="Trazado 927282" d="M136.579,165.876a.448.448,0,1,1-.448-.448.448.448,0,0,1,.448.448" transform="translate(-70.631 -86.115)" fill="#ffe030"/>
            <path id="Trazado_927283" data-name="Trazado 927283" d="M136.579,171.087a.448.448,0,1,1-.448-.448.448.448,0,0,1,.448.448" transform="translate(-70.631 -88.828)" fill="#ffe030"/>
            <path id="Trazado_927284" data-name="Trazado 927284" d="M136.579,176.3a.448.448,0,1,1-.448-.448.449.449,0,0,1,.448.448" transform="translate(-70.631 -91.541)" fill="#ffe030"/>
            <path id="Trazado_927285" data-name="Trazado 927285" d="M143.279,76.543H107.758a6.036,6.036,0,0,0-6.037,6.037.765.765,0,0,1-1.178.643l-7.636-4.9a6.036,6.036,0,0,1-2.777-5.081V62.91a6.036,6.036,0,0,1,6.036-6.036h47.112a6.036,6.036,0,0,1,6.036,6.036v7.6a6.036,6.036,0,0,1-6.036,6.036" transform="translate(-46.919 -29.606)" fill="#fff"/>
            <path id="Trazado_927286" data-name="Trazado 927286" d="M143.279,76.543H107.758a6.036,6.036,0,0,0-6.037,6.037.765.765,0,0,1-1.178.643l-7.636-4.9a6.036,6.036,0,0,1-2.777-5.081V62.91a6.036,6.036,0,0,1,6.036-6.036h47.112a6.036,6.036,0,0,1,6.036,6.036v7.6A6.036,6.036,0,0,1,143.279,76.543Z" transform="translate(-46.919 -29.606)" fill="none" stroke="#381f24" stroke-linecap="round" stroke-linejoin="round" stroke-width="2"/>
            <line id="Línea_52628" data-name="Línea 52628" x2="30.668" transform="translate(57.471 34.284)" fill="#fff"/>
            <line id="Línea_52629" data-name="Línea 52629" x2="30.668" transform="translate(57.471 34.284)" fill="none" stroke="#381f24" stroke-linecap="round" stroke-linejoin="round" stroke-width="2"/>
            <line id="Línea_52630" data-name="Línea 52630" x2="30.668" transform="translate(57.471 40.053)" fill="#fff"/>
            <line id="Línea_52631" data-name="Línea 52631" x2="30.668" transform="translate(57.471 40.053)" fill="none" stroke="#381f24" stroke-linecap="round" stroke-linejoin="round" stroke-width="2"/>
          </g>
        </g>
      </g>
    </g>
  </g>
</svg>
