<svg xmlns="http://www.w3.org/2000/svg" width="85" height="85" viewBox="0 0 85 85">
  <g id="Grupo_1113510" data-name="Grupo 1113510" transform="translate(-284.571 -1183)">
    <rect id="Rectángulo_411460" data-name="Rectángulo 411460" width="85" height="85" transform="translate(284.571 1183)" fill="#d6cdd9"/>
    <g id="Grupo_1113509" data-name="Grupo 1113509" transform="translate(265.957 1193.176)">
      <path id="Trazado_916573" data-name="Trazado 916573" d="M124.706,93.631l-9.854-5.689-5.682,3.28-5.682-3.28-9.854,5.689v6.561l-5.682,3.28v11.378l5.682,3.28v6.561l9.854,5.689,5.682-3.28,5.682,3.28,9.854-5.689v-6.561l5.682-3.28V103.473l-5.682-3.28Zm-21.218,12.25,5.682-3.28,5.682,3.28v6.561l-5.682,3.28-5.682-3.28Z" transform="translate(-48.056 -76.837)" fill="#fe9ab8" fill-rule="evenodd"/>
      <g id="Grupo_1113508" data-name="Grupo 1113508" transform="translate(32.952 0.001)">
        <path id="Trazado_916574" data-name="Trazado 916574" d="M214.253,391.528l-5.682-3.28a1.262,1.262,0,0,0-1.263,0l-5.682,3.28a1.263,1.263,0,0,0-.631,1.093v6.561a1.263,1.263,0,0,0,.631,1.093l5.667,3.272a1.273,1.273,0,0,0,1.293,0l5.667-3.272a1.263,1.263,0,0,0,.631-1.093v-6.561A1.263,1.263,0,0,0,214.253,391.528Zm-6.313-.729,3.157,1.823-3.157,1.822-3.157-1.822Zm-4.419,4.01,3.157,1.823v3.645l-3.157-1.823Zm5.682,5.467v-3.645l3.157-1.823v3.645Z" transform="translate(-179.777 -339.079)" fill="#020288"/>
        <path id="Trazado_916575" data-name="Trazado 916575" d="M33.583,109.218l5.667,3.272a1.263,1.263,0,0,0,1.293,0l5.667-3.272a1.263,1.263,0,0,0,.631-1.093v-6.561a1.263,1.263,0,0,0-.631-1.093l-5.682-3.28a1.262,1.262,0,0,0-1.263,0l-5.682,3.28a1.263,1.263,0,0,0-.631,1.093v6.561a1.263,1.263,0,0,0,.631,1.093Zm1.894-5.467,3.157,1.822v3.645L35.477,107.4Zm5.682,5.467v-3.645l3.157-1.822V107.4ZM39.9,99.741l3.157,1.822L39.9,103.386l-3.157-1.822Z" transform="translate(-32.952 -84.771)" fill="#020288"/>
        <path id="Trazado_916576" data-name="Trazado 916576" d="M382.3,100.469l-5.682-3.28a1.262,1.262,0,0,0-1.263,0l-5.682,3.28a1.263,1.263,0,0,0-.631,1.093v6.561a1.263,1.263,0,0,0,.631,1.093l5.667,3.272a1.273,1.273,0,0,0,1.293,0l5.667-3.272a1.263,1.263,0,0,0,.631-1.093v-6.561A1.263,1.263,0,0,0,382.3,100.469Zm-6.313-.729,3.157,1.822-3.157,1.822-3.157-1.822Zm-4.419,4.009,3.157,1.822v3.645l-3.157-1.822Zm5.682,5.467v-3.645l3.157-1.822v3.645Z" transform="translate(-326.603 -84.77)" fill="#020288"/>
        <path id="Trazado_916577" data-name="Trazado 916577" d="M88.645,40.2l-5.682-3.28a1.262,1.262,0,0,0-1.263,0L76.65,39.836l-8.591-4.96V29.044a1.263,1.263,0,0,0-.631-1.093l-5.051-2.916v-9.92L67.427,12.2a1.263,1.263,0,0,0,.631-1.093V4.544a1.263,1.263,0,0,0-.631-1.093L61.746.17a1.262,1.262,0,0,0-1.263,0L54.8,3.45a1.263,1.263,0,0,0-.631,1.093V11.1A1.263,1.263,0,0,0,54.8,12.2l5.051,2.916v9.92L54.8,27.95a1.263,1.263,0,0,0-.631,1.093v5.832l-8.591,4.96L40.528,36.92a1.262,1.262,0,0,0-1.263,0L33.583,40.2a1.263,1.263,0,0,0-.631,1.093v6.561a1.263,1.263,0,0,0,.631,1.093L39.25,52.22a1.273,1.273,0,0,0,1.293,0l5.667-3.272a1.263,1.263,0,0,0,.631-1.093V42.023l8.591-4.96,5.036,2.907a1.263,1.263,0,0,0,1.293,0L66.8,37.063l8.591,4.96v5.832a1.263,1.263,0,0,0,.631,1.093l5.667,3.272a1.272,1.272,0,0,0,1.293,0l5.667-3.272a1.263,1.263,0,0,0,.631-1.093V41.294A1.263,1.263,0,0,0,88.645,40.2Zm-6.313-.729,3.157,1.822-3.157,1.822-3.157-1.822Zm-25.637-8.24,3.157,1.822V36.7l-3.157-1.822Zm4.419-4.01,3.157,1.822-3.157,1.822-3.157-1.822Zm1.263,5.832,3.157-1.822v3.645L62.377,36.7Zm0-20.855V8.553l3.157-1.822v3.645ZM61.114,2.721l3.157,1.822L61.114,6.366,57.957,4.544Zm-4.419,7.654V6.731l3.157,1.822V12.2Zm-16.8,29.1,3.157,1.822L39.9,43.116,36.74,41.294Zm-4.419,4.01L38.634,45.3v3.645l-3.157-1.822Zm8.838,3.645-3.157,1.822V45.3l3.157-1.822Zm33.6-3.645L81.069,45.3v3.645l-3.157-1.822Zm5.682,5.467V45.3l3.157-1.822v3.645Z" transform="translate(-32.952 -0.001)" fill="#020288"/>
      </g>
    </g>
  </g>
</svg>
