<svg id="Layer_2" data-name="Layer 2" xmlns="http://www.w3.org/2000/svg" width="55" height="55" viewBox="0 0 55 55">
  <g id="_03.number_2" data-name="03.number_2" transform="translate(0)">
    <path id="background" d="M27.5,2.48a25.011,25.011,0,1,1-9.738,1.965A25.027,25.027,0,0,1,27.5,2.48M27.5,0A27.5,27.5,0,1,0,55,27.5,27.5,27.5,0,0,0,27.5,0Z" transform="translate(0)" fill="#360742"/>
    <path id="Trazado_927174" data-name="Trazado 927174" d="M182.776,167.247l7.6-7.894c1.326-1.359,2.3-2.685,2.3-4.012a2.251,2.251,0,0,0-2.426-2.394,3.643,3.643,0,0,0-3.332,2.459l-4.368-2.556a8.076,8.076,0,0,1,7.635-4.95c4.044,0,7.668,2.653,7.668,7.215,0,2.718-1.456,5.047-3.526,7.118l-3.748,3.785h7.6V171H182.776Z" transform="translate(-162.863 -131.95)" fill="#360742"/>
  </g>
</svg>
