<svg xmlns="http://www.w3.org/2000/svg" width="90" height="90" viewBox="0 0 90 90">
  <g id="Grupo_1116089" data-name="Grupo 1116089" transform="translate(-334.184 -2863)">
    <g id="Grupo_1116049" data-name="Grupo 1116049" transform="translate(154.516 2121)">
      <rect id="Rectángulo_402006" data-name="Rectángulo 402006" width="90" height="90" transform="translate(179.668 742)" fill="#f1ff64"/>
    </g>
    <g id="Outline" transform="translate(332.184 2875)">
      <path id="Trazado_927859" data-name="Trazado 927859" d="M24.212,33.536l3.45-1.64L30.09,32.9l1.28,3.6a1.033,1.033,0,0,0,.973.687h4.5a1.033,1.033,0,0,0,.973-.687l1.28-3.6L41.526,31.9l3.45,1.64a1.034,1.034,0,0,0,1.174-.2l3.183-3.183a1.033,1.033,0,0,0,.2-1.174l-1.64-3.45L48.9,23.1l3.6-1.28a1.033,1.033,0,0,0,.687-.974v-4.5a1.033,1.033,0,0,0-.687-.973l-3.6-1.28L47.9,11.661l1.64-3.45a1.033,1.033,0,0,0-.2-1.174L46.15,3.854a1.033,1.033,0,0,0-1.174-.2l-3.45,1.64L39.1,4.286l-1.28-3.6A1.033,1.033,0,0,0,36.845,0h-4.5a1.033,1.033,0,0,0-.973.687l-1.28,3.6L27.661,5.292l-3.449-1.64a1.033,1.033,0,0,0-1.175.2L19.854,7.037a1.033,1.033,0,0,0-.2,1.175l1.64,3.45L20.286,14.09l-3.6,1.279a1.033,1.033,0,0,0-.687.973v4.5a1.033,1.033,0,0,0,.687.973l3.6,1.28,1.006,2.428-1.64,3.45a1.033,1.033,0,0,0,.2,1.174l3.183,3.183a1.034,1.034,0,0,0,1.175.2Zm-.836-8.376-1.357-3.277a1.032,1.032,0,0,0-.608-.578l-3.344-1.19V17.072l3.344-1.19a1.032,1.032,0,0,0,.608-.578l1.358-3.276a1.033,1.033,0,0,0-.021-.839L21.831,7.983l2.152-2.152,3.206,1.524a1.032,1.032,0,0,0,.839.021L31.3,6.018a1.032,1.032,0,0,0,.577-.608l1.19-3.344h3.044l1.19,3.344a1.032,1.032,0,0,0,.578.608L41.16,7.376A1.032,1.032,0,0,0,42,7.355L45.2,5.831l2.152,2.152-1.524,3.206a1.033,1.033,0,0,0-.021.839l1.357,3.277a1.032,1.032,0,0,0,.608.577l3.344,1.189v3.044l-3.344,1.19a1.032,1.032,0,0,0-.608.578L45.811,25.16a1.033,1.033,0,0,0,.021.839l1.524,3.206L45.2,31.357,42,29.834a1.032,1.032,0,0,0-.839-.021L37.882,31.17a1.032,1.032,0,0,0-.577.608l-1.19,3.344H33.072l-1.19-3.344a1.032,1.032,0,0,0-.578-.608l-3.276-1.358a1.032,1.032,0,0,0-.839.021l-3.206,1.524L21.831,29.2,23.354,26a1.033,1.033,0,0,0,.022-.839Z" fill="#523dbf"/>
      <path id="Trazado_927860" data-name="Trazado 927860" d="M97.3,90.594A9.3,9.3,0,1,0,88,81.3,9.3,9.3,0,0,0,97.3,90.594Zm0-16.528A7.231,7.231,0,1,1,90.066,81.3,7.231,7.231,0,0,1,97.3,74.066Z" transform="translate(-62.703 -62.703)" fill="#523dbf"/>
      <path id="Trazado_927861" data-name="Trazado 927861" d="M104.588,287.281l-1.357,3.277a1.033,1.033,0,0,0,.021.839l1.524,3.206-2.152,2.152-3.206-1.524a1.033,1.033,0,0,0-.839-.021L95.3,296.567a1.033,1.033,0,0,0-.578.608l-1.19,3.345H90.491L89.3,297.175a1.032,1.032,0,0,0-.578-.608l-3.277-1.357a1.032,1.032,0,0,0-.839.021L81.4,296.755,79.249,294.6l1.524-3.206a1.033,1.033,0,0,0,.021-.839l-1.357-3.277a1.033,1.033,0,0,0-.607-.577l-3.344-1.189V282.47l3.344-1.189a1.033,1.033,0,0,0,.608-.578l1.357-3.277a1.033,1.033,0,0,0-.021-.839l-1.837-3.864-1.865.888,1.64,3.45-1.006,2.428-3.6,1.28a1.033,1.033,0,0,0-.687.973v4.5a1.033,1.033,0,0,0,.687.973l3.6,1.28,1.006,2.428-1.64,3.45a1.033,1.033,0,0,0,.2,1.174l3.183,3.183a1.033,1.033,0,0,0,1.174.2l3.45-1.64,2.428,1.006,1.28,3.6a1.033,1.033,0,0,0,.974.687h4.5a1.033,1.033,0,0,0,.973-.687l1.28-3.6,2.428-1.006,3.45,1.64a1.033,1.033,0,0,0,1.174-.2l3.183-3.183a1.033,1.033,0,0,0,.2-1.174l-1.64-3.45,1.181-2.852Z" transform="translate(-50.006 -237.507)" fill="#523dbf"/>
      <path id="Trazado_927862" data-name="Trazado 927862" d="M276.115,246.992l-3.183-3.183a1.033,1.033,0,0,0-1.174-.2l-3.864,1.837.887,1.866,3.206-1.524,2.152,2.152-1.524,3.206a1.033,1.033,0,0,0-.021.839l1.172,2.829,1.909-.791-1-2.405,1.64-3.45A1.033,1.033,0,0,0,276.115,246.992Z" transform="translate(-219.368 -212.064)" fill="#523dbf"/>
      <path id="Trazado_927863" data-name="Trazado 927863" d="M154.713,306.594a9.3,9.3,0,1,0-9.3-9.3A9.3,9.3,0,0,0,154.713,306.594Zm0-16.528a7.231,7.231,0,1,1-7.231,7.231A7.231,7.231,0,0,1,154.713,290.066Z" transform="translate(-112.705 -250.812)" fill="#523dbf"/>
      <path id="Trazado_927864" data-name="Trazado 927864" d="M320.29,39.37l-3.6-1.28-1.006-2.428,1.64-3.45a1.033,1.033,0,0,0-.2-1.174l-3.183-3.183a1.033,1.033,0,0,0-1.174-.2l-3.45,1.64-2.428-1.006-1.28-3.6a1.033,1.033,0,0,0-.974-.687h-4.5a1.033,1.033,0,0,0-.973.687l-1.28,3.6-2.852,1.182.791,1.909,3.277-1.357a1.033,1.033,0,0,0,.578-.608l1.189-3.344h3.044l1.19,3.344a1.032,1.032,0,0,0,.578.608l3.276,1.358a1.033,1.033,0,0,0,.839-.021l3.206-1.524,2.152,2.152-1.524,3.206a1.033,1.033,0,0,0-.021.839l1.357,3.277a1.033,1.033,0,0,0,.608.577l3.344,1.189v3.044l-3.344,1.19a1.033,1.033,0,0,0-.608.578L313.6,49.16a1.033,1.033,0,0,0,.021.839l1.524,3.206-2.668,2.668,1.462,1.46,3.183-3.183a1.033,1.033,0,0,0,.2-1.174l-1.64-3.45,1.006-2.428,3.6-1.28a1.033,1.033,0,0,0,.687-.974v-4.5a1.033,1.033,0,0,0-.687-.973Z" transform="translate(-242.998 -20.901)" fill="#523dbf"/>
      <path id="Trazado_927865" data-name="Trazado 927865" d="M293.857,112.525a7.2,7.2,0,0,1-6.706-4.519l-1.915.775a9.3,9.3,0,1,0,3.971-11.539l1.035,1.788a7.231,7.231,0,1,1,3.615,13.5Z" transform="translate(-234.471 -83.601)" fill="#523dbf"/>
      <path id="Trazado_927866" data-name="Trazado 927866" d="M335.848,255.231h-3.453V251.1a3.1,3.1,0,1,0-6.2,0v8.869l-.694-.694a3.224,3.224,0,0,0-4.56,4.56l5.254,5.253v1.638h-1.033a1.033,1.033,0,0,0-1.033,1.033v9.3H326.2v-8.264h12.4v8.264h2.066v-9.3a1.033,1.033,0,0,0-1.033-1.033h-1.033v-1.638l2.118-2.118a6.876,6.876,0,0,0-4.862-11.739Zm3.4,10.278-2.42,2.42a1.033,1.033,0,0,0-.3.73v2.066h-8.264V268.66a1.033,1.033,0,0,0-.3-.73l-5.556-5.556a1.158,1.158,0,1,1,1.638-1.638l2.457,2.457a1.033,1.033,0,0,0,1.763-.73V251.1a1.033,1.033,0,0,1,2.066,0v5.165a1.033,1.033,0,0,0,1.033,1.033h4.486a4.81,4.81,0,0,1,3.4,8.212Z" transform="translate(-264.746 -215.977)" fill="#523dbf"/>
      <path id="Trazado_927867" data-name="Trazado 927867" d="M432,456h2.066v2.066H432Z" transform="translate(-362.285 -397.12)" fill="#523dbf"/>
    </g>
  </g>
</svg>
