<svg id="Grupo_1114820" data-name="Grupo 1114820" xmlns="http://www.w3.org/2000/svg" width="50" height="50" viewBox="0 0 50 50">
  <g id="Grupo_1113966" data-name="Grupo 1113966" transform="translate(0 0)">
    <path id="Trazado_916990" data-name="Trazado 916990" d="M49.268,0H.732A.732.732,0,0,0,0,.732V36.77a.732.732,0,0,0,1.465,0V7.581h47.07v2.783a.732.732,0,0,0,1.465,0V.732A.732.732,0,0,0,49.268,0ZM1.465,6.116V1.465h47.07V6.116Z" transform="translate(0 0)" fill="#523dbf"/>
    <path id="Trazado_916991" data-name="Trazado 916991" d="M49.268,133.63a.732.732,0,0,0-.732.732v34.753H1.465v-8.348a.732.732,0,0,0-1.465,0v9.08a.732.732,0,0,0,.732.732H49.268a.732.732,0,0,0,.732-.732V134.362A.732.732,0,0,0,49.268,133.63Z" transform="translate(0 -120.58)" fill="#523dbf"/>
    <path id="Trazado_916992" data-name="Trazado 916992" d="M50.51,289.176v13.653a2.709,2.709,0,0,0,2.705,2.706H87.94a2.709,2.709,0,0,0,2.705-2.706v-6.677a.732.732,0,0,0-1.465,0v6.677a1.242,1.242,0,0,1-1.24,1.241H53.215a1.242,1.242,0,0,1-1.24-1.241V289.176a1.242,1.242,0,0,1,1.24-1.241H87.94a1.242,1.242,0,0,1,1.24,1.241v3.559a.732.732,0,0,0,1.465,0v-3.559a2.709,2.709,0,0,0-2.705-2.706H53.215A2.709,2.709,0,0,0,50.51,289.176Z" transform="translate(-45.577 -258.494)" fill="#523dbf"/>
    <path id="Trazado_916993" data-name="Trazado 916993" d="M302.827,107.469a2.311,2.311,0,0,0,3.945,1.634l6.089-6.089a2.311,2.311,0,0,0,0-3.268l-6.089-6.089a2.314,2.314,0,0,0-3.268,0h0a2.311,2.311,0,0,0,0,3.268l4.456,4.455-4.456,4.455A2.3,2.3,0,0,0,302.827,107.469Zm1.713-.6,4.973-4.973a.732.732,0,0,0,0-1.036l-4.973-4.973a.846.846,0,0,1,1.2-1.2l6.089,6.089a.846.846,0,0,1,0,1.2l-6.089,6.089a.846.846,0,0,1-1.2-1.2Z" transform="translate(-273.254 -83.9)" fill="#523dbf"/>
    <path id="Trazado_916994" data-name="Trazado 916994" d="M110.2,95.288a2.3,2.3,0,0,0-.677-1.634h0a2.313,2.313,0,0,0-3.268,0l-6.089,6.089a2.311,2.311,0,0,0,0,3.268l6.089,6.089a2.311,2.311,0,1,0,3.268-3.268l-4.455-4.455,4.455-4.455a2.3,2.3,0,0,0,.677-1.634Zm-1.713.6-4.973,4.973a.732.732,0,0,0,0,1.036l4.973,4.973a.846.846,0,1,1-1.2,1.2l-6.089-6.089a.846.846,0,0,1,0-1.2l6.089-6.089a.846.846,0,0,1,1.2,1.2Z" transform="translate(-89.777 -83.899)" fill="#523dbf"/>
    <path id="Trazado_916995" data-name="Trazado 916995" d="M226.493,104.811h.022a2.216,2.216,0,0,0,2.187-1.927L230.466,89.3c0-.01,0-.019,0-.029a2.212,2.212,0,0,0-4.386-.572c0,.01,0,.021,0,.031l-1.764,13.582a2.218,2.218,0,0,0,2.178,2.5Zm-.727-2.3v-.01l1.762-13.569a.747.747,0,1,1,1.482.191l-1.762,13.57a.748.748,0,0,1-.739.651h-.017a.754.754,0,0,1-.727-.833Z" transform="translate(-202.391 -78.329)" fill="#523dbf"/>
    <path id="Trazado_916996" data-name="Trazado 916996" d="M147.569,318.245h15.914a.732.732,0,0,0,0-1.465H147.569a.732.732,0,0,0,0,1.465Z" transform="translate(-132.497 -285.844)" fill="#523dbf"/>
    <path id="Trazado_916997" data-name="Trazado 916997" d="M349.891,316.78h-7.036a.732.732,0,1,0,0,1.465h7.036a.732.732,0,1,0,0-1.465Z" transform="translate(-308.713 -285.844)" fill="#523dbf"/>
    <path id="Trazado_916998" data-name="Trazado 916998" d="M83.565,318.245h3.094a.732.732,0,0,0,0-1.465H83.565a.732.732,0,0,0,0,1.465Z" transform="translate(-74.744 -285.844)" fill="#523dbf"/>
    <path id="Trazado_916999" data-name="Trazado 916999" d="M147.569,358.115h9.547a.732.732,0,0,0,0-1.465h-9.547a.732.732,0,1,0,0,1.465Z" transform="translate(-132.497 -321.821)" fill="#523dbf"/>
    <path id="Trazado_917000" data-name="Trazado 917000" d="M291.064,356.65h-13.4a.732.732,0,0,0,0,1.465h13.4a.732.732,0,1,0,0-1.465Z" transform="translate(-249.885 -321.821)" fill="#523dbf"/>
    <path id="Trazado_917001" data-name="Trazado 917001" d="M83.565,358.115h3.094a.732.732,0,0,0,0-1.465H83.565a.732.732,0,0,0,0,1.465Z" transform="translate(-74.744 -321.821)" fill="#523dbf"/>
    <path id="Trazado_917002" data-name="Trazado 917002" d="M226.4,397.253a.732.732,0,0,0-.732-.732H212.614a.732.732,0,0,0,0,1.465h13.053A.732.732,0,0,0,226.4,397.253Z" transform="translate(-191.19 -357.798)" fill="#523dbf"/>
    <path id="Trazado_917003" data-name="Trazado 917003" d="M382.149,396.521H378.6a.732.732,0,1,0,0,1.465h3.544a.732.732,0,0,0,0-1.465Z" transform="translate(-340.97 -357.798)" fill="#523dbf"/>
    <path id="Trazado_917004" data-name="Trazado 917004" d="M83.565,397.986h9.446a.732.732,0,0,0,0-1.465H83.565a.732.732,0,0,0,0,1.465Z" transform="translate(-74.744 -357.798)" fill="#523dbf"/>
    <path id="Trazado_917005" data-name="Trazado 917005" d="M382.14,436.391h-3.545a.732.732,0,1,0,0,1.465h3.545a.732.732,0,0,0,0-1.465Z" transform="translate(-340.961 -393.775)" fill="#523dbf"/>
    <path id="Trazado_917006" data-name="Trazado 917006" d="M83.565,437.856h14.6a.732.732,0,0,0,0-1.465h-14.6a.732.732,0,0,0,0,1.465Z" transform="translate(-74.744 -393.775)" fill="#523dbf"/>
    <path id="Trazado_917007" data-name="Trazado 917007" d="M265.384,437.856h7.9a.732.732,0,1,0,0-1.465h-7.9a.732.732,0,0,0,0,1.465Z" transform="translate(-238.807 -393.775)" fill="#523dbf"/>
    <circle id="Elipse_13928" data-name="Elipse 13928" cx="0.732" cy="0.732" r="0.732" transform="translate(9.865 3.058)" fill="#523dbf"/>
    <circle id="Elipse_13929" data-name="Elipse 13929" cx="0.732" cy="0.732" r="0.732" transform="translate(6.905 3.058)" fill="#523dbf"/>
    <circle id="Elipse_13930" data-name="Elipse 13930" cx="0.732" cy="0.732" r="0.732" transform="translate(3.946 3.058)" fill="#523dbf"/>
  </g>
</svg>
