<svg xmlns="http://www.w3.org/2000/svg" width="60" height="60" viewBox="0 0 60 60">
  <g id="Grupo_1114655" data-name="Grupo 1114655" transform="translate(-304.711 -2969)">
    <rect id="Rectángulo_411477" data-name="Rectángulo 411477" width="60" height="60" transform="translate(304.711 2969)" fill="#523dbf"/>
    <g id="Grupo_1113964" data-name="Grupo 1113964" transform="translate(313.711 2979.502)">
      <path id="Trazado_916986" data-name="Trazado 916986" d="M385.442,209.186a.822.822,0,1,1,.581-.241A.827.827,0,0,1,385.442,209.186Zm0,0" transform="translate(-353.017 -190.031)" fill="#fe9ab8"/>
      <path id="Trazado_916987" data-name="Trazado 916987" d="M38.528,37.872H3.543A3.537,3.537,0,0,1,.479,32.566l17.493-30.3a3.537,3.537,0,0,1,6.127,0l7.253,12.563a.822.822,0,1,1-1.423.822L22.676,3.09a1.894,1.894,0,0,0-3.281,0L1.9,33.387a1.894,1.894,0,0,0,1.641,2.842H38.528a1.894,1.894,0,0,0,1.641-2.842L33.157,21.243a.822.822,0,0,1,1.423-.821l7.012,12.145a3.537,3.537,0,0,1-3.064,5.306Zm0,0" fill="#fe9ab8"/>
      <path id="Trazado_916988" data-name="Trazado 916988" d="M226.633,161.466A2.632,2.632,0,0,1,224,158.837v-7.415a2.629,2.629,0,1,1,5.258,0v7.415A2.632,2.632,0,0,1,226.633,161.466Zm0-11.03a.987.987,0,0,0-.986.986v7.415a.986.986,0,1,0,1.972,0v-7.415A.987.987,0,0,0,226.633,150.436Zm0,0" transform="translate(-205.598 -136.108)" fill="#fe9ab8"/>
      <path id="Trazado_916989" data-name="Trazado 916989" d="M226.633,332.286a2.629,2.629,0,1,1,1.859-.77A2.632,2.632,0,0,1,226.633,332.286Zm0-3.615a.986.986,0,1,0,.986.986A.987.987,0,0,0,226.633,328.671Zm0,0" transform="translate(-205.598 -299.697)" fill="#fe9ab8"/>
    </g>
  </g>
</svg>
