<svg xmlns="http://www.w3.org/2000/svg" width="50" height="50" viewBox="0 0 50 50">
  <g id="_x30_2_x2C__Browser_x2C__pie_chart_x2C__Analysis_x2C__online_x2C__graph" transform="translate(-35 -35)">
    <g id="XMLID_1050_" transform="translate(35 35)">
      <g id="XMLID_1044_">
        <g id="XMLID_720_">
          <path id="XMLID_847_" d="M79.061,85H40.939A5.946,5.946,0,0,1,35,79.061V40.939A5.946,5.946,0,0,1,40.939,35H79.061A5.946,5.946,0,0,1,85,40.939V79.061A5.946,5.946,0,0,1,79.061,85ZM40.939,36.7A4.247,4.247,0,0,0,36.7,40.939V79.061A4.247,4.247,0,0,0,40.939,83.3H79.061A4.247,4.247,0,0,0,83.3,79.061V40.939A4.247,4.247,0,0,0,79.061,36.7Z" transform="translate(-35 -35)" fill="#523dbf"/>
        </g>
      </g>
      <g id="XMLID_1045_" transform="translate(0 9.955)">
        <g id="XMLID_719_">
          <path id="XMLID_844_" d="M84.152,124.7h-48.3a.848.848,0,0,1,0-1.7h48.3a.848.848,0,1,1,0,1.7Z" transform="translate(-35 -123)" fill="#523dbf"/>
        </g>
      </g>
      <g id="XMLID_1046_" transform="translate(13.801)">
        <g id="XMLID_718_">
          <path id="XMLID_841_" d="M157.848,46.652A.848.848,0,0,1,157,45.8V35.848a.848.848,0,0,1,1.7,0V45.8A.848.848,0,0,1,157.848,46.652Z" transform="translate(-157 -35)" fill="#523dbf"/>
        </g>
      </g>
      <g id="XMLID_1038_" transform="translate(38.688 3.394)">
        <g id="XMLID_715_" transform="translate(0)">
          <path id="XMLID_836_" d="M379.432,69.864a2.432,2.432,0,1,1,2.432-2.432A2.435,2.435,0,0,1,379.432,69.864Zm0-3.167a.735.735,0,1,0,.735.735A.736.736,0,0,0,379.432,66.7Z" transform="translate(-377 -65)" fill="#523dbf"/>
        </g>
      </g>
      <g id="XMLID_1048_" transform="translate(35.52 3.394)">
        <g id="XMLID_712_" transform="translate(0)">
          <path id="XMLID_831_" d="M351.432,69.864a2.432,2.432,0,1,1,2.432-2.432A2.435,2.435,0,0,1,351.432,69.864Zm0-3.167a.735.735,0,1,0,.735.735A.736.736,0,0,0,351.432,66.7Z" transform="translate(-349 -65)" fill="#523dbf"/>
        </g>
      </g>
      <g id="XMLID_1049_" transform="translate(32.353 3.394)">
        <g id="XMLID_709_">
          <path id="XMLID_826_" d="M323.432,69.864a2.432,2.432,0,1,1,2.432-2.432A2.435,2.435,0,0,1,323.432,69.864Zm0-3.167a.735.735,0,1,0,.735.735A.736.736,0,0,0,323.432,66.7Z" transform="translate(-321 -65)" fill="#523dbf"/>
        </g>
      </g>
      <g id="XMLID_1047_" transform="translate(10.86 21.267)">
        <g id="XMLID_1052_" transform="translate(2.828)">
          <g id="XMLID_1057_" transform="translate(0 13.575)">
            <g id="XMLID_706_">
              <path id="XMLID_821_" d="M161.034,349.787h-4.186a.848.848,0,0,1-.848-.848v-5.09a.848.848,0,0,1,.848-.848h4.186a.848.848,0,0,1,.848.848v5.09A.848.848,0,0,1,161.034,349.787Zm-3.337-1.7h2.489V344.7H157.7Z" transform="translate(-156 -343)" fill="#523dbf"/>
            </g>
          </g>
          <g id="XMLID_1056_" transform="translate(4.186 10.181)">
            <g id="XMLID_703_">
              <path id="XMLID_816_" d="M198.034,323.181h-4.186a.848.848,0,0,1-.848-.848v-8.484a.848.848,0,0,1,.848-.848h4.186a.848.848,0,0,1,.848.848v8.484A.848.848,0,0,1,198.034,323.181Zm-3.337-1.7h2.489V314.7H194.7Z" transform="translate(-193 -313)" fill="#523dbf"/>
            </g>
          </g>
          <g id="XMLID_1055_" transform="translate(8.371 6.787)">
            <g id="XMLID_700_">
              <path id="XMLID_811_" d="M235.034,296.575h-4.186a.848.848,0,0,1-.848-.848V283.848a.848.848,0,0,1,.848-.848h4.186a.848.848,0,0,1,.848.848v11.878A.848.848,0,0,1,235.034,296.575Zm-3.337-1.7h2.489V284.7H231.7Z" transform="translate(-230 -283)" fill="#523dbf"/>
            </g>
          </g>
          <g id="XMLID_1054_" transform="translate(12.557 3.394)">
            <g id="XMLID_697_">
              <path id="XMLID_806_" d="M272.034,269.968h-4.186a.848.848,0,0,1-.848-.848V253.848a.848.848,0,0,1,.848-.848h4.186a.848.848,0,0,1,.848.848V269.12A.848.848,0,0,1,272.034,269.968Zm-3.337-1.7h2.489V254.7H268.7Z" transform="translate(-267 -253)" fill="#523dbf"/>
            </g>
          </g>
          <g id="XMLID_1053_" transform="translate(16.742)">
            <g id="XMLID_694_">
              <path id="XMLID_801_" d="M309.034,243.362h-4.186a.848.848,0,0,1-.848-.848V223.848a.848.848,0,0,1,.848-.848h4.186a.848.848,0,0,1,.848.848v18.665A.848.848,0,0,1,309.034,243.362Zm-3.337-1.7h2.489V224.7H305.7Z" transform="translate(-304 -223)" fill="#523dbf"/>
            </g>
          </g>
        </g>
        <g id="XMLID_1051_" transform="translate(0 18.665)">
          <g id="XMLID_693_">
            <path id="XMLID_797_" d="M158.432,389.7H131.848a.848.848,0,0,1,0-1.7h26.584a.848.848,0,0,1,0,1.7Z" transform="translate(-131 -388)" fill="#523dbf"/>
          </g>
        </g>
      </g>
      <g id="XMLID_1058_" transform="translate(11.43 17.765)">
        <g id="XMLID_692_">
          <path id="XMLID_793_" d="M136.888,207.311a.848.848,0,0,1-.535-1.507L153.1,192.229a.848.848,0,1,1,1.069,1.318l-16.742,13.575A.844.844,0,0,1,136.888,207.311Z" transform="translate(-136.039 -192.039)" fill="#523dbf"/>
        </g>
      </g>
    </g>
  </g>
</svg>
