<svg xmlns="http://www.w3.org/2000/svg" width="120" height="120" viewBox="0 0 120 120">
  <g id="Grupo_1114778" data-name="Grupo 1114778" transform="translate(-1236.5 -460)">
    <g id="Elipse_12108" data-name="Elipse 12108" transform="translate(1241.5 465)" fill="#fe9ab8" stroke="rgba(255,255,255,0.4)" stroke-width="5">
      <circle cx="55" cy="55" r="55" stroke="none"/>
      <circle cx="55" cy="55" r="57.5" fill="none"/>
    </g>
    <g id="Grupo_1114370" data-name="Grupo 1114370" transform="translate(1260.715 483.492)">
      <path id="Trazado_919036" data-name="Trazado 919036" d="M14.5,69.869a1.15,1.15,0,0,0,1.15,1.15H44.411a1.15,1.15,0,0,0,1.15-1.15v-4.6h13.8a1.15,1.15,0,0,0,1.15-1.15v-13.8h6.9a1.15,1.15,0,0,0,1.124-1.391L65.116,32.936a31.06,31.06,0,1,0-56.4,18.076A32.3,32.3,0,0,1,14.5,69.868ZM5.448,30.1a28.76,28.76,0,0,1,57.367,2.958,1.159,1.159,0,0,0,.026.241l3.152,14.713H59.365a1.15,1.15,0,0,0-1.15,1.15v13.8h-18.4v2.3H43.26v3.451H16.786A34.391,34.391,0,0,0,10.595,49.68,28.836,28.836,0,0,1,5.448,30.1Z" transform="translate(0 0)" fill="#360742"/>
      <path id="Trazado_919037" data-name="Trazado 919037" d="M38.807,33.238,37.952,31.2a10.453,10.453,0,0,0,.486-1.178l2.052-.842a1.152,1.152,0,0,0,.7-.919,11.6,11.6,0,0,0,0-3.2,1.152,1.152,0,0,0-.7-.919l-2.052-.842a10.535,10.535,0,0,0-.485-1.178l.854-2.043a1.15,1.15,0,0,0-.153-1.148,12.7,12.7,0,0,0-2.268-2.269,1.15,1.15,0,0,0-1.148-.152l-2.043.854a10.51,10.51,0,0,0-1.177-.485l-.843-2.052a1.149,1.149,0,0,0-.919-.7,11.353,11.353,0,0,0-3.206,0,1.149,1.149,0,0,0-.919.7l-.843,2.052a10.509,10.509,0,0,0-1.177.485L22.068,16.5a1.149,1.149,0,0,0-1.148.152,12.749,12.749,0,0,0-2.268,2.268,1.151,1.151,0,0,0-.153,1.149l.855,2.043a10.506,10.506,0,0,0-.486,1.178l-2.052.842a1.152,1.152,0,0,0-.7.919,11.6,11.6,0,0,0,0,3.2,1.152,1.152,0,0,0,.7.919l2.052.842a10.534,10.534,0,0,0,.485,1.178L18.5,33.238a1.15,1.15,0,0,0,.153,1.148,12.7,12.7,0,0,0,2.268,2.269,1.152,1.152,0,0,0,1.148.152l2.043-.854a10.509,10.509,0,0,0,1.177.485l.843,2.052a1.149,1.149,0,0,0,.919.7,11.609,11.609,0,0,0,3.206,0,1.149,1.149,0,0,0,.919-.7l.843-2.052a10.337,10.337,0,0,0,1.177-.485l2.043.854a1.153,1.153,0,0,0,1.148-.152,12.7,12.7,0,0,0,2.268-2.269,1.151,1.151,0,0,0,.153-1.148Zm-1.742-5.144a1.148,1.148,0,0,0-.67.751,8.036,8.036,0,0,1-.716,1.733,1.154,1.154,0,0,0-.058,1.007l.8,1.9a10.49,10.49,0,0,1-.931.932l-1.9-.795a1.151,1.151,0,0,0-1.007.058,8.018,8.018,0,0,1-1.733.715,1.147,1.147,0,0,0-.75.67l-.786,1.915a8.5,8.5,0,0,1-1.31,0l-.786-1.915a1.147,1.147,0,0,0-.75-.67,8.09,8.09,0,0,1-1.734-.716,1.154,1.154,0,0,0-1.005-.058l-1.9.795a10.565,10.565,0,0,1-.931-.932l.794-1.9a1.154,1.154,0,0,0-.057-1.005,8,8,0,0,1-.716-1.735,1.148,1.148,0,0,0-.67-.751l-1.915-.786c-.018-.23-.026-.445-.026-.654s.008-.424.026-.654l1.915-.786a1.148,1.148,0,0,0,.67-.751,8.037,8.037,0,0,1,.716-1.733,1.154,1.154,0,0,0,.058-1.007l-.8-1.9a10.559,10.559,0,0,1,.931-.931l1.9.795a1.154,1.154,0,0,0,1.005-.058,8.09,8.09,0,0,1,1.734-.716,1.147,1.147,0,0,0,.75-.67L28,16.326a8.5,8.5,0,0,1,1.31,0l.786,1.915a1.147,1.147,0,0,0,.75.67,8.09,8.09,0,0,1,1.734.716,1.154,1.154,0,0,0,1.005.058l1.9-.795a10.566,10.566,0,0,1,.931.932l-.794,1.9a1.154,1.154,0,0,0,.057,1.005,8,8,0,0,1,.716,1.735,1.148,1.148,0,0,0,.67.751L38.98,26c.018.23.026.445.026.654s-.008.424-.026.654Z" transform="translate(1.954 1.804)" fill="#360742"/>
      <path id="Trazado_919038" data-name="Trazado 919038" d="M27.752,20A5.752,5.752,0,1,0,33.5,25.752,5.758,5.758,0,0,0,27.752,20Zm0,9.2A3.451,3.451,0,1,1,31.2,25.752,3.455,3.455,0,0,1,27.752,29.2Z" transform="translate(2.855 2.706)" fill="#360742"/>
      <path id="Trazado_919039" data-name="Trazado 919039" d="M35.3,36.666l1.366,1.851a18.5,18.5,0,0,0,3.517-3.4l-1.8-1.43A16.223,16.223,0,0,1,35.3,36.666Z" transform="translate(4.854 4.764)" fill="#360742"/>
      <path id="Trazado_919040" data-name="Trazado 919040" d="M13.014,36.189l2.047-1.049A16.11,16.11,0,0,1,29.4,11.707h8.726l-1.487,1.487,1.627,1.627,3.451-3.451a1.15,1.15,0,0,0,0-1.627L38.27,6.293,36.644,7.92l1.487,1.487H29.4A18.4,18.4,0,0,0,13.014,36.189Z" transform="translate(1.202 0.646)" fill="#360742"/>
      <path id="Trazado_919041" data-name="Trazado 919041" d="M42.934,29.346l-2.217-.612a16.007,16.007,0,0,1-1.681,3.936l1.975,1.178a18.262,18.262,0,0,0,1.923-4.5Z" transform="translate(5.416 4.019)" fill="#360742"/>
      <path id="Trazado_919042" data-name="Trazado 919042" d="M15.736,32.97l-1.892,1.311A18.492,18.492,0,0,0,17.14,37.9l1.481-1.761a16.121,16.121,0,0,1-2.884-3.164Z" transform="translate(1.63 4.655)" fill="#360742"/>
      <path id="Trazado_919043" data-name="Trazado 919043" d="M30.256,38.821l.532,2.238A18.278,18.278,0,0,0,35.356,39.3l-1.108-2.016a15.991,15.991,0,0,1-3.992,1.54Z" transform="translate(4.096 5.303)" fill="#360742"/>
      <path id="Trazado_919044" data-name="Trazado 919044" d="M18.429,38.766a18.321,18.321,0,0,0,4.444,2.052l.676-2.2a15.98,15.98,0,0,1-3.885-1.793Z" transform="translate(2.319 5.235)" fill="#360742"/>
      <path id="Trazado_919045" data-name="Trazado 919045" d="M29.257,41.236l-.231-2.289a16.153,16.153,0,0,1-1.615.081,12.747,12.747,0,0,1-2.665-.217l-.375,2.269a20.807,20.807,0,0,0,3.041.248C28.024,41.329,28.644,41.3,29.257,41.236Z" transform="translate(3.212 5.533)" fill="#360742"/>
      <path id="Trazado_919046" data-name="Trazado 919046" d="M23,55h2.3v2.3H23Z" transform="translate(3.006 7.967)" fill="#360742"/>
      <path id="Trazado_919047" data-name="Trazado 919047" d="M27,55h2.3v2.3H27Z" transform="translate(3.607 7.967)" fill="#360742"/>
      <path id="Trazado_919048" data-name="Trazado 919048" d="M31,55h2.3v2.3H31Z" transform="translate(4.208 7.967)" fill="#360742"/>
    </g>
  </g>
</svg>
