<svg xmlns="http://www.w3.org/2000/svg" width="90" height="90" viewBox="0 0 90 90">
  <g id="Grupo_1116091" data-name="Grupo 1116091" transform="translate(-754.184 -2863)">
    <g id="Grupo_1116057" data-name="Grupo 1116057" transform="translate(574.516 2121)">
      <rect id="Rect치ngulo_402006" data-name="Rect치ngulo 402006" width="90" height="90" transform="translate(179.668 742)" fill="#f1ff64"/>
    </g>
    <g id="Grupo_1115326" data-name="Grupo 1115326" transform="translate(133 47)">
      <g id="_x31_0_x2C__graph_x2C__Analytic_x2C__data_x2C__increase_x2C__statistics" transform="translate(635.184 2834.78)">
        <g id="XMLID_172_" transform="translate(0 0)">
          <g id="XMLID_175_" transform="translate(35.092 27.713)">
            <g id="XMLID_553_">
              <path id="XMLID_822_" d="M296.438,283.189a13.954,13.954,0,1,1,13.954-13.954A13.97,13.97,0,0,1,296.438,283.189Zm0-25.874a11.92,11.92,0,1,0,11.92,11.92A11.934,11.934,0,0,0,296.438,257.314Z" transform="translate(-282.484 -255.28)" fill="#523dbf"/>
            </g>
          </g>
          <g id="XMLID_174_" transform="translate(43.752 35.006)">
            <g id="XMLID_552_" transform="translate(0)">
              <path id="XMLID_819_" d="M356.539,320.264a1.017,1.017,0,0,1-1.017-1.017v-8.158h-8.158a1.017,1.017,0,1,1,0-2.034h9.175a1.017,1.017,0,0,1,1.017,1.017v9.175A1.017,1.017,0,0,1,356.539,320.264Z" transform="translate(-346.347 -309.055)" fill="#523dbf"/>
            </g>
          </g>
          <g id="XMLID_173_" transform="translate(41.888 35.006)">
            <g id="XMLID_551_" transform="translate(0)">
              <path id="XMLID_758_" d="M332.9,321.831a1.017,1.017,0,0,1,0-1.438l11.039-11.039a1.017,1.017,0,0,1,1.438,1.438l-11.039,11.039A1.017,1.017,0,0,1,332.9,321.831Z" transform="translate(-332.6 -309.056)" fill="#523dbf"/>
            </g>
          </g>
          <g id="XMLID_164_" transform="translate(0 23.291)">
            <g id="XMLID_548_">
              <path id="XMLID_811_" d="M33.517,242.065H24.744a1.017,1.017,0,0,1-1.017-1.017v-17.36a1.017,1.017,0,0,1,1.017-1.017h8.773a1.017,1.017,0,0,1,1.017,1.017v17.36A1.017,1.017,0,0,1,33.517,242.065Zm-7.756-2.034H32.5V224.705H25.761Z" transform="translate(-23.727 -222.671)" fill="#523dbf"/>
            </g>
          </g>
          <g id="XMLID_169_" transform="translate(8.773 17.468)">
            <g id="XMLID_545_">
              <path id="XMLID_806_" d="M98.206,204.952H89.433a1.017,1.017,0,0,1-1.017-1.017V180.753a1.017,1.017,0,0,1,1.017-1.017h8.773a1.017,1.017,0,0,1,1.017,1.017v23.182A1.017,1.017,0,0,1,98.206,204.952Zm-7.756-2.034h6.739V181.77H90.45Z" transform="translate(-88.416 -179.736)" fill="#523dbf"/>
            </g>
          </g>
          <g id="XMLID_170_" transform="translate(17.546 11.645)">
            <g id="XMLID_542_">
              <path id="XMLID_801_" d="M162.9,167.839h-8.773a1.017,1.017,0,0,1-1.017-1.017v-29a1.017,1.017,0,0,1,1.017-1.017H162.9a1.017,1.017,0,0,1,1.017,1.017v29A1.017,1.017,0,0,1,162.9,167.839ZM155.14,165.8h6.739V138.834H155.14Z" transform="translate(-153.106 -136.8)" fill="#523dbf"/>
            </g>
          </g>
          <g id="XMLID_171_" transform="translate(26.319 5.823)">
            <g id="XMLID_539_">
              <path id="XMLID_796_" d="M227.585,130.726h-8.773a1.017,1.017,0,0,1-1.017-1.017V94.881a1.017,1.017,0,0,1,1.017-1.017h8.773a1.017,1.017,0,0,1,1.017,1.017v34.828A1.017,1.017,0,0,1,227.585,130.726Zm-7.756-2.034h6.739V95.9h-6.739Z" transform="translate(-217.795 -93.864)" fill="#523dbf"/>
            </g>
          </g>
          <g id="XMLID_168_" transform="translate(35.092)">
            <g id="XMLID_538_">
              <path id="XMLID_793_" d="M283.5,93.614a1.017,1.017,0,0,1-1.017-1.017V51.946a1.017,1.017,0,0,1,1.017-1.017h8.773a1.017,1.017,0,0,1,1.017,1.017v28.4a1.017,1.017,0,1,1-2.034,0V52.963h-6.739V92.6A1.017,1.017,0,0,1,283.5,93.614Z" transform="translate(-282.484 -50.929)" fill="#523dbf"/>
            </g>
          </g>
        </g>
      </g>
      <rect id="Rect치ngulo_413111" data-name="Rect치ngulo 413111" width="63" height="63" transform="translate(635.184 2831)" fill="none"/>
    </g>
  </g>
</svg>
