<svg id="Grupo_1114799" data-name="Grupo 1114799" xmlns="http://www.w3.org/2000/svg" width="122.486" height="122.487" viewBox="0 0 122.486 122.487">
  <g id="Rectángulo_402033" data-name="Rectángulo 402033" transform="translate(0)" fill="#fe9ab8" stroke="#fff" stroke-width="3">
    <rect width="122.486" height="122.486" rx="8" stroke="none"/>
    <rect x="1.5" y="1.5" width="119.486" height="119.486" rx="6.5" fill="none"/>
  </g>
  <g id="Page-1" transform="translate(31.244 31.243)">
    <g id="_015---CPU-Brain" data-name="015---CPU-Brain" transform="translate(-1)">
      <g id="Icons_copy" transform="translate(1 1)">
        <path id="Path" d="M53,8V36a2.006,2.006,0,0,1-2,2H34.98a4.918,4.918,0,0,0-1.7-3.48A4.63,4.63,0,0,0,29,28.65v-.01a3.471,3.471,0,0,0-1.7-5.2h-.01c-2.92-2.14-4.92-2.95-6.29-3.06V8a2.006,2.006,0,0,1,2-2H51a2.006,2.006,0,0,1,2,2Z" fill="#9e9e9e" fill-rule="evenodd"/>
        <path id="Path-2" data-name="Path" d="M51,6H48a2.006,2.006,0,0,1,2,2V36a2.006,2.006,0,0,1-2,2h3a2.006,2.006,0,0,0,2-2V8A2.006,2.006,0,0,0,51,6Z" fill="#707070" fill-rule="evenodd"/>
        <g id="Grupo_1115727" data-name="Grupo 1115727">
          <path id="Path-3" data-name="Path" d="M33,0a2,2,0,0,1,2,2V6H31V2A2,2,0,0,1,33,0Z" fill="#ffdf00" fill-rule="evenodd"/>
          <path id="Path-4" data-name="Path" d="M25,0a2,2,0,0,1,2,2V6H23V2A2,2,0,0,1,25,0Z" fill="#ffdf00" fill-rule="evenodd"/>
          <path id="Path-5" data-name="Path" d="M41,0a2,2,0,0,1,2,2V6H39V2A2,2,0,0,1,41,0Z" fill="#ffdf00" fill-rule="evenodd"/>
          <path id="Path-6" data-name="Path" d="M49,0a2,2,0,0,1,2,2V6H47V2A2,2,0,0,1,49,0Z" fill="#ffdf00" fill-rule="evenodd"/>
          <path id="Path-7" data-name="Path" d="M39,38h4v4a2,2,0,0,1-4,0Z" fill="#ffdf00" fill-rule="evenodd"/>
          <path id="Path-8" data-name="Path" d="M47,38h4v4a2,2,0,0,1-4,0Z" fill="#ffdf00" fill-rule="evenodd"/>
          <path id="Path-9" data-name="Path" d="M56,15a2,2,0,0,1,2,2v4H54V17A2,2,0,0,1,56,15Z" transform="translate(74 -38) rotate(90)" fill="#ffdf00" fill-rule="evenodd"/>
          <path id="Path-10" data-name="Path" d="M56,7a2,2,0,0,1,2,2v4H54V9A2,2,0,0,1,56,7Z" transform="translate(66 -46) rotate(90)" fill="#ffdf00" fill-rule="evenodd"/>
          <path id="Path-11" data-name="Path" d="M56,23a2,2,0,0,1,2,2v4H54V25A2,2,0,0,1,56,23Z" transform="translate(82 -30) rotate(90)" fill="#ffdf00" fill-rule="evenodd"/>
          <path id="Path-12" data-name="Path" d="M56,31a2,2,0,0,1,2,2v4H54V33A2,2,0,0,1,56,31Z" transform="translate(90 -22) rotate(90)" fill="#ffdf00" fill-rule="evenodd"/>
          <path id="Path-13" data-name="Path" d="M16,15h4v4a2,2,0,0,1-4,0Z" transform="translate(36) rotate(90)" fill="#ffdf00" fill-rule="evenodd"/>
          <path id="Path-14" data-name="Path" d="M16,7h4v4a2,2,0,0,1-4,0Z" transform="translate(28 -8) rotate(90)" fill="#ffdf00" fill-rule="evenodd"/>
        </g>
        <path id="Path-15" data-name="Path" d="M18,23.23V52.98a5.024,5.024,0,0,1-9.66,1.93,4.246,4.246,0,0,1-4.25-4.25,4.138,4.138,0,0,1,.48-1.95,3.858,3.858,0,0,1-2.11-6.87,5.017,5.017,0,0,1,.26-7.32A4.63,4.63,0,0,1,7,28.65v-.01a3.471,3.471,0,0,1,1.7-5.2h.01C18,16.63,18,23.23,18,23.23Z" fill="#ef314c" fill-rule="evenodd"/>
        <path id="Path-16" data-name="Path" d="M13.644,20.664A3.13,3.13,0,0,1,15,23.23V52.98a5.007,5.007,0,0,1-3.556,4.777A5.014,5.014,0,0,0,18,52.98V23.23s0-3.979-4.356-2.566Z" fill="#bb193b" fill-rule="evenodd"/>
        <path id="Path-17" data-name="Path" d="M35,44.86a3.863,3.863,0,0,1-3.57,3.85,4.138,4.138,0,0,1,.48,1.95,4.246,4.246,0,0,1-4.25,4.25A5.024,5.024,0,0,1,18,52.98V23.23s0-3.11,3-2.85c1.37.11,3.37.92,6.29,3.06h.01a3.471,3.471,0,0,1,1.7,5.2v.01a4.63,4.63,0,0,1,4.28,5.87A4.918,4.918,0,0,1,34.98,38a1.514,1.514,0,0,1,.02.3,5,5,0,0,1-1.46,3.54A3.856,3.856,0,0,1,35,44.86Z" fill="#ef314c" fill-rule="evenodd"/>
        <path id="Path-18" data-name="Path" d="M33.54,41.84A5,5,0,0,0,35,38.3a1.514,1.514,0,0,0-.02-.3,4.918,4.918,0,0,0-1.7-3.48A4.63,4.63,0,0,0,29,28.65v-.01a3.471,3.471,0,0,0-1.7-5.2h-.01c-2.92-2.14-4.92-2.95-6.29-3.06a2.831,2.831,0,0,0-1.647.293A18.2,18.2,0,0,1,24.29,23.44h.01a3.471,3.471,0,0,1,1.7,5.2v.01a4.63,4.63,0,0,1,4.28,5.87A4.918,4.918,0,0,1,31.98,38a1.514,1.514,0,0,1,.02.3,5,5,0,0,1-1.46,3.54,3.858,3.858,0,0,1-2.11,6.87,4.138,4.138,0,0,1,.48,1.95,4.246,4.246,0,0,1-4.25,4.25,5.053,5.053,0,0,1-3.1,2.847A4.962,4.962,0,0,0,23.02,58a5.037,5.037,0,0,0,4.64-3.09,4.246,4.246,0,0,0,4.25-4.25,4.138,4.138,0,0,0-.48-1.95,3.858,3.858,0,0,0,2.11-6.87Z" fill="#bb193b" fill-rule="evenodd"/>
      </g>
      <g id="Icons">
        <path id="Shape" d="M58,14a3,3,0,0,0,0-6H54.816A3,3,0,0,0,53,6.184V3a3,3,0,0,0-6,0V6H45V3a3,3,0,0,0-6,0V6H37V3a3,3,0,0,0-6,0V6H29V3a3,3,0,0,0-6,0V6.184A3,3,0,0,0,21.184,8H18a3,3,0,0,0,0,6h3v2H18a3,3,0,0,0-3,3,2.964,2.964,0,0,0,.384,1.439A16.155,16.155,0,0,0,9.2,23.571a4.428,4.428,0,0,0-2.634,5.3,5.566,5.566,0,0,0-3.943,6.308,6,6,0,0,0-.516,7.592A4.824,4.824,0,0,0,1,45.864a4.882,4.882,0,0,0,3.234,4.578,5.251,5.251,0,0,0,4.46,6.428A6.019,6.019,0,0,0,19,57.293a6.019,6.019,0,0,0,10.306-.423,5.251,5.251,0,0,0,4.46-6.428A4.882,4.882,0,0,0,37,45.864a4.826,4.826,0,0,0-1.112-3.09A6,6,0,0,0,36.955,40H39v3a3,3,0,1,0,6,0V40h2v3a3,3,0,1,0,6,0V39.816A3,3,0,0,0,54.816,38H58a3,3,0,0,0,0-6H55V30h3a3,3,0,0,0,0-6H55V22h3a3,3,0,1,0,0-6H55V14Zm1-3a1,1,0,0,1-1,1H55V10h3A1,1,0,0,1,59,11ZM49,3a1,1,0,0,1,2,0V6H49ZM41,3a1,1,0,0,1,2,0V6H41ZM33,3a1,1,0,0,1,2,0V6H33ZM25,3a1,1,0,0,1,2,0V6H25Zm-7,9a1,1,0,0,1,0-2h3v2Zm0,6h3v2H18a1,1,0,0,1,0-2ZM13.977,58a4.013,4.013,0,0,1-3.713-2.476,1,1,0,0,0-.923-.615,3.254,3.254,0,0,1-3.25-3.25,3.146,3.146,0,0,1,.361-1.476,1,1,0,0,0-.808-1.468A2.868,2.868,0,0,1,3,45.864a2.833,2.833,0,0,1,.542-1.656,5.988,5.988,0,0,0,3.481,1.11,1,1,0,0,0,0-2,4.022,4.022,0,0,1-2.649-7.049,1.092,1.092,0,0,0,.306-1.017,3.714,3.714,0,0,1-.135-.979,3.637,3.637,0,0,1,6.992-1.4,1,1,0,0,0,1.844-.774A5.613,5.613,0,0,0,8.63,28.67a2.467,2.467,0,1,1,4.511-2,1,1,0,1,0,1.818-.832,4.476,4.476,0,0,0-2.211-2.207c2.721-1.558,3.935-1.34,4.377-1.117.847.421.875,1.7.875,1.711V28.91a3.3,3.3,0,0,0-1.318-.277,1,1,0,1,0,0,2A1.32,1.32,0,0,1,18,31.955V53.977A4.028,4.028,0,0,1,13.977,58Zm18.379-9.285a1,1,0,0,0-.808,1.468,3.146,3.146,0,0,1,.361,1.476,3.254,3.254,0,0,1-3.25,3.25,1,1,0,0,0-.923.615A4.023,4.023,0,0,1,20,53.977V35.818A1.319,1.319,0,0,1,21.318,34.5a1,1,0,0,0,0-2A3.3,3.3,0,0,0,20,32.776V24.228c0-.013.037-1.287.867-1.707.439-.223,1.653-.45,4.385,1.114a4.47,4.47,0,0,0-2.211,2.206,1,1,0,1,0,1.818.832,2.467,2.467,0,0,1,4.511,2A5.613,5.613,0,0,0,24.619,32.1a1,1,0,0,0,1.844.774,3.637,3.637,0,0,1,6.992,1.4,3.714,3.714,0,0,1-.135.979,1.131,1.131,0,0,0,.306,1.017,4.022,4.022,0,0,1-2.649,7.049,1,1,0,1,0,0,2,5.987,5.987,0,0,0,3.48-1.11A2.824,2.824,0,0,1,35,45.864a2.868,2.868,0,0,1-2.644,2.851ZM43,43a1,1,0,0,1-2,0V40h2Zm8,0a1,1,0,0,1-2,0V40h2Zm1-5H36.858a6.018,6.018,0,0,0-1.486-2.818,5.566,5.566,0,0,0-3.943-6.308,4.431,4.431,0,0,0-2.64-5.308A17.139,17.139,0,0,0,23,20.536V9a1,1,0,0,1,1-1H52a1,1,0,0,1,1,1V37a1,1,0,0,1-1,1Zm6-4a1,1,0,0,1,0,2H55V34Zm0-8a1,1,0,0,1,0,2H55V26Zm0-8a1,1,0,0,1,0,2H55V18Z"/>
        <path id="Path-19" data-name="Path" d="M12.053,39.89a5.979,5.979,0,0,0,3.865-1.744A1,1,0,0,0,14.5,36.73a4.023,4.023,0,0,1-5.824-.14A1,1,0,1,0,7.2,37.935a6.033,6.033,0,0,0,2.777,1.727,2.462,2.462,0,0,1-1.2,1.139A1,1,0,0,0,9.56,42.64a4.473,4.473,0,0,0,2.493-2.75Z" fill-rule="evenodd"/>
        <path id="Path-20" data-name="Path" d="M15.357,43.429a6.322,6.322,0,0,0-.692.037,4.792,4.792,0,0,0-4.126,3.147,5.034,5.034,0,0,0,1.221,5.242,3.268,3.268,0,0,1,.964,2.288,1,1,0,0,0,2,0,5.249,5.249,0,0,0-1.537-3.688,3.053,3.053,0,0,1-.765-3.168,2.8,2.8,0,0,1,2.456-1.833,4.726,4.726,0,0,1,.479-.025,1,1,0,0,0,0-2Z" fill-rule="evenodd"/>
        <path id="Path-21" data-name="Path" d="M22.184,43.429a1,1,0,0,0,0,2,4.69,4.69,0,0,1,.478.025,2.8,2.8,0,0,1,2.457,1.833,3.051,3.051,0,0,1-.766,3.168,5.252,5.252,0,0,0-1.536,3.688,1,1,0,0,0,2,0,3.266,3.266,0,0,1,.964-2.288A5.035,5.035,0,0,0,27,46.614a4.878,4.878,0,0,0-4.816-3.185Z" fill-rule="evenodd"/>
        <path id="Path-22" data-name="Path" d="M29.227,40.8a2.46,2.46,0,0,1-1.212-1.153,6.032,6.032,0,0,0,2.725-1.713,1,1,0,1,0-1.48-1.345,4.023,4.023,0,0,1-5.823.141,1,1,0,1,0-1.415,1.414,5.98,5.98,0,0,0,3.926,1.748A4.472,4.472,0,0,0,28.44,42.64a1,1,0,1,0,.787-1.839Z" fill-rule="evenodd"/>
        <path id="Path-23" data-name="Path" d="M49,11H44a1,1,0,0,0,0,2h2.586L36,23.586V21a1,1,0,0,0-2,0v5a1,1,0,0,0,1,1h5a1,1,0,0,0,0-2H37.414L48,14.414V17a1,1,0,0,0,2,0V12A1,1,0,0,0,49,11Z" fill-rule="evenodd"/>
      </g>
    </g>
  </g>
</svg>
