<svg xmlns="http://www.w3.org/2000/svg" width="50" height="59.5" viewBox="0 0 50 59.5">
  <path id="Trazado_928131" data-name="Trazado 928131" d="M38.138,14.527A5.843,5.843,0,0,1,42.272,24.5h0v0a5.843,5.843,0,1,1-8.263-8.264l0,0a5.824,5.824,0,0,1,4.129-1.712Zm-9.46-1.867c.1.188.211.376.319.566.164.286.332.583.42.745l.023.046c.105.194.157.284.2.354h0a1.659,1.659,0,0,1,.326.908,1.5,1.5,0,0,1-.247.809c-.055.106-.128.249-.245.514a5.951,5.951,0,0,0-.293.8c-.207.7-.27.912-1.061,1.129-.2.055-.4.107-.641.169-.471.122-1.061.274-1.468.39l.006,2.56c.311.087.722.189,1.1.283.466.115.893.22,1.15.31.644.224.757.581.951,1.2a6.181,6.181,0,0,0,.252.689c.118.265.189.406.244.513h0a1.514,1.514,0,0,1,.247.837,1.707,1.707,0,0,1-.351.919c-.077.129-.171.287-.239.406-.089.158-.166.285-.252.43-.151.254-.334.559-.473.807l1.8,1.8c.184-.1.39-.227.554-.324l0,0h0l.2-.117.025-.014c.316-.184.51-.3.663-.4a2.286,2.286,0,0,1,1.028-.455,1.5,1.5,0,0,1,.967.26c.151.078.355.184.645.307.058.024.174.06.3.1l.038.013a2.657,2.657,0,0,1,1.093.531c.02.02.039.04.057.062h0a5.617,5.617,0,0,1,.619,1.821c.074.308.149.62.215.867l1.205,0c.026,0,.052,0,.078,0s.049,0,.074,0l1.21,0c.067-.248.143-.565.217-.876.006-.025.013-.05.021-.075a5.278,5.278,0,0,1,.589-1.72c.019-.024.04-.046.061-.067a2.752,2.752,0,0,1,1.14-.551c.136-.042.265-.082.33-.11.262-.115.435-.2.568-.271a1.6,1.6,0,0,1,1.027-.275,2.585,2.585,0,0,1,1.117.5c.123.076.269.166.584.354l.006,0,.18.108c.166.1.376.227.562.334l1.795-1.793c-.122-.218-.28-.478-.42-.711-.118-.194-.226-.374-.336-.576-.07-.128-.16-.283-.234-.41a1.637,1.637,0,0,1-.327-.9,1.444,1.444,0,0,1,.243-.79c.059-.111.137-.261.257-.533a5.988,5.988,0,0,0,.291-.8c.207-.7.271-.917,1.069-1.135.332-.091.5-.135.677-.179.024-.006.049-.011.073-.015.447-.115.977-.251,1.353-.359l-.006-2.558c-.29-.081-.664-.176-.986-.257-.262-.066-.494-.125-.637-.166l-.029-.009-.164-.042c-.155-.039-.319-.079-.442-.121l-.047-.018c-.587-.208-.632-.357-.782-.864h0l-.019-.064-.014-.049a6.6,6.6,0,0,0-.579-1.4,1.571,1.571,0,0,1-.247-.654c-.049-.435.082-.66.429-1.257l.027-.044.12-.209.7-1.279L45.826,10.9c-.318.177-.738.422-1.02.587l-.048.026-.209.12,0,0h0c-.177.1-.262.152-.331.194a1.778,1.778,0,0,1-.98.371,1.582,1.582,0,0,1-.845-.258c-.117-.06-.268-.137-.49-.237a5.74,5.74,0,0,0-.8-.293c-.7-.2-.908-.265-1.127-1.064-.034-.127-.092-.349-.159-.61h0c-.121-.47-.278-1.074-.392-1.483H36.85c-.067.247-.142.56-.216.868a5.566,5.566,0,0,1-.612,1.8.828.828,0,0,1-.059.064h0a3.481,3.481,0,0,1-1.231.592c-.177.06-.341.115-.4.143-.224.1-.4.191-.532.256h0a1.879,1.879,0,0,1-.518.205h0a1.1,1.1,0,0,1-.963-.22l-.039-.022-.2-.118h0c-.4-.233-1.151-.673-1.626-.934ZM27.49,14.081c.1.185.209.366.4.718.009.016.019.033.029.049.062.113.146.258.217.383h0a.132.132,0,0,0,.022.031l.024.035h0c-.082.159-.19.37-.293.6a7.51,7.51,0,0,0-.363,1l-.478.124a19.174,19.174,0,0,0-2.3.678.868.868,0,0,0-.465.845l.009,3.715a.864.864,0,0,0,.458.763,11.185,11.185,0,0,0,1.961.592c.432.106.828.2.994.262a.166.166,0,0,1,.052.023l-.019.006c-.052,0-.186-.006-.168.052a7.784,7.784,0,0,0,.32.873c.1.227.209.439.29.6l0,0a.041.041,0,0,0,.012.016l.006.011c-.016,0-.036.009-.062.052-.057.1-.129.215-.259.447-.027.048-.123.208-.232.389A9.317,9.317,0,0,0,26.782,28a.867.867,0,0,0,.221.841L29.654,31.5a.866.866,0,0,0,.852.222h0a7.9,7.9,0,0,0,1.384-.714h0l.2-.117.013-.008c.26-.152.508-.3.7-.426.227-.141.226-.2.282-.2.117-.011-.075.034.01.077.176.091.412.214.761.361.136.057.3.106.466.159l.044.013c.134.039.266.074.334.093l.255,1.064a8.924,8.924,0,0,0,.528,1.747.866.866,0,0,0,.785.451l1,0v5.082a5.438,5.438,0,0,0-2.924,1.474c-.018.016-.037.032-.055.05a5.423,5.423,0,0,0-1.525,2.979H18.578a.868.868,0,0,0-.868.868V55.114h-3.7a.868.868,0,0,0-.868.868v9.147a.868.868,0,0,0,.868.868H23.15a.868.868,0,0,0,.868-.868V55.984a.868.868,0,0,0-.868-.868h-3.7V45.549H32.765a5.434,5.434,0,0,0,1.475,2.924c.016.019.032.037.049.054a5.433,5.433,0,0,0,2.978,1.525v5.08h-3.7A.869.869,0,0,0,32.7,56v9.145a.869.869,0,0,0,.869.869H42.71a.868.868,0,0,0,.868-.869V56a.868.868,0,0,0-.868-.868h-3.7v-5.08a5.431,5.431,0,0,0,2.978-1.525v0a5.431,5.431,0,0,0,1.526-2.977H56.828v9.584h-3.7a.868.868,0,0,0-.868.868v9.145a.869.869,0,0,0,.868.869h9.145a.868.868,0,0,0,.868-.869V56a.868.868,0,0,0-.868-.868h-3.7V44.68a.868.868,0,0,0-.869-.868H43.51a5.445,5.445,0,0,0-4.5-4.5V34.222l1.026,0a.867.867,0,0,0,.755-.442h0a8.429,8.429,0,0,0,.538-1.764c.006-.024.011-.049.014-.074.1-.43.2-.837.236-.977.075-.022.227-.06.38-.106a4.883,4.883,0,0,0,.513-.178c.274-.12.493-.232.663-.319.105-.054-.034-.1.063-.093.03,0,.1.08.384.252.2.12.437.27.605.371l.18.108a7.487,7.487,0,0,0,1.406.726.866.866,0,0,0,.874-.25l2.626-2.623A.866.866,0,0,0,49.494,28h0a8.3,8.3,0,0,0-.811-1.554c-.137-.227-.26-.431-.3-.508-.125-.228-.2-.354-.254-.451-.015-.025-.027-.036-.039-.039.082-.156.191-.365.3-.614a7.441,7.441,0,0,0,.363-1l.513-.131c.026-.006.05-.014.075-.023a17.407,17.407,0,0,0,2.192-.647A.869.869,0,0,0,52,22.187l-.009-3.714a.866.866,0,0,0-.458-.764,11.281,11.281,0,0,0-1.836-.562c-.234-.059-.44-.111-.583-.152l-.047-.012-.207-.052-.089-.022a8.049,8.049,0,0,0-.7-1.649c-.015-.028-.022,0-.027.014l-.006,0,0-.02c-.014-.129.067.039.205-.2l.025-.047.133-.231.01-.017,1.007-1.848a.866.866,0,0,0-.146-1.024L46.62,9.234a.867.867,0,0,0-.956-.185,17.723,17.723,0,0,0-1.732.932l-.044.027-.2.118h0c-.092.052-.231.135-.351.207-.155.092-.022.132-.125.133s.054-.025-.031-.068c-.145-.075-.331-.169-.571-.277a7.2,7.2,0,0,0-1-.368c-.034-.127-.073-.279-.117-.448l0,0h0a17.936,17.936,0,0,0-.7-2.339.867.867,0,0,0-.757-.445v0h-3.79a.867.867,0,0,0-.807.549,10.376,10.376,0,0,0-.483,1.657L34.7,9.779c-.093.03-.306.086-.52.158s-.394.133-.552.2c-.252.113-.421.2-.548.26l-.127-.074h0A22.124,22.124,0,0,0,30.5,9.013a.865.865,0,0,0-.842.221L27,11.886a.867.867,0,0,0-.139,1.048c.221.435.422.788.627,1.148Zm.244,9.829.019-.006S27.748,23.91,27.734,23.91Zm.5,1.494-.009,0C28.232,25.4,28.236,25.4,28.237,25.4Zm19.795.034c0-.075.006-.019.019.018l-.019-.01Zm0,.008.019.01,0,.009C48.042,25.481,48.034,25.5,48.032,25.446Zm.009-10.168.006,0C48.045,15.284,48.044,15.29,48.042,15.278ZM40.757,42.061a3.708,3.708,0,0,1,0,5.238h0a3.7,3.7,0,0,1-5.238,0c-.014-.014-.028-.027-.043-.04a3.708,3.708,0,0,1,.043-5.2c.014-.014.027-.028.039-.042a3.707,3.707,0,0,1,5.2.042ZM41.842,56.87v7.407H34.434V56.87h7.408ZM18.6,56.853h3.682V64.26H14.875V56.853h3.7Zm42.8.017v7.407H53.994V56.87H61.4Zm-20.358-39.4a4.106,4.106,0,1,0,0,5.813l0,0a4.111,4.111,0,0,0,0-5.809Z" transform="translate(-13.137 -6.515)" fill="#523dbf" fill-rule="evenodd"/>
</svg>
