<svg id="Grupo_1112363" data-name="Grupo 1112363" xmlns="http://www.w3.org/2000/svg" width="122.486" height="122.487" viewBox="0 0 122.486 122.487">
  <g id="Rectángulo_402033" data-name="Rectángulo 402033" transform="translate(0)" fill="#fe9ab8" stroke="#fff" stroke-width="3">
    <rect width="122.486" height="122.486" rx="8" stroke="none"/>
    <rect x="1.5" y="1.5" width="119.486" height="119.486" rx="6.5" fill="none"/>
  </g>
  <g id="Page-1" transform="translate(34.24 31.243)">
    <g id="_024---Humanoid-AI" data-name="024---Humanoid-AI" transform="translate(-1)">
      <g id="Icons_copy" transform="translate(1 1)">
        <path id="Path" d="M47.17,55.13A1.994,1.994,0,0,1,45.37,58H25.21a2.009,2.009,0,0,1-1.9-1.37c-.65-1.9-2.11-5.25-4.5-6.34a81.823,81.823,0,0,1-8.7,2.63,2.715,2.715,0,0,1-3.2-1.99c-.86-2.47.32-3.14-.05-4.61-.26-1.02-1.23-1.27-1.98-1.81-.62-.43.49-1.85.49-1.85s-1.17-.87-1.6-1.24.18-.99.73-2.16a2.73,2.73,0,0,0,.19-1.62c-.2-1.07-1.83-1.48-2.63-2.08C.39,34.32.3,34.02,4.67,29.31a7.142,7.142,0,0,0,1.66-3.77c.08-.47.55-.98.55-1.55-.02-1.43-2.09-2.02-2.28-3.41-.15-1.08,1.24-3.05,1.69-4.98a26.619,26.619,0,0,1,.95-3.5,16.443,16.443,0,0,1,8.01-9.19A29.085,29.085,0,0,1,26.87.05C35.72-.39,45.43,2,50.16,10.22A23.066,23.066,0,0,1,53,22.01c-.11,7.35-4.78,9.92-6.85,14.68A17.9,17.9,0,0,0,44.77,46a28.017,28.017,0,0,0,2.39,9.1Z" fill="#ffe0b2" fill-rule="evenodd"/>
        <path id="Path-2" data-name="Path" d="M28.66,44.02c.06,2.97-4.31,4.39-5.66,4.82-.57.18-2.2.77-4.19,1.45" fill="#ffe0b2" fill-rule="evenodd"/>
        <path id="Path-3" data-name="Path" d="M47.16,55.1A28.017,28.017,0,0,1,44.77,46a17.9,17.9,0,0,1,1.38-9.31c2.07-4.76,6.74-7.33,6.85-14.68a23.066,23.066,0,0,0-2.84-11.79C45.525,2.165,36.11-.284,27.406.034,35.2.346,43.054,3.085,47.16,10.22A23.066,23.066,0,0,1,50,22.01c-.11,7.35-4.78,9.92-6.85,14.68A17.9,17.9,0,0,0,41.77,46a28.017,28.017,0,0,0,2.39,9.1l.01.03A1.994,1.994,0,0,1,42.37,58h3a1.994,1.994,0,0,0,1.8-2.87Z" fill="#dfc49c" fill-rule="evenodd"/>
        <rect id="Rectangle" width="22" height="22" rx="2" transform="translate(18 11)" fill="#9e9e9e"/>
        <path id="Path-4" data-name="Path" d="M38,11H35a2,2,0,0,1,2,2V31a2,2,0,0,1-2,2h3a2,2,0,0,0,2-2V13A2,2,0,0,0,38,11Z" fill="#707070" fill-rule="evenodd"/>
      </g>
      <g id="Icons">
        <g id="Grupo_1115725" data-name="Grupo 1115725">
          <path id="Shape" d="M6.341,26.376a6.1,6.1,0,0,1-1.407,3.255C1.794,33.019.9,34.187,1.008,35.4s1.424,2.025,2.5,2.575c.431.22,1.152.59,1.2.854a2.481,2.481,0,0,1-.544,1.826c-.389.691-.977,1.735-.055,2.514.215.191.585.482.923.741a2.526,2.526,0,0,0-.323,1.45c.11.752.624,1.026,1.286,1.4.885.506,1.111.657.81,1.927a5.677,5.677,0,0,0,.16,3.568,3.693,3.693,0,0,0,4.35,2.64,81.349,81.349,0,0,0,8.413-2.525c1.38.824,2.691,2.825,3.637,5.579A3.015,3.015,0,0,0,26.208,60H46.375a3,3,0,0,0,2.685-4.338,27.475,27.475,0,0,1-2.3-8.786,16.95,16.95,0,0,1,1.3-8.789,21.823,21.823,0,0,1,2.642-4.2c1.979-2.676,4.221-5.708,4.293-10.864a23.94,23.94,0,0,0-2.968-12.306C47.8,3.39,38.978-.492,27.822.05A30.05,30.05,0,0,0,15.8,3.018a17.394,17.394,0,0,0-8.5,9.735,29.682,29.682,0,0,0-.985,3.621,13.588,13.588,0,0,1-.883,2.346,6.013,6.013,0,0,0-.823,3,3.817,3.817,0,0,0,1.456,2.229c.489.45.81.766.813,1.054a1.8,1.8,0,0,1-.192.465,3.134,3.134,0,0,0-.345.908Zm1.074-3.9c-.4-.371-.785-.721-.828-1.03a6.471,6.471,0,0,1,.668-1.909,15.157,15.157,0,0,0,1-2.71,27.989,27.989,0,0,1,.914-3.383A15.433,15.433,0,0,1,16.707,4.8,28.043,28.043,0,0,1,27.921,2.048C32.828,1.8,44.846,2.264,50.3,11.72A21.938,21.938,0,0,1,53,23c-.063,4.513-1.927,7.034-3.9,9.7a23.747,23.747,0,0,0-2.868,4.588,18.967,18.967,0,0,0-1.456,9.828,29.356,29.356,0,0,0,2.5,9.447,1,1,0,0,1-.9,1.436H26.208a1.014,1.014,0,0,1-.951-.693A14.752,14.752,0,0,0,21.973,51.6c.8-.279,1.934-.684,2.324-.808,4.277-1.347,6.416-3.3,6.358-5.795a.983.983,0,0,0-1.022-.977,1,1,0,0,0-.977,1.023c.024,1.032-.817,2.537-4.962,3.842-1.487.472-8.88,3.247-12.786,4.061A1.772,1.772,0,0,1,8.854,51.6a3.7,3.7,0,0,1-.1-2.454,4.007,4.007,0,0,0,.077-2.075,3.311,3.311,0,0,0-1.839-2.048c-.071-.041-.144-.082-.215-.124a3.725,3.725,0,0,1,.384-.623,1,1,0,0,0-.193-1.418c-.239-.178-.81-.608-1.22-.936.05-.094.109-.2.162-.291a4.242,4.242,0,0,0,.766-3.18c-.232-1.226-1.4-1.825-2.255-2.262A5.122,5.122,0,0,1,3,35.22c.017-.578,2.218-2.953,3.4-4.23a7.993,7.993,0,0,0,1.914-4.283,4.357,4.357,0,0,0,.561-1.728,3.488,3.488,0,0,0-1.46-2.5Z"/>
          <path id="Shape-2" data-name="Shape" d="M16,30a1,1,0,0,0,0,2h2a3,3,0,0,0,3,3v2a1,1,0,0,0,2,0V35h2v2a1,1,0,0,0,2,0V35h2v2a1,1,0,0,0,2,0V35h2v2a1,1,0,0,0,2,0V35h2v2a1,1,0,0,0,2,0V35a3,3,0,0,0,3-3h2a1,1,0,0,0,0-2H42V28h2a1,1,0,0,0,0-2H42V24h2a1,1,0,0,0,0-2H42V20h2a1,1,0,0,0,0-2H42V16h2a1,1,0,0,0,0-2H42a3,3,0,0,0-3-3V9a1,1,0,0,0-2,0v2H35V9a1,1,0,0,0-2,0v2H31V9a1,1,0,0,0-2,0v2H27V9a1,1,0,0,0-2,0v2H23V9a1,1,0,0,0-2,0v2a3,3,0,0,0-3,3H16a1,1,0,0,0,0,2h2v2H16a1,1,0,0,0,0,2h2v2H16a1,1,0,0,0,0,2h2v2H16a1,1,0,0,0,0,2h2v2Zm4-16a1,1,0,0,1,1-1H39a1,1,0,0,1,1,1V32a1,1,0,0,1-1,1H21a1,1,0,0,1-1-1Z"/>
          <path id="Shape-3" data-name="Shape" d="M22.6,27.916a1,1,0,0,0,1.317-.515L24.53,26h3.942l.613,1.4a1,1,0,1,0,1.832-.8c-.128-.294-3.551-8.117-3.5-8a1,1,0,0,0-1.832,0l-3.5,8a1,1,0,0,0,.515,1.315ZM26.5,21.5,27.6,24H25.4Z"/>
        </g>
        <path id="Path-5" data-name="Path" d="M33,26a1,1,0,0,0,0,2h4a1,1,0,0,0,0-2H36V20h1a1,1,0,0,0,0-2H33a1,1,0,0,0,0,2h1v6Z" fill-rule="evenodd"/>
      </g>
    </g>
  </g>
</svg>
