<svg xmlns="http://www.w3.org/2000/svg" width="295" height="321.787" viewBox="0 0 295 321.787">
  <g id="Grupo_1116004" data-name="Grupo 1116004" transform="translate(-1124.684 -6429)">
    <rect id="Rectángulo_412799" data-name="Rectángulo 412799" width="295" height="321.787" rx="10" transform="translate(1124.684 6429)" fill="#523dbf"/>
    <g id="_289616081_7674617a-c939-4d5b-9b73-aa8e52455bbd" data-name="289616081_7674617a-c939-4d5b-9b73-aa8e52455bbd" transform="translate(806.053 6122.992)">
      <g id="Grupo_1116003" data-name="Grupo 1116003" transform="translate(350 351.369)">
        <g id="Grupo_1115876" data-name="Grupo 1115876" transform="translate(1.269 0)">
          <g id="Grupo_1115870" data-name="Grupo 1115870" transform="translate(108.573)">
            <g id="Grupo_1115868" data-name="Grupo 1115868" transform="translate(10.19)">
              <path id="Trazado_928218" data-name="Trazado 928218" d="M2575.681,362.07a.445.445,0,0,1-.32-.755l9.522-9.811a.445.445,0,1,1,.639.62L2576,361.935A.445.445,0,0,1,2575.681,362.07Z" transform="translate(-2575.235 -351.369)" fill="#2e186b"/>
            </g>
            <g id="Grupo_1115869" data-name="Grupo 1115869" transform="translate(0 1.556)">
              <path id="Trazado_928219" data-name="Trazado 928219" d="M2386.771,390.912a.445.445,0,0,1-.32-.755l9.522-9.811a.445.445,0,1,1,.639.62l-9.522,9.811A.443.443,0,0,1,2386.771,390.912Z" transform="translate(-2386.326 -380.21)" fill="#2e186b"/>
            </g>
          </g>
          <g id="Grupo_1115873" data-name="Grupo 1115873" transform="translate(0 162.914)">
            <g id="Grupo_1115871" data-name="Grupo 1115871">
              <path id="Trazado_928220" data-name="Trazado 928220" d="M373.963,3384.782a.445.445,0,0,1-.318-.757l12.055-12.312a.445.445,0,1,1,.636.623l-12.055,12.312A.445.445,0,0,1,373.963,3384.782Z" transform="translate(-373.518 -3371.58)" fill="#2e186b"/>
            </g>
            <g id="Grupo_1115872" data-name="Grupo 1115872" transform="translate(1.026 11.414)">
              <path id="Trazado_928221" data-name="Trazado 928221" d="M392.983,3590.608a.445.445,0,0,1-.312-.763l6.669-6.541a.445.445,0,0,1,.624.636l-6.669,6.541A.442.442,0,0,1,392.983,3590.608Z" transform="translate(-392.538 -3583.177)" fill="#2e186b"/>
            </g>
          </g>
          <g id="Grupo_1115874" data-name="Grupo 1115874" transform="translate(199.962 206.514)">
            <path id="Trazado_928222" data-name="Trazado 928222" d="M4081.011,4189.489a.445.445,0,0,1-.315-.76l8.72-8.721a.445.445,0,0,1,.63.63l-8.721,8.721A.442.442,0,0,1,4081.011,4189.489Z" transform="translate(-4080.566 -4179.877)" fill="#2e186b"/>
          </g>
          <g id="Grupo_1115875" data-name="Grupo 1115875" transform="translate(200.732 205.104)">
            <path id="Trazado_928223" data-name="Trazado 928223" d="M4095.27,4169.886a.445.445,0,0,1-.311-.764l15.646-15.262a.445.445,0,1,1,.622.637l-15.646,15.261A.443.443,0,0,1,4095.27,4169.886Z" transform="translate(-4094.824 -4153.734)" fill="#2e186b"/>
          </g>
        </g>
        <g id="Grupo_1115877" data-name="Grupo 1115877" transform="translate(0.445 8.492)">
          <path id="Trazado_928224" data-name="Trazado 928224" d="M397.81,525.71l-1.5-.33a1.416,1.416,0,0,1-1.044-1.017,17.439,17.439,0,0,0-1.619-3.883,1.423,1.423,0,0,1,.016-1.454l.831-1.326a1.183,1.183,0,0,0-.149-1.454l-3.073-3.073a1.184,1.184,0,0,0-1.454-.149l-1.31.826a1.421,1.421,0,0,1-1.459.021,17.334,17.334,0,0,0-3.877-1.6,1.422,1.422,0,0,1-1.022-1.044l-.341-1.518a1.152,1.152,0,0,0-1.134-.905H376.3a1.157,1.157,0,0,0-1.129.905l-.346,1.518a1.422,1.422,0,0,1-1.023,1.044,17.109,17.109,0,0,0-3.861,1.6,1.408,1.408,0,0,1-1.459-.016l-1.31-.826a1.184,1.184,0,0,0-1.454.149l-3.073,3.073a1.191,1.191,0,0,0-.16,1.47l.826,1.289a1.416,1.416,0,0,1,.021,1.47,17.189,17.189,0,0,0-1.608,3.883,1.421,1.421,0,0,1-1.049,1.023l-1.507.335a1.156,1.156,0,0,0-.911,1.129V531.2a1.179,1.179,0,0,0,.921,1.15l1.5.33a1.4,1.4,0,0,1,1.049,1.023,16.828,16.828,0,0,0,1.6,3.867,1.4,1.4,0,0,1-.016,1.47l-.831,1.3a1.178,1.178,0,0,0,.165,1.449l3.073,3.078a1.186,1.186,0,0,0,1.454.165l1.31-.836a1.418,1.418,0,0,1,1.465-.021,17.3,17.3,0,0,0,3.872,1.608,1.423,1.423,0,0,1,1.017,1.049l.335,1.5a1.168,1.168,0,0,0,1.14.921h4.362a1.166,1.166,0,0,0,1.134-.921l.33-1.5a1.429,1.429,0,0,1,1.022-1.049,17.154,17.154,0,0,0,3.872-1.6,1.418,1.418,0,0,1,1.465.016l1.321.836a1.16,1.16,0,0,0,1.443-.16l3.083-3.084a1.175,1.175,0,0,0,.149-1.449l-.826-1.31a1.409,1.409,0,0,1-.016-1.459,17.371,17.371,0,0,0,1.614-3.872,1.4,1.4,0,0,1,1.049-1.023l1.5-.335a1.151,1.151,0,0,0,.905-1.124v-4.383A1.157,1.157,0,0,0,397.81,525.71Zm-19.322,12.153a8.833,8.833,0,1,1,8.83-8.835A8.837,8.837,0,0,1,378.489,537.863Z" transform="translate(-358.256 -508.801)" fill="#fff"/>
        </g>
        <g id="Grupo_1115878" data-name="Grupo 1115878" transform="translate(0 8.047)">
          <path id="Trazado_928225" data-name="Trazado 928225" d="M372.861,541.9H368.5a1.622,1.622,0,0,1-1.575-1.272l-.335-1.5a.979.979,0,0,0-.7-.718,17.753,17.753,0,0,1-3.969-1.649.978.978,0,0,0-1.006.009l-1.31.836a1.631,1.631,0,0,1-2-.216l-3.082-3.087a1.622,1.622,0,0,1-.225-2l.83-1.3a.96.96,0,0,0,.007-1.007,17.325,17.325,0,0,1-1.647-3.972.962.962,0,0,0-.714-.706l-1.5-.331A1.62,1.62,0,0,1,350,523.394v-4.357a1.593,1.593,0,0,1,1.26-1.564l1.506-.335a.978.978,0,0,0,.716-.706,17.7,17.7,0,0,1,1.651-3.985.965.965,0,0,0-.009-1.009l-.826-1.289a1.634,1.634,0,0,1,.218-2.023l3.075-3.075a1.634,1.634,0,0,1,2.009-.21l1.308.824a.967.967,0,0,0,1,.006,17.585,17.585,0,0,1,3.963-1.64.977.977,0,0,0,.708-.714l.346-1.517a1.612,1.612,0,0,1,1.563-1.252h4.372a1.6,1.6,0,0,1,1.57,1.26l.339,1.511a.976.976,0,0,0,.706.712,17.782,17.782,0,0,1,3.978,1.645.969.969,0,0,0,1-.01l1.31-.826a1.628,1.628,0,0,1,2,.2l3.082,3.081a1.633,1.633,0,0,1,.21,2.009l-.829,1.323a.983.983,0,0,0,0,1,17.9,17.9,0,0,1,1.659,3.98.975.975,0,0,0,.715.7l1.5.329h0a1.612,1.612,0,0,1,1.254,1.563v4.383a1.589,1.589,0,0,1-1.254,1.558l-1.5.335a.963.963,0,0,0-.717.7,17.827,17.827,0,0,1-1.656,3.975.965.965,0,0,0,0,1l.827,1.313a1.617,1.617,0,0,1-.2,1.994l-3.09,3.09a1.614,1.614,0,0,1-2,.22l-1.319-.835a.979.979,0,0,0-1.006-.005,17.66,17.66,0,0,1-3.973,1.645.99.99,0,0,0-.707.72l-.329,1.5A1.609,1.609,0,0,1,372.861,541.9Zm-11.451-6.164a1.924,1.924,0,0,1,.943.25,16.854,16.854,0,0,0,3.772,1.567,1.869,1.869,0,0,1,1.333,1.383l.335,1.5a.719.719,0,0,0,.705.573h4.362a.725.725,0,0,0,.7-.567l.331-1.507a1.881,1.881,0,0,1,1.337-1.382A16.765,16.765,0,0,0,379,535.991a1.864,1.864,0,0,1,1.921.027l1.321.836a.718.718,0,0,0,.891-.1l3.084-3.084a.728.728,0,0,0,.089-.894l-.827-1.312a1.851,1.851,0,0,1-.026-1.917,16.935,16.935,0,0,0,1.572-3.771,1.846,1.846,0,0,1,1.384-1.338l1.493-.335a.7.7,0,0,0,.557-.689v-4.383a.715.715,0,0,0-.557-.694l-1.5-.33a1.864,1.864,0,0,1-1.378-1.334,17.014,17.014,0,0,0-1.577-3.781,1.874,1.874,0,0,1,.026-1.91l.831-1.326a.742.742,0,0,0-.1-.911l-3.064-3.064a.737.737,0,0,0-.9-.089l-1.312.827a1.874,1.874,0,0,1-1.914.033,16.883,16.883,0,0,0-3.779-1.563,1.865,1.865,0,0,1-1.338-1.374l-.341-1.52a.71.71,0,0,0-.7-.558h-4.372a.716.716,0,0,0-.694.557l-.347,1.52a1.866,1.866,0,0,1-1.339,1.374,16.687,16.687,0,0,0-3.759,1.556,1.852,1.852,0,0,1-1.918-.028l-1.308-.824a.742.742,0,0,0-.911.1l-3.064,3.064a.744.744,0,0,0-.1.919l.823,1.285a1.867,1.867,0,0,1,.034,1.929,16.8,16.8,0,0,0-1.568,3.784,1.866,1.866,0,0,1-1.379,1.337l-1.509.336a.708.708,0,0,0-.562.694v4.357a.732.732,0,0,0,.575.716l1.494.33a1.847,1.847,0,0,1,1.383,1.341,16.422,16.422,0,0,0,1.56,3.762,1.844,1.844,0,0,1-.028,1.931l-.829,1.3a.732.732,0,0,0,.111.9l3.067,3.072a.739.739,0,0,0,.9.1l1.311-.836A1.812,1.812,0,0,1,361.411,535.735Zm9.267-5.233a9.278,9.278,0,1,1,9.275-9.281A9.291,9.291,0,0,1,370.678,530.5Zm0-17.666a8.388,8.388,0,1,0,8.385,8.385A8.4,8.4,0,0,0,370.678,512.836Z" transform="translate(-350 -500.549)" fill="#2e186b"/>
        </g>
        <g id="Grupo_1115881" data-name="Grupo 1115881" transform="translate(121.606 178.623)">
          <g id="Grupo_1115879" data-name="Grupo 1115879" transform="translate(0.445 0.445)">
            <path id="Trazado_928226" data-name="Trazado 928226" d="M2677.4,3704.028l-5.922-24.311h-.013c-.049-4.782-26.337-8.656-58.757-8.656h-.031v52.019a170.761,170.761,0,0,0,60.912-11.678A6.249,6.249,0,0,0,2677.4,3704.028Z" transform="translate(-2612.679 -3671.061)" fill="#2e186b"/>
          </g>
          <g id="Grupo_1115880" data-name="Grupo 1115880">
            <path id="Trazado_928227" data-name="Trazado 928227" d="M2604.871,3715.722a.446.446,0,0,1-.445-.445v-52.019a.445.445,0,0,1,.445-.445c28.482,0,58.741,3.143,59.227,8.972,0,.008,0,.016.007.024l5.922,24.31a6.67,6.67,0,0,1-4.085,7.9,172.114,172.114,0,0,1-61.069,11.707Zm.445-52.019v51.125a171.3,171.3,0,0,0,60.307-11.646,5.78,5.78,0,0,0,3.54-6.847v-.006l-5.9-24.22a.424.424,0,0,1-.049-.192c-.008-.752-1.246-3.385-16.859-5.685A298.614,298.614,0,0,0,2605.316,3663.7Z" transform="translate(-2604.426 -3662.813)" fill="#2e186b"/>
          </g>
        </g>
        <g id="Grupo_1115882" data-name="Grupo 1115882" transform="translate(48.728 187.724)">
          <path id="Trazado_928228" data-name="Trazado 928228" d="M1379.143,3863.219q-62.121,23.85-121.881.04a6.277,6.277,0,0,1-3.727-7.333l5.962-24.391h.009v.013c0,4.791,26.306,8.674,58.756,8.674s58.756-3.883,58.756-8.674v-.013h.013l5.922,24.311A6.257,6.257,0,0,1,1379.143,3863.219Z" transform="translate(-1253.35 -3831.534)" fill="#ff7af1"/>
        </g>
        <g id="Grupo_1115883" data-name="Grupo 1115883" transform="translate(48.728 187.724)">
          <path id="Trazado_928229" data-name="Trazado 928229" d="M1260.6,3863.257a161.639,161.639,0,0,0,58.605,11.893,161.083,161.083,0,0,1-61.945-11.893,6.277,6.277,0,0,1-3.727-7.333l5.962-24.391h.009v.013c0,.908.944,1.781,2.689,2.6l-5.321,21.778A6.277,6.277,0,0,0,1260.6,3863.257Z" transform="translate(-1253.35 -3831.532)" fill="#fff"/>
        </g>
        <g id="Grupo_1115884" data-name="Grupo 1115884" transform="translate(48.283 187.278)">
          <path id="Trazado_928230" data-name="Trazado 928230" d="M1309.739,3867.782a162.572,162.572,0,0,1-60.44-11.938,6.741,6.741,0,0,1-3.995-7.851l1.689-6.909a.445.445,0,0,1,.865.211l-1.689,6.909a5.846,5.846,0,0,0,3.46,6.812c39.512,15.771,80.41,15.757,121.557-.043a5.781,5.781,0,0,0,3.538-6.847l-5.841-23.976H1252.05l-2.372,9.7a.445.445,0,1,1-.865-.211l2.455-10.041a.445.445,0,0,1,.432-.34h117.534a.445.445,0,0,1,.433.34l5.922,24.311a6.669,6.669,0,0,1-4.084,7.895c-20.669,7.937-41.425,11.966-61.69,11.976Z" transform="translate(-1245.109 -3823.26)" fill="#2e186b"/>
        </g>
        <g id="Grupo_1115891" data-name="Grupo 1115891" transform="translate(56.834 200.949)">
          <g id="Grupo_1115885" data-name="Grupo 1115885" transform="translate(0 0)">
            <circle id="Elipse_14708" data-name="Elipse 14708" cx="4.247" cy="4.247" r="4.247" transform="translate(0 6.006) rotate(-45)" fill="#fff"/>
          </g>
          <g id="Grupo_1115886" data-name="Grupo 1115886" transform="translate(1.759 1.758)">
            <path id="Trazado_928231" data-name="Trazado 928231" d="M1444.4,4111.906a4.25,4.25,0,0,0-6.839,4.724,4.247,4.247,0,1,1,6.839-4.724Z" transform="translate(-1436.23 -4109.301)" fill="#9654ff"/>
          </g>
          <g id="Grupo_1115887" data-name="Grupo 1115887" transform="translate(13.721 3.022)">
            <circle id="Elipse_14709" data-name="Elipse 14709" cx="4.247" cy="4.247" r="4.247" transform="translate(0 6.006) rotate(-45)" fill="#9654ff"/>
          </g>
          <g id="Grupo_1115888" data-name="Grupo 1115888" transform="translate(15.482 4.782)">
            <path id="Trazado_928232" data-name="Trazado 928232" d="M1698.515,4167.4a4.248,4.248,0,0,0-6.421,5.406,4.247,4.247,0,1,1,6.421-5.406Z" transform="translate(-1690.634 -4165.353)" fill="#fff"/>
          </g>
          <g id="Grupo_1115889" data-name="Grupo 1115889" transform="translate(29.53 7.069)">
            <circle id="Elipse_14710" data-name="Elipse 14710" cx="4.247" cy="4.247" r="4.247" fill="#fff"/>
          </g>
          <g id="Grupo_1115890" data-name="Grupo 1115890" transform="translate(29.53 7.07)">
            <path id="Trazado_928233" data-name="Trazado 928233" d="M1958.908,4209.758a4.246,4.246,0,0,0-7.057,3.184,4.265,4.265,0,0,0,.65,2.263,4.247,4.247,0,1,1,6.407-5.446Z" transform="translate(-1951.071 -4207.781)" fill="#9654ff"/>
          </g>
        </g>
        <g id="Grupo_1115895" data-name="Grupo 1115895" transform="translate(58.15 202.264)">
          <g id="Grupo_1115892" data-name="Grupo 1115892">
            <path id="Trazado_928234" data-name="Trazado 928234" d="M1432.715,4110.466a4.692,4.692,0,1,1,4.692-4.693A4.7,4.7,0,0,1,1432.715,4110.466Zm0-8.494a3.8,3.8,0,1,0,3.8,3.8A3.806,3.806,0,0,0,1432.715,4101.972Z" transform="translate(-1428.023 -4101.081)" fill="#2e186b"/>
          </g>
          <g id="Grupo_1115893" data-name="Grupo 1115893" transform="translate(13.721 3.022)">
            <path id="Trazado_928235" data-name="Trazado 928235" d="M1687.085,4166.485a4.692,4.692,0,1,1,4.692-4.692A4.7,4.7,0,0,1,1687.085,4166.485Zm0-8.494a3.8,3.8,0,1,0,3.8,3.8A3.806,3.806,0,0,0,1687.085,4157.992Z" transform="translate(-1682.393 -4157.101)" fill="#2e186b"/>
          </g>
          <g id="Grupo_1115894" data-name="Grupo 1115894" transform="translate(27.769 5.309)">
            <path id="Trazado_928236" data-name="Trazado 928236" d="M1947.515,4208.88a4.692,4.692,0,1,1,4.693-4.692A4.7,4.7,0,0,1,1947.515,4208.88Zm0-8.493a3.8,3.8,0,1,0,3.8,3.8A3.806,3.806,0,0,0,1947.515,4200.387Z" transform="translate(-1942.823 -4199.496)" fill="#2e186b"/>
          </g>
        </g>
        <g id="Grupo_1115896" data-name="Grupo 1115896" transform="translate(163.929 205.456)">
          <path id="Trazado_928237" data-name="Trazado 928237" d="M3390.165,4170.12a.445.445,0,0,1-.444-.411l-.69-8.973a.445.445,0,0,1,.888-.068l.69,8.973a.445.445,0,0,1-.41.479Z" transform="translate(-3389.03 -4160.256)" fill="#2e186b"/>
        </g>
        <g id="Grupo_1115897" data-name="Grupo 1115897" transform="translate(151.589 206.75)">
          <path id="Trazado_928238" data-name="Trazado 928238" d="M3161.4,4194.109a.445.445,0,0,1-.443-.411l-.69-8.973a.445.445,0,1,1,.888-.068l.69,8.973a.445.445,0,0,1-.41.478Z" transform="translate(-3160.266 -4184.246)" fill="#2e186b"/>
        </g>
        <g id="Grupo_1115898" data-name="Grupo 1115898" transform="translate(139.25 208.045)">
          <path id="Trazado_928239" data-name="Trazado 928239" d="M2932.651,4218.116a.445.445,0,0,1-.444-.411l-.69-8.973a.445.445,0,0,1,.888-.068l.69,8.973a.445.445,0,0,1-.41.479Z" transform="translate(-2931.516 -4208.252)" fill="#2e186b"/>
        </g>
        <g id="Grupo_1115899" data-name="Grupo 1115899" transform="translate(54.885 179.068)">
          <ellipse id="Elipse_14711" data-name="Elipse 14711" cx="58.756" cy="8.671" rx="58.756" ry="8.671" fill="#ff7af1"/>
        </g>
        <g id="Grupo_1115900" data-name="Grupo 1115900" transform="translate(54.884 179.069)">
          <path id="Trazado_928240" data-name="Trazado 928240" d="M1370.7,3680.519c0,1.488,2.533,2.886,7,4.11-6.452-1.389-10.228-3.073-10.228-4.889,0-4.787,26.306-8.669,58.756-8.669,22.312,0,41.717,1.834,51.664,4.537-10.593-2.266-28.336-3.758-48.436-3.758C1397.009,3671.85,1370.7,3675.732,1370.7,3680.519Z" transform="translate(-1367.475 -3671.071)" fill="#fff"/>
        </g>
        <g id="Grupo_1115901" data-name="Grupo 1115901" transform="translate(54.44 178.623)">
          <path id="Trazado_928241" data-name="Trazado 928241" d="M1418.442,3681.039c-28.7,0-59.2-3.2-59.2-9.116s30.5-9.116,59.2-9.116,59.2,3.2,59.2,9.116S1447.141,3681.039,1418.442,3681.039Zm0-17.342a299.489,299.489,0,0,0-41.482,2.535c-15.616,2.3-16.829,4.938-16.829,5.691s1.214,3.386,16.829,5.691a340.716,340.716,0,0,0,82.965,0c15.616-2.3,16.829-4.938,16.829-5.691s-1.214-3.386-16.829-5.691A299.5,299.5,0,0,0,1418.442,3663.7Z" transform="translate(-1359.24 -3662.806)" fill="#2e186b"/>
        </g>
        <g id="Grupo_1115902" data-name="Grupo 1115902" transform="translate(40.763 124.355)" opacity="0.15">
          <path id="Trazado_928242" data-name="Trazado 928242" d="M1215.115,2719.788a297.911,297.911,0,0,1-73.1,0L1105.7,2656.75h145.726Z" transform="translate(-1105.7 -2656.75)" fill="#2e186b"/>
        </g>
        <g id="Grupo_1115905" data-name="Grupo 1115905" transform="translate(187.019 16.106)">
          <g id="Grupo_1115903" data-name="Grupo 1115903" transform="translate(0.445 0.445)">
            <path id="Trazado_928243" data-name="Trazado 928243" d="M3843.616,658.212h-18.259V786.527h18.259a10.168,10.168,0,0,0,10.164-10.168V668.376A10.165,10.165,0,0,0,3843.616,658.212Z" transform="translate(-3825.357 -658.212)" fill="#2e186b"/>
          </g>
          <g id="Grupo_1115904" data-name="Grupo 1115904">
            <path id="Trazado_928244" data-name="Trazado 928244" d="M3835.805,779.161h-18.259a.445.445,0,0,1-.445-.445V650.4a.445.445,0,0,1,.445-.445h18.259a10.622,10.622,0,0,1,10.609,10.61V768.547A10.624,10.624,0,0,1,3835.805,779.161Zm-17.813-.891h17.813a9.732,9.732,0,0,0,9.719-9.723V660.565a9.73,9.73,0,0,0-9.719-9.719h-17.813Z" transform="translate(-3817.101 -649.955)" fill="#2e186b"/>
          </g>
        </g>
        <g id="Grupo_1115906" data-name="Grupo 1115906" transform="translate(21.882 16.551)">
          <path id="Trazado_928245" data-name="Trazado 928245" d="M939.793,668.376V776.359a10.168,10.168,0,0,1-10.164,10.168H765.839a10.169,10.169,0,0,1-10.168-10.168V668.376a10.165,10.165,0,0,1,10.168-10.164h163.79A10.164,10.164,0,0,1,939.793,668.376Z" transform="translate(-755.671 -658.212)" fill="#fff"/>
        </g>
        <g id="Grupo_1115907" data-name="Grupo 1115907" transform="translate(21.437 16.106)">
          <path id="Trazado_928246" data-name="Trazado 928246" d="M921.819,779.162H758.03a10.626,10.626,0,0,1-10.614-10.614V744.942a.445.445,0,0,1,.891,0v23.607a9.734,9.734,0,0,0,9.723,9.723h163.79a9.732,9.732,0,0,0,9.719-9.723V660.565a9.73,9.73,0,0,0-9.719-9.719H758.03a9.732,9.732,0,0,0-9.723,9.719V734.65a.445.445,0,0,1-.891,0V660.565a10.624,10.624,0,0,1,10.614-10.609h163.79a10.621,10.621,0,0,1,10.609,10.609V768.548A10.624,10.624,0,0,1,921.819,779.162Z" transform="translate(-747.416 -649.956)" fill="#2e186b"/>
        </g>
        <g id="Grupo_1115908" data-name="Grupo 1115908" transform="translate(35.196 27.123)">
          <path id="Trazado_928247" data-name="Trazado 928247" d="M1032.08,855.094h-29.154a.445.445,0,0,1,0-.891h29.154a.445.445,0,1,1,0,.891Z" transform="translate(-1002.48 -854.203)" fill="#2e186b"/>
        </g>
        <g id="Grupo_1115909" data-name="Grupo 1115909" transform="translate(35.196 34.416)">
          <path id="Trazado_928248" data-name="Trazado 928248" d="M1020,990.281h-17.071a.445.445,0,0,1,0-.891H1020a.445.445,0,0,1,0,.891Z" transform="translate(-1002.48 -989.39)" fill="#2e186b"/>
        </g>
        <g id="Grupo_1115910" data-name="Grupo 1115910" transform="translate(151.348 122.527)">
          <path id="Trazado_928249" data-name="Trazado 928249" d="M3165.787,2624.561v6.582a1.7,1.7,0,0,1-1.7,1.7H3157.5a1.7,1.7,0,0,1-1.7-1.7v-6.582a1.7,1.7,0,0,1,1.7-1.7h6.582A1.7,1.7,0,0,1,3165.787,2624.561Z" transform="translate(-3155.8 -2622.856)" fill="#2e186b"/>
        </g>
        <g id="Grupo_1115911" data-name="Grupo 1115911" transform="translate(182.471 122.527)">
          <path id="Trazado_928250" data-name="Trazado 928250" d="M3742.767,2624.561v6.582a1.7,1.7,0,0,1-1.7,1.7h-6.582a1.7,1.7,0,0,1-1.7-1.7v-6.582a1.7,1.7,0,0,1,1.7-1.7h6.582A1.7,1.7,0,0,1,3742.767,2624.561Z" transform="translate(-3732.78 -2622.856)" fill="#9654ff"/>
        </g>
        <g id="Grupo_1115912" data-name="Grupo 1115912" transform="translate(166.91 122.527)">
          <path id="Trazado_928251" data-name="Trazado 928251" d="M3454.277,2624.561v6.582a1.7,1.7,0,0,1-1.7,1.7h-6.582a1.7,1.7,0,0,1-1.7-1.7v-6.582a1.7,1.7,0,0,1,1.7-1.7h6.582A1.7,1.7,0,0,1,3454.277,2624.561Z" transform="translate(-3444.29 -2622.856)" fill="#ff7af1"/>
        </g>
        <g id="Grupo_1115920" data-name="Grupo 1115920" transform="translate(0 107.741)">
          <g id="Grupo_1115913" data-name="Grupo 1115913" transform="translate(0.445 0.445)">
            <rect id="Rectángulo_413146" data-name="Rectángulo 413146" width="51.308" height="48.813" fill="#fff"/>
          </g>
          <g id="Grupo_1115914" data-name="Grupo 1115914">
            <path id="Trazado_928252" data-name="Trazado 928252" d="M401.753,2398.456H350.445a.445.445,0,0,1-.445-.445V2349.2a.445.445,0,0,1,.445-.445h51.308a.445.445,0,0,1,.445.445v48.813A.446.446,0,0,1,401.753,2398.456Zm-50.862-.891h50.417v-47.922H350.891Z" transform="translate(-350 -2348.752)" fill="#2e186b"/>
          </g>
          <g id="Grupo_1115915" data-name="Grupo 1115915" transform="translate(51.308)">
            <rect id="Rectángulo_413147" data-name="Rectángulo 413147" width="7.075" height="48.813" transform="translate(0.445 0.445)" fill="#2e186b"/>
            <path id="Trazado_928253" data-name="Trazado 928253" d="M1308.7,2398.456h-7.075a.445.445,0,0,1-.445-.445V2349.2a.445.445,0,0,1,.445-.445h7.075a.445.445,0,0,1,.445.445v48.813A.446.446,0,0,1,1308.7,2398.456Zm-6.63-.891h6.184v-47.922h-6.184Z" transform="translate(-1301.181 -2348.752)" fill="#2e186b"/>
          </g>
          <g id="Grupo_1115919" data-name="Grupo 1115919" transform="translate(7.015 5.768)">
            <g id="Grupo_1115916" data-name="Grupo 1115916" transform="translate(0 0)">
              <path id="Trazado_928254" data-name="Trazado 928254" d="M499.141,2455.69v7.513a11.471,11.471,0,0,0-11.475,11.47,11.239,11.239,0,0,0,.466,3.227l-7.349,2.086a19.083,19.083,0,0,1,18.358-24.3Z" transform="translate(-480.057 -2455.69)" fill="#2e186b"/>
            </g>
            <g id="Grupo_1115917" data-name="Grupo 1115917" transform="translate(19.084)">
              <path id="Trazado_928255" data-name="Trazado 928255" d="M852.928,2474.767a19.066,19.066,0,0,1-8.961,16.175l-4.084-6.526a11.469,11.469,0,0,0-6.039-21.22v-7.512A19.088,19.088,0,0,1,852.928,2474.767Z" transform="translate(-833.844 -2455.683)" fill="#ff7af1"/>
            </g>
            <g id="Grupo_1115918" data-name="Grupo 1115918" transform="translate(0.726 22.211)">
              <path id="Trazado_928256" data-name="Trazado 928256" d="M522,2880.487a19.079,19.079,0,0,1-28.481-10.962l7.349-2.086a11.469,11.469,0,0,0,17.048,6.522Z" transform="translate(-493.516 -2867.439)" fill="#9654ff"/>
            </g>
          </g>
        </g>
        <g id="Grupo_1115921" data-name="Grupo 1115921" transform="translate(182.471 153.464)">
          <path id="Trazado_928257" data-name="Trazado 928257" d="M3772.334,3213.3l-1.5-.33a1.416,1.416,0,0,1-1.044-1.017,17.432,17.432,0,0,0-1.619-3.883,1.423,1.423,0,0,1,.016-1.454l.831-1.326a1.184,1.184,0,0,0-.149-1.454l-3.073-3.073a1.184,1.184,0,0,0-1.454-.149l-1.31.826a1.421,1.421,0,0,1-1.459.021,17.326,17.326,0,0,0-3.877-1.6,1.422,1.422,0,0,1-1.022-1.044l-.341-1.518a1.152,1.152,0,0,0-1.135-.905h-4.372a1.157,1.157,0,0,0-1.129.905l-.346,1.518a1.422,1.422,0,0,1-1.022,1.044,17.093,17.093,0,0,0-3.861,1.6,1.408,1.408,0,0,1-1.459-.016l-1.31-.825a1.184,1.184,0,0,0-1.454.149l-3.073,3.073a1.191,1.191,0,0,0-.16,1.47l.825,1.289a1.416,1.416,0,0,1,.021,1.47,17.2,17.2,0,0,0-1.608,3.882,1.422,1.422,0,0,1-1.049,1.023l-1.507.335a1.157,1.157,0,0,0-.911,1.129v4.357a1.179,1.179,0,0,0,.921,1.15l1.5.33a1.4,1.4,0,0,1,1.049,1.022,16.811,16.811,0,0,0,1.6,3.866,1.4,1.4,0,0,1-.016,1.47l-.831,1.3a1.177,1.177,0,0,0,.165,1.448l3.073,3.079a1.185,1.185,0,0,0,1.454.165l1.31-.836a1.418,1.418,0,0,1,1.465-.021,17.294,17.294,0,0,0,3.872,1.608,1.423,1.423,0,0,1,1.017,1.049l.336,1.5a1.167,1.167,0,0,0,1.14.921h4.362a1.166,1.166,0,0,0,1.135-.921l.33-1.5a1.429,1.429,0,0,1,1.022-1.049,17.152,17.152,0,0,0,3.872-1.6,1.418,1.418,0,0,1,1.465.016l1.321.836a1.16,1.16,0,0,0,1.443-.16l3.083-3.084a1.175,1.175,0,0,0,.149-1.448l-.826-1.31a1.408,1.408,0,0,1-.016-1.459,17.382,17.382,0,0,0,1.614-3.872,1.4,1.4,0,0,1,1.049-1.023l1.5-.335a1.151,1.151,0,0,0,.906-1.124v-4.383A1.157,1.157,0,0,0,3772.334,3213.3Zm-19.323,12.153a8.833,8.833,0,1,1,8.83-8.835A8.837,8.837,0,0,1,3753.012,3225.457Z" transform="translate(-3732.78 -3196.394)" fill="#fff"/>
        </g>
        <g id="Grupo_1115922" data-name="Grupo 1115922" transform="translate(182.026 153.019)">
          <path id="Trazado_928258" data-name="Trazado 928258" d="M3747.389,3229.491h-4.362a1.622,1.622,0,0,1-1.575-1.272l-.335-1.5a.978.978,0,0,0-.7-.718,17.753,17.753,0,0,1-3.969-1.649.978.978,0,0,0-1.006.009l-1.311.836a1.631,1.631,0,0,1-2-.217l-3.082-3.087a1.622,1.622,0,0,1-.225-2l.83-1.3a.959.959,0,0,0,.007-1.006,17.313,17.313,0,0,1-1.647-3.972.963.963,0,0,0-.714-.706l-1.5-.331a1.619,1.619,0,0,1-1.271-1.585v-4.356a1.593,1.593,0,0,1,1.26-1.564l1.506-.335a.978.978,0,0,0,.717-.706,17.7,17.7,0,0,1,1.65-3.985.964.964,0,0,0-.009-1.009l-.826-1.289a1.633,1.633,0,0,1,.218-2.022l3.075-3.075a1.632,1.632,0,0,1,2.009-.209l1.308.824a.965.965,0,0,0,1,.006,17.6,17.6,0,0,1,3.963-1.64.976.976,0,0,0,.707-.714l.346-1.517a1.612,1.612,0,0,1,1.563-1.252h4.372a1.6,1.6,0,0,1,1.57,1.26l.34,1.511a.975.975,0,0,0,.706.712,17.776,17.776,0,0,1,3.978,1.645.972.972,0,0,0,1-.01l1.31-.826a1.627,1.627,0,0,1,2,.2l3.082,3.082a1.632,1.632,0,0,1,.209,2.009l-.828,1.322a.984.984,0,0,0,0,1,17.914,17.914,0,0,1,1.659,3.979.975.975,0,0,0,.715.7l1.5.33h0a1.612,1.612,0,0,1,1.254,1.563v4.383a1.589,1.589,0,0,1-1.254,1.558l-1.5.335a.962.962,0,0,0-.717.7,17.851,17.851,0,0,1-1.656,3.975.967.967,0,0,0,0,1l.827,1.312a1.617,1.617,0,0,1-.2,1.995l-3.09,3.09a1.615,1.615,0,0,1-2,.22l-1.319-.835a.978.978,0,0,0-1.006-.005A17.656,17.656,0,0,1,3750,3226a.989.989,0,0,0-.708.719l-.329,1.5A1.609,1.609,0,0,1,3747.389,3229.491Zm-11.451-6.164a1.923,1.923,0,0,1,.943.25,16.858,16.858,0,0,0,3.772,1.567,1.869,1.869,0,0,1,1.333,1.383l.334,1.5a.719.719,0,0,0,.705.573h4.362a.725.725,0,0,0,.7-.567l.331-1.507a1.88,1.88,0,0,1,1.337-1.382,16.763,16.763,0,0,0,3.773-1.562,1.867,1.867,0,0,1,1.922.027l1.321.836a.718.718,0,0,0,.89-.1l3.083-3.083a.727.727,0,0,0,.089-.894l-.827-1.313a1.852,1.852,0,0,1-.026-1.917,16.931,16.931,0,0,0,1.572-3.771,1.847,1.847,0,0,1,1.384-1.338l1.493-.335a.7.7,0,0,0,.557-.689v-4.384a.715.715,0,0,0-.556-.694l-1.5-.33a1.864,1.864,0,0,1-1.378-1.335,17.011,17.011,0,0,0-1.577-3.781,1.874,1.874,0,0,1,.027-1.91l.83-1.326a.74.74,0,0,0-.1-.911l-3.064-3.064a.735.735,0,0,0-.9-.089l-1.312.827a1.873,1.873,0,0,1-1.914.033,16.881,16.881,0,0,0-3.779-1.563,1.864,1.864,0,0,1-1.338-1.374l-.341-1.52a.71.71,0,0,0-.7-.558h-4.372a.716.716,0,0,0-.695.557l-.347,1.52a1.865,1.865,0,0,1-1.339,1.374,16.689,16.689,0,0,0-3.759,1.556,1.851,1.851,0,0,1-1.918-.028l-1.308-.824a.741.741,0,0,0-.91.1l-3.064,3.064a.744.744,0,0,0-.1.919l.823,1.285a1.867,1.867,0,0,1,.034,1.928,16.8,16.8,0,0,0-1.568,3.784,1.865,1.865,0,0,1-1.38,1.337l-1.509.336a.709.709,0,0,0-.562.695v4.357a.732.732,0,0,0,.575.716l1.493.33a1.847,1.847,0,0,1,1.383,1.341,16.422,16.422,0,0,0,1.56,3.763,1.844,1.844,0,0,1-.028,1.931l-.829,1.3a.732.732,0,0,0,.111.9l3.067,3.072a.737.737,0,0,0,.9.1l1.311-.836A1.82,1.82,0,0,1,3735.938,3223.327Zm9.267-5.233a9.278,9.278,0,1,1,9.275-9.281A9.291,9.291,0,0,1,3745.2,3218.094Zm0-17.665a8.387,8.387,0,1,0,8.385,8.385A8.4,8.4,0,0,0,3745.2,3200.429Z" transform="translate(-3724.527 -3188.141)" fill="#2e186b"/>
        </g>
        <g id="Grupo_1115937" data-name="Grupo 1115937" transform="translate(4.618 177.735)">
          <g id="Grupo_1115923" data-name="Grupo 1115923" transform="translate(6.77 4.595)">
            <path id="Trazado_928259" data-name="Trazado 928259" d="M561.572,3757.507a.445.445,0,0,1-.254-.812l13.668-9.462-5.212-15.124a.445.445,0,1,1,.842-.291l5.322,15.443a.446.446,0,0,1-.167.511l-13.945,9.654A.442.442,0,0,1,561.572,3757.507Z" transform="translate(-561.126 -3731.519)" fill="#2e186b"/>
          </g>
          <g id="Grupo_1115924" data-name="Grupo 1115924" transform="translate(20.715 20.037)">
            <path id="Trazado_928260" data-name="Trazado 928260" d="M832.046,4021.576a.458.458,0,0,1-.1-.012l-11.948-2.884a.445.445,0,0,1,.209-.866l11.948,2.884a.445.445,0,0,1-.1.878Z" transform="translate(-819.652 -4017.802)" fill="#2e186b"/>
          </g>
          <g id="Grupo_1115925" data-name="Grupo 1115925" transform="translate(16.326 15.648)">
            <circle id="Elipse_14712" data-name="Elipse 14712" cx="4.834" cy="4.834" r="4.834" fill="#ff7af1"/>
          </g>
          <g id="Grupo_1115926" data-name="Grupo 1115926" transform="translate(16.324 15.648)">
            <path id="Trazado_928261" data-name="Trazado 928261" d="M746.72,3938.078a4.835,4.835,0,0,0-6.3,7.225,4.835,4.835,0,1,1,6.3-7.225Z" transform="translate(-738.251 -3936.432)" fill="#fff"/>
          </g>
          <g id="Grupo_1115927" data-name="Grupo 1115927" transform="translate(15.881 15.203)">
            <path id="Trazado_928262" data-name="Trazado 928262" d="M735.309,3938.743a5.28,5.28,0,1,1,5.28-5.28A5.286,5.286,0,0,1,735.309,3938.743Zm0-9.668a4.389,4.389,0,1,0,4.389,4.389A4.394,4.394,0,0,0,735.309,3929.075Z" transform="translate(-730.029 -3928.184)" fill="#2e186b"/>
          </g>
          <g id="Grupo_1115928" data-name="Grupo 1115928" transform="translate(11.244 0.445)">
            <circle id="Elipse_14713" data-name="Elipse 14713" cx="4.595" cy="4.595" r="4.595" fill="#9654ff"/>
          </g>
          <g id="Grupo_1115929" data-name="Grupo 1115929" transform="translate(11.243 0.447)">
            <path id="Trazado_928263" data-name="Trazado 928263" d="M652.416,3656.6a4.592,4.592,0,0,0-6.815,6.061,4.594,4.594,0,1,1,6.815-6.061Z" transform="translate(-644.045 -3654.625)" fill="#fff"/>
          </g>
          <g id="Grupo_1115930" data-name="Grupo 1115930" transform="translate(10.799)">
            <path id="Trazado_928264" data-name="Trazado 928264" d="M640.859,3656.421a5.04,5.04,0,1,1,5.04-5.04A5.046,5.046,0,0,1,640.859,3656.421Zm0-9.189a4.149,4.149,0,1,0,4.15,4.149A4.154,4.154,0,0,0,640.859,3647.231Z" transform="translate(-635.819 -3646.341)" fill="#2e186b"/>
          </g>
          <g id="Grupo_1115931" data-name="Grupo 1115931" transform="translate(0.445 23.367)">
            <circle id="Elipse_14714" data-name="Elipse 14714" cx="6.77" cy="6.77" r="6.77" fill="#9654ff"/>
          </g>
          <g id="Grupo_1115932" data-name="Grupo 1115932" transform="translate(0.445 23.366)">
            <path id="Trazado_928265" data-name="Trazado 928265" d="M455.612,4081.7a6.769,6.769,0,0,0-9.322,9.779,6.769,6.769,0,1,1,9.322-9.779Z" transform="translate(-443.864 -4079.52)" fill="#fff"/>
          </g>
          <g id="Grupo_1115933" data-name="Grupo 1115933" transform="translate(0 22.921)">
            <path id="Trazado_928266" data-name="Trazado 928266" d="M442.836,4085.706a7.215,7.215,0,1,1,7.215-7.215A7.224,7.224,0,0,1,442.836,4085.706Zm0-13.541a6.325,6.325,0,1,0,6.325,6.325A6.332,6.332,0,0,0,442.836,4072.166Z" transform="translate(-435.621 -4071.276)" fill="#2e186b"/>
          </g>
          <g id="Grupo_1115934" data-name="Grupo 1115934" transform="translate(29.771 20.03)">
            <circle id="Elipse_14715" data-name="Elipse 14715" cx="3.337" cy="3.337" r="3.337" fill="#9654ff"/>
          </g>
          <g id="Grupo_1115935" data-name="Grupo 1115935" transform="translate(29.77 20.03)">
            <path id="Trazado_928267" data-name="Trazado 928267" d="M993.366,4018.8a3.337,3.337,0,0,0-4.534,4.85,3.336,3.336,0,1,1,4.534-4.85Z" transform="translate(-987.523 -4017.664)" fill="#fff"/>
          </g>
          <g id="Grupo_1115936" data-name="Grupo 1115936" transform="translate(29.326 19.584)">
            <path id="Trazado_928268" data-name="Trazado 928268" d="M983.069,4016.974a3.782,3.782,0,1,1,3.782-3.782A3.787,3.787,0,0,1,983.069,4016.974Zm0-6.674a2.892,2.892,0,1,0,2.892,2.892A2.9,2.9,0,0,0,983.069,4010.3Z" transform="translate(-979.286 -4009.41)" fill="#2e186b"/>
          </g>
        </g>
        <g id="Grupo_1115938" data-name="Grupo 1115938" transform="translate(71.066 39.143)">
          <path id="Trazado_928269" data-name="Trazado 928269" d="M1710.347,1153.837a.45.45,0,0,1-.131-.02l-41.226-12.653a.445.445,0,0,1-.167-.757l41.6-37.423-42.629-12.429a.445.445,0,0,1,0-.854l42.432-12.653a.445.445,0,0,1,.254.854l-40.985,12.221,41.822,12.193,41.822-12.193-40.985-12.221a.445.445,0,1,1,.254-.854l42.432,12.653a.445.445,0,0,1,0,.854l-42.629,12.429,41.6,37.423a.445.445,0,0,1-.173.758l-43.156,12.652A.433.433,0,0,1,1710.347,1153.837ZM1670,1140.544l40.347,12.383,42.261-12.391-41.3-37.156Z" transform="translate(-1667.47 -1077.031)" fill="#2e186b"/>
        </g>
        <g id="Grupo_1115939" data-name="Grupo 1115939" transform="translate(72.271 89.753)">
          <path id="Trazado_928270" data-name="Trazado 928270" d="M1690.261,2028.825a.445.445,0,0,1-.13-.871l41.227-12.652a.446.446,0,0,1,.256,0l43.156,12.652a.445.445,0,0,1-.251.854l-43.027-12.615-41.1,12.613A.444.444,0,0,1,1690.261,2028.825Z" transform="translate(-1689.816 -2015.282)" fill="#2e186b"/>
        </g>
        <g id="Grupo_1115940" data-name="Grupo 1115940" transform="translate(72.271 39.143)">
          <path id="Trazado_928271" data-name="Trazado 928271" d="M1731.491,1128.536a.438.438,0,0,1-.123-.018l-41.227-11.881a.445.445,0,0,1-.178-.756l42.191-38.729a.446.446,0,0,1,.607,0l40.262,37.958a.445.445,0,0,1-.175.75l-41.227,12.652A.433.433,0,0,1,1731.491,1128.536ZM1691.15,1116l40.337,11.625,40.368-12.389-39.4-37.148Z" transform="translate(-1689.819 -1077.036)" fill="#2e186b"/>
        </g>
        <g id="Grupo_1115959" data-name="Grupo 1115959" transform="translate(181.484 2.903)">
          <g id="Grupo_1115958" data-name="Grupo 1115958">
            <g id="Grupo_1115947" data-name="Grupo 1115947">
              <g id="Grupo_1115946" data-name="Grupo 1115946">
                <g id="Grupo_1115945" data-name="Grupo 1115945">
                  <g id="Grupo_1115942" data-name="Grupo 1115942" transform="translate(4.582)">
                    <g id="Grupo_1115941" data-name="Grupo 1115941">
                      <rect id="Rectángulo_413148" data-name="Rectángulo 413148" width="44.991" height="40.282" transform="translate(0.445 0.445)" fill="#2e186b"/>
                      <path id="Trazado_928272" data-name="Trazado 928272" d="M3844.856,446.361h-44.991a.445.445,0,0,1-.445-.445V405.634a.445.445,0,0,1,.445-.445h44.991a.445.445,0,0,1,.445.445v40.282A.446.446,0,0,1,3844.856,446.361Zm-44.546-.891h44.1V406.079h-44.1Z" transform="translate(-3799.42 -405.189)" fill="#2e186b"/>
                    </g>
                  </g>
                  <g id="Grupo_1115943" data-name="Grupo 1115943" transform="translate(0.447 0.445)">
                    <rect id="Rectángulo_413149" data-name="Rectángulo 413149" width="44.991" height="40.282" fill="#fff"/>
                  </g>
                  <g id="Grupo_1115944" data-name="Grupo 1115944" transform="translate(0 0)">
                    <path id="Trazado_928273" data-name="Trazado 928273" d="M3759.916,446.363h-44.994a.445.445,0,0,1-.446-.445V431.949a.445.445,0,0,1,.891,0v13.524h44.1V406.079h-44.1v17.074a.445.445,0,1,1-.89,0v-17.52a.445.445,0,0,1,.445-.445h44.994a.445.445,0,0,1,.445.445v40.284A.445.445,0,0,1,3759.916,446.363Z" transform="translate(-3714.476 -405.189)" fill="#2e186b"/>
                  </g>
                </g>
              </g>
            </g>
            <g id="Grupo_1115955" data-name="Grupo 1115955" transform="translate(5.69 12.525)">
              <g id="Grupo_1115948" data-name="Grupo 1115948" transform="translate(9.569 9.837)">
                <path id="Trazado_928274" data-name="Trazado 928274" d="M4003.157,820.983V829.6a1.227,1.227,0,0,1-1.227,1.227h-3.347a1.227,1.227,0,0,1-1.227-1.227v-8.613a1.227,1.227,0,0,1,1.227-1.227h3.347A1.227,1.227,0,0,1,4003.157,820.983Z" transform="translate(-3997.355 -819.756)" fill="#9654ff"/>
              </g>
              <g id="Grupo_1115949" data-name="Grupo 1115949" transform="translate(19.136)">
                <path id="Trazado_928275" data-name="Trazado 928275" d="M4180.508,638.618v18.45a1.227,1.227,0,0,1-1.227,1.227h-3.35a1.226,1.226,0,0,1-1.227-1.227v-18.45a1.226,1.226,0,0,1,1.227-1.227h3.35A1.227,1.227,0,0,1,4180.508,638.618Z" transform="translate(-4174.705 -637.391)" fill="#9654ff"/>
              </g>
              <g id="Grupo_1115950" data-name="Grupo 1115950" transform="translate(0 4.235)">
                <path id="Trazado_928276" data-name="Trazado 928276" d="M3825.759,717.136V731.35a1.229,1.229,0,0,1-1.23,1.227h-3.347a1.227,1.227,0,0,1-1.227-1.227V717.136a1.227,1.227,0,0,1,1.227-1.227h3.347A1.229,1.229,0,0,1,3825.759,717.136Z" transform="translate(-3819.955 -715.909)" fill="#9654ff"/>
              </g>
              <g id="Grupo_1115954" data-name="Grupo 1115954" transform="translate(0 6.696)">
                <g id="Grupo_1115951" data-name="Grupo 1115951" transform="translate(9.569 9.837)">
                  <path id="Trazado_928277" data-name="Trazado 928277" d="M4003.157,945.117v1.917a1.227,1.227,0,0,1-1.227,1.227h-3.347a1.227,1.227,0,0,1-1.227-1.227v-1.917a1.227,1.227,0,0,1,1.227-1.227h3.347A1.227,1.227,0,0,1,4003.157,945.117Z" transform="translate(-3997.355 -943.89)" fill="#ff7af1"/>
                </g>
                <g id="Grupo_1115952" data-name="Grupo 1115952" transform="translate(19.136)">
                  <path id="Trazado_928278" data-name="Trazado 928278" d="M4180.508,762.753v11.754a1.227,1.227,0,0,1-1.227,1.227h-3.35a1.227,1.227,0,0,1-1.227-1.227V762.753a1.226,1.226,0,0,1,1.227-1.227h3.35A1.227,1.227,0,0,1,4180.508,762.753Z" transform="translate(-4174.705 -761.526)" fill="#ff7af1"/>
                </g>
                <g id="Grupo_1115953" data-name="Grupo 1115953" transform="translate(0 4.235)">
                  <path id="Trazado_928279" data-name="Trazado 928279" d="M3825.759,841.271v7.518a1.229,1.229,0,0,1-1.23,1.227h-3.347a1.227,1.227,0,0,1-1.227-1.227v-7.518a1.227,1.227,0,0,1,1.227-1.227h3.347A1.229,1.229,0,0,1,3825.759,841.271Z" transform="translate(-3819.955 -840.044)" fill="#ff7af1"/>
                </g>
              </g>
            </g>
            <g id="Grupo_1115956" data-name="Grupo 1115956" transform="translate(34.394 7.743)">
              <path id="Trazado_928280" data-name="Trazado 928280" d="M4357.905,549.969V573.2a1.226,1.226,0,0,1-1.227,1.227h-3.348a1.227,1.227,0,0,1-1.227-1.227V549.969a1.227,1.227,0,0,1,1.227-1.227h3.348A1.227,1.227,0,0,1,4357.905,549.969Z" transform="translate(-4352.104 -548.742)" fill="#9654ff"/>
            </g>
            <g id="Grupo_1115957" data-name="Grupo 1115957" transform="translate(34.394 14.439)">
              <path id="Trazado_928281" data-name="Trazado 928281" d="M4357.905,674.1v16.536a1.227,1.227,0,0,1-1.227,1.227h-3.348a1.227,1.227,0,0,1-1.227-1.227V674.1a1.227,1.227,0,0,1,1.227-1.227h3.348A1.226,1.226,0,0,1,4357.905,674.1Z" transform="translate(-4352.104 -672.876)" fill="#ff7af1"/>
            </g>
          </g>
        </g>
        <g id="Grupo_1115976" data-name="Grupo 1115976" transform="translate(100.522 26.169)">
          <g id="Grupo_1115963" data-name="Grupo 1115963" transform="translate(0)">
            <g id="Grupo_1115960" data-name="Grupo 1115960">
              <circle id="Elipse_14716" data-name="Elipse 14716" cx="9.489" cy="9.489" r="9.489" transform="translate(0 13.42) rotate(-45)" fill="#9654ff"/>
            </g>
            <g id="Grupo_1115961" data-name="Grupo 1115961" transform="translate(3.933 3.928)">
              <path id="Trazado_928282" data-name="Trazado 928282" d="M2303.788,913.471a9.49,9.49,0,0,0-14,12.565,9.49,9.49,0,1,1,14-12.565Z" transform="translate(-2286.463 -909.33)" fill="#fff"/>
            </g>
            <g id="Grupo_1115962" data-name="Grupo 1115962" transform="translate(3.486 3.485)">
              <path id="Trazado_928283" data-name="Trazado 928283" d="M2288.122,920.987a9.935,9.935,0,1,1,9.935-9.935A9.946,9.946,0,0,1,2288.122,920.987Zm0-18.979a9.044,9.044,0,1,0,9.044,9.044A9.054,9.054,0,0,0,2288.122,902.008Z" transform="translate(-2278.188 -901.118)" fill="#2e186b"/>
            </g>
          </g>
          <g id="Grupo_1115967" data-name="Grupo 1115967" transform="translate(0 25.306)">
            <g id="Grupo_1115964" data-name="Grupo 1115964">
              <circle id="Elipse_14717" data-name="Elipse 14717" cx="9.489" cy="9.489" r="9.489" transform="translate(0 13.42) rotate(-45)" fill="#9654ff"/>
            </g>
            <g id="Grupo_1115965" data-name="Grupo 1115965" transform="translate(3.933 3.928)">
              <path id="Trazado_928284" data-name="Trazado 928284" d="M2303.788,1382.613a9.49,9.49,0,0,0-14,12.565,9.49,9.49,0,1,1,14-12.565Z" transform="translate(-2286.463 -1378.472)" fill="#fff"/>
            </g>
            <g id="Grupo_1115966" data-name="Grupo 1115966" transform="translate(3.487 3.485)">
              <path id="Trazado_928285" data-name="Trazado 928285" d="M2288.122,1390.131a9.935,9.935,0,1,1,9.935-9.935A9.946,9.946,0,0,1,2288.122,1390.131Zm0-18.979a9.044,9.044,0,1,0,9.044,9.044A9.054,9.054,0,0,0,2288.122,1371.152Z" transform="translate(-2278.188 -1370.262)" fill="#2e186b"/>
            </g>
          </g>
          <g id="Grupo_1115971" data-name="Grupo 1115971" transform="translate(0 50.612)">
            <g id="Grupo_1115968" data-name="Grupo 1115968">
              <circle id="Elipse_14718" data-name="Elipse 14718" cx="9.489" cy="9.489" r="9.489" transform="translate(0 13.42) rotate(-45)" fill="#9654ff"/>
            </g>
            <g id="Grupo_1115969" data-name="Grupo 1115969" transform="translate(3.933 3.928)">
              <path id="Trazado_928286" data-name="Trazado 928286" d="M2303.788,1851.753a9.49,9.49,0,0,0-14,12.565,9.49,9.49,0,1,1,14-12.565Z" transform="translate(-2286.463 -1847.612)" fill="#fff"/>
            </g>
            <g id="Grupo_1115970" data-name="Grupo 1115970" transform="translate(3.487 3.486)">
              <path id="Trazado_928287" data-name="Trazado 928287" d="M2288.122,1859.271a9.935,9.935,0,1,1,9.935-9.934A9.946,9.946,0,0,1,2288.122,1859.271Zm0-18.979a9.044,9.044,0,1,0,9.044,9.044A9.054,9.054,0,0,0,2288.122,1840.292Z" transform="translate(-2278.188 -1839.402)" fill="#2e186b"/>
            </g>
          </g>
          <g id="Grupo_1115975" data-name="Grupo 1115975" transform="translate(3.487 79.403)">
            <g id="Grupo_1115972" data-name="Grupo 1115972" transform="translate(0.446 0.446)">
              <circle id="Elipse_14719" data-name="Elipse 14719" cx="9.489" cy="9.489" r="9.489" fill="#9654ff"/>
            </g>
            <g id="Grupo_1115973" data-name="Grupo 1115973" transform="translate(0.446 0.443)">
              <path id="Trazado_928288" data-name="Trazado 928288" d="M2303.788,2320.892a9.49,9.49,0,0,0-14,12.565,9.49,9.49,0,1,1,14-12.565Z" transform="translate(-2286.463 -2316.751)" fill="#fff"/>
            </g>
            <g id="Grupo_1115974" data-name="Grupo 1115974">
              <path id="Trazado_928289" data-name="Trazado 928289" d="M2288.122,2328.407a9.935,9.935,0,1,1,9.935-9.935A9.946,9.946,0,0,1,2288.122,2328.407Zm0-18.979a9.044,9.044,0,1,0,9.044,9.044A9.054,9.054,0,0,0,2288.122,2309.429Z" transform="translate(-2278.188 -2308.538)" fill="#2e186b"/>
            </g>
          </g>
        </g>
        <g id="Grupo_1115989" data-name="Grupo 1115989" transform="translate(59.258 42.307)">
          <g id="Grupo_1115980" data-name="Grupo 1115980" transform="translate(3.487)">
            <g id="Grupo_1115977" data-name="Grupo 1115977" transform="translate(0.445 0.445)">
              <circle id="Elipse_14720" data-name="Elipse 14720" cx="9.489" cy="9.489" r="9.489" fill="#9654ff"/>
            </g>
            <g id="Grupo_1115978" data-name="Grupo 1115978" transform="translate(0.447 0.443)">
              <path id="Trazado_928290" data-name="Trazado 928290" d="M1538.818,1148.042a9.49,9.49,0,0,0-14,12.565,9.49,9.49,0,1,1,14-12.565Z" transform="translate(-1521.493 -1143.901)" fill="#fff"/>
            </g>
            <g id="Grupo_1115979" data-name="Grupo 1115979">
              <path id="Trazado_928291" data-name="Trazado 928291" d="M1523.149,1155.557a9.935,9.935,0,1,1,9.934-9.935A9.946,9.946,0,0,1,1523.149,1155.557Zm0-18.979a9.044,9.044,0,1,0,9.044,9.044A9.054,9.054,0,0,0,1523.149,1136.578Z" transform="translate(-1513.214 -1135.688)" fill="#2e186b"/>
            </g>
          </g>
          <g id="Grupo_1115984" data-name="Grupo 1115984" transform="translate(0 21.82)">
            <g id="Grupo_1115981" data-name="Grupo 1115981">
              <circle id="Elipse_14721" data-name="Elipse 14721" cx="9.489" cy="9.489" r="9.489" transform="translate(0 13.42) rotate(-45)" fill="#9654ff"/>
            </g>
            <g id="Grupo_1115982" data-name="Grupo 1115982" transform="translate(3.933 3.929)">
              <path id="Trazado_928292" data-name="Trazado 928292" d="M1538.818,1617.182a9.49,9.49,0,0,0-14,12.565,9.49,9.49,0,1,1,14-12.565Z" transform="translate(-1521.493 -1613.041)" fill="#fff"/>
            </g>
            <g id="Grupo_1115983" data-name="Grupo 1115983" transform="translate(3.487 3.486)">
              <path id="Trazado_928293" data-name="Trazado 928293" d="M1523.149,1624.7a9.935,9.935,0,1,1,9.934-9.935A9.946,9.946,0,0,1,1523.149,1624.7Zm0-18.979a9.044,9.044,0,1,0,9.044,9.044A9.054,9.054,0,0,0,1523.149,1605.723Z" transform="translate(-1513.214 -1604.832)" fill="#2e186b"/>
            </g>
          </g>
          <g id="Grupo_1115988" data-name="Grupo 1115988" transform="translate(0 47.127)">
            <g id="Grupo_1115985" data-name="Grupo 1115985" transform="translate(0)">
              <circle id="Elipse_14722" data-name="Elipse 14722" cx="9.489" cy="9.489" r="9.489" transform="translate(0 13.42) rotate(-45)" fill="#9654ff"/>
            </g>
            <g id="Grupo_1115986" data-name="Grupo 1115986" transform="translate(3.933 3.928)">
              <path id="Trazado_928294" data-name="Trazado 928294" d="M1538.818,2086.323a9.49,9.49,0,0,0-14,12.565,9.491,9.491,0,1,1,14-12.565Z" transform="translate(-1521.493 -2082.182)" fill="#fff"/>
            </g>
            <g id="Grupo_1115987" data-name="Grupo 1115987" transform="translate(3.487 3.485)">
              <path id="Trazado_928295" data-name="Trazado 928295" d="M1523.149,2093.841a9.935,9.935,0,1,1,9.934-9.934A9.946,9.946,0,0,1,1523.149,2093.841Zm0-18.979a9.044,9.044,0,1,0,9.044,9.044A9.054,9.054,0,0,0,1523.149,2074.862Z" transform="translate(-1513.214 -2073.972)" fill="#2e186b"/>
            </g>
          </g>
        </g>
        <g id="Grupo_1116002" data-name="Grupo 1116002" transform="translate(141.748 42.307)">
          <g id="Grupo_1115993" data-name="Grupo 1115993" transform="translate(3.487)">
            <g id="Grupo_1115990" data-name="Grupo 1115990" transform="translate(0.446 0.445)">
              <circle id="Elipse_14723" data-name="Elipse 14723" cx="9.489" cy="9.489" r="9.489" fill="#9654ff"/>
            </g>
            <g id="Grupo_1115991" data-name="Grupo 1115991" transform="translate(0.447 0.443)">
              <path id="Trazado_928296" data-name="Trazado 928296" d="M3068.077,1148.042a9.49,9.49,0,0,0-14,12.565,9.49,9.49,0,1,1,14-12.565Z" transform="translate(-3050.752 -1143.901)" fill="#fff"/>
            </g>
            <g id="Grupo_1115992" data-name="Grupo 1115992">
              <path id="Trazado_928297" data-name="Trazado 928297" d="M3052.408,1155.557a9.935,9.935,0,1,1,9.935-9.935A9.946,9.946,0,0,1,3052.408,1155.557Zm0-18.979a9.044,9.044,0,1,0,9.044,9.044A9.054,9.054,0,0,0,3052.408,1136.578Z" transform="translate(-3042.474 -1135.688)" fill="#2e186b"/>
            </g>
          </g>
          <g id="Grupo_1115997" data-name="Grupo 1115997" transform="translate(0 21.821)">
            <g id="Grupo_1115994" data-name="Grupo 1115994">
              <circle id="Elipse_14724" data-name="Elipse 14724" cx="9.489" cy="9.489" r="9.489" transform="translate(0 13.42) rotate(-45)" fill="#9654ff"/>
            </g>
            <g id="Grupo_1115995" data-name="Grupo 1115995" transform="translate(3.933 3.928)">
              <path id="Trazado_928298" data-name="Trazado 928298" d="M3068.077,1617.182a9.49,9.49,0,0,0-14,12.565,9.49,9.49,0,1,1,14-12.565Z" transform="translate(-3050.752 -1613.041)" fill="#fff"/>
            </g>
            <g id="Grupo_1115996" data-name="Grupo 1115996" transform="translate(3.487 3.485)">
              <path id="Trazado_928299" data-name="Trazado 928299" d="M3052.408,1624.7a9.935,9.935,0,1,1,9.935-9.935A9.946,9.946,0,0,1,3052.408,1624.7Zm0-18.979a9.044,9.044,0,1,0,9.044,9.044A9.054,9.054,0,0,0,3052.408,1605.723Z" transform="translate(-3042.474 -1604.832)" fill="#2e186b"/>
            </g>
          </g>
          <g id="Grupo_1116001" data-name="Grupo 1116001" transform="translate(0 47.127)">
            <g id="Grupo_1115998" data-name="Grupo 1115998">
              <circle id="Elipse_14725" data-name="Elipse 14725" cx="9.489" cy="9.489" r="9.489" transform="translate(0 13.42) rotate(-45)" fill="#9654ff"/>
            </g>
            <g id="Grupo_1115999" data-name="Grupo 1115999" transform="translate(3.933 3.928)">
              <path id="Trazado_928300" data-name="Trazado 928300" d="M3068.077,2086.323a9.49,9.49,0,0,0-14,12.565,9.491,9.491,0,1,1,14-12.565Z" transform="translate(-3050.752 -2082.182)" fill="#fff"/>
            </g>
            <g id="Grupo_1116000" data-name="Grupo 1116000" transform="translate(3.487 3.485)">
              <path id="Trazado_928301" data-name="Trazado 928301" d="M3052.408,2093.841a9.935,9.935,0,1,1,9.935-9.934A9.946,9.946,0,0,1,3052.408,2093.841Zm0-18.979a9.044,9.044,0,1,0,9.044,9.044A9.054,9.054,0,0,0,3052.408,2074.862Z" transform="translate(-3042.474 -2073.972)" fill="#2e186b"/>
            </g>
          </g>
        </g>
      </g>
    </g>
  </g>
</svg>
