<svg xmlns="http://www.w3.org/2000/svg" xmlns:xlink="http://www.w3.org/1999/xlink" width="1028" height="427" viewBox="0 0 1028 427">
  <defs>
    <clipPath id="clip-path">
      <rect id="Rectángulo_413584" data-name="Rectángulo 413584" width="135.833" height="192.313" fill="none"/>
    </clipPath>
    <clipPath id="clip-path-3">
      <rect id="Rectángulo_413542" data-name="Rectángulo 413542" width="68.177" height="8.994" fill="none"/>
    </clipPath>
    <clipPath id="clip-path-4">
      <rect id="Rectángulo_413543" data-name="Rectángulo 413543" width="21.973" height="42.01" fill="none"/>
    </clipPath>
    <clipPath id="clip-path-5">
      <rect id="Rectángulo_413544" data-name="Rectángulo 413544" width="9.305" height="10.445" fill="none"/>
    </clipPath>
    <clipPath id="clip-path-6">
      <rect id="Rectángulo_413545" data-name="Rectángulo 413545" width="70.364" height="70.616" fill="none"/>
    </clipPath>
    <clipPath id="clip-path-7">
      <rect id="Rectángulo_413546" data-name="Rectángulo 413546" width="13.858" height="10.764" fill="none"/>
    </clipPath>
    <clipPath id="clip-path-8">
      <rect id="Rectángulo_413547" data-name="Rectángulo 413547" width="77.348" height="71.468" fill="none"/>
    </clipPath>
    <clipPath id="clip-path-9">
      <rect id="Rectángulo_413548" data-name="Rectángulo 413548" width="86.685" height="64.799" fill="none"/>
    </clipPath>
    <clipPath id="clip-path-10">
      <rect id="Rectángulo_413549" data-name="Rectángulo 413549" width="73.286" height="48.339" fill="none"/>
    </clipPath>
    <clipPath id="clip-path-11">
      <rect id="Rectángulo_413550" data-name="Rectángulo 413550" width="9.363" height="11.352" fill="none"/>
    </clipPath>
    <clipPath id="clip-path-12">
      <rect id="Rectángulo_413551" data-name="Rectángulo 413551" width="61.997" height="34.651" fill="none"/>
    </clipPath>
    <clipPath id="clip-path-13">
      <rect id="Rectángulo_413552" data-name="Rectángulo 413552" width="75.628" height="64.842" fill="none"/>
    </clipPath>
    <clipPath id="clip-path-14">
      <rect id="Rectángulo_413553" data-name="Rectángulo 413553" width="22.448" height="25.932" fill="none"/>
    </clipPath>
    <clipPath id="clip-path-15">
      <rect id="Rectángulo_413554" data-name="Rectángulo 413554" width="7.423" height="11.945" fill="none"/>
    </clipPath>
    <clipPath id="clip-path-16">
      <rect id="Rectángulo_413555" data-name="Rectángulo 413555" width="21.783" height="33.18" fill="none"/>
    </clipPath>
    <clipPath id="clip-path-17">
      <rect id="Rectángulo_413556" data-name="Rectángulo 413556" width="46.019" height="15.949" fill="none"/>
    </clipPath>
    <clipPath id="clip-path-18">
      <rect id="Rectángulo_413557" data-name="Rectángulo 413557" width="45.953" height="15.291" fill="none"/>
    </clipPath>
    <clipPath id="clip-path-19">
      <rect id="Rectángulo_413558" data-name="Rectángulo 413558" width="25.448" height="9.278" fill="none"/>
    </clipPath>
    <clipPath id="clip-path-20">
      <rect id="Rectángulo_413559" data-name="Rectángulo 413559" width="9.746" height="8.232" fill="none"/>
    </clipPath>
    <clipPath id="clip-path-21">
      <rect id="Rectángulo_413560" data-name="Rectángulo 413560" width="42.194" height="32.728" fill="none"/>
    </clipPath>
    <clipPath id="clip-path-22">
      <rect id="Rectángulo_413561" data-name="Rectángulo 413561" width="25.958" height="7.452" fill="none"/>
    </clipPath>
    <clipPath id="clip-path-23">
      <rect id="Rectángulo_413562" data-name="Rectángulo 413562" width="23.78" height="15.356" fill="none"/>
    </clipPath>
    <clipPath id="clip-path-24">
      <rect id="Rectángulo_413563" data-name="Rectángulo 413563" width="7.345" height="13.774" fill="none"/>
    </clipPath>
    <clipPath id="clip-path-25">
      <rect id="Rectángulo_413564" data-name="Rectángulo 413564" width="5.853" height="5.945" fill="none"/>
    </clipPath>
    <clipPath id="clip-path-26">
      <rect id="Rectángulo_413565" data-name="Rectángulo 413565" width="46.611" height="23.138" fill="none"/>
    </clipPath>
    <clipPath id="clip-path-27">
      <rect id="Rectángulo_413567" data-name="Rectángulo 413567" width="11.496" height="6.497" fill="none"/>
    </clipPath>
    <clipPath id="clip-path-28">
      <path id="Trazado_929812" data-name="Trazado 929812" d="M1177.389,2413.749c.205,1.618-2.2,3.256-5.366,3.658s-5.9-.584-6.109-2.2,3.075-3.736,6.244-4.137,5.026,1.064,5.231,2.682" transform="translate(-1165.905 -2410.999)" fill="none"/>
    </clipPath>
    <linearGradient id="linear-gradient" x1="-4.795" y1="4.586" x2="-4.791" y2="4.586" gradientUnits="objectBoundingBox">
      <stop offset="0" stop-color="#fff"/>
      <stop offset="1" stop-color="#f1f2f2"/>
    </linearGradient>
    <clipPath id="clip-path-29">
      <rect id="Rectángulo_413568" data-name="Rectángulo 413568" width="4.797" height="4.677" fill="none"/>
    </clipPath>
    <clipPath id="clip-path-30">
      <rect id="Rectángulo_413569" data-name="Rectángulo 413569" width="10.5" height="10.96" fill="none"/>
    </clipPath>
    <clipPath id="clip-path-31">
      <rect id="Rectángulo_413570" data-name="Rectángulo 413570" width="12.98" height="38.449" fill="none"/>
    </clipPath>
    <clipPath id="clip-path-32">
      <rect id="Rectángulo_413571" data-name="Rectángulo 413571" width="27.93" height="29.071" fill="none"/>
    </clipPath>
    <clipPath id="clip-path-33">
      <rect id="Rectángulo_413572" data-name="Rectángulo 413572" width="16.228" height="21.376" fill="none"/>
    </clipPath>
    <clipPath id="clip-path-34">
      <rect id="Rectángulo_413573" data-name="Rectángulo 413573" width="37.691" height="14.657" fill="none"/>
    </clipPath>
    <clipPath id="clip-path-35">
      <rect id="Rectángulo_413574" data-name="Rectángulo 413574" width="23.139" height="12.925" fill="none"/>
    </clipPath>
    <clipPath id="clip-path-36">
      <rect id="Rectángulo_413575" data-name="Rectángulo 413575" width="16.134" height="19.517" fill="none"/>
    </clipPath>
    <clipPath id="clip-path-37">
      <rect id="Rectángulo_413576" data-name="Rectángulo 413576" width="18.637" height="11.941" fill="none"/>
    </clipPath>
    <clipPath id="clip-path-38">
      <rect id="Rectángulo_413577" data-name="Rectángulo 413577" width="26.389" height="15.942" fill="none"/>
    </clipPath>
    <clipPath id="clip-path-39">
      <rect id="Rectángulo_413578" data-name="Rectángulo 413578" width="26.153" height="13.894" fill="none"/>
    </clipPath>
    <clipPath id="clip-path-40">
      <rect id="Rectángulo_413580" data-name="Rectángulo 413580" width="42.912" height="42.912" fill="none"/>
    </clipPath>
    <clipPath id="clip-path-41">
      <path id="Trazado_929842" data-name="Trazado 929842" d="M693.841,420.543A21.456,21.456,0,1,1,672.385,442a21.456,21.456,0,0,1,21.456-21.456" transform="translate(-672.385 -420.543)" fill="none"/>
    </clipPath>
    <radialGradient id="radial-gradient" cx="-0.909" cy="3.913" r="0.001" gradientTransform="translate(0)" gradientUnits="objectBoundingBox">
      <stop offset="0" stop-color="#299adf"/>
      <stop offset="1" stop-color="#299adf"/>
    </radialGradient>
    <clipPath id="clip-path-43">
      <path id="Trazado_929843" data-name="Trazado 929843" d="M1257.839,612.547A21.456,21.456,0,1,1,1236.383,634a21.456,21.456,0,0,1,21.456-21.456" transform="translate(-1236.383 -612.547)" fill="none"/>
    </clipPath>
    <radialGradient id="radial-gradient-2" cx="-1.672" cy="3.653" r="0.001" xlink:href="#radial-gradient"/>
  </defs>
  <g id="Grupo_1116224" data-name="Grupo 1116224" transform="translate(-286 -1724.52)">
    <rect id="Rectángulo_412809" data-name="Rectángulo 412809" width="1028" height="427" rx="20" transform="translate(1314 2151.52) rotate(180)" fill="#dcd8f2"/>
    <g id="Rectángulo_412817" data-name="Rectángulo 412817" transform="translate(494.684 1781)" fill="none" stroke="#707070" stroke-width="1" stroke-dasharray="3 3">
      <rect width="49.364" height="269.637" stroke="none"/>
      <rect x="0.5" y="0.5" width="48.364" height="268.637" fill="none"/>
    </g>
    <g id="Rectángulo_412818" data-name="Rectángulo 412818" transform="translate(1105.32 2050) rotate(90)" fill="none" stroke="#707070" stroke-width="1" stroke-dasharray="3 3">
      <rect width="45" height="560.636" stroke="none"/>
      <rect x="0.5" y="0.5" width="44" height="559.636" fill="none"/>
    </g>
    <rect id="Rectángulo_412813" data-name="Rectángulo 412813" width="280.254" height="134.818" transform="translate(544.684 1781.364)" fill="#80d477"/>
    <rect id="Rectángulo_412816" data-name="Rectángulo 412816" width="280.254" height="134.818" transform="translate(824.684 1916.183)" fill="#80d477"/>
    <rect id="Rectángulo_412814" data-name="Rectángulo 412814" width="280.254" height="134.818" transform="translate(544.364 1916.183)" fill="#eb8181"/>
    <rect id="Rectángulo_412815" data-name="Rectángulo 412815" width="280.254" height="134.818" transform="translate(824.684 1781.364)" fill="#eb8181"/>
    <path id="Trazado_929863" data-name="Trazado 929863" d="M42.819,13.52,45.368,4.2h3.445L44.507,17H41.132L36.86,4.2h3.419ZM54.562,17a3.344,3.344,0,0,1-.281-.853A2.754,2.754,0,0,1,52,17.176a3.374,3.374,0,0,1-2.285-.813,2.588,2.588,0,0,1-.94-2.043,2.66,2.66,0,0,1,1.143-2.338,5.821,5.821,0,0,1,3.322-.791h.914v-.5q0-1.316-1.134-1.316a.927.927,0,0,0-1.055,1.042H49a2.655,2.655,0,0,1,1.173-2.239,4.931,4.931,0,0,1,2.993-.86,4.323,4.323,0,0,1,2.874.888,3.086,3.086,0,0,1,1.081,2.435v4.21a4.311,4.311,0,0,0,.4,2V17Zm-1.854-1.934a1.652,1.652,0,0,0,.918-.237,1.487,1.487,0,0,0,.523-.536V12.772h-.861q-1.547,0-1.547,1.389a.848.848,0,0,0,.272.655A.986.986,0,0,0,52.707,15.066ZM61.883,17H58.912V3.5h2.971Zm1.45-4.843a5.613,5.613,0,0,1,.554-2.536,3.96,3.96,0,0,1,1.591-1.709,4.791,4.791,0,0,1,2.435-.6,4.373,4.373,0,0,1,3.366,1.323,5.076,5.076,0,0,1,1.23,3.6v.105a4.925,4.925,0,0,1-1.235,3.529,4.384,4.384,0,0,1-3.344,1.305,4.434,4.434,0,0,1-3.261-1.217,4.761,4.761,0,0,1-1.327-3.3Zm2.962.185a3.538,3.538,0,0,0,.413,1.934,1.376,1.376,0,0,0,1.222.615q1.582,0,1.617-2.435v-.3q0-2.558-1.635-2.558-1.485,0-1.608,2.206Zm13.271-2.171-.976-.07a1.752,1.752,0,0,0-1.793.879V17H73.836V7.49h2.777l.1,1.222a2.294,2.294,0,0,1,2.083-1.4,2.888,2.888,0,0,1,.826.105Zm5.5,7a4.889,4.889,0,0,1-3.542-1.305,4.507,4.507,0,0,1-1.354-3.4v-.246a5.84,5.84,0,0,1,.541-2.575,3.955,3.955,0,0,1,1.578-1.727,4.763,4.763,0,0,1,2.461-.611,4.117,4.117,0,0,1,3.164,1.244,4.887,4.887,0,0,1,1.16,3.467v1.151H83.188a2.135,2.135,0,0,0,.694,1.257,2.066,2.066,0,0,0,1.389.457,2.662,2.662,0,0,0,2.2-.984l1.354,1.6a3.784,3.784,0,0,1-1.569,1.217A5.3,5.3,0,0,1,85.068,17.176ZM84.734,9.6q-1.3,0-1.547,1.723h2.988v-.229a1.467,1.467,0,0,0-.36-1.1A1.434,1.434,0,0,0,84.734,9.6Zm10.512,4.729a.684.684,0,0,0-.4-.606,6.016,6.016,0,0,0-1.5-.475A6.853,6.853,0,0,1,91.52,12.6a3.062,3.062,0,0,1-1.1-.971,2.319,2.319,0,0,1-.378-1.31,2.628,2.628,0,0,1,1.081-2.158,4.453,4.453,0,0,1,2.83-.848,4.934,4.934,0,0,1,3.023.853,2.666,2.666,0,0,1,1.143,2.241H95.149q0-1.143-1.2-1.143a1.194,1.194,0,0,0-.782.259.8.8,0,0,0-.316.646.737.737,0,0,0,.387.642,3.654,3.654,0,0,0,1.235.4,10.671,10.671,0,0,1,1.49.378A2.706,2.706,0,0,1,98.1,14.24a2.491,2.491,0,0,1-1.156,2.118,5.068,5.068,0,0,1-2.993.817,5.172,5.172,0,0,1-2.18-.439,3.645,3.645,0,0,1-1.494-1.2,2.707,2.707,0,0,1-.536-1.591h2.769a1.145,1.145,0,0,0,.439.962,1.808,1.808,0,0,0,1.081.3,1.422,1.422,0,0,0,.91-.246A.787.787,0,0,0,95.246,14.328Zm14.476-4.157-.976-.07a1.752,1.752,0,0,0-1.793.879V17h-2.962V7.49h2.777l.1,1.222a2.294,2.294,0,0,1,2.083-1.4,2.888,2.888,0,0,1,.826.105Zm5.5,7a4.889,4.889,0,0,1-3.542-1.305,4.507,4.507,0,0,1-1.354-3.4v-.246a5.84,5.84,0,0,1,.541-2.575,3.955,3.955,0,0,1,1.578-1.727,4.763,4.763,0,0,1,2.461-.611,4.117,4.117,0,0,1,3.164,1.244,4.887,4.887,0,0,1,1.16,3.467v1.151h-5.889a2.135,2.135,0,0,0,.694,1.257,2.066,2.066,0,0,0,1.389.457,2.662,2.662,0,0,0,2.2-.984l1.354,1.6a3.784,3.784,0,0,1-1.569,1.217A5.3,5.3,0,0,1,115.224,17.176ZM114.89,9.6q-1.3,0-1.547,1.723h2.988v-.229a1.467,1.467,0,0,0-.36-1.1A1.434,1.434,0,0,0,114.89,9.6Zm10.89,7.4a3.344,3.344,0,0,1-.281-.853,2.754,2.754,0,0,1-2.285,1.028,3.374,3.374,0,0,1-2.285-.813,2.588,2.588,0,0,1-.94-2.043,2.66,2.66,0,0,1,1.143-2.338,5.821,5.821,0,0,1,3.322-.791h.914v-.5q0-1.316-1.134-1.316a.927.927,0,0,0-1.055,1.042h-2.962a2.655,2.655,0,0,1,1.173-2.239,4.931,4.931,0,0,1,2.993-.86,4.323,4.323,0,0,1,2.874.888,3.086,3.086,0,0,1,1.081,2.435v4.21a4.311,4.311,0,0,0,.4,2V17Zm-1.854-1.934a1.652,1.652,0,0,0,.918-.237,1.487,1.487,0,0,0,.523-.536V12.772H124.5q-1.547,0-1.547,1.389a.848.848,0,0,0,.272.655A.986.986,0,0,0,123.925,15.066ZM133.1,17H130.13V3.5H133.1Zm6.425.176a4.889,4.889,0,0,1-3.542-1.305,4.507,4.507,0,0,1-1.354-3.4v-.246a5.84,5.84,0,0,1,.541-2.575,3.955,3.955,0,0,1,1.578-1.727,4.763,4.763,0,0,1,2.461-.611,4.117,4.117,0,0,1,3.164,1.244,4.887,4.887,0,0,1,1.16,3.467v1.151h-5.889a2.135,2.135,0,0,0,.694,1.257,2.066,2.066,0,0,0,1.389.457,2.662,2.662,0,0,0,2.2-.984l1.354,1.6a3.784,3.784,0,0,1-1.569,1.217A5.3,5.3,0,0,1,139.525,17.176ZM139.191,9.6q-1.3,0-1.547,1.723h2.988v-.229a1.467,1.467,0,0,0-.36-1.1A1.434,1.434,0,0,0,139.191,9.6ZM149.7,14.328a.684.684,0,0,0-.4-.606,6.016,6.016,0,0,0-1.5-.475,6.853,6.853,0,0,1-1.828-.646,3.062,3.062,0,0,1-1.1-.971,2.319,2.319,0,0,1-.378-1.31,2.628,2.628,0,0,1,1.081-2.158,4.453,4.453,0,0,1,2.83-.848,4.934,4.934,0,0,1,3.023.853,2.666,2.666,0,0,1,1.143,2.241h-2.971q0-1.143-1.2-1.143a1.194,1.194,0,0,0-.782.259.8.8,0,0,0-.316.646.737.737,0,0,0,.387.642,3.654,3.654,0,0,0,1.235.4,10.671,10.671,0,0,1,1.49.378,2.706,2.706,0,0,1,2.145,2.646,2.491,2.491,0,0,1-1.156,2.118,5.068,5.068,0,0,1-2.993.817,5.172,5.172,0,0,1-2.18-.439,3.645,3.645,0,0,1-1.494-1.2,2.707,2.707,0,0,1-.536-1.591h2.769a1.145,1.145,0,0,0,.439.962,1.808,1.808,0,0,0,1.081.3,1.422,1.422,0,0,0,.91-.246A.787.787,0,0,0,149.7,14.328Z" transform="translate(729.684 2062)" fill="#12263f"/>
    <path id="Trazado_929865" data-name="Trazado 929865" d="M13.089,15.133,15.921,4.781h3.828L14.964,19h-3.75L6.468,4.781h3.8ZM25.315,19.2a5.432,5.432,0,0,1-3.936-1.45,5.008,5.008,0,0,1-1.5-3.774V13.7a6.489,6.489,0,0,1,.6-2.861,4.395,4.395,0,0,1,1.753-1.919,5.292,5.292,0,0,1,2.734-.679A4.574,4.574,0,0,1,28.479,9.62a5.43,5.43,0,0,1,1.289,3.853v1.279H23.226a2.372,2.372,0,0,0,.771,1.4,2.3,2.3,0,0,0,1.543.508,2.958,2.958,0,0,0,2.441-1.094l1.5,1.777a4.2,4.2,0,0,1-1.743,1.353A5.891,5.891,0,0,1,25.315,19.2Zm-.371-8.418q-1.445,0-1.719,1.914h3.32v-.254a1.63,1.63,0,0,0-.4-1.226A1.593,1.593,0,0,0,24.944,10.777Zm12.539.635L36.4,11.334a1.947,1.947,0,0,0-1.992.977V19H31.116V8.434H34.2l.107,1.357a2.548,2.548,0,0,1,2.314-1.553,3.209,3.209,0,0,1,.918.117Zm.586,2.227a6.455,6.455,0,0,1,1.084-3.955,3.568,3.568,0,0,1,3.027-1.445,3.035,3.035,0,0,1,2.383,1.113V4h3.3V19H44.905l-.166-1.133A3.116,3.116,0,0,1,42.161,19.2a3.562,3.562,0,0,1-2.988-1.445A6.659,6.659,0,0,1,38.069,13.639Zm3.291.205q0,2.813,1.641,2.813a1.62,1.62,0,0,0,1.563-.918V11.715a1.576,1.576,0,0,0-1.543-.937q-1.523,0-1.65,2.461ZM55.687,19a3.716,3.716,0,0,1-.312-.947A3.06,3.06,0,0,1,52.835,19.2a3.749,3.749,0,0,1-2.539-.9,2.875,2.875,0,0,1-1.045-2.271,2.955,2.955,0,0,1,1.27-2.6,6.468,6.468,0,0,1,3.691-.879h1.016v-.559q0-1.462-1.26-1.462A1.03,1.03,0,0,0,52.8,11.681H49.5a2.95,2.95,0,0,1,1.3-2.487,5.479,5.479,0,0,1,3.325-.956,4.8,4.8,0,0,1,3.193.986,3.429,3.429,0,0,1,1.2,2.705v4.678a4.79,4.79,0,0,0,.449,2.227V19Zm-2.061-2.148a1.836,1.836,0,0,0,1.021-.264,1.653,1.653,0,0,0,.581-.6V14.3h-.957q-1.719,0-1.719,1.543a.942.942,0,0,0,.3.728A1.1,1.1,0,0,0,53.626,16.852Zm6.309-3.213a6.455,6.455,0,0,1,1.084-3.955,3.568,3.568,0,0,1,3.027-1.445,3.035,3.035,0,0,1,2.383,1.113V4h3.3V19H66.771L66.6,17.867A3.116,3.116,0,0,1,64.026,19.2a3.562,3.562,0,0,1-2.988-1.445A6.659,6.659,0,0,1,59.935,13.639Zm3.291.205q0,2.813,1.641,2.813a1.62,1.62,0,0,0,1.563-.918V11.715a1.576,1.576,0,0,0-1.543-.937q-1.523,0-1.65,2.461ZM76.712,19.2a5.432,5.432,0,0,1-3.936-1.45,5.008,5.008,0,0,1-1.5-3.774V13.7a6.489,6.489,0,0,1,.6-2.861,4.395,4.395,0,0,1,1.753-1.919,5.292,5.292,0,0,1,2.734-.679A4.574,4.574,0,0,1,79.876,9.62a5.43,5.43,0,0,1,1.289,3.853v1.279H74.622a2.372,2.372,0,0,0,.771,1.4,2.3,2.3,0,0,0,1.543.508,2.958,2.958,0,0,0,2.441-1.094l1.5,1.777a4.2,4.2,0,0,1-1.743,1.353A5.891,5.891,0,0,1,76.712,19.2Zm-.371-8.418q-1.445,0-1.719,1.914h3.32v-.254a1.63,1.63,0,0,0-.4-1.226A1.593,1.593,0,0,0,76.341,10.777Zm12.539.635L87.8,11.334a1.947,1.947,0,0,0-1.992.977V19H82.513V8.434H85.6l.107,1.357a2.548,2.548,0,0,1,2.314-1.553,3.209,3.209,0,0,1,.918.117Zm.42,2.207a6.236,6.236,0,0,1,.615-2.817,4.4,4.4,0,0,1,1.768-1.9,5.323,5.323,0,0,1,2.705-.664,4.858,4.858,0,0,1,3.74,1.47,5.64,5.64,0,0,1,1.367,4v.117a5.472,5.472,0,0,1-1.372,3.921,4.871,4.871,0,0,1-3.716,1.45,4.927,4.927,0,0,1-3.623-1.353,5.29,5.29,0,0,1-1.475-3.667Zm3.291.205a3.932,3.932,0,0,0,.459,2.148,1.529,1.529,0,0,0,1.357.684q1.758,0,1.8-2.705v-.332q0-2.842-1.816-2.842-1.65,0-1.787,2.451Zm13.887,2.207a.76.76,0,0,0-.439-.674,6.685,6.685,0,0,0-1.67-.527,7.615,7.615,0,0,1-2.031-.718,3.4,3.4,0,0,1-1.221-1.079,2.577,2.577,0,0,1-.42-1.455,2.92,2.92,0,0,1,1.2-2.4,4.948,4.948,0,0,1,3.145-.942,5.482,5.482,0,0,1,3.359.947,2.962,2.962,0,0,1,1.27,2.49h-3.3q0-1.27-1.338-1.27a1.326,1.326,0,0,0-.869.288.892.892,0,0,0-.352.718.819.819,0,0,0,.43.713,4.06,4.06,0,0,0,1.372.449,11.857,11.857,0,0,1,1.655.42,3.007,3.007,0,0,1,2.383,2.939,2.767,2.767,0,0,1-1.284,2.354,5.631,5.631,0,0,1-3.325.908,5.747,5.747,0,0,1-2.422-.488,4.05,4.05,0,0,1-1.66-1.328,3.007,3.007,0,0,1-.6-1.768h3.076a1.272,1.272,0,0,0,.488,1.069,2.009,2.009,0,0,0,1.2.337,1.58,1.58,0,0,0,1.011-.273A.875.875,0,0,0,106.478,16.031Zm19.5-2.236a6.372,6.372,0,0,1-1.108,3.931,3.554,3.554,0,0,1-2.993,1.47,3.046,3.046,0,0,1-2.393-1.064v4.932h-3.291V8.434h3.076l.1.977a3.046,3.046,0,0,1,2.49-1.172,3.582,3.582,0,0,1,3.037,1.44,6.45,6.45,0,0,1,1.084,3.96Zm-3.291-.205q0-2.812-1.641-2.812a1.549,1.549,0,0,0-1.562.84v4.16a1.6,1.6,0,0,0,1.582.879q1.572,0,1.621-2.715Zm4.326.029a6.236,6.236,0,0,1,.615-2.817A4.4,4.4,0,0,1,129.4,8.9a5.323,5.323,0,0,1,2.705-.664,4.858,4.858,0,0,1,3.74,1.47,5.64,5.64,0,0,1,1.367,4v.117a5.472,5.472,0,0,1-1.372,3.921,4.871,4.871,0,0,1-3.716,1.45,4.927,4.927,0,0,1-3.623-1.353,5.29,5.29,0,0,1-1.475-3.667Zm3.291.205a3.932,3.932,0,0,0,.459,2.148,1.529,1.529,0,0,0,1.357.684q1.758,0,1.8-2.705v-.332q0-2.842-1.816-2.842-1.65,0-1.787,2.451Zm13.887,2.207a.76.76,0,0,0-.439-.674,6.685,6.685,0,0,0-1.67-.527,7.615,7.615,0,0,1-2.031-.718,3.4,3.4,0,0,1-1.221-1.079,2.577,2.577,0,0,1-.42-1.455,2.92,2.92,0,0,1,1.2-2.4,4.948,4.948,0,0,1,3.145-.942,5.482,5.482,0,0,1,3.359.947,2.962,2.962,0,0,1,1.27,2.49h-3.3q0-1.27-1.338-1.27a1.326,1.326,0,0,0-.869.288.892.892,0,0,0-.352.718.819.819,0,0,0,.43.713,4.06,4.06,0,0,0,1.372.449,11.857,11.857,0,0,1,1.655.42,3.007,3.007,0,0,1,2.383,2.939,2.767,2.767,0,0,1-1.284,2.354,5.632,5.632,0,0,1-3.325.908,5.747,5.747,0,0,1-2.422-.488,4.05,4.05,0,0,1-1.66-1.328,3.007,3.007,0,0,1-.6-1.768h3.076a1.272,1.272,0,0,0,.488,1.069,2.009,2.009,0,0,0,1.2.337,1.58,1.58,0,0,0,1.011-.273A.875.875,0,0,0,144.192,16.031ZM152.376,19h-3.3V8.434h3.3Zm-3.5-13.291a1.469,1.469,0,0,1,.508-1.152,2.159,2.159,0,0,1,2.637,0,1.469,1.469,0,0,1,.508,1.152,1.469,1.469,0,0,1-.508,1.152,2.159,2.159,0,0,1-2.637,0A1.469,1.469,0,0,1,148.88,5.709Zm9.355.1V8.434h1.738v2.285h-1.738v4.834a1.234,1.234,0,0,0,.215.83,1.152,1.152,0,0,0,.85.234,4.828,4.828,0,0,0,.82-.059v2.354a6.074,6.074,0,0,1-1.855.283,3.448,3.448,0,0,1-2.51-.8,3.282,3.282,0,0,1-.811-2.432V10.719H153.6V8.434h1.348V5.807ZM164.739,19h-3.3V8.434h3.3Zm-3.5-13.291a1.469,1.469,0,0,1,.508-1.152,2.159,2.159,0,0,1,2.637,0,1.469,1.469,0,0,1,.508,1.152,1.469,1.469,0,0,1-.508,1.152,2.159,2.159,0,0,1-2.637,0A1.469,1.469,0,0,1,161.243,5.709Zm9.736,9.375,1.67-6.65h3.467L172.669,19H169.31L165.862,8.434h3.477Zm5.557-1.465a6.236,6.236,0,0,1,.615-2.817,4.4,4.4,0,0,1,1.768-1.9,5.323,5.323,0,0,1,2.705-.664,4.858,4.858,0,0,1,3.74,1.47,5.64,5.64,0,0,1,1.367,4v.117a5.472,5.472,0,0,1-1.372,3.921,4.871,4.871,0,0,1-3.716,1.45,4.927,4.927,0,0,1-3.623-1.353,5.29,5.29,0,0,1-1.475-3.667Zm3.291.205a3.932,3.932,0,0,0,.459,2.148,1.529,1.529,0,0,0,1.357.684q1.758,0,1.8-2.705v-.332q0-2.842-1.816-2.842-1.65,0-1.787,2.451Zm13.887,2.207a.76.76,0,0,0-.439-.674,6.685,6.685,0,0,0-1.67-.527,7.615,7.615,0,0,1-2.031-.718,3.4,3.4,0,0,1-1.221-1.079,2.577,2.577,0,0,1-.42-1.455,2.92,2.92,0,0,1,1.2-2.4,4.948,4.948,0,0,1,3.145-.942,5.482,5.482,0,0,1,3.359.947,2.962,2.962,0,0,1,1.27,2.49h-3.3q0-1.27-1.338-1.27a1.326,1.326,0,0,0-.869.288.892.892,0,0,0-.352.718.819.819,0,0,0,.43.713,4.06,4.06,0,0,0,1.372.449,11.857,11.857,0,0,1,1.655.42,3.007,3.007,0,0,1,2.383,2.939,2.767,2.767,0,0,1-1.284,2.354,5.632,5.632,0,0,1-3.325.908,5.747,5.747,0,0,1-2.422-.488,4.05,4.05,0,0,1-1.66-1.328,3.007,3.007,0,0,1-.6-1.768h3.076a1.272,1.272,0,0,0,.488,1.069,2.009,2.009,0,0,0,1.2.337,1.58,1.58,0,0,0,1.011-.273A.875.875,0,0,0,193.714,16.031Z" transform="translate(582.684 1808.001)" fill="#360742"/>
    <path id="Trazado_929864" data-name="Trazado 929864" d="M36.165,13.336H30.638V19H27.21V4.781h9.512V7.428H30.638V10.7h5.527ZM43.616,19a3.716,3.716,0,0,1-.312-.947A3.06,3.06,0,0,1,40.765,19.2a3.749,3.749,0,0,1-2.539-.9,2.875,2.875,0,0,1-1.045-2.271,2.955,2.955,0,0,1,1.27-2.6,6.468,6.468,0,0,1,3.691-.879h1.016v-.559q0-1.462-1.26-1.462a1.03,1.03,0,0,0-1.172,1.158H37.435a2.95,2.95,0,0,1,1.3-2.487,5.479,5.479,0,0,1,3.325-.956,4.8,4.8,0,0,1,3.193.986,3.429,3.429,0,0,1,1.2,2.705v4.678a4.79,4.79,0,0,0,.449,2.227V19Zm-2.061-2.148a1.836,1.836,0,0,0,1.021-.264,1.653,1.653,0,0,0,.581-.6V14.3H42.2q-1.719,0-1.719,1.543a.942.942,0,0,0,.3.728A1.1,1.1,0,0,0,41.556,16.852ZM51.751,19h-3.3V4h3.3Zm7.559-2.969a.76.76,0,0,0-.439-.674,6.685,6.685,0,0,0-1.67-.527,7.615,7.615,0,0,1-2.031-.718,3.4,3.4,0,0,1-1.221-1.079,2.577,2.577,0,0,1-.42-1.455,2.92,2.92,0,0,1,1.2-2.4,4.948,4.948,0,0,1,3.145-.942,5.482,5.482,0,0,1,3.359.947,2.962,2.962,0,0,1,1.27,2.49H59.2q0-1.27-1.338-1.27a1.326,1.326,0,0,0-.869.288.892.892,0,0,0-.352.718.819.819,0,0,0,.43.713,4.06,4.06,0,0,0,1.372.449,11.857,11.857,0,0,1,1.655.42,3.007,3.007,0,0,1,2.383,2.939A2.767,2.767,0,0,1,61.2,18.287a5.632,5.632,0,0,1-3.325.908,5.747,5.747,0,0,1-2.422-.488,4.05,4.05,0,0,1-1.66-1.328,3.007,3.007,0,0,1-.6-1.768h3.076a1.272,1.272,0,0,0,.488,1.069,2.009,2.009,0,0,0,1.2.337,1.58,1.58,0,0,0,1.011-.273A.875.875,0,0,0,59.31,16.031Zm4.3-2.412a6.236,6.236,0,0,1,.615-2.817,4.4,4.4,0,0,1,1.768-1.9,5.323,5.323,0,0,1,2.705-.664,4.858,4.858,0,0,1,3.74,1.47,5.64,5.64,0,0,1,1.367,4v.117a5.472,5.472,0,0,1-1.372,3.921,4.871,4.871,0,0,1-3.716,1.45,4.927,4.927,0,0,1-3.623-1.353,5.29,5.29,0,0,1-1.475-3.667Zm3.291.205a3.932,3.932,0,0,0,.459,2.148,1.529,1.529,0,0,0,1.357.684q1.758,0,1.8-2.705v-.332q0-2.842-1.816-2.842-1.65,0-1.787,2.451Zm13.887,2.207a.76.76,0,0,0-.439-.674,6.685,6.685,0,0,0-1.67-.527,7.615,7.615,0,0,1-2.031-.718,3.4,3.4,0,0,1-1.221-1.079A2.577,2.577,0,0,1,75,11.578a2.92,2.92,0,0,1,1.2-2.4,4.948,4.948,0,0,1,3.145-.942,5.482,5.482,0,0,1,3.359.947,2.962,2.962,0,0,1,1.27,2.49h-3.3q0-1.27-1.338-1.27a1.326,1.326,0,0,0-.869.288.892.892,0,0,0-.352.718.819.819,0,0,0,.43.713,4.06,4.06,0,0,0,1.372.449,11.857,11.857,0,0,1,1.655.42,3.007,3.007,0,0,1,2.383,2.939,2.767,2.767,0,0,1-1.284,2.354,5.631,5.631,0,0,1-3.325.908,5.747,5.747,0,0,1-2.422-.488,4.05,4.05,0,0,1-1.66-1.328,3.007,3.007,0,0,1-.6-1.768h3.076a1.272,1.272,0,0,0,.488,1.069,2.009,2.009,0,0,0,1.2.337,1.58,1.58,0,0,0,1.011-.273A.875.875,0,0,0,80.784,16.031ZM93.5,8.434l.107,1.24a3.583,3.583,0,0,1,3.018-1.436,3.015,3.015,0,0,1,2.466.986,4.7,4.7,0,0,1,.845,2.969V19h-3.3V12.33a1.783,1.783,0,0,0-.322-1.177,1.491,1.491,0,0,0-1.172-.376,1.569,1.569,0,0,0-1.436.762V19H90.413V8.434ZM106.868,19.2a5.432,5.432,0,0,1-3.936-1.45,5.008,5.008,0,0,1-1.5-3.774V13.7a6.489,6.489,0,0,1,.6-2.861,4.395,4.395,0,0,1,1.753-1.919,5.292,5.292,0,0,1,2.734-.679,4.574,4.574,0,0,1,3.516,1.382,5.43,5.43,0,0,1,1.289,3.853v1.279h-6.543a2.372,2.372,0,0,0,.771,1.4,2.3,2.3,0,0,0,1.543.508,2.958,2.958,0,0,0,2.441-1.094l1.5,1.777a4.2,4.2,0,0,1-1.743,1.353A5.891,5.891,0,0,1,106.868,19.2Zm-.371-8.418q-1.445,0-1.719,1.914h3.32v-.254a1.63,1.63,0,0,0-.4-1.226A1.593,1.593,0,0,0,106.5,10.777Zm5.762,2.861a7.134,7.134,0,0,1,.527-2.832,4.245,4.245,0,0,1,1.514-1.9,3.99,3.99,0,0,1,2.295-.669,3.173,3.173,0,0,1,2.578,1.113l.117-.918h2.988V18.6a4.455,4.455,0,0,1-.649,2.427,4.167,4.167,0,0,1-1.88,1.582,6.91,6.91,0,0,1-2.852.552,5.961,5.961,0,0,1-2.251-.439,4.063,4.063,0,0,1-1.665-1.143l1.377-1.934a3.018,3.018,0,0,0,2.422,1.084,1.96,1.96,0,0,0,2.188-2.246V18.15a3.09,3.09,0,0,1-2.393,1.045,3.819,3.819,0,0,1-3.125-1.479,6.13,6.13,0,0,1-1.191-3.96Zm3.3.205a3.759,3.759,0,0,0,.488,2.056,1.541,1.541,0,0,0,1.367.757,1.748,1.748,0,0,0,1.553-.713V11.5a1.7,1.7,0,0,0-1.533-.723,1.551,1.551,0,0,0-1.377.786A4.287,4.287,0,0,0,115.56,13.844ZM130.1,19a3.716,3.716,0,0,1-.312-.947,3.06,3.06,0,0,1-2.539,1.143,3.749,3.749,0,0,1-2.539-.9,2.875,2.875,0,0,1-1.045-2.271,2.955,2.955,0,0,1,1.27-2.6,6.468,6.468,0,0,1,3.691-.879h1.016v-.559q0-1.462-1.26-1.462a1.03,1.03,0,0,0-1.172,1.158h-3.291a2.95,2.95,0,0,1,1.3-2.487,5.479,5.479,0,0,1,3.325-.956,4.8,4.8,0,0,1,3.193.986,3.429,3.429,0,0,1,1.2,2.705v4.678a4.79,4.79,0,0,0,.449,2.227V19Zm-2.061-2.148a1.836,1.836,0,0,0,1.021-.264,1.653,1.653,0,0,0,.581-.6V14.3h-.957q-1.719,0-1.719,1.543a.942.942,0,0,0,.3.728A1.1,1.1,0,0,0,128.04,16.852ZM138.6,5.807V8.434h1.738v2.285H138.6v4.834a1.234,1.234,0,0,0,.215.83,1.152,1.152,0,0,0,.85.234,4.828,4.828,0,0,0,.82-.059v2.354a6.074,6.074,0,0,1-1.855.283,3.448,3.448,0,0,1-2.51-.8,3.282,3.282,0,0,1-.811-2.432V10.719h-1.348V8.434h1.348V5.807ZM145.1,19h-3.3V8.434h3.3ZM141.6,5.709a1.469,1.469,0,0,1,.508-1.152,2.159,2.159,0,0,1,2.637,0,1.469,1.469,0,0,1,.508,1.152,1.469,1.469,0,0,1-.508,1.152,2.159,2.159,0,0,1-2.637,0A1.469,1.469,0,0,1,141.6,5.709Zm9.736,9.375,1.67-6.65h3.467L153.03,19h-3.359L146.224,8.434H149.7Zm5.557-1.465a6.236,6.236,0,0,1,.615-2.817,4.4,4.4,0,0,1,1.768-1.9,5.323,5.323,0,0,1,2.705-.664,4.858,4.858,0,0,1,3.74,1.47,5.64,5.64,0,0,1,1.367,4v.117a5.472,5.472,0,0,1-1.372,3.921A4.871,4.871,0,0,1,162,19.2a4.927,4.927,0,0,1-3.623-1.353,5.29,5.29,0,0,1-1.475-3.667Zm3.291.205a3.932,3.932,0,0,0,.459,2.148,1.529,1.529,0,0,0,1.357.684q1.758,0,1.8-2.705v-.332q0-2.842-1.816-2.842-1.65,0-1.787,2.451Zm13.887,2.207a.76.76,0,0,0-.439-.674,6.685,6.685,0,0,0-1.67-.527,7.615,7.615,0,0,1-2.031-.718,3.4,3.4,0,0,1-1.221-1.079,2.577,2.577,0,0,1-.42-1.455,2.92,2.92,0,0,1,1.2-2.4,4.948,4.948,0,0,1,3.145-.942A5.482,5.482,0,0,1,176,9.186a2.962,2.962,0,0,1,1.27,2.49h-3.3q0-1.27-1.338-1.27a1.326,1.326,0,0,0-.869.288.892.892,0,0,0-.352.718.819.819,0,0,0,.43.713,4.06,4.06,0,0,0,1.372.449,11.857,11.857,0,0,1,1.655.42,3.007,3.007,0,0,1,2.383,2.939,2.767,2.767,0,0,1-1.284,2.354,5.632,5.632,0,0,1-3.325.908,5.747,5.747,0,0,1-2.422-.488,4.05,4.05,0,0,1-1.66-1.328,3.007,3.007,0,0,1-.6-1.768h3.076a1.272,1.272,0,0,0,.488,1.069,2.009,2.009,0,0,0,1.2.337,1.58,1.58,0,0,0,1.011-.273A.875.875,0,0,0,174.075,16.031Z" transform="translate(582.684 1935.001)" fill="#360742"/>
    <path id="Trazado_929861" data-name="Trazado 929861" d="M39.192,13.336H33.665V19H30.237V4.781h9.512V7.428H33.665V10.7h5.527ZM46.644,19a3.716,3.716,0,0,1-.312-.947A3.06,3.06,0,0,1,43.792,19.2a3.749,3.749,0,0,1-2.539-.9,2.875,2.875,0,0,1-1.045-2.271,2.955,2.955,0,0,1,1.27-2.6,6.468,6.468,0,0,1,3.691-.879h1.016v-.559q0-1.462-1.26-1.462a1.03,1.03,0,0,0-1.172,1.158H40.462a2.95,2.95,0,0,1,1.3-2.487,5.479,5.479,0,0,1,3.325-.956,4.8,4.8,0,0,1,3.193.986,3.429,3.429,0,0,1,1.2,2.705v4.678a4.79,4.79,0,0,0,.449,2.227V19Zm-2.061-2.148a1.836,1.836,0,0,0,1.021-.264,1.653,1.653,0,0,0,.581-.6V14.3h-.957q-1.719,0-1.719,1.543a.942.942,0,0,0,.3.728A1.1,1.1,0,0,0,44.583,16.852ZM54.778,19h-3.3V4h3.3Zm7.559-2.969a.76.76,0,0,0-.439-.674,6.685,6.685,0,0,0-1.67-.527,7.615,7.615,0,0,1-2.031-.718,3.4,3.4,0,0,1-1.221-1.079,2.577,2.577,0,0,1-.42-1.455,2.92,2.92,0,0,1,1.2-2.4A4.948,4.948,0,0,1,60.9,8.238a5.482,5.482,0,0,1,3.359.947,2.962,2.962,0,0,1,1.27,2.49h-3.3q0-1.27-1.338-1.27a1.326,1.326,0,0,0-.869.288.892.892,0,0,0-.352.718.819.819,0,0,0,.43.713,4.06,4.06,0,0,0,1.372.449,11.857,11.857,0,0,1,1.655.42,3.007,3.007,0,0,1,2.383,2.939,2.767,2.767,0,0,1-1.284,2.354A5.632,5.632,0,0,1,60.9,19.2a5.747,5.747,0,0,1-2.422-.488,4.05,4.05,0,0,1-1.66-1.328,3.007,3.007,0,0,1-.6-1.768H59.3a1.272,1.272,0,0,0,.488,1.069,2.009,2.009,0,0,0,1.2.337A1.58,1.58,0,0,0,62,16.744.875.875,0,0,0,62.337,16.031Zm4.3-2.412a6.236,6.236,0,0,1,.615-2.817,4.4,4.4,0,0,1,1.768-1.9,5.323,5.323,0,0,1,2.705-.664,4.858,4.858,0,0,1,3.74,1.47,5.64,5.64,0,0,1,1.367,4v.117a5.472,5.472,0,0,1-1.372,3.921,4.871,4.871,0,0,1-3.716,1.45,4.927,4.927,0,0,1-3.623-1.353,5.29,5.29,0,0,1-1.475-3.667Zm3.291.205a3.932,3.932,0,0,0,.459,2.148,1.529,1.529,0,0,0,1.357.684q1.758,0,1.8-2.705v-.332q0-2.842-1.816-2.842-1.65,0-1.787,2.451Zm13.887,2.207a.76.76,0,0,0-.439-.674,6.685,6.685,0,0,0-1.67-.527,7.615,7.615,0,0,1-2.031-.718,3.4,3.4,0,0,1-1.221-1.079,2.577,2.577,0,0,1-.42-1.455,2.92,2.92,0,0,1,1.2-2.4,4.948,4.948,0,0,1,3.145-.942,5.482,5.482,0,0,1,3.359.947A2.962,2.962,0,0,1,87,11.676H83.7q0-1.27-1.338-1.27a1.326,1.326,0,0,0-.869.288.892.892,0,0,0-.352.718.819.819,0,0,0,.43.713,4.06,4.06,0,0,0,1.372.449,11.857,11.857,0,0,1,1.655.42,3.007,3.007,0,0,1,2.383,2.939A2.767,2.767,0,0,1,85.7,18.287a5.631,5.631,0,0,1-3.325.908,5.747,5.747,0,0,1-2.422-.488,4.05,4.05,0,0,1-1.66-1.328,3.007,3.007,0,0,1-.6-1.768h3.076a1.272,1.272,0,0,0,.488,1.069,2.009,2.009,0,0,0,1.2.337,1.58,1.58,0,0,0,1.011-.273A.875.875,0,0,0,83.812,16.031Zm19.5-2.236a6.372,6.372,0,0,1-1.108,3.931,3.554,3.554,0,0,1-2.993,1.47,3.046,3.046,0,0,1-2.393-1.064v4.932H93.528V8.434H96.6l.1.977a3.046,3.046,0,0,1,2.49-1.172,3.582,3.582,0,0,1,3.037,1.44,6.45,6.45,0,0,1,1.084,3.96Zm-3.291-.205q0-2.812-1.641-2.812a1.549,1.549,0,0,0-1.562.84v4.16a1.6,1.6,0,0,0,1.582.879q1.572,0,1.621-2.715Zm4.326.029a6.236,6.236,0,0,1,.615-2.817,4.4,4.4,0,0,1,1.768-1.9,5.323,5.323,0,0,1,2.705-.664,4.858,4.858,0,0,1,3.74,1.47,5.64,5.64,0,0,1,1.367,4v.117a5.472,5.472,0,0,1-1.372,3.921,4.871,4.871,0,0,1-3.716,1.45,4.927,4.927,0,0,1-3.623-1.353,5.29,5.29,0,0,1-1.475-3.667Zm3.291.205a3.932,3.932,0,0,0,.459,2.148,1.529,1.529,0,0,0,1.357.684q1.758,0,1.8-2.705v-.332q0-2.842-1.816-2.842-1.65,0-1.787,2.451Zm13.887,2.207a.76.76,0,0,0-.439-.674,6.685,6.685,0,0,0-1.67-.527,7.615,7.615,0,0,1-2.031-.718,3.4,3.4,0,0,1-1.221-1.079,2.577,2.577,0,0,1-.42-1.455,2.92,2.92,0,0,1,1.2-2.4,4.948,4.948,0,0,1,3.145-.942,5.482,5.482,0,0,1,3.359.947,2.962,2.962,0,0,1,1.27,2.49h-3.3q0-1.27-1.338-1.27a1.326,1.326,0,0,0-.869.288.892.892,0,0,0-.352.718.819.819,0,0,0,.43.713,4.06,4.06,0,0,0,1.372.449,11.857,11.857,0,0,1,1.655.42,3.007,3.007,0,0,1,2.383,2.939,2.767,2.767,0,0,1-1.284,2.354,5.631,5.631,0,0,1-3.325.908,5.747,5.747,0,0,1-2.422-.488,4.05,4.05,0,0,1-1.66-1.328,3.007,3.007,0,0,1-.6-1.768h3.076a1.272,1.272,0,0,0,.488,1.069,2.009,2.009,0,0,0,1.2.337,1.58,1.58,0,0,0,1.011-.273A.875.875,0,0,0,121.526,16.031ZM129.71,19h-3.3V8.434h3.3Zm-3.5-13.291a1.469,1.469,0,0,1,.508-1.152,2.159,2.159,0,0,1,2.637,0,1.469,1.469,0,0,1,.508,1.152,1.469,1.469,0,0,1-.508,1.152,2.159,2.159,0,0,1-2.637,0A1.469,1.469,0,0,1,126.214,5.709Zm9.355.1V8.434h1.738v2.285h-1.738v4.834a1.234,1.234,0,0,0,.215.83,1.152,1.152,0,0,0,.85.234,4.828,4.828,0,0,0,.82-.059v2.354a6.074,6.074,0,0,1-1.855.283,3.448,3.448,0,0,1-2.51-.8,3.282,3.282,0,0,1-.811-2.432V10.719h-1.348V8.434h1.348V5.807ZM142.073,19h-3.3V8.434h3.3Zm-3.5-13.291a1.469,1.469,0,0,1,.508-1.152,2.159,2.159,0,0,1,2.637,0,1.469,1.469,0,0,1,.508,1.152,1.469,1.469,0,0,1-.508,1.152,2.159,2.159,0,0,1-2.637,0A1.469,1.469,0,0,1,138.577,5.709Zm9.736,9.375,1.67-6.65h3.467L150,19h-3.359L143.2,8.434h3.477Zm5.557-1.465a6.236,6.236,0,0,1,.615-2.817,4.4,4.4,0,0,1,1.768-1.9,5.323,5.323,0,0,1,2.705-.664,4.858,4.858,0,0,1,3.74,1.47,5.64,5.64,0,0,1,1.367,4v.117a5.472,5.472,0,0,1-1.372,3.921,4.871,4.871,0,0,1-3.716,1.45,4.927,4.927,0,0,1-3.623-1.353,5.29,5.29,0,0,1-1.475-3.667Zm3.291.205a3.932,3.932,0,0,0,.459,2.148,1.529,1.529,0,0,0,1.357.684q1.758,0,1.8-2.705v-.332q0-2.842-1.816-2.842-1.65,0-1.787,2.451Zm13.887,2.207a.76.76,0,0,0-.439-.674,6.685,6.685,0,0,0-1.67-.527,7.615,7.615,0,0,1-2.031-.718,3.4,3.4,0,0,1-1.221-1.079,2.577,2.577,0,0,1-.42-1.455,2.92,2.92,0,0,1,1.2-2.4,4.948,4.948,0,0,1,3.145-.942,5.482,5.482,0,0,1,3.359.947,2.962,2.962,0,0,1,1.27,2.49h-3.3q0-1.27-1.338-1.27a1.326,1.326,0,0,0-.869.288.892.892,0,0,0-.352.718.819.819,0,0,0,.43.713,4.06,4.06,0,0,0,1.372.449,11.857,11.857,0,0,1,1.655.42,3.007,3.007,0,0,1,2.383,2.939,2.767,2.767,0,0,1-1.284,2.354,5.632,5.632,0,0,1-3.325.908,5.747,5.747,0,0,1-2.422-.488,4.05,4.05,0,0,1-1.66-1.328,3.007,3.007,0,0,1-.6-1.768h3.076a1.272,1.272,0,0,0,.488,1.069,2.009,2.009,0,0,0,1.2.337,1.58,1.58,0,0,0,1.011-.273A.875.875,0,0,0,171.048,16.031Z" transform="translate(862.684 1808.001)" fill="#360742"/>
    <path id="Trazado_929862" data-name="Trazado 929862" d="M10.062,15.133,12.894,4.781h3.828L11.937,19H8.187L3.44,4.781h3.8ZM22.288,19.2a5.432,5.432,0,0,1-3.936-1.45,5.008,5.008,0,0,1-1.5-3.774V13.7a6.489,6.489,0,0,1,.6-2.861A4.395,4.395,0,0,1,19.2,8.917a5.292,5.292,0,0,1,2.734-.679A4.574,4.574,0,0,1,25.452,9.62a5.43,5.43,0,0,1,1.289,3.853v1.279H20.2a2.372,2.372,0,0,0,.771,1.4,2.3,2.3,0,0,0,1.543.508,2.958,2.958,0,0,0,2.441-1.094l1.5,1.777a4.2,4.2,0,0,1-1.743,1.353A5.891,5.891,0,0,1,22.288,19.2Zm-.371-8.418q-1.445,0-1.719,1.914h3.32v-.254a1.63,1.63,0,0,0-.4-1.226A1.593,1.593,0,0,0,21.917,10.777Zm12.539.635-1.084-.078a1.947,1.947,0,0,0-1.992.977V19H28.089V8.434h3.086l.107,1.357A2.548,2.548,0,0,1,33.6,8.238a3.209,3.209,0,0,1,.918.117Zm.586,2.227a6.455,6.455,0,0,1,1.084-3.955,3.568,3.568,0,0,1,3.027-1.445,3.035,3.035,0,0,1,2.383,1.113V4h3.3V19H41.878l-.166-1.133A3.116,3.116,0,0,1,39.134,19.2a3.562,3.562,0,0,1-2.988-1.445A6.659,6.659,0,0,1,35.042,13.639Zm3.291.205q0,2.813,1.641,2.813a1.62,1.62,0,0,0,1.563-.918V11.715a1.576,1.576,0,0,0-1.543-.937q-1.523,0-1.65,2.461ZM52.659,19a3.716,3.716,0,0,1-.312-.947A3.06,3.06,0,0,1,49.808,19.2a3.749,3.749,0,0,1-2.539-.9,2.875,2.875,0,0,1-1.045-2.271,2.955,2.955,0,0,1,1.27-2.6,6.468,6.468,0,0,1,3.691-.879H52.2v-.559q0-1.462-1.26-1.462a1.03,1.03,0,0,0-1.172,1.158H46.478a2.95,2.95,0,0,1,1.3-2.487,5.479,5.479,0,0,1,3.325-.956,4.8,4.8,0,0,1,3.193.986,3.429,3.429,0,0,1,1.2,2.705v4.678a4.79,4.79,0,0,0,.449,2.227V19ZM50.6,16.852a1.836,1.836,0,0,0,1.021-.264,1.653,1.653,0,0,0,.581-.6V14.3h-.957q-1.719,0-1.719,1.543a.942.942,0,0,0,.3.728A1.1,1.1,0,0,0,50.6,16.852Zm6.309-3.213a6.455,6.455,0,0,1,1.084-3.955,3.568,3.568,0,0,1,3.027-1.445A3.035,3.035,0,0,1,63.4,9.352V4h3.3V19H63.743l-.166-1.133A3.116,3.116,0,0,1,61,19.2a3.562,3.562,0,0,1-2.988-1.445A6.659,6.659,0,0,1,56.907,13.639Zm3.291.205q0,2.813,1.641,2.813a1.62,1.62,0,0,0,1.563-.918V11.715a1.576,1.576,0,0,0-1.543-.937q-1.523,0-1.65,2.461ZM73.685,19.2a5.432,5.432,0,0,1-3.936-1.45,5.008,5.008,0,0,1-1.5-3.774V13.7a6.489,6.489,0,0,1,.6-2.861A4.395,4.395,0,0,1,70.6,8.917a5.292,5.292,0,0,1,2.734-.679A4.574,4.574,0,0,1,76.849,9.62a5.43,5.43,0,0,1,1.289,3.853v1.279H71.595a2.372,2.372,0,0,0,.771,1.4,2.3,2.3,0,0,0,1.543.508,2.958,2.958,0,0,0,2.441-1.094l1.5,1.777a4.2,4.2,0,0,1-1.743,1.353A5.891,5.891,0,0,1,73.685,19.2Zm-.371-8.418q-1.445,0-1.719,1.914h3.32v-.254a1.63,1.63,0,0,0-.4-1.226A1.593,1.593,0,0,0,73.313,10.777Zm12.539.635-1.084-.078a1.947,1.947,0,0,0-1.992.977V19H79.485V8.434h3.086l.107,1.357a2.548,2.548,0,0,1,2.314-1.553,3.209,3.209,0,0,1,.918.117Zm.42,2.207a6.236,6.236,0,0,1,.615-2.817,4.4,4.4,0,0,1,1.768-1.9,5.323,5.323,0,0,1,2.705-.664,4.858,4.858,0,0,1,3.74,1.47,5.64,5.64,0,0,1,1.367,4v.117A5.472,5.472,0,0,1,95.1,17.745,4.871,4.871,0,0,1,91.38,19.2a4.927,4.927,0,0,1-3.623-1.353,5.29,5.29,0,0,1-1.475-3.667Zm3.291.205a3.932,3.932,0,0,0,.459,2.148,1.529,1.529,0,0,0,1.357.684q1.758,0,1.8-2.705v-.332q0-2.842-1.816-2.842-1.65,0-1.787,2.451Zm13.887,2.207a.76.76,0,0,0-.439-.674,6.685,6.685,0,0,0-1.67-.527,7.615,7.615,0,0,1-2.031-.718,3.4,3.4,0,0,1-1.221-1.079,2.577,2.577,0,0,1-.42-1.455,2.92,2.92,0,0,1,1.2-2.4,4.948,4.948,0,0,1,3.145-.942,5.482,5.482,0,0,1,3.359.947,2.962,2.962,0,0,1,1.27,2.49h-3.3q0-1.27-1.338-1.27a1.326,1.326,0,0,0-.869.288.892.892,0,0,0-.352.718.819.819,0,0,0,.43.713,4.06,4.06,0,0,0,1.372.449,11.857,11.857,0,0,1,1.655.42,3.007,3.007,0,0,1,2.383,2.939,2.767,2.767,0,0,1-1.284,2.354,5.631,5.631,0,0,1-3.325.908,5.747,5.747,0,0,1-2.422-.488,4.05,4.05,0,0,1-1.66-1.328,3.007,3.007,0,0,1-.6-1.768h3.076a1.272,1.272,0,0,0,.488,1.069,2.009,2.009,0,0,0,1.2.337,1.58,1.58,0,0,0,1.011-.273A.875.875,0,0,0,103.45,16.031Zm12.715-7.6.107,1.24a3.583,3.583,0,0,1,3.018-1.436,3.015,3.015,0,0,1,2.466.986,4.7,4.7,0,0,1,.845,2.969V19h-3.3V12.33a1.783,1.783,0,0,0-.322-1.177,1.491,1.491,0,0,0-1.172-.376,1.569,1.569,0,0,0-1.436.762V19h-3.291V8.434ZM129.534,19.2a5.432,5.432,0,0,1-3.936-1.45,5.008,5.008,0,0,1-1.5-3.774V13.7a6.489,6.489,0,0,1,.6-2.861,4.395,4.395,0,0,1,1.753-1.919,5.292,5.292,0,0,1,2.734-.679A4.574,4.574,0,0,1,132.7,9.62a5.43,5.43,0,0,1,1.289,3.853v1.279h-6.543a2.372,2.372,0,0,0,.771,1.4,2.3,2.3,0,0,0,1.543.508,2.958,2.958,0,0,0,2.441-1.094l1.5,1.777a4.2,4.2,0,0,1-1.743,1.353A5.891,5.891,0,0,1,129.534,19.2Zm-.371-8.418q-1.445,0-1.719,1.914h3.32v-.254a1.63,1.63,0,0,0-.4-1.226A1.593,1.593,0,0,0,129.163,10.777Zm5.762,2.861a7.134,7.134,0,0,1,.527-2.832,4.245,4.245,0,0,1,1.514-1.9,3.99,3.99,0,0,1,2.295-.669,3.173,3.173,0,0,1,2.578,1.113l.117-.918h2.988V18.6a4.455,4.455,0,0,1-.649,2.427,4.167,4.167,0,0,1-1.88,1.582,6.91,6.91,0,0,1-2.852.552,5.961,5.961,0,0,1-2.251-.439,4.063,4.063,0,0,1-1.665-1.143l1.377-1.934a3.018,3.018,0,0,0,2.422,1.084,1.96,1.96,0,0,0,2.188-2.246V18.15a3.09,3.09,0,0,1-2.393,1.045,3.819,3.819,0,0,1-3.125-1.479,6.13,6.13,0,0,1-1.191-3.96Zm3.3.205a3.759,3.759,0,0,0,.488,2.056,1.541,1.541,0,0,0,1.367.757,1.748,1.748,0,0,0,1.553-.713V11.5a1.7,1.7,0,0,0-1.533-.723,1.551,1.551,0,0,0-1.377.786A4.287,4.287,0,0,0,138.226,13.844ZM152.767,19a3.716,3.716,0,0,1-.312-.947,3.06,3.06,0,0,1-2.539,1.143,3.749,3.749,0,0,1-2.539-.9,2.875,2.875,0,0,1-1.045-2.271,2.955,2.955,0,0,1,1.27-2.6,6.468,6.468,0,0,1,3.691-.879h1.016v-.559q0-1.462-1.26-1.462a1.03,1.03,0,0,0-1.172,1.158h-3.291a2.95,2.95,0,0,1,1.3-2.487,5.479,5.479,0,0,1,3.325-.956,4.8,4.8,0,0,1,3.193.986,3.429,3.429,0,0,1,1.2,2.705v4.678a4.79,4.79,0,0,0,.449,2.227V19Zm-2.061-2.148a1.836,1.836,0,0,0,1.021-.264,1.653,1.653,0,0,0,.581-.6V14.3h-.957q-1.719,0-1.719,1.543a.942.942,0,0,0,.3.728A1.1,1.1,0,0,0,150.706,16.852ZM161.263,5.807V8.434H163v2.285h-1.738v4.834a1.234,1.234,0,0,0,.215.83,1.152,1.152,0,0,0,.85.234,4.828,4.828,0,0,0,.82-.059v2.354a6.074,6.074,0,0,1-1.855.283,3.448,3.448,0,0,1-2.51-.8,3.282,3.282,0,0,1-.811-2.432V10.719h-1.348V8.434h1.348V5.807ZM167.767,19h-3.3V8.434h3.3Zm-3.5-13.291a1.469,1.469,0,0,1,.508-1.152,2.159,2.159,0,0,1,2.637,0,1.469,1.469,0,0,1,.508,1.152,1.469,1.469,0,0,1-.508,1.152,2.159,2.159,0,0,1-2.637,0A1.469,1.469,0,0,1,164.271,5.709Zm9.736,9.375,1.67-6.65h3.467L175.7,19h-3.359L168.89,8.434h3.477Zm5.557-1.465a6.236,6.236,0,0,1,.615-2.817,4.4,4.4,0,0,1,1.768-1.9,5.323,5.323,0,0,1,2.705-.664,4.858,4.858,0,0,1,3.74,1.47,5.64,5.64,0,0,1,1.367,4v.117a5.472,5.472,0,0,1-1.372,3.921,4.871,4.871,0,0,1-3.716,1.45,4.927,4.927,0,0,1-3.623-1.353,5.29,5.29,0,0,1-1.475-3.667Zm3.291.205a3.932,3.932,0,0,0,.459,2.148,1.529,1.529,0,0,0,1.357.684q1.758,0,1.8-2.705v-.332q0-2.842-1.816-2.842-1.65,0-1.787,2.451Zm13.887,2.207a.76.76,0,0,0-.439-.674,6.685,6.685,0,0,0-1.67-.527,7.615,7.615,0,0,1-2.031-.718,3.4,3.4,0,0,1-1.221-1.079,2.577,2.577,0,0,1-.42-1.455,2.92,2.92,0,0,1,1.2-2.4,4.948,4.948,0,0,1,3.145-.942,5.482,5.482,0,0,1,3.359.947,2.962,2.962,0,0,1,1.27,2.49h-3.3q0-1.27-1.338-1.27a1.326,1.326,0,0,0-.869.288.892.892,0,0,0-.352.718.819.819,0,0,0,.43.713,4.06,4.06,0,0,0,1.372.449,11.857,11.857,0,0,1,1.655.42,3.007,3.007,0,0,1,2.383,2.939,2.767,2.767,0,0,1-1.284,2.354,5.632,5.632,0,0,1-3.325.908,5.747,5.747,0,0,1-2.422-.488,4.05,4.05,0,0,1-1.66-1.328,3.007,3.007,0,0,1-.6-1.768H193.7a1.272,1.272,0,0,0,.488,1.069,2.009,2.009,0,0,0,1.2.337,1.58,1.58,0,0,0,1.011-.273A.875.875,0,0,0,196.741,16.031Z" transform="translate(862.684 1935.001)" fill="#360742"/>
    <path id="Trazado_929866" data-name="Trazado 929866" d="M15.819,13.52,18.368,4.2h3.445L17.507,17H14.132L9.86,4.2h3.419ZM27.562,17a3.344,3.344,0,0,1-.281-.853A2.754,2.754,0,0,1,25,17.176a3.374,3.374,0,0,1-2.285-.813,2.588,2.588,0,0,1-.94-2.043,2.66,2.66,0,0,1,1.143-2.338,5.821,5.821,0,0,1,3.322-.791h.914v-.5q0-1.316-1.134-1.316a.927.927,0,0,0-1.055,1.042H22a2.655,2.655,0,0,1,1.173-2.239,4.931,4.931,0,0,1,2.993-.86,4.323,4.323,0,0,1,2.874.888,3.086,3.086,0,0,1,1.081,2.435v4.21a4.311,4.311,0,0,0,.4,2V17Zm-1.854-1.934a1.652,1.652,0,0,0,.918-.237,1.487,1.487,0,0,0,.523-.536V12.772h-.861q-1.547,0-1.547,1.389a.848.848,0,0,0,.272.655A.986.986,0,0,0,25.707,15.066ZM34.883,17H31.912V3.5h2.971Zm1.45-4.843a5.613,5.613,0,0,1,.554-2.536,3.96,3.96,0,0,1,1.591-1.709,4.791,4.791,0,0,1,2.435-.6,4.373,4.373,0,0,1,3.366,1.323,5.076,5.076,0,0,1,1.23,3.6v.105a4.925,4.925,0,0,1-1.235,3.529,4.384,4.384,0,0,1-3.344,1.305,4.434,4.434,0,0,1-3.261-1.217,4.761,4.761,0,0,1-1.327-3.3Zm2.962.185a3.538,3.538,0,0,0,.413,1.934,1.376,1.376,0,0,0,1.222.615q1.582,0,1.617-2.435v-.3q0-2.558-1.635-2.558-1.485,0-1.608,2.206Zm13.271-2.171-.976-.07a1.752,1.752,0,0,0-1.793.879V17H46.836V7.49h2.777l.1,1.222a2.294,2.294,0,0,1,2.083-1.4,2.888,2.888,0,0,1,.826.105Zm5.5,7a4.889,4.889,0,0,1-3.542-1.305,4.507,4.507,0,0,1-1.354-3.4v-.246a5.84,5.84,0,0,1,.541-2.575,3.955,3.955,0,0,1,1.578-1.727,4.763,4.763,0,0,1,2.461-.611,4.117,4.117,0,0,1,3.164,1.244,4.887,4.887,0,0,1,1.16,3.467v1.151H56.188a2.135,2.135,0,0,0,.694,1.257,2.066,2.066,0,0,0,1.389.457,2.662,2.662,0,0,0,2.2-.984l1.354,1.6a3.784,3.784,0,0,1-1.569,1.217A5.3,5.3,0,0,1,58.068,17.176ZM57.734,9.6q-1.3,0-1.547,1.723h2.988v-.229a1.467,1.467,0,0,0-.36-1.1A1.434,1.434,0,0,0,57.734,9.6Zm10.512,4.729a.684.684,0,0,0-.4-.606,6.016,6.016,0,0,0-1.5-.475A6.853,6.853,0,0,1,64.52,12.6a3.062,3.062,0,0,1-1.1-.971,2.319,2.319,0,0,1-.378-1.31,2.628,2.628,0,0,1,1.081-2.158,4.453,4.453,0,0,1,2.83-.848,4.934,4.934,0,0,1,3.023.853,2.666,2.666,0,0,1,1.143,2.241H68.149q0-1.143-1.2-1.143a1.194,1.194,0,0,0-.782.259.8.8,0,0,0-.316.646.737.737,0,0,0,.387.642,3.654,3.654,0,0,0,1.235.4,10.671,10.671,0,0,1,1.49.378A2.706,2.706,0,0,1,71.1,14.24a2.491,2.491,0,0,1-1.156,2.118,5.068,5.068,0,0,1-2.993.817,5.172,5.172,0,0,1-2.18-.439,3.645,3.645,0,0,1-1.494-1.2,2.707,2.707,0,0,1-.536-1.591h2.769a1.145,1.145,0,0,0,.439.962,1.808,1.808,0,0,0,1.081.3,1.422,1.422,0,0,0,.91-.246A.787.787,0,0,0,68.246,14.328Zm14.476-4.157-.976-.07a1.752,1.752,0,0,0-1.793.879V17H76.991V7.49h2.777l.1,1.222a2.294,2.294,0,0,1,2.083-1.4,2.888,2.888,0,0,1,.826.105Zm5.5,7a4.889,4.889,0,0,1-3.542-1.305,4.507,4.507,0,0,1-1.354-3.4v-.246a5.84,5.84,0,0,1,.541-2.575,3.955,3.955,0,0,1,1.578-1.727,4.763,4.763,0,0,1,2.461-.611,4.117,4.117,0,0,1,3.164,1.244,4.887,4.887,0,0,1,1.16,3.467v1.151H86.343a2.135,2.135,0,0,0,.694,1.257,2.066,2.066,0,0,0,1.389.457,2.662,2.662,0,0,0,2.2-.984l1.354,1.6a3.784,3.784,0,0,1-1.569,1.217A5.3,5.3,0,0,1,88.224,17.176ZM87.89,9.6q-1.3,0-1.547,1.723h2.988v-.229a1.467,1.467,0,0,0-.36-1.1A1.434,1.434,0,0,0,87.89,9.6ZM98.779,17a3.344,3.344,0,0,1-.281-.853,2.754,2.754,0,0,1-2.285,1.028,3.374,3.374,0,0,1-2.285-.813,2.588,2.588,0,0,1-.94-2.043,2.66,2.66,0,0,1,1.143-2.338,5.821,5.821,0,0,1,3.322-.791h.914v-.5q0-1.316-1.134-1.316a.927.927,0,0,0-1.055,1.042H93.216a2.655,2.655,0,0,1,1.173-2.239,4.931,4.931,0,0,1,2.993-.86,4.323,4.323,0,0,1,2.874.888,3.086,3.086,0,0,1,1.081,2.435v4.21a4.311,4.311,0,0,0,.4,2V17Zm-1.854-1.934a1.652,1.652,0,0,0,.918-.237,1.487,1.487,0,0,0,.523-.536V12.772H97.5q-1.547,0-1.547,1.389a.848.848,0,0,0,.272.655A.986.986,0,0,0,96.925,15.066ZM106.1,17H103.13V3.5H106.1Zm6.425.176a4.889,4.889,0,0,1-3.542-1.305,4.507,4.507,0,0,1-1.354-3.4v-.246a5.84,5.84,0,0,1,.541-2.575,3.955,3.955,0,0,1,1.578-1.727,4.763,4.763,0,0,1,2.461-.611,4.117,4.117,0,0,1,3.164,1.244,4.887,4.887,0,0,1,1.16,3.467v1.151h-5.889a2.135,2.135,0,0,0,.694,1.257,2.066,2.066,0,0,0,1.389.457,2.662,2.662,0,0,0,2.2-.984l1.354,1.6a3.784,3.784,0,0,1-1.569,1.217A5.3,5.3,0,0,1,112.525,17.176ZM112.191,9.6q-1.3,0-1.547,1.723h2.988v-.229a1.467,1.467,0,0,0-.36-1.1A1.434,1.434,0,0,0,112.191,9.6ZM122.7,14.328a.684.684,0,0,0-.4-.606,6.016,6.016,0,0,0-1.5-.475,6.853,6.853,0,0,1-1.828-.646,3.062,3.062,0,0,1-1.1-.971,2.319,2.319,0,0,1-.378-1.31,2.628,2.628,0,0,1,1.081-2.158,4.453,4.453,0,0,1,2.83-.848,4.934,4.934,0,0,1,3.023.853,2.666,2.666,0,0,1,1.143,2.241h-2.971q0-1.143-1.2-1.143a1.194,1.194,0,0,0-.782.259.8.8,0,0,0-.316.646.737.737,0,0,0,.387.642,3.654,3.654,0,0,0,1.235.4,10.671,10.671,0,0,1,1.49.378,2.706,2.706,0,0,1,2.145,2.646,2.491,2.491,0,0,1-1.156,2.118,5.068,5.068,0,0,1-2.993.817,5.172,5.172,0,0,1-2.18-.439,3.645,3.645,0,0,1-1.494-1.2,2.707,2.707,0,0,1-.536-1.591h2.769a1.145,1.145,0,0,0,.439.962,1.808,1.808,0,0,0,1.081.3,1.422,1.422,0,0,0,.91-.246A.787.787,0,0,0,122.7,14.328Z" transform="translate(348.684 1905)" fill="#12263f"/>
    <g id="Grupo_1116098" data-name="Grupo 1116098" transform="translate(1137 1902.688)">
      <g id="Grupo_1116220" data-name="Grupo 1116220" clip-path="url(#clip-path)">
        <g id="Grupo_1116219" data-name="Grupo 1116219" transform="translate(0 0)">
          <g id="Grupo_1116218" data-name="Grupo 1116218" clip-path="url(#clip-path)">
            <g id="Grupo_1116100" data-name="Grupo 1116100" transform="translate(33.911 183.319)" opacity="0.2" style="isolation: isolate">
              <g id="Grupo_1116099" data-name="Grupo 1116099">
                <g id="Grupo_1116098-2" data-name="Grupo 1116098" clip-path="url(#clip-path-3)">
                  <path id="Trazado_929748" data-name="Trazado 929748" d="M618.528,3159.41c18.827,0,34.089,2.013,34.089,4.5s-15.262,4.5-34.089,4.5-34.089-2.013-34.089-4.5,15.262-4.5,34.089-4.5" transform="translate(-584.439 -3159.41)" fill="#010270"/>
                </g>
              </g>
            </g>
            <path id="Trazado_929749" data-name="Trazado 929749" d="M366.04,476.951l-16.6,35.929a3.952,3.952,0,0,1-5.447,1.833l-4.356-2.316-10.106-5.37a3.953,3.953,0,0,1-1.7-5.232l1.3-2.655c8.562,3.784,9.192-7.685,4.865-9.937l4.011-8.2h0l6.8-13.9a3.958,3.958,0,0,1,5.2-1.858L364.1,471.7a3.953,3.953,0,0,1,1.945,5.255" transform="translate(-308.433 -437.918)" fill="#9b9fba"/>
            <path id="Trazado_929750" data-name="Trazado 929750" d="M327.573,498.017a5.038,5.038,0,0,1-2.376-.6l-14.461-7.685a5.051,5.051,0,0,1-2.175-6.714l1.3-2.653a1.12,1.12,0,0,1,1.458-.532c1.842.814,4.275,1.288,5.412-1.079,1.109-2.308.315-5.888-1.517-6.841a1.12,1.12,0,0,1-.489-1.485l4.011-8.2c.012-.024.024-.047.037-.07l6.765-13.826a5.051,5.051,0,0,1,6.672-2.384L346.29,452.4a5.072,5.072,0,0,1,2.5,6.741h0l-16.6,35.929a5.027,5.027,0,0,1-2.99,2.683,5.084,5.084,0,0,1-1.623.268m-16.157-15.742L310.571,484a2.822,2.822,0,0,0,1.215,3.752l14.463,7.686a2.833,2.833,0,0,0,3.905-1.314l16.6-35.929a2.833,2.833,0,0,0-1.393-3.767l-14.083-6.445a2.824,2.824,0,0,0-3.729,1.333l-6.8,13.9q-.017.036-.037.07l-3.552,7.26c2.42,2.068,2.915,6.419,1.588,9.179-.509,1.06-2.481,4.2-7.33,2.551m36.352-23.607h0Z" transform="translate(-290.162 -419.635)" fill="#010270"/>
            <path id="Trazado_929751" data-name="Trazado 929751" d="M209.85,1424.556s-.107,6.787,3.358,10.411,9.888-4.744,9.888-4.744l-2.479-6.716" transform="translate(-197.674 -1340.911)" fill="#9b9fba"/>
            <path id="Trazado_929752" data-name="Trazado 929752" d="M463,566.145l-4.111-1.726a2.014,2.014,0,0,0-2.592.979l-14.9,30.747a2.1,2.1,0,0,0,.822,2.727l9.862,5.829a2.066,2.066,0,0,0,2.452-.26l.308-.284" transform="translate(-415.585 -531.522)" fill="#3fb1ea"/>
            <path id="Trazado_929753" data-name="Trazado 929753" d="M197.115,1418.822a3.915,3.915,0,0,1-2.891-1.256c-3.739-3.912-3.673-10.906-3.668-11.2a1.119,1.119,0,0,1,1.119-1.1h.018a1.12,1.12,0,0,1,1.1,1.136c0,.091-.045,6.385,3.048,9.621a1.669,1.669,0,0,0,1.386.561c2.156-.115,5.077-3.118,6.424-4.738l-2.259-6.122a1.119,1.119,0,0,1,2.1-.775l2.479,6.716a1.119,1.119,0,0,1-.162,1.069c-.461.6-4.618,5.878-8.459,6.086q-.118.006-.235.006" transform="translate(-179.498 -1322.736)" fill="#010270"/>
            <path id="Trazado_929754" data-name="Trazado 929754" d="M155.128,779.714l-1.065,2.025L132,784.217s-2.133-3.972,0-12.086,7.142-16.193,12.15-23.43c4.919-7.107,8.738-6.5,8.875-6.47l-4.011,8.2c4.327,2.252,3.7,13.72-4.864,9.937l-1.3,2.655a3.953,3.953,0,0,0,1.7,5.232l10.106,5.37Z" transform="translate(-123.443 -699.142)" fill="#299adf"/>
            <g id="Grupo_1116103" data-name="Grupo 1116103" transform="translate(7.604 43.065)" opacity="0.6">
              <g id="Grupo_1116102" data-name="Grupo 1116102">
                <g id="Grupo_1116101" data-name="Grupo 1116101" clip-path="url(#clip-path-4)">
                  <path id="Trazado_929755" data-name="Trazado 929755" d="M153.02,742.231l-.883,1.8c-1.609.541-4.107,2.06-6.979,6.208-5.008,7.238-10.017,15.316-12.15,23.43-1.356,5.156-.988,8.638-.54,10.493l-.473.054s-2.133-3.972,0-12.086,7.142-16.193,12.15-23.43c4.919-7.107,8.738-6.5,8.875-6.47" transform="translate(-131.047 -742.208)" fill="#fff"/>
                </g>
              </g>
            </g>
            <path id="Trazado_929756" data-name="Trazado 929756" d="M113.855,767.163a1.12,1.12,0,0,1-.986-.59c-.1-.178-2.316-4.457-.1-12.9,2.238-8.513,7.48-16.8,12.312-23.783,5.239-7.569,9.528-7.02,10-6.934a1.119,1.119,0,0,1,.8,1.593l-3.586,7.33c2.42,2.068,2.915,6.419,1.588,9.179-.509,1.06-2.481,4.2-7.33,2.551l-.846,1.729a2.822,2.822,0,0,0,1.215,3.752l10.106,5.37a1.119,1.119,0,0,1,.591.9l.48,6.093a1.119,1.119,0,0,1-.125.609l-1.065,2.024a1.119,1.119,0,0,1-.866.591l-22.068,2.479a1.086,1.086,0,0,1-.125.007M132.9,725.554c-1.4.594-3.513,2.052-5.976,5.611-4.721,6.823-9.838,14.9-11.988,23.078-1.492,5.673-.79,9.2-.352,10.593l20.622-2.316.638-1.213-.406-5.158-9.564-5.082a5.051,5.051,0,0,1-2.175-6.714L125,741.7a1.12,1.12,0,0,1,1.458-.532c1.842.814,4.275,1.288,5.412-1.079,1.109-2.308.315-5.888-1.517-6.841a1.12,1.12,0,0,1-.489-1.485Z" transform="translate(-105.304 -680.969)" fill="#010270"/>
            <path id="Trazado_929757" data-name="Trazado 929757" d="M746.91,2554.905s-.093.339-.259.912c-.691,2.373-2.667,8.747-4.644,11.242-1.925,2.427-19.026,4.986-33.047,2.207h0a39.473,39.473,0,0,1-8.434-2.587,5.926,5.926,0,0,1-3.022-3.125,35.057,35.057,0,0,1-2.616-12.486c-.211-8.744,52.026,3.838,52.026,3.838" transform="translate(-654.565 -2400.135)" fill="#9b9fba"/>
            <path id="Trazado_929758" data-name="Trazado 929758" d="M276.585,1390.487s-8.555,10.314-9.275,10.273-26.386,2.6-19.429-9.473a37.225,37.225,0,0,1,9.457-11.1,21.339,21.339,0,0,1,6.24-3.528l10.979,4.1.192.927Z" transform="translate(-232.373 -1296.776)" fill="#fff"/>
            <path id="Trazado_929759" data-name="Trazado 929759" d="M447.675,1381.684l-3.125,2.5-13.829-3.646s-.179-.134-.457-.361a21.335,21.335,0,0,1,6.24-3.528l10.979,4.1Z" transform="translate(-405.299 -1296.775)" fill="#28328e"/>
            <path id="Trazado_929760" data-name="Trazado 929760" d="M243.164,1383.923c-8.19,0-13.252-1.481-15.078-4.42-1.172-1.887-.971-4.223.6-6.945,7.1-12.321,15.978-15.038,16.352-15.147a1.122,1.122,0,0,1,.706.026l10.98,4.1a1.119,1.119,0,1,1-.784,2.1l-10.6-3.962c-1.611.609-8.841,3.808-14.713,14-1.124,1.951-1.338,3.514-.634,4.646.782,1.26,4.141,4.091,18.4,3.184l.38-.024c1.049-.863,5.156-5.577,8.724-9.879a1.119,1.119,0,1,1,1.723,1.429c-.021.026-2.172,2.618-4.383,5.17-4.744,5.477-5.164,5.542-5.789,5.507-.086,0-.262.014-.513.031q-2.877.183-5.37.183m5.855-.215h0Zm.126-2.235h0Z" transform="translate(-214.145 -1278.607)" fill="#010270"/>
            <g id="Grupo_1116106" data-name="Grupo 1116106" transform="translate(48.069 155.683)" opacity="0.2">
              <g id="Grupo_1116105" data-name="Grupo 1116105">
                <g id="Grupo_1116104" data-name="Grupo 1116104" clip-path="url(#clip-path-5)">
                  <path id="Trazado_929761" data-name="Trazado 929761" d="M828.667,2683.111s-1.413,6.337,2.905,9.322,6.716-.586,6.077-3.678-1.119-4.744-1.119-4.744" transform="translate(-828.445 -2683.111)" fill="#fff"/>
                </g>
              </g>
            </g>
            <path id="Trazado_929762" data-name="Trazado 929762" d="M704.139,2553.409c-6.2,0-15.075-.677-22.231-3.893a7.012,7.012,0,0,1-3.595-3.715,35.939,35.939,0,0,1-2.7-12.891,3.068,3.068,0,0,1,1.214-2.524c1.11-.9,4.489-3.626,28.961.514,11.888,2.01,23.119,4.706,23.231,4.732a1.119,1.119,0,0,1,.819,1.381c-.1.379-2.542,9.321-5.108,12.557-1.721,2.17-10.045,3.473-17.05,3.766-1.031.043-2.226.074-3.539.074M685.188,2530.9c-4.438,0-6.236.647-6.956,1.228a.83.83,0,0,0-.383.728,33.675,33.675,0,0,0,2.529,12.082,4.781,4.781,0,0,0,2.447,2.537c14.63,6.575,38.433,2.867,40.148.7,1.657-2.09,3.5-7.635,4.385-10.636-3.137-.729-12.331-2.809-21.956-4.437-9.793-1.656-16.125-2.206-20.214-2.206" transform="translate(-636.409 -2381.951)" fill="#010270"/>
            <path id="Trazado_929763" data-name="Trazado 929763" d="M639.672,1402.417c-2.578,10.474-7.868,23.206-10.337,28.883a5.841,5.841,0,0,1-4.6,3.454c-22.353,2.962-41-.07-50.283-3.221-3.214-1.087-5.309-2.191-6.051-3.064-2.987-3.518-1.967-14.5-1.967-14.5a116.449,116.449,0,0,0,3.083-25.353c.16-14.159,4.692-28.215,4.692-28.215l0,0,8.367-3.038s22.266,3.508,39.623,7.983c9.364,2.415,17.3,5.111,19.544,7.689a11.751,11.751,0,0,1,2.981,6.579c.672,5.859-2.607,12.838-5.06,22.8" transform="translate(-533.414 -1278.605)" fill="#fff"/>
            <path id="Trazado_929764" data-name="Trazado 929764" d="M773.681,1379.613l-.4.182c-12.073,2.792-57.7-6.761-70.115-19.391l0,0,8.367-3.038s52.771,8.315,59.167,15.671a11.751,11.751,0,0,1,2.981,6.579" transform="translate(-662.363 -1278.605)" fill="#28328e"/>
            <g id="Grupo_1116109" data-name="Grupo 1116109" transform="translate(41.043 86.741)" opacity="0.3">
              <g id="Grupo_1116108" data-name="Grupo 1116108">
                <g id="Grupo_1116107" data-name="Grupo 1116107" clip-path="url(#clip-path-6)">
                  <path id="Trazado_929765" data-name="Trazado 929765" d="M772.568,1532.012c-2.578,10.474-7.868,23.206-10.337,28.883a5.841,5.841,0,0,1-4.6,3.454c-22.353,2.962-41-.07-50.283-3.221,39.361-9.79,44-53.631,44-53.631,5.808-5.367-6.991-9.345-6.991-9.345l10.74-3.211c9.364,2.415,17.3,5.111,19.544,7.689a11.751,11.751,0,0,1,2.981,6.579c.672,5.859-2.607,12.838-5.06,22.8" transform="translate(-707.353 -1494.941)" fill="#010270"/>
                </g>
              </g>
            </g>
            <g id="Grupo_1116112" data-name="Grupo 1116112" transform="translate(55.62 84.639)" opacity="0.2">
              <g id="Grupo_1116111" data-name="Grupo 1116111">
                <g id="Grupo_1116110" data-name="Grupo 1116110" clip-path="url(#clip-path-7)">
                  <path id="Trazado_929766" data-name="Trazado 929766" d="M962.49,1458.708l-3.9,5.58s13.858,5.49,13.858,5.171v-7.726" transform="translate(-958.589 -1458.708)" fill="#fff"/>
                </g>
              </g>
            </g>
            <g id="Grupo_1116115" data-name="Grupo 1116115" transform="translate(32.857 78.758)" opacity="0.6">
              <g id="Grupo_1116114" data-name="Grupo 1116114">
                <g id="Grupo_1116113" data-name="Grupo 1116113" clip-path="url(#clip-path-8)">
                  <path id="Trazado_929767" data-name="Trazado 929767" d="M643.617,1375.807c-.15-.2-.313-.393-.483-.592-6.4-7.356-59.168-15.671-59.168-15.671l-8.367,3.038,0,0s-4.532,14.056-4.692,28.215a116.446,116.446,0,0,1-3.083,25.352s-.761,8.178.953,12.678a2.864,2.864,0,0,1-.371-.361c-2.987-3.518-1.967-14.5-1.967-14.5a116.449,116.449,0,0,0,3.083-25.353c.16-14.159,4.692-28.215,4.692-28.215l0,0,8.367-3.038s52.771,8.315,59.167,15.671a12.835,12.835,0,0,1,1.868,2.773" transform="translate(-566.269 -1357.363)" fill="#fff"/>
                </g>
              </g>
            </g>
            <path id="Trazado_929768" data-name="Trazado 929768" d="M588.107,1418.915a125.346,125.346,0,0,1-20.31-1.6c-9.251-1.527-16.741-4.055-18.637-6.29-3.2-3.768-2.336-14.154-2.227-15.326a1.1,1.1,0,0,1,.031-.179,116.557,116.557,0,0,0,3.047-25.082c.159-14.164,4.7-28.4,4.745-28.545a1.12,1.12,0,0,1,.683-.709l8.37-3.042a1.12,1.12,0,0,1,.557-.054c.132.021,13.383,2.118,27.245,5.088,19.076,4.088,29.738,7.671,32.593,10.954,5.321,6.119,3.353,12.628.629,21.636-.786,2.6-1.678,5.55-2.466,8.749-2.637,10.713-8.15,23.892-10.4,29.062a7,7,0,0,1-5.475,4.117,140.1,140.1,0,0,1-18.388,1.223m-38.953-22.925c-.267,3-.462,11.022,1.713,13.585,1.1,1.291,7.186,3.86,17.295,5.529a130.506,130.506,0,0,0,38.039.368,4.747,4.747,0,0,0,3.716-2.79c2.225-5.117,7.681-18.157,10.277-28.7.8-3.256,1.7-6.234,2.5-8.862,2.61-8.632,4.334-14.333-.175-19.519-5-5.745-43.43-12.912-58.212-15.255l-7.575,2.754c-.8,2.654-4.339,15.053-4.477,27.365a119.547,119.547,0,0,1-3.1,25.529" transform="translate(-515.023 -1260.432)" fill="#010270"/>
            <path id="Trazado_929769" data-name="Trazado 929769" d="M1355.585,2187.539s-4.8,7.516-13.752,8.715-5.6-10.474-5.6-10.474,2.8-3.438,4.8-6.237.32-4.847,5.6-3.143,10.874,6.821,8.955,11.139" transform="translate(-1258.122 -2049.533)" fill="#9b9fba"/>
            <path id="Trazado_929770" data-name="Trazado 929770" d="M1322.521,2179.281a5.631,5.631,0,0,1-4.493-1.849c-2.864-3.318-1.025-9.864-.945-10.141a1.12,1.12,0,0,1,.208-.4c.028-.034,2.8-3.444,4.755-6.18a7.283,7.283,0,0,0,.93-1.906,3.014,3.014,0,0,1,1.749-2.176c.888-.306,2.057-.159,4.172.524,4.181,1.35,8.086,4.5,9.495,7.65a6.021,6.021,0,0,1,.139,5.008,1.146,1.146,0,0,1-.079.148c-.207.325-5.185,7.968-14.547,9.222a10.421,10.421,0,0,1-1.383.1m-3.344-11.159c-.451,1.727-1.1,5.941.548,7.85.789.913,2.058,1.237,3.882.993,7.869-1.054,12.415-7.411,12.913-8.142a3.825,3.825,0,0,0-.173-3.1c-1.151-2.576-4.573-5.282-8.139-6.433-2.306-.745-2.729-.555-2.77-.532a3.356,3.356,0,0,0-.358.811,9.425,9.425,0,0,1-1.215,2.45c-1.732,2.424-4.08,5.352-4.69,6.107m18.332,1.238h0Z" transform="translate(-1240.045 -2031.354)" fill="#010270"/>
            <path id="Trazado_929771" data-name="Trazado 929771" d="M715.323,156.592l-6.31,38.7s-2.325,11.354-21.515,9.115c-16.756-1.954-37.049-7.813-47.782-12.464l-.08-.032c-.006,0-.01,0-.016-.006-1.519-.659-2.843-1.3-3.934-1.89-8.8-4.8-17.75-11.52-11.034-27.028s15.032-31.659,21.588-37.256,18.71-5.757,18.71-5.757,3.678-4.637,12.1-3.572c7.18.911,21.4,7.238,27.5,11.136a.01.01,0,0,1,.006,0A14.974,14.974,0,0,1,706.9,129.3a9.563,9.563,0,0,1,2.8,6.208,6.566,6.566,0,0,1-.013,1.148,23.834,23.834,0,0,1,2.284,3.876,34.217,34.217,0,0,1,3.352,16.058" transform="translate(-586.197 -109.496)" fill="#fff"/>
            <g id="Grupo_1116118" data-name="Grupo 1116118" transform="translate(36.108 6.745)" opacity="0.6">
              <g id="Grupo_1116117" data-name="Grupo 1116117">
                <g id="Grupo_1116116" data-name="Grupo 1116116" clip-path="url(#clip-path-9)">
                  <path id="Trazado_929772" data-name="Trazado 929772" d="M708.995,132.426a9.641,9.641,0,0,0-1.049-1.241c-3.307-3.3-21.428-11.833-29.852-12.9s-12.1,3.572-12.1,3.572l-5.437,6.428s-4.135,5.514,3.122,10.551c-.253-.1-7.727-3.157-5.92-8.488,1.03-3.038,3.492-6.157,5.456-8.309-3.982.4-11.331,1.65-15.93,5.575-6.556,5.6-14.872,21.748-21.588,37.256-3.009,6.947-2.872,12.131-1.014,16.167-2.77-4.282-3.524-9.975-.026-18.054,6.716-15.508,15.032-31.659,21.588-37.256s18.71-5.757,18.71-5.757,3.678-4.637,12.1-3.572,26.545,9.595,29.852,12.9a9.439,9.439,0,0,1,2.088,3.125" transform="translate(-622.31 -116.24)" fill="#fff"/>
                </g>
              </g>
            </g>
            <path id="Trazado_929773" data-name="Trazado 929773" d="M694.328,364.716c-6.255,12.32,1.064,19.407,1.064,19.407,9.915,12.313,44.456,21.748,55.33,19.989s9.914-4.158,15.572-25.74-8.584-25.656-8.584-25.656c-13.213,4.952-36.732-1.054-35.037-10.756C710.376,337.7,706.359,343,706.359,343Z" transform="translate(-651.659 -320.557)" fill="#28328e"/>
            <g id="Grupo_1116121" data-name="Grupo 1116121" transform="translate(42.677 35.429)" opacity="0.3">
              <g id="Grupo_1116120" data-name="Grupo 1116120">
                <g id="Grupo_1116119" data-name="Grupo 1116119" clip-path="url(#clip-path-10)">
                  <path id="Trazado_929774" data-name="Trazado 929774" d="M807.475,632.983c-5.658,21.582-4.7,23.98-15.572,25.739s-45.415-7.676-55.33-19.989a9.091,9.091,0,0,1-1.055-1.318c10.8,11.881,43.96,20.827,54.572,19.109,10.874-1.759,9.915-4.158,15.572-25.74,2.651-10.116.934-16.385-1.644-20.19,3.406,3.4,6.7,10.014,3.457,22.388" transform="translate(-735.518 -610.595)" fill="#010270"/>
                </g>
              </g>
            </g>
            <path id="Trazado_929775" data-name="Trazado 929775" d="M673.956,187.641a42.826,42.826,0,0,1-4.955-.3c-18.636-2.174-42.939-9.46-52.218-14.521-4.3-2.348-9.067-5.361-11.761-9.909-3.03-5.116-2.953-11.183.236-18.546,4.869-11.245,14.188-31.09,21.888-37.664,6.1-5.209,16.521-5.916,18.931-6.011,1.186-1.2,5.216-4.529,12.746-3.577,8.7,1.1,27.05,9.767,30.5,13.219a10.656,10.656,0,0,1,3.141,7.814,34.078,34.078,0,0,1,5.609,20.308,1.114,1.114,0,0,1-.014.141l-6.31,38.7c0,.015-.005.03-.008.044a11.839,11.839,0,0,1-3.929,6.022c-3.32,2.85-7.968,4.284-13.857,4.284M656.21,99.179c-5.981,0-8.631,3.163-8.754,3.314a1.135,1.135,0,0,1-.858.418c-.118,0-11.832.225-18,5.489-7.357,6.28-16.5,25.784-21.288,36.851-6.416,14.816,2.078,20.983,10.543,25.6,9.1,4.963,33.017,12.117,51.405,14.263,17.62,2.054,20.137-7.569,20.285-8.214l6.294-38.6a31.765,31.765,0,0,0-5.4-19.138,1.12,1.12,0,0,1-.227-.829,8.294,8.294,0,0,0-2.469-6.423c-3.193-3.193-21.029-11.547-29.2-12.581a18.592,18.592,0,0,0-2.333-.152m40.746,39.232h0Z" transform="translate(-567.83 -91.315)" fill="#010270"/>
            <path id="Trazado_929776" data-name="Trazado 929776" d="M1228.863,187a48.861,48.861,0,0,1-12.027-1.387c-6.323-1.632-10.618-4.621-12.421-8.645a7.392,7.392,0,0,1,1.12-7.668l6.313-7.634a1.119,1.119,0,1,1,1.725,1.427l-6.313,7.634a5.138,5.138,0,0,0-.8,5.326c3.385,7.556,16.942,9.643,28.876,8.358a10.684,10.684,0,0,0,6.226-2.887l6.462-6.2q.038-.037.079-.069c.046-.037,4.688-3.589,10.21,3.1a1.119,1.119,0,1,1-1.726,1.426c-3.882-4.7-6.705-3.031-7.069-2.784l-6.407,6.146a12.934,12.934,0,0,1-7.536,3.5,62.929,62.929,0,0,1-6.711.364" transform="translate(-1133.957 -151.902)" fill="#010270"/>
            <path id="Trazado_929777" data-name="Trazado 929777" d="M927.167,328.354a.958.958,0,0,1-.765-1.533c.181-.239,4.584-5.812,17.393-1.37a.959.959,0,1,1-.629,1.813c-11.374-3.944-15.2.677-15.241.724a.967.967,0,0,1-.759.366" transform="translate(-872.467 -304.954)" fill="#010270"/>
            <g id="Grupo_1116124" data-name="Grupo 1116124" transform="translate(46.258 61.637)" opacity="0.2">
              <g id="Grupo_1116123" data-name="Grupo 1116123">
                <g id="Grupo_1116122" data-name="Grupo 1116122" clip-path="url(#clip-path-11)">
                  <path id="Trazado_929778" data-name="Trazado 929778" d="M799.947,1073.391a4.424,4.424,0,0,1-2.722-4.187c.023-2.046.587-4.913,3.312-6.21,4.478-2.132,6.8.959,5.837,4.251-.788,2.7-2.871,7.557-6.426,6.146" transform="translate(-797.225 -1062.291)" fill="#fff"/>
                </g>
              </g>
            </g>
            <path id="Trazado_929779" data-name="Trazado 929779" d="M732.2,591.234c-6.147,0-15.7-1.848-25.25-4.975-13.093-4.287-23.192-9.949-27.721-15.541a14.123,14.123,0,0,1-3.077-5.436c-1.01-3.192-1.5-8.394,1.873-15.047a.959.959,0,0,1,1.711.869c-5.836,11.5.6,18.014.878,18.286a.985.985,0,0,1,.078.085c4.287,5.324,14.075,10.777,26.856,14.961,11,3.6,22.342,5.527,27.573,4.682,8.834-1.429,9.217-2.953,12.88-17.529.553-2.2,1.179-4.692,1.917-7.508,2.221-8.471,1.551-15.389-1.937-20.007A13,13,0,0,0,742,539.589a.959.959,0,0,1,.531-1.844,14.665,14.665,0,0,1,6.911,5.073c2.734,3.561,5.359,10.225,2.338,21.749-.736,2.807-1.361,5.294-1.912,7.489-3.689,14.68-4.354,17.325-14.435,18.956a20.536,20.536,0,0,1-3.227.222" transform="translate(-636.216 -506.509)" fill="#010270"/>
            <path id="Trazado_929780" data-name="Trazado 929780" d="M799.154,447.2s3.468-6.2,6.891-2.625,7.954,12.047,22.133,13.966,17.271-2.026,21.535,1.919,2.559,12.153.746,18.87-2.878,15.138-11.514,15.245-40.511-6.741-48.933-19.842c0,0-3.274-3.355,1.763-14.229a134.816,134.816,0,0,1,7.378-13.3" transform="translate(-743.188 -417.735)" fill="#010270"/>
            <g id="Grupo_1116127" data-name="Grupo 1116127" transform="translate(47.193 42.19)" opacity="0.3">
              <g id="Grupo_1116126" data-name="Grupo 1116126">
                <g id="Grupo_1116125" data-name="Grupo 1116125" clip-path="url(#clip-path-12)">
                  <path id="Trazado_929781" data-name="Trazado 929781" d="M873.427,746.523c-1.813,6.716-2.878,15.14-11.514,15.246-8.514.106-39.629-6.553-48.565-19.3,10.976,11.076,38.481,16.836,46.406,16.74,8.635-.106,9.7-8.53,11.514-15.246,1.542-5.718,3.006-12.515.777-16.845.208.16.419.336.633.534,4.266,3.947,2.559,12.153.748,18.87" transform="translate(-813.348 -727.119)" fill="#010270"/>
                </g>
              </g>
            </g>
            <g id="Grupo_1116130" data-name="Grupo 1116130" transform="translate(53.519 30.36)" opacity="0.3">
              <g id="Grupo_1116129" data-name="Grupo 1116129">
                <g id="Grupo_1116128" data-name="Grupo 1116128" clip-path="url(#clip-path-13)">
                  <path id="Trazado_929782" data-name="Trazado 929782" d="M997.982,539.979l-6.31,38.7s-2.325,11.354-21.515,9.115c-16.756-1.954-37.049-7.813-47.782-12.464,2.226.892,42.1,16.618,55.672,3.563,13.964-13.433,13.324-35.609,12.045-43.071s-.531-14.818,4.478-11.939c.019.013.038.022.061.038a34.218,34.218,0,0,1,3.352,16.058" transform="translate(-922.375 -523.243)" fill="#010270"/>
                </g>
              </g>
            </g>
            <path id="Trazado_929783" data-name="Trazado 929783" d="M1935.252,937.663c-.771,7.876-7.018,13.264-13.635,12.435s-10.9-7.46-9.915-15.312,6.73-13.634,13.352-12.843c7.117.85,11.035,7.166,10.2,15.72" transform="translate(-1800.647 -868.381)" fill="#299adf"/>
            <g id="Grupo_1116133" data-name="Grupo 1116133" transform="translate(112.268 55.869)" opacity="0.3">
              <g id="Grupo_1116132" data-name="Grupo 1116132">
                <g id="Grupo_1116131" data-name="Grupo 1116131" clip-path="url(#clip-path-14)">
                  <path id="Trazado_929784" data-name="Trazado 929784" d="M1957.213,976.28c-.771,7.877-7.017,13.266-13.634,12.435a11.09,11.09,0,0,1-8.7-6.649,10.559,10.559,0,0,0,5.424,2.332c6.617.831,12.863-4.557,13.634-12.435a18.045,18.045,0,0,0-1.225-9.1c3.409,2.715,5.079,7.535,4.5,13.413" transform="translate(-1934.876 -962.867)" fill="#010270"/>
                </g>
              </g>
            </g>
            <g id="Grupo_1116136" data-name="Grupo 1116136" transform="translate(110.923 60.418)" opacity="0.48">
              <g id="Grupo_1116135" data-name="Grupo 1116135">
                <g id="Grupo_1116134" data-name="Grupo 1116134" clip-path="url(#clip-path-15)">
                  <path id="Trazado_929785" data-name="Trazado 929785" d="M1913.536,1043.256c2.224-3.313,6.023-2.292,5.544,1.812a20.86,20.86,0,0,0-.853,5.81c-.959,3.465-6.072,3.034-6.529-.905" transform="translate(-1911.698 -1041.281)" fill="#fff"/>
                </g>
              </g>
            </g>
            <path id="Trazado_929786" data-name="Trazado 929786" d="M1904.8,933.151a11.869,11.869,0,0,1-10.093-5.618,16.522,16.522,0,0,1-2.278-11.037c1.078-8.595,7.488-14.662,14.6-13.815,7.59.906,12.082,7.714,11.178,16.941a15.64,15.64,0,0,1-5.591,10.714,12.492,12.492,0,0,1-7.812,2.815m.9-28.31c-5.437,0-10.185,5.021-11.053,11.934a14.287,14.287,0,0,0,1.936,9.542,9.729,9.729,0,0,0,7.007,4.52,10.14,10.14,0,0,0,7.62-2.25,13.393,13.393,0,0,0,4.761-9.183c.788-8.046-2.83-13.737-9.216-14.5a8.912,8.912,0,0,0-1.056-.063m11.386,14.672h0Z" transform="translate(-1782.485 -850.231)" fill="#010270"/>
            <path id="Trazado_929787" data-name="Trazado 929787" d="M2024.233,990.493a7.518,7.518,0,0,1-.937-.058c-5.219-.655-8.5-6.352-7.637-13.251.872-6.952,5.547-11.925,10.646-11.32,5.531.655,8.609,5.976,7.841,13.554a13.32,13.32,0,0,1-4.625,9.132,8.509,8.509,0,0,1-5.288,1.943m1.224-22.761c-3.793,0-7.194,4.1-7.895,9.69-.729,5.814,1.838,10.59,5.972,11.109a6.346,6.346,0,0,0,4.791-1.482,11.4,11.4,0,0,0,3.911-7.825c.653-6.438-1.764-10.935-6.157-11.455a5.278,5.278,0,0,0-.622-.037" transform="translate(-1898.574 -909.773)" fill="#010270"/>
            <g id="Grupo_1116139" data-name="Grupo 1116139" transform="translate(50.634 26.497)" opacity="0.2">
              <g id="Grupo_1116138" data-name="Grupo 1116138">
                <g id="Grupo_1116137" data-name="Grupo 1116137" clip-path="url(#clip-path-16)">
                  <path id="Trazado_929788" data-name="Trazado 929788" d="M885.5,458.555s2.852-3.358,6.37-1.119c1.984,1.263,4.824,3.038-.453,11.514a93.992,93.992,0,0,0-8.3,17.36,5.263,5.263,0,0,1-6.422,3.327c-2.569-.755-4.883-2.527-3.753-6.608,2.239-8.083,12.553-24.473,12.553-24.473" transform="translate(-872.657 -456.666)" fill="#fff"/>
                </g>
              </g>
            </g>
            <path id="Trazado_929789" data-name="Trazado 929789" d="M822.945,479.97c-9.335,0-40.895-6.985-49.491-20.217-.606-.7-3.249-4.626,1.657-15.218a134.155,134.155,0,0,1,7.431-13.4c.3-.524,2.272-3.815,4.986-4.162a3.932,3.932,0,0,1,3.416,1.375c.583.609,1.2,1.354,1.849,2.144,3.276,3.974,8.227,9.98,19.72,11.535a55.573,55.573,0,0,0,13.519.259c3.569-.307,5.927-.51,8.539,1.907,4.48,4.144,3.139,11.977,1.021,19.824-.194.72-.377,1.446-.569,2.216-1.6,6.391-3.421,13.635-11.859,13.739h-.218m-34.965-51.109a1.636,1.636,0,0,0-.21.013c-1.553.2-3.14,2.455-3.574,3.229-.012.022-.025.043-.039.064a134.644,134.644,0,0,0-7.312,13.187c-4.6,9.933-1.951,13.13-1.924,13.161a.734.734,0,0,1,.1.133c8.029,12.489,39.118,19.4,47.919,19.4h.2c6.96-.086,8.447-6.012,10.021-12.287.186-.743.379-1.512.578-2.249,1.867-6.917,3.27-14.454-.471-17.915-1.99-1.841-3.582-1.7-7.071-1.4a57.249,57.249,0,0,1-13.941-.269c-12.238-1.656-17.477-8.011-20.943-12.216-.655-.794-1.22-1.48-1.754-2.037a2.209,2.209,0,0,0-1.578-.813m-4.621,2.774h0Z" transform="translate(-727.394 -402.17)" fill="#010270"/>
            <path id="Trazado_929790" data-name="Trazado 929790" d="M892.458,692.31h0a1.288,1.288,0,0,0,1.969.251c3.384-3.1,8.434-2.462,8.771,3.533a1.281,1.281,0,0,0,1.415,1.2l.327-.035a1.305,1.305,0,0,0,1.209-1.37c-.527-8.885-8.968-10.366-13.586-5.084a1.27,1.27,0,0,0-.1,1.506" transform="translate(-840.488 -647.842)" fill="#3fb1ea"/>
            <path id="Trazado_929791" data-name="Trazado 929791" d="M1470.627,915.664l.138.134a1.292,1.292,0,0,0,1.828-.021c2.977-3.084,7.564-2,7.835,3.456a1.307,1.307,0,0,0,1.3,1.258h.734a1.3,1.3,0,0,0,1.3-1.334c-.333-8.757-8.587-10.343-13.189-5.3a1.3,1.3,0,0,0,.059,1.8" transform="translate(-1384.925 -858.151)" fill="#3fb1ea"/>
            <g id="Grupo_1116142" data-name="Grupo 1116142" transform="translate(77.484 18.04)" opacity="0.3">
              <g id="Grupo_1116141" data-name="Grupo 1116141">
                <g id="Grupo_1116140" data-name="Grupo 1116140" clip-path="url(#clip-path-17)">
                  <path id="Trazado_929792" data-name="Trazado 929792" d="M1381.41,318.88c-1.829-1.612-4.3-3.1-6.636-2.264-4.478,1.6-8.031,8.443-15.371,9.873s-20.878-1.765-20.878-1.765l-3.134-1.673s16.887,3.8,24.777-.892,9.3-9.329,12.9-9.547,3.189-1.7,3.189-1.7a.01.01,0,0,1,.006,0,14.963,14.963,0,0,1,2.351,1.762,9.563,9.563,0,0,1,2.8,6.208" transform="translate(-1335.391 -310.907)" fill="#010270"/>
                </g>
              </g>
            </g>
            <path id="Trazado_929793" data-name="Trazado 929793" d="M702.7,2229.411a90.092,90.092,0,0,1-31.045-1.919c-14.095-3.521-15.352-10.5-15.438-12.272a3.444,3.444,0,0,1,0-.416l1.439-5.648,4.637-2.725s23.987-1.007,33.051.272a5.964,5.964,0,0,1,.649.131c8.331,2.188,6.707,22.576,6.707,22.576" transform="translate(-618.137 -2078.053)" fill="#299adf"/>
            <path id="Trazado_929794" data-name="Trazado 929794" d="M674.618,2212.873a89.555,89.555,0,0,1-21.42-2.526c-16.961-4.235-16.317-13.483-16.281-13.875a1.119,1.119,0,0,1,2.23.194c-.023.341-.342,7.78,14.593,11.509a90.539,90.539,0,0,0,29.719,2c.346-6.206-.211-19.717-6.456-20.6-8.339-1.177-29.867-.378-32.568-.272l-4.4,2.581a1.119,1.119,0,1,1-1.134-1.93l4.637-2.723a1.119,1.119,0,0,1,.52-.153c.984-.041,24.193-1,33.253.281,9.991,1.41,8.387,22.987,8.314,23.9a1.119,1.119,0,0,1-.956,1.019,76.585,76.585,0,0,1-10.055.585" transform="translate(-599.95 -2059.822)" fill="#010270"/>
            <path id="Trazado_929795" data-name="Trazado 929795" d="M148.482,1602.141v4.692l-12.793,8.1c-2.939-4.82-5.581-3.5-8,2.4l-.854,1.548a36.13,36.13,0,0,0-3.652-5.015c-2.2-2.5-5.1-4.9-7.861-4.474a7.866,7.866,0,0,0-3.1,1.129,6.486,6.486,0,0,0-2.869,4.414l-22.234-6.089a3.1,3.1,0,0,1-2.284-2.994v-3.176l-.8-.313a2.959,2.959,0,0,1-.451-.221h0a3.349,3.349,0,0,1-1.6-2.152l-6.237-26.913a3.129,3.129,0,0,1,3.784-3.751l37.535,9.061a5.811,5.811,0,0,1,4.4,4.938l1.446,11.715Z" transform="translate(-71.273 -1478.182)" fill="#b5b8c9"/>
            <g id="Grupo_1116145" data-name="Grupo 1116145" transform="translate(4.39 91.052)" opacity="0.6">
              <g id="Grupo_1116144" data-name="Grupo 1116144">
                <g id="Grupo_1116143" data-name="Grupo 1116143" clip-path="url(#clip-path-18)">
                  <path id="Trazado_929796" data-name="Trazado 929796" d="M121.469,1583.322l.147,1.2a5.8,5.8,0,0,0-4.151-3.822l-37.535-9.061a3.133,3.133,0,0,0-3.86,2.827l-.323-1.395a3.129,3.129,0,0,1,3.784-3.751l37.535,9.061a5.811,5.811,0,0,1,4.4,4.938" transform="translate(-75.663 -1569.233)" fill="#fff"/>
                </g>
              </g>
            </g>
            <g id="Grupo_1116148" data-name="Grupo 1116148" transform="translate(51.76 116.328)" opacity="0.6">
              <g id="Grupo_1116147" data-name="Grupo 1116147">
                <g id="Grupo_1116146" data-name="Grupo 1116146" clip-path="url(#clip-path-19)">
                  <path id="Trazado_929797" data-name="Trazado 929797" d="M917.507,2011.929v2.207l-25.167-6.991-.281-2.287Z" transform="translate(-892.059 -2004.858)" fill="#fff"/>
                </g>
              </g>
            </g>
            <path id="Trazado_929798" data-name="Trazado 929798" d="M108.673,1601.835a1.12,1.12,0,0,1-.967-.556c-1.571-2.693-6.493-9.55-10.375-8.947-4.585.713-5.026,4.512-5.03,4.55a1.12,1.12,0,0,1-1.409.966l-22.234-6.091a4.233,4.233,0,0,1-3.107-4.073v-2.411l-.092-.036a4.479,4.479,0,0,1-2.732-3.161l-6.237-26.914a4.249,4.249,0,0,1,5.137-5.093l37.534,9.061a6.963,6.963,0,0,1,5.252,5.889l1.354,10.974,24.847,6.9a1.119,1.119,0,0,1,.82,1.079v4.692a1.12,1.12,0,0,1-.52.946l-12.793,8.1a1.119,1.119,0,0,1-1.555-.363c-.978-1.6-1.91-2.456-2.618-2.4-.462.037-1.715.562-3.386,4.64a1.113,1.113,0,0,1-.056.116l-.854,1.548a1.119,1.119,0,0,1-.967.578h-.013m-1.678-5.543c.63.8,1.171,1.564,1.6,2.2,1.587-3.782,3.235-5.619,5.177-5.774,1.434-.118,2.774.711,4.079,2.516l11.346-7.185v-3.225l-23.131-6.426,2.054,16.635a1.119,1.119,0,0,1-.974,1.248,1.249,1.249,0,0,1-.15.009m-46.383-44.1a2.014,2.014,0,0,0-1.941,2.469l6.237,26.915a2.241,2.241,0,0,0,1.367,1.581l.8.314a1.12,1.12,0,0,1,.712,1.043v3.175a1.988,1.988,0,0,0,1.46,1.913l21.114,5.784a7.944,7.944,0,0,1,6.624-5.262c3.261-.507,6.478,2.1,8.861,4.794l-2.21-17.9v0l-1.446-11.715a4.713,4.713,0,0,0-3.555-3.987L61.1,1552.248a2.087,2.087,0,0,0-.49-.059" transform="translate(-53.107 -1460.017)" fill="#010270"/>
            <path id="Trazado_929799" data-name="Trazado 929799" d="M243.219,2136.214a1.116,1.116,0,0,1-.3-.041l-27.635-7.694a1.119,1.119,0,0,1,.6-2.157l27.635,7.694a1.12,1.12,0,0,1-.3,2.2" transform="translate(-202.02 -2002.907)" fill="#010270"/>
            <path id="Trazado_929800" data-name="Trazado 929800" d="M919.265,2130.726a1.12,1.12,0,0,1-.5-2.121l22.815-11.408a1.12,1.12,0,0,1,1,2l-22.815,11.408a1.118,1.118,0,0,1-.5.118" transform="translate(-864.871 -1994.239)" fill="#010270"/>
            <g id="Grupo_1116151" data-name="Grupo 1116151" transform="translate(21.939 102.422)" opacity="0.6">
              <g id="Grupo_1116150" data-name="Grupo 1116150">
                <g id="Grupo_1116149" data-name="Grupo 1116149" clip-path="url(#clip-path-20)">
                  <path id="Trazado_929801" data-name="Trazado 929801" d="M378.578,1770.962l-.478-3.341a.64.64,0,0,1,.086-.363l1.132-1.832a.449.449,0,0,1,.47-.215l5.954,1.194a.47.47,0,0,1,.338.261l1.2,2.09a1.046,1.046,0,0,1,.1.382l.465,3.805a.463.463,0,0,1-.565.48l-8.2-1.874a.645.645,0,0,1-.5-.588" transform="translate(-378.099 -1765.203)" fill="#fff"/>
                </g>
              </g>
            </g>
            <path id="Trazado_929802" data-name="Trazado 929802" d="M370.31,1759.939l-.478-3.341a.64.64,0,0,1,.086-.363l1.132-1.832a.449.449,0,0,1,.47-.215l5.954,1.194a.47.47,0,0,1,.338.261l1.2,2.09a1.046,1.046,0,0,1,.1.382l.465,3.805a.463.463,0,0,1-.565.48l-8.2-1.874a.645.645,0,0,1-.5-.588" transform="translate(-348.372 -1652.397)" fill="#010270"/>
            <path id="Trazado_929803" data-name="Trazado 929803" d="M895.538,2151.635a.8.8,0,0,1-.336-1.526l5.336-2.466-6.09-2.467a.8.8,0,0,1,.6-1.482l7.8,3.16a.8.8,0,0,1,.035,1.467l-7.011,3.24a.8.8,0,0,1-.335.074" transform="translate(-842.078 -2019.256)" fill="#010270"/>
            <path id="Trazado_929804" data-name="Trazado 929804" d="M890.475,2075.156a.8.8,0,0,1-.358-1.515l3.647-1.82-8.672-2.812a.8.8,0,0,1,.493-1.521l10.532,3.414a.8.8,0,0,1,.111,1.476l-5.4,2.693a.8.8,0,0,1-.357.084" transform="translate(-833.216 -1947.489)" fill="#010270"/>
            <g id="Grupo_1116154" data-name="Grupo 1116154" transform="translate(11.325 103.065)" opacity="0.3">
              <g id="Grupo_1116153" data-name="Grupo 1116153">
                <g id="Grupo_1116152" data-name="Grupo 1116152" clip-path="url(#clip-path-21)">
                  <path id="Trazado_929805" data-name="Trazado 929805" d="M237.369,1809l-1.605-.109c-2.2-2.5-5.1-4.9-7.861-4.474a7.862,7.862,0,0,0-3.1,1.129l-21.665-6.253-6.975-2.127h0l-.982-2.344c25.423,8.7,40.755,5.8,37.419-18.55l1.075,2.136Z" transform="translate(-195.175 -1776.275)" fill="#010270"/>
                </g>
              </g>
            </g>
            <g id="Grupo_1116157" data-name="Grupo 1116157" transform="translate(13.564 128.34)" opacity="0.3">
              <g id="Grupo_1116156" data-name="Grupo 1116156">
                <g id="Grupo_1116155" data-name="Grupo 1116155" clip-path="url(#clip-path-22)">
                  <path id="Trazado_929806" data-name="Trazado 929806" d="M256.494,2214.352c-3.047,1.694-9.311,1.6-22.733-2.469l2.344,1.753,21.588,5.7,2.026-3.357" transform="translate(-233.761 -2211.882)" fill="#010270"/>
                </g>
              </g>
            </g>
            <g id="Grupo_1116160" data-name="Grupo 1116160" transform="translate(53.215 124.493)" opacity="0.3">
              <g id="Grupo_1116159" data-name="Grupo 1116159">
                <g id="Grupo_1116158" data-name="Grupo 1116158" clip-path="url(#clip-path-23)">
                  <path id="Trazado_929807" data-name="Trazado 929807" d="M940.057,2145.58c-.276.138-22.925,11.279-22.925,11.279s2.3,4.233,2.351,4.073,2.719-5.544,2.719-5.544l3.208-.4,3.185,2.429,12.317-7.569" transform="translate(-917.132 -2145.58)" fill="#010270"/>
                </g>
              </g>
            </g>
            <g id="Grupo_1116163" data-name="Grupo 1116163" transform="translate(9.41 97.096)" opacity="0.2">
              <g id="Grupo_1116162" data-name="Grupo 1116162">
                <g id="Grupo_1116161" data-name="Grupo 1116161" clip-path="url(#clip-path-24)">
                  <path id="Trazado_929808" data-name="Trazado 929808" d="M168.112,1687.148l-2.984-.637a1.34,1.34,0,0,1-1.034-1.046l-1.884-10.279a1.489,1.489,0,0,1,1.81-1.743l2.735.662a1.492,1.492,0,0,1,1.119,1.187l1.632,10.508a1.169,1.169,0,0,1-1.395,1.348" transform="translate(-162.18 -1673.4)" fill="#fff"/>
                </g>
              </g>
            </g>
            <g id="Grupo_1116166" data-name="Grupo 1116166" transform="translate(12.698 114.052)" opacity="0.2">
              <g id="Grupo_1116165" data-name="Grupo 1116165">
                <g id="Grupo_1116164" data-name="Grupo 1116164" clip-path="url(#clip-path-25)">
                  <path id="Trazado_929809" data-name="Trazado 929809" d="M222.7,1971.488l-2.309-.812a1.491,1.491,0,0,1-.966-1.113l-.572-2.842a.91.91,0,0,1,1.087-1.069l2.994.654a1.756,1.756,0,0,1,1.354,1.407l.376,2.109a1.492,1.492,0,0,1-1.964,1.666" transform="translate(-218.838 -1965.63)" fill="#fff"/>
                </g>
              </g>
            </g>
            <path id="Trazado_929810" data-name="Trazado 929810" d="M1093.5,2352.8l-.405,3.444-1.783-2.974Z" transform="translate(-1027.987 -2216.287)" fill="#010270"/>
            <g id="Grupo_1116169" data-name="Grupo 1116169" transform="translate(38.081 128.782)" opacity="0.3">
              <g id="Grupo_1116168" data-name="Grupo 1116168">
                <g id="Grupo_1116167" data-name="Grupo 1116167" clip-path="url(#clip-path-26)">
                  <path id="Trazado_929811" data-name="Trazado 929811" d="M702.794,2242.071a90.092,90.092,0,0,1-31.045-1.919c-14.095-3.521-15.352-10.5-15.438-12.272a11.117,11.117,0,0,1,1.893-3.16c-.72,2.079.16,4.877,5.037,8.955s29.664,7.116,34.7,2.559-1.279-13.333-1.279-13.333l-13.673,6.169-.8-2.111,13.9-7.465c8.331,2.188,6.707,22.576,6.707,22.576" transform="translate(-656.311 -2219.494)" fill="#010270"/>
                </g>
              </g>
            </g>
            <g id="Grupo_1116174" data-name="Grupo 1116174" transform="translate(67.65 139.894)" opacity="0.4" style="isolation: isolate">
              <g id="Grupo_1116173" data-name="Grupo 1116173">
                <g id="Grupo_1116172" data-name="Grupo 1116172" clip-path="url(#clip-path-27)">
                  <g id="Grupo_1116171" data-name="Grupo 1116171" transform="translate(0)">
                    <g id="Grupo_1116170" data-name="Grupo 1116170" clip-path="url(#clip-path-28)">
                      <rect id="Rectángulo_413566" data-name="Rectángulo 413566" width="13.86" height="12.038" transform="matrix(0.873, -0.488, 0.488, 0.873, -3.24, 1.369)" fill="url(#linear-gradient)"/>
                    </g>
                  </g>
                </g>
              </g>
            </g>
            <g id="Grupo_1116177" data-name="Grupo 1116177" transform="translate(82.645 131.85)" opacity="0.3">
              <g id="Grupo_1116176" data-name="Grupo 1116176">
                <g id="Grupo_1116175" data-name="Grupo 1116175" clip-path="url(#clip-path-29)">
                  <path id="Trazado_929813" data-name="Trazado 929813" d="M1425.775,2277.033l3.358-1.984-4.8-2.693.373,1.439" transform="translate(-1424.336 -2272.356)" fill="#010270"/>
                </g>
              </g>
            </g>
            <g id="Grupo_1116180" data-name="Grupo 1116180" transform="translate(85.043 134.909)" opacity="0.3">
              <g id="Grupo_1116179" data-name="Grupo 1116179">
                <g id="Grupo_1116178" data-name="Grupo 1116178" clip-path="url(#clip-path-30)">
                  <path id="Trazado_929814" data-name="Trazado 929814" d="M1470.2,2325.082s2.3,6-4.527,7.548v3.412a12.007,12.007,0,0,0,10.5-6.823" transform="translate(-1465.676 -2325.082)" fill="#010270"/>
                </g>
              </g>
            </g>
            <path id="Trazado_929815" data-name="Trazado 929815" d="M752.061,1415.062c-7.289,0-18.176-1.593-29.529-4.432-8.04-2.011-27.609-7.569-35.638-15.736a.959.959,0,0,1,1.368-1.345c5.333,5.425,18.318,11.114,34.735,15.22,14.535,3.635,28.713,5.243,34.48,3.909a.96.96,0,0,1,.432,1.87,27.086,27.086,0,0,1-5.849.514" transform="translate(-646.779 -1312.42)" fill="#010270"/>
            <path id="Trazado_929816" data-name="Trazado 929816" d="M1365.463,1772.151l20.473,11a55.073,55.073,0,0,0,10.021-24.023c1.919-13.8-7.889-15.822-14.392-14.969s-10.661,10.661-11.407,13.966-4.7,14.028-4.7,14.028" transform="translate(-1286.234 -1642.799)" fill="#fff"/>
            <g id="Grupo_1116183" data-name="Grupo 1116183" transform="translate(96.986 101.901)" opacity="0.3">
              <g id="Grupo_1116182" data-name="Grupo 1116182">
                <g id="Grupo_1116181" data-name="Grupo 1116181" clip-path="url(#clip-path-31)">
                  <path id="Trazado_929817" data-name="Trazado 929817" d="M1684.247,1770.638a55.065,55.065,0,0,1-10.02,24.022l-2.715-1.458a55.218,55.218,0,0,0,9.931-23.907c.975-7.017-1.084-10.989-4.2-13.084,4.538,1.458,8.252,5.453,7,14.427" transform="translate(-1671.512 -1756.211)" fill="#010270"/>
                </g>
              </g>
            </g>
            <g id="Grupo_1116186" data-name="Grupo 1116186" transform="translate(79.23 101.192)" opacity="0.6">
              <g id="Grupo_1116185" data-name="Grupo 1116185">
                <g id="Grupo_1116184" data-name="Grupo 1116184" clip-path="url(#clip-path-32)">
                  <path id="Trazado_929818" data-name="Trazado 929818" d="M1393.416,1747.441c-3.019-2.082-7.059-2.367-10.282-1.944-6.505.854-10.663,10.663-11.408,13.967-.656,2.914-3.806,11.594-4.542,13.605l-1.7-.911s3.947-10.721,4.695-14.027,4.9-13.113,11.405-13.964c3.819-.5,8.779-.01,11.83,3.275" transform="translate(-1365.486 -1743.998)" fill="#fff"/>
                </g>
              </g>
            </g>
            <path id="Trazado_929819" data-name="Trazado 929819" d="M1367.76,1766.154a1.118,1.118,0,0,1-.529-.133l-20.473-11a1.119,1.119,0,0,1-.521-1.373c.039-.107,3.932-10.692,4.654-13.888.61-2.7,4.725-13.829,12.354-14.829,2.45-.322,8.578-.635,12.565,3.382,2.833,2.856,3.87,7.179,3.081,12.85a55.666,55.666,0,0,1-10.252,24.564,1.12,1.12,0,0,1-.878.424m-19.088-12.644,18.765,10.08a54.539,54.539,0,0,0,9.237-22.732c.688-4.943-.138-8.632-2.453-10.965-3.281-3.307-8.566-3.018-10.685-2.74-5.828.764-9.761,10-10.461,13.1-.632,2.8-3.425,10.568-4.4,13.254" transform="translate(-1268.059 -1624.683)" fill="#010270"/>
            <path id="Trazado_929820" data-name="Trazado 929820" d="M1493.122,1970.539l5.39-13.9s2.639-7.329,7.916-6.129,2.4,8.475.4,13.033-5.744,11.277-5.744,11.277Z" transform="translate(-1406.486 -1837.207)" fill="#28328e"/>
            <g id="Grupo_1116189" data-name="Grupo 1116189" transform="translate(86.637 113.167)" opacity="0.3">
              <g id="Grupo_1116188" data-name="Grupo 1116188">
                <g id="Grupo_1116187" data-name="Grupo 1116187" clip-path="url(#clip-path-33)">
                  <path id="Trazado_929821" data-name="Trazado 929821" d="M1509.373,1953.576a4.376,4.376,0,0,0-1.219-.457c-5.277-1.2-7.916,6.131-7.916,6.131l-4.845,12.5-2.248-1.209,5.389-13.906s2.639-7.327,7.916-6.128a3.5,3.5,0,0,1,2.923,3.07" transform="translate(-1493.145 -1950.372)" fill="#010270"/>
                </g>
              </g>
            </g>
            <path id="Trazado_929822" data-name="Trazado 929822" d="M1485.5,1960.112a.953.953,0,0,1-.453-.115l-7.962-4.277a.959.959,0,0,1-.441-1.192l5.39-13.9c.111-.31,2.989-8.09,9.023-6.718a4.456,4.456,0,0,1,3.181,2.339c1.482,2.94-.141,7.512-2.115,12.015-1.994,4.547-5.746,11.291-5.784,11.359a.959.959,0,0,1-.839.492m-6.76-5.681,6.379,3.427c1.056-1.931,3.7-6.838,5.247-10.367,1.029-2.347,3.439-7.842,2.159-10.381a2.6,2.6,0,0,0-1.893-1.331c-4.38-.995-6.777,5.454-6.8,5.52Z" transform="translate(-1390.906 -1821.543)" fill="#010270"/>
            <path id="Trazado_929823" data-name="Trazado 929823" d="M844.263,1748.939a.955.955,0,0,1-.305-.05l-11.134-3.735a.96.96,0,0,1-.654-.91v-7.919c-22.482-6.862-22.683-7.017-22.861-7.154a.96.96,0,0,1,1.007-1.622c.96.367,14.29,4.462,23.094,7.148a.959.959,0,0,1,.679.918v7.939l10.479,3.515a.96.96,0,0,1-.3,1.87m-33.784-21.289h0m0,0h0" transform="translate(-761.998 -1627.219)" fill="#010270"/>
            <path id="Trazado_929824" data-name="Trazado 929824" d="M729.78,2740.6a89.2,89.2,0,0,1-13.867-1.089,72.646,72.646,0,0,1-14.607-3.7.96.96,0,0,1,.719-1.78,84.349,84.349,0,0,0,47.829,2.151.96.96,0,0,1,.482,1.857,81.88,81.88,0,0,1-20.556,2.563" transform="translate(-660.048 -2575.329)" fill="#010270"/>
            <g id="Grupo_1116192" data-name="Grupo 1116192" transform="translate(54.395 155.683)" opacity="0.3">
              <g id="Grupo_1116191" data-name="Grupo 1116191">
                <g id="Grupo_1116190" data-name="Grupo 1116190" clip-path="url(#clip-path-34)">
                  <path id="Trazado_929825" data-name="Trazado 929825" d="M975.169,2683.111c-.691,2.373-2.667,8.747-4.644,11.242-1.925,2.427-19.026,4.986-33.047,2.207,22.013,2.578,20.686-11.789,20.686-11.789Z" transform="translate(-937.478 -2683.111)" fill="#010270"/>
                </g>
              </g>
            </g>
            <path id="Trazado_929826" data-name="Trazado 929826" d="M436.4,1432.713a.955.955,0,0,1-.245-.032l-13.831-3.645a.959.959,0,1,1,.489-1.855l13.831,3.645a.96.96,0,0,1-.244,1.887" transform="translate(-397.142 -1344.34)" fill="#010270"/>
            <g id="Grupo_1116195" data-name="Grupo 1116195" transform="translate(16.755 85.075)" opacity="0.3">
              <g id="Grupo_1116194" data-name="Grupo 1116194">
                <g id="Grupo_1116193" data-name="Grupo 1116193" clip-path="url(#clip-path-35)">
                  <path id="Trazado_929827" data-name="Trazado 929827" d="M311.911,1466.224c-2,8.311-8.811,10.341-21.368,4.877l-1.771,3.049,19.909,5,1.071-4.929" transform="translate(-288.772 -1466.224)" fill="#010270"/>
                </g>
              </g>
            </g>
            <path id="Trazado_929828" data-name="Trazado 929828" d="M422.449,733.751a1.12,1.12,0,0,1-1-1.612L425.429,724a1.117,1.117,0,0,1,1.031-.686h0a1.119,1.119,0,0,1,1.005,1.612l-4.014,8.2a1.12,1.12,0,0,1-1.006.627" transform="translate(-396.883 -681.346)" fill="#010270"/>
            <path id="Trazado_929829" data-name="Trazado 929829" d="M393.145,862.026l-3.23-.3,2.655-1.865Z" transform="translate(-367.291 -809.97)" fill="#010270"/>
            <path id="Trazado_929830" data-name="Trazado 929830" d="M437.626,590.371a3.027,3.027,0,0,1-1.544-.426l-9.862-5.829a3.08,3.08,0,0,1-1.2-3.972l14.9-30.747a2.973,2.973,0,0,1,3.827-1.445l4.111,1.726a.959.959,0,0,1-.743,1.769l-4.111-1.726a1.054,1.054,0,0,0-1.357.513l-14.9,30.747a1.15,1.15,0,0,0,.447,1.483l9.862,5.829a1.1,1.1,0,0,0,1.313-.139l.308-.284a.96.96,0,0,1,1.3,1.411l-.308.284a3.014,3.014,0,0,1-2.047.805" transform="translate(-400.077 -515.94)" fill="#010270"/>
            <path id="Trazado_929831" data-name="Trazado 929831" d="M462.229,498.161a.8.8,0,0,1-.714-1.159l10.912-21.679c2.151-4.19,5.644-3.694,5.791-3.67a.8.8,0,0,1-.241,1.581c-.113-.015-2.526-.3-4.125,2.814l-10.909,21.674a.8.8,0,0,1-.715.44" transform="translate(-434.656 -444.258)" fill="#010270"/>
            <path id="Trazado_929832" data-name="Trazado 929832" d="M352.128,1063.535a.8.8,0,0,1-.374-.094,3.715,3.715,0,0,1-1.813-4.93l1.884-4.173a.8.8,0,0,1,1.457.658l-1.886,4.177a2.121,2.121,0,0,0,1.107,2.856.8.8,0,0,1-.376,1.506" transform="translate(-329.323 -992.719)" fill="#010270"/>
            <g id="Grupo_1116198" data-name="Grupo 1116198" transform="translate(15.44 70.702)" opacity="0.3">
              <g id="Grupo_1116197" data-name="Grupo 1116197">
                <g id="Grupo_1116196" data-name="Grupo 1116196" clip-path="url(#clip-path-36)">
                  <path id="Trazado_929833" data-name="Trazado 929833" d="M274.755,1218.506q6.068,9.314-8.655,13.6h3.15s-1.525,1.546-.265,5.917c0,0,8.045-8.661,13.248-11.06l-.368-4.679" transform="translate(-266.1 -1218.506)" fill="#010270"/>
                </g>
              </g>
            </g>
            <g id="Grupo_1116201" data-name="Grupo 1116201" transform="translate(22.162 64.899)" opacity="0.3">
              <g id="Grupo_1116200" data-name="Grupo 1116200">
                <g id="Grupo_1116199" data-name="Grupo 1116199" clip-path="url(#clip-path-37)">
                  <path id="Trazado_929834" data-name="Trazado 929834" d="M394.779,1118.509s1.1,9.9-12.829,3.936l.462,1.608,12.937,6.352,2.924.046,2.314-2.16-3.7-6.157" transform="translate(-381.95 -1118.509)" fill="#010270"/>
                </g>
              </g>
            </g>
            <path id="Trazado_929835" data-name="Trazado 929835" d="M44.47,40.081a13.174,13.174,0,1,0-4.412,4.407l6.106,1.369Z" transform="translate(-18.85 -18.852)" fill="#fff"/>
            <g id="Grupo_1116204" data-name="Grupo 1116204" transform="translate(1.132 0.873)" opacity="0.5">
              <g id="Grupo_1116203" data-name="Grupo 1116203">
                <g id="Grupo_1116202" data-name="Grupo 1116202" clip-path="url(#clip-path-38)">
                  <path id="Trazado_929836" data-name="Trazado 929836" d="M31.64,17.931A13.2,13.2,0,0,1,45.892,28.3a13.194,13.194,0,1,0-26.1,2.686A13.2,13.2,0,0,1,31.64,17.931" transform="translate(-19.503 -15.048)" fill="#fff"/>
                </g>
              </g>
            </g>
            <path id="Trazado_929837" data-name="Trazado 929837" d="M91.615,202.933a1.885,1.885,0,1,1-1.885,1.885,1.885,1.885,0,0,1,1.885-1.885" transform="translate(-84.524 -191.158)" fill="#000072"/>
            <path id="Trazado_929838" data-name="Trazado 929838" d="M218.114,202.933a1.885,1.885,0,1,1-1.885,1.885,1.885,1.885,0,0,1,1.885-1.885" transform="translate(-203.683 -191.158)" fill="#000072"/>
            <path id="Trazado_929839" data-name="Trazado 929839" d="M344.613,202.933a1.885,1.885,0,1,1-1.885,1.885,1.885,1.885,0,0,1,1.885-1.885" transform="translate(-322.842 -191.158)" fill="#000072"/>
            <path id="Trazado_929840" data-name="Trazado 929840" d="M14.331,28.716A14.357,14.357,0,0,1,3.222,5.3a14.356,14.356,0,0,1,25.416,7.595,14.216,14.216,0,0,1-1.763,8.493l1.553,5.3A1.161,1.161,0,0,1,27.06,28.14L21.4,26.87a14.225,14.225,0,0,1-5.576,1.769,14.613,14.613,0,0,1-1.493.077M14.38,2.322a12.287,12.287,0,0,0-1.252.064A12.035,12.035,0,0,0,6.761,23.693a12.04,12.04,0,0,0,13.843.953,1.16,1.16,0,0,1,.857-.141l4.184.938-1.14-3.887a1.161,1.161,0,0,1,.123-.932,12.035,12.035,0,0,0-10.25-18.3" transform="translate(0 -0.001)" fill="#000072"/>
            <g id="Grupo_1116207" data-name="Grupo 1116207" transform="translate(1.162 13.66)" opacity="0.3">
              <g id="Grupo_1116206" data-name="Grupo 1116206">
                <g id="Grupo_1116205" data-name="Grupo 1116205" clip-path="url(#clip-path-39)">
                  <path id="Trazado_929841" data-name="Trazado 929841" d="M44.553,242.866a15.243,15.243,0,0,1-24.515-7.443,13.2,13.2,0,0,0,14.526,13.824,13.141,13.141,0,0,0,5.5-1.847l6.106,1.369-1.694-5.777c.025-.042.049-.085.074-.127" transform="translate(-20.02 -235.423)" fill="#000072"/>
                </g>
              </g>
            </g>
            <g id="Grupo_1116212" data-name="Grupo 1116212" transform="translate(39.014 24.401)" opacity="0.68" style="isolation: isolate">
              <g id="Grupo_1116211" data-name="Grupo 1116211">
                <g id="Grupo_1116210" data-name="Grupo 1116210" clip-path="url(#clip-path-40)">
                  <g id="Grupo_1116209" data-name="Grupo 1116209" transform="translate(0 0)">
                    <g id="Grupo_1116208" data-name="Grupo 1116208" clip-path="url(#clip-path-41)">
                      <rect id="Rectángulo_413579" data-name="Rectángulo 413579" width="42.912" height="42.912" transform="translate(0 0)" fill="url(#radial-gradient)"/>
                    </g>
                  </g>
                </g>
              </g>
            </g>
            <g id="Grupo_1116217" data-name="Grupo 1116217" transform="translate(71.739 35.542)" opacity="0.68" style="isolation: isolate">
              <g id="Grupo_1116216" data-name="Grupo 1116216">
                <g id="Grupo_1116215" data-name="Grupo 1116215" clip-path="url(#clip-path-40)">
                  <g id="Grupo_1116214" data-name="Grupo 1116214" transform="translate(0 0)">
                    <g id="Grupo_1116213" data-name="Grupo 1116213" clip-path="url(#clip-path-43)">
                      <rect id="Rectángulo_413581" data-name="Rectángulo 413581" width="42.912" height="42.912" transform="translate(0 0)" fill="url(#radial-gradient-2)"/>
                    </g>
                  </g>
                </g>
              </g>
            </g>
          </g>
        </g>
      </g>
    </g>
  </g>
</svg>
